%TF.GenerationSoftware,KiCad,Pcbnew,8.0.6*%
%TF.CreationDate,2025-04-24T23:00:42-04:00*%
%TF.ProjectId,hcsolder,6863736f-6c64-4657-922e-6b696361645f,rev?*%
%TF.SameCoordinates,Original*%
%TF.FileFunction,Copper,L1,Top*%
%TF.FilePolarity,Positive*%
%FSLAX46Y46*%
G04 Gerber Fmt 4.6, Leading zero omitted, Abs format (unit mm)*
G04 Created by KiCad (PCBNEW 8.0.6) date 2025-04-24 23:00:42*
%MOMM*%
%LPD*%
G01*
G04 APERTURE LIST*
G04 Aperture macros list*
%AMRoundRect*
0 Rectangle with rounded corners*
0 $1 Rounding radius*
0 $2 $3 $4 $5 $6 $7 $8 $9 X,Y pos of 4 corners*
0 Add a 4 corners polygon primitive as box body*
4,1,4,$2,$3,$4,$5,$6,$7,$8,$9,$2,$3,0*
0 Add four circle primitives for the rounded corners*
1,1,$1+$1,$2,$3*
1,1,$1+$1,$4,$5*
1,1,$1+$1,$6,$7*
1,1,$1+$1,$8,$9*
0 Add four rect primitives between the rounded corners*
20,1,$1+$1,$2,$3,$4,$5,0*
20,1,$1+$1,$4,$5,$6,$7,0*
20,1,$1+$1,$6,$7,$8,$9,0*
20,1,$1+$1,$8,$9,$2,$3,0*%
%AMHorizOval*
0 Thick line with rounded ends*
0 $1 width*
0 $2 $3 position (X,Y) of the first rounded end (center of the circle)*
0 $4 $5 position (X,Y) of the second rounded end (center of the circle)*
0 Add line between two ends*
20,1,$1,$2,$3,$4,$5,0*
0 Add two circle primitives to create the rounded ends*
1,1,$1,$2,$3*
1,1,$1,$4,$5*%
G04 Aperture macros list end*
%ADD10C,0.050000*%
%TA.AperFunction,NonConductor*%
%ADD11C,0.050000*%
%TD*%
%TA.AperFunction,ComponentPad*%
%ADD12C,1.600000*%
%TD*%
%TA.AperFunction,ComponentPad*%
%ADD13HorizOval,1.600000X0.000000X0.000000X0.000000X0.000000X0*%
%TD*%
%TA.AperFunction,ComponentPad*%
%ADD14C,2.000000*%
%TD*%
%TA.AperFunction,ComponentPad*%
%ADD15O,1.600000X1.600000*%
%TD*%
%TA.AperFunction,ComponentPad*%
%ADD16R,1.800000X1.800000*%
%TD*%
%TA.AperFunction,ComponentPad*%
%ADD17C,1.800000*%
%TD*%
%TA.AperFunction,ComponentPad*%
%ADD18R,1.100000X1.800000*%
%TD*%
%TA.AperFunction,ComponentPad*%
%ADD19RoundRect,0.275000X-0.275000X-0.625000X0.275000X-0.625000X0.275000X0.625000X-0.275000X0.625000X0*%
%TD*%
%TA.AperFunction,SMDPad,CuDef*%
%ADD20C,17.800000*%
%TD*%
%TA.AperFunction,SMDPad,CuDef*%
%ADD21R,1.270000X5.080000*%
%TD*%
%TA.AperFunction,ComponentPad*%
%ADD22C,2.800000*%
%TD*%
%TA.AperFunction,ComponentPad*%
%ADD23HorizOval,1.600000X0.000000X0.000000X0.000000X0.000000X0*%
%TD*%
%TA.AperFunction,ViaPad*%
%ADD24C,5.500000*%
%TD*%
%TA.AperFunction,ViaPad*%
%ADD25C,0.600000*%
%TD*%
%TA.AperFunction,Conductor*%
%ADD26C,0.200000*%
%TD*%
G04 APERTURE END LIST*
D10*
D11*
X115140036Y-68905614D02*
X115318608Y-69405614D01*
X115318608Y-69405614D02*
X115497179Y-68905614D01*
X115890037Y-69405614D02*
X115818608Y-69369900D01*
X115818608Y-69369900D02*
X115782894Y-69334185D01*
X115782894Y-69334185D02*
X115747180Y-69262757D01*
X115747180Y-69262757D02*
X115747180Y-69048471D01*
X115747180Y-69048471D02*
X115782894Y-68977042D01*
X115782894Y-68977042D02*
X115818608Y-68941328D01*
X115818608Y-68941328D02*
X115890037Y-68905614D01*
X115890037Y-68905614D02*
X115997180Y-68905614D01*
X115997180Y-68905614D02*
X116068608Y-68941328D01*
X116068608Y-68941328D02*
X116104323Y-68977042D01*
X116104323Y-68977042D02*
X116140037Y-69048471D01*
X116140037Y-69048471D02*
X116140037Y-69262757D01*
X116140037Y-69262757D02*
X116104323Y-69334185D01*
X116104323Y-69334185D02*
X116068608Y-69369900D01*
X116068608Y-69369900D02*
X115997180Y-69405614D01*
X115997180Y-69405614D02*
X115890037Y-69405614D01*
X116568608Y-69405614D02*
X116497179Y-69369900D01*
X116497179Y-69369900D02*
X116461465Y-69298471D01*
X116461465Y-69298471D02*
X116461465Y-68655614D01*
X116747179Y-68905614D02*
X117032893Y-68905614D01*
X116854322Y-68655614D02*
X116854322Y-69298471D01*
X116854322Y-69298471D02*
X116890036Y-69369900D01*
X116890036Y-69369900D02*
X116961465Y-69405614D01*
X116961465Y-69405614D02*
X117032893Y-69405614D01*
X117604322Y-69405614D02*
X117604322Y-69012757D01*
X117604322Y-69012757D02*
X117568607Y-68941328D01*
X117568607Y-68941328D02*
X117497179Y-68905614D01*
X117497179Y-68905614D02*
X117354322Y-68905614D01*
X117354322Y-68905614D02*
X117282893Y-68941328D01*
X117604322Y-69369900D02*
X117532893Y-69405614D01*
X117532893Y-69405614D02*
X117354322Y-69405614D01*
X117354322Y-69405614D02*
X117282893Y-69369900D01*
X117282893Y-69369900D02*
X117247179Y-69298471D01*
X117247179Y-69298471D02*
X117247179Y-69227042D01*
X117247179Y-69227042D02*
X117282893Y-69155614D01*
X117282893Y-69155614D02*
X117354322Y-69119900D01*
X117354322Y-69119900D02*
X117532893Y-69119900D01*
X117532893Y-69119900D02*
X117604322Y-69084185D01*
X118282893Y-68905614D02*
X118282893Y-69512757D01*
X118282893Y-69512757D02*
X118247178Y-69584185D01*
X118247178Y-69584185D02*
X118211464Y-69619900D01*
X118211464Y-69619900D02*
X118140035Y-69655614D01*
X118140035Y-69655614D02*
X118032893Y-69655614D01*
X118032893Y-69655614D02*
X117961464Y-69619900D01*
X118282893Y-69369900D02*
X118211464Y-69405614D01*
X118211464Y-69405614D02*
X118068607Y-69405614D01*
X118068607Y-69405614D02*
X117997178Y-69369900D01*
X117997178Y-69369900D02*
X117961464Y-69334185D01*
X117961464Y-69334185D02*
X117925750Y-69262757D01*
X117925750Y-69262757D02*
X117925750Y-69048471D01*
X117925750Y-69048471D02*
X117961464Y-68977042D01*
X117961464Y-68977042D02*
X117997178Y-68941328D01*
X117997178Y-68941328D02*
X118068607Y-68905614D01*
X118068607Y-68905614D02*
X118211464Y-68905614D01*
X118211464Y-68905614D02*
X118282893Y-68941328D01*
X118925749Y-69369900D02*
X118854321Y-69405614D01*
X118854321Y-69405614D02*
X118711464Y-69405614D01*
X118711464Y-69405614D02*
X118640035Y-69369900D01*
X118640035Y-69369900D02*
X118604321Y-69298471D01*
X118604321Y-69298471D02*
X118604321Y-69012757D01*
X118604321Y-69012757D02*
X118640035Y-68941328D01*
X118640035Y-68941328D02*
X118711464Y-68905614D01*
X118711464Y-68905614D02*
X118854321Y-68905614D01*
X118854321Y-68905614D02*
X118925749Y-68941328D01*
X118925749Y-68941328D02*
X118961464Y-69012757D01*
X118961464Y-69012757D02*
X118961464Y-69084185D01*
X118961464Y-69084185D02*
X118604321Y-69155614D01*
X120175750Y-69405614D02*
X120175750Y-68655614D01*
X120175750Y-69369900D02*
X120104321Y-69405614D01*
X120104321Y-69405614D02*
X119961464Y-69405614D01*
X119961464Y-69405614D02*
X119890035Y-69369900D01*
X119890035Y-69369900D02*
X119854321Y-69334185D01*
X119854321Y-69334185D02*
X119818607Y-69262757D01*
X119818607Y-69262757D02*
X119818607Y-69048471D01*
X119818607Y-69048471D02*
X119854321Y-68977042D01*
X119854321Y-68977042D02*
X119890035Y-68941328D01*
X119890035Y-68941328D02*
X119961464Y-68905614D01*
X119961464Y-68905614D02*
X120104321Y-68905614D01*
X120104321Y-68905614D02*
X120175750Y-68941328D01*
X120532892Y-69405614D02*
X120532892Y-68905614D01*
X120532892Y-68655614D02*
X120497178Y-68691328D01*
X120497178Y-68691328D02*
X120532892Y-68727042D01*
X120532892Y-68727042D02*
X120568606Y-68691328D01*
X120568606Y-68691328D02*
X120532892Y-68655614D01*
X120532892Y-68655614D02*
X120532892Y-68727042D01*
X120818606Y-68905614D02*
X120997178Y-69405614D01*
X120997178Y-69405614D02*
X121175749Y-68905614D01*
X121461464Y-69405614D02*
X121461464Y-68905614D01*
X121461464Y-68655614D02*
X121425750Y-68691328D01*
X121425750Y-68691328D02*
X121461464Y-68727042D01*
X121461464Y-68727042D02*
X121497178Y-68691328D01*
X121497178Y-68691328D02*
X121461464Y-68655614D01*
X121461464Y-68655614D02*
X121461464Y-68727042D01*
X122140036Y-69405614D02*
X122140036Y-68655614D01*
X122140036Y-69369900D02*
X122068607Y-69405614D01*
X122068607Y-69405614D02*
X121925750Y-69405614D01*
X121925750Y-69405614D02*
X121854321Y-69369900D01*
X121854321Y-69369900D02*
X121818607Y-69334185D01*
X121818607Y-69334185D02*
X121782893Y-69262757D01*
X121782893Y-69262757D02*
X121782893Y-69048471D01*
X121782893Y-69048471D02*
X121818607Y-68977042D01*
X121818607Y-68977042D02*
X121854321Y-68941328D01*
X121854321Y-68941328D02*
X121925750Y-68905614D01*
X121925750Y-68905614D02*
X122068607Y-68905614D01*
X122068607Y-68905614D02*
X122140036Y-68941328D01*
X122782892Y-69369900D02*
X122711464Y-69405614D01*
X122711464Y-69405614D02*
X122568607Y-69405614D01*
X122568607Y-69405614D02*
X122497178Y-69369900D01*
X122497178Y-69369900D02*
X122461464Y-69298471D01*
X122461464Y-69298471D02*
X122461464Y-69012757D01*
X122461464Y-69012757D02*
X122497178Y-68941328D01*
X122497178Y-68941328D02*
X122568607Y-68905614D01*
X122568607Y-68905614D02*
X122711464Y-68905614D01*
X122711464Y-68905614D02*
X122782892Y-68941328D01*
X122782892Y-68941328D02*
X122818607Y-69012757D01*
X122818607Y-69012757D02*
X122818607Y-69084185D01*
X122818607Y-69084185D02*
X122461464Y-69155614D01*
X123140035Y-69405614D02*
X123140035Y-68905614D01*
X123140035Y-69048471D02*
X123175749Y-68977042D01*
X123175749Y-68977042D02*
X123211464Y-68941328D01*
X123211464Y-68941328D02*
X123282892Y-68905614D01*
X123282892Y-68905614D02*
X123354321Y-68905614D01*
X124175750Y-69405614D02*
X124175750Y-68655614D01*
X124175750Y-68941328D02*
X124247179Y-68905614D01*
X124247179Y-68905614D02*
X124390036Y-68905614D01*
X124390036Y-68905614D02*
X124461464Y-68941328D01*
X124461464Y-68941328D02*
X124497179Y-68977042D01*
X124497179Y-68977042D02*
X124532893Y-69048471D01*
X124532893Y-69048471D02*
X124532893Y-69262757D01*
X124532893Y-69262757D02*
X124497179Y-69334185D01*
X124497179Y-69334185D02*
X124461464Y-69369900D01*
X124461464Y-69369900D02*
X124390036Y-69405614D01*
X124390036Y-69405614D02*
X124247179Y-69405614D01*
X124247179Y-69405614D02*
X124175750Y-69369900D01*
X125175750Y-69405614D02*
X125175750Y-69012757D01*
X125175750Y-69012757D02*
X125140035Y-68941328D01*
X125140035Y-68941328D02*
X125068607Y-68905614D01*
X125068607Y-68905614D02*
X124925750Y-68905614D01*
X124925750Y-68905614D02*
X124854321Y-68941328D01*
X125175750Y-69369900D02*
X125104321Y-69405614D01*
X125104321Y-69405614D02*
X124925750Y-69405614D01*
X124925750Y-69405614D02*
X124854321Y-69369900D01*
X124854321Y-69369900D02*
X124818607Y-69298471D01*
X124818607Y-69298471D02*
X124818607Y-69227042D01*
X124818607Y-69227042D02*
X124854321Y-69155614D01*
X124854321Y-69155614D02*
X124925750Y-69119900D01*
X124925750Y-69119900D02*
X125104321Y-69119900D01*
X125104321Y-69119900D02*
X125175750Y-69084185D01*
X125854321Y-69369900D02*
X125782892Y-69405614D01*
X125782892Y-69405614D02*
X125640035Y-69405614D01*
X125640035Y-69405614D02*
X125568606Y-69369900D01*
X125568606Y-69369900D02*
X125532892Y-69334185D01*
X125532892Y-69334185D02*
X125497178Y-69262757D01*
X125497178Y-69262757D02*
X125497178Y-69048471D01*
X125497178Y-69048471D02*
X125532892Y-68977042D01*
X125532892Y-68977042D02*
X125568606Y-68941328D01*
X125568606Y-68941328D02*
X125640035Y-68905614D01*
X125640035Y-68905614D02*
X125782892Y-68905614D01*
X125782892Y-68905614D02*
X125854321Y-68941328D01*
X126175749Y-69405614D02*
X126175749Y-68655614D01*
X126247178Y-69119900D02*
X126461463Y-69405614D01*
X126461463Y-68905614D02*
X126175749Y-69191328D01*
X127247178Y-68905614D02*
X127532892Y-68905614D01*
X127354321Y-68655614D02*
X127354321Y-69298471D01*
X127354321Y-69298471D02*
X127390035Y-69369900D01*
X127390035Y-69369900D02*
X127461464Y-69405614D01*
X127461464Y-69405614D02*
X127532892Y-69405614D01*
X127890035Y-69405614D02*
X127818606Y-69369900D01*
X127818606Y-69369900D02*
X127782892Y-69334185D01*
X127782892Y-69334185D02*
X127747178Y-69262757D01*
X127747178Y-69262757D02*
X127747178Y-69048471D01*
X127747178Y-69048471D02*
X127782892Y-68977042D01*
X127782892Y-68977042D02*
X127818606Y-68941328D01*
X127818606Y-68941328D02*
X127890035Y-68905614D01*
X127890035Y-68905614D02*
X127997178Y-68905614D01*
X127997178Y-68905614D02*
X128068606Y-68941328D01*
X128068606Y-68941328D02*
X128104321Y-68977042D01*
X128104321Y-68977042D02*
X128140035Y-69048471D01*
X128140035Y-69048471D02*
X128140035Y-69262757D01*
X128140035Y-69262757D02*
X128104321Y-69334185D01*
X128104321Y-69334185D02*
X128068606Y-69369900D01*
X128068606Y-69369900D02*
X127997178Y-69405614D01*
X127997178Y-69405614D02*
X127890035Y-69405614D01*
X129354321Y-68905614D02*
X129354321Y-69512757D01*
X129354321Y-69512757D02*
X129318606Y-69584185D01*
X129318606Y-69584185D02*
X129282892Y-69619900D01*
X129282892Y-69619900D02*
X129211463Y-69655614D01*
X129211463Y-69655614D02*
X129104321Y-69655614D01*
X129104321Y-69655614D02*
X129032892Y-69619900D01*
X129354321Y-69369900D02*
X129282892Y-69405614D01*
X129282892Y-69405614D02*
X129140035Y-69405614D01*
X129140035Y-69405614D02*
X129068606Y-69369900D01*
X129068606Y-69369900D02*
X129032892Y-69334185D01*
X129032892Y-69334185D02*
X128997178Y-69262757D01*
X128997178Y-69262757D02*
X128997178Y-69048471D01*
X128997178Y-69048471D02*
X129032892Y-68977042D01*
X129032892Y-68977042D02*
X129068606Y-68941328D01*
X129068606Y-68941328D02*
X129140035Y-68905614D01*
X129140035Y-68905614D02*
X129282892Y-68905614D01*
X129282892Y-68905614D02*
X129354321Y-68941328D01*
X129711463Y-68905614D02*
X129711463Y-69405614D01*
X129711463Y-68977042D02*
X129747177Y-68941328D01*
X129747177Y-68941328D02*
X129818606Y-68905614D01*
X129818606Y-68905614D02*
X129925749Y-68905614D01*
X129925749Y-68905614D02*
X129997177Y-68941328D01*
X129997177Y-68941328D02*
X130032892Y-69012757D01*
X130032892Y-69012757D02*
X130032892Y-69405614D01*
X130711463Y-69405614D02*
X130711463Y-68655614D01*
X130711463Y-69369900D02*
X130640034Y-69405614D01*
X130640034Y-69405614D02*
X130497177Y-69405614D01*
X130497177Y-69405614D02*
X130425748Y-69369900D01*
X130425748Y-69369900D02*
X130390034Y-69334185D01*
X130390034Y-69334185D02*
X130354320Y-69262757D01*
X130354320Y-69262757D02*
X130354320Y-69048471D01*
X130354320Y-69048471D02*
X130390034Y-68977042D01*
X130390034Y-68977042D02*
X130425748Y-68941328D01*
X130425748Y-68941328D02*
X130497177Y-68905614D01*
X130497177Y-68905614D02*
X130640034Y-68905614D01*
X130640034Y-68905614D02*
X130711463Y-68941328D01*
D12*
%TO.P,R4,1*%
%TO.N,Net-(D4-K)*%
X163676801Y-107495765D03*
D13*
%TO.P,R4,2*%
%TO.N,GND*%
X165000000Y-115000000D03*
%TD*%
D14*
%TO.P,SW1,1,1*%
%TO.N,Net-(D1-A)*%
X113500000Y-75000000D03*
X120000000Y-75000000D03*
%TO.P,SW1,2,2*%
%TO.N,Net-(Q1-C)*%
X113500000Y-79500000D03*
X120000000Y-79500000D03*
%TD*%
D12*
%TO.P,R1,1*%
%TO.N,GND*%
X132500000Y-110000000D03*
D15*
%TO.P,R1,2*%
%TO.N,Net-(D1-K)*%
X140120000Y-110000000D03*
%TD*%
D12*
%TO.P,R5,1*%
%TO.N,Net-(D5-K)*%
X169338401Y-118747883D03*
D13*
%TO.P,R5,2*%
%TO.N,GND*%
X170661600Y-126252118D03*
%TD*%
D16*
%TO.P,D4,1,K*%
%TO.N,Net-(D4-K)*%
X170000000Y-105000000D03*
D17*
%TO.P,D4,2,A*%
%TO.N,Net-(D1-A)*%
X172540000Y-105000000D03*
%TD*%
D18*
%TO.P,Q1,1,C*%
%TO.N,Net-(Q1-C)*%
X108730000Y-86670000D03*
D19*
%TO.P,Q1,2,B*%
%TO.N,Net-(BT1-+)*%
X110000000Y-84600000D03*
%TO.P,Q1,3,E*%
X111270000Y-86670000D03*
%TD*%
D12*
%TO.P,R6,1*%
%TO.N,Net-(D6-K)*%
X182500000Y-146310000D03*
D15*
%TO.P,R6,2*%
%TO.N,GND*%
X182500000Y-138690000D03*
%TD*%
D17*
%TO.P,D2,2,A*%
%TO.N,Net-(D1-A)*%
X125000000Y-115000000D03*
D16*
%TO.P,D2,1,K*%
%TO.N,Net-(D2-K)*%
X122460000Y-115000000D03*
%TD*%
D20*
%TO.P,BT1,2,-*%
%TO.N,GND*%
X151595000Y-81260000D03*
D21*
%TO.P,BT1,1,+*%
%TO.N,Net-(BT1-+)*%
X162580000Y-81260000D03*
X140610000Y-81260000D03*
%TD*%
D12*
%TO.P,R3,1*%
%TO.N,Net-(D3-K)*%
X160000000Y-95000000D03*
D13*
%TO.P,R3,2*%
%TO.N,GND*%
X161323199Y-102504235D03*
%TD*%
D16*
%TO.P,D5,1,K*%
%TO.N,Net-(D5-K)*%
X174960000Y-120000000D03*
D17*
%TO.P,D5,2,A*%
%TO.N,Net-(D1-A)*%
X177500000Y-120000000D03*
%TD*%
%TO.P,D3,2,A*%
%TO.N,Net-(D1-A)*%
X167940000Y-96070000D03*
D16*
%TO.P,D3,1,K*%
%TO.N,Net-(D3-K)*%
X165400000Y-96070000D03*
%TD*%
%TO.P,D6,1,K*%
%TO.N,Net-(D6-K)*%
X179960000Y-132500000D03*
D17*
%TO.P,D6,2,A*%
%TO.N,Net-(D1-A)*%
X182500000Y-132500000D03*
%TD*%
D22*
%TO.P,R7,1*%
%TO.N,GND*%
X104320000Y-75550000D03*
%TO.P,R7,2*%
%TO.N,Net-(BT1-+)*%
X100092740Y-81587149D03*
%TD*%
D12*
%TO.P,R2,1*%
%TO.N,Net-(D2-K)*%
X120000000Y-122380000D03*
D23*
%TO.P,R2,2*%
%TO.N,GND*%
X116779649Y-129286065D03*
%TD*%
D16*
%TO.P,D1,1,K*%
%TO.N,Net-(D1-K)*%
X132460000Y-100000000D03*
D17*
%TO.P,D1,2,A*%
%TO.N,Net-(D1-A)*%
X135000000Y-100000000D03*
%TD*%
D24*
%TO.N,GND*%
X112500000Y-135000000D03*
D25*
X151595000Y-81260000D03*
%TO.N,Net-(BT1-+)*%
X111270000Y-73730000D03*
%TO.N,Net-(D1-A)*%
X130000000Y-110000000D03*
%TD*%
D26*
%TO.N,Net-(BT1-+)*%
X162580000Y-81260000D02*
X162580000Y-84000000D01*
X162580000Y-84000000D02*
X156120000Y-90460000D01*
X147784235Y-90460000D02*
X140610000Y-83285765D01*
X156120000Y-90460000D02*
X147784235Y-90460000D01*
X140610000Y-83285765D02*
X140610000Y-81260000D01*
%TO.N,GND*%
X151595000Y-81260000D02*
X149120000Y-81260000D01*
X149120000Y-81260000D02*
X148960000Y-81100000D01*
%TO.N,Net-(D1-A)*%
X140000000Y-85000000D02*
X132500000Y-77500000D01*
X132500000Y-77500000D02*
X132500000Y-75000000D01*
X164940000Y-93070000D02*
X141046018Y-93070000D01*
X141046018Y-93070000D02*
X137976018Y-90000000D01*
%TO.N,GND*%
X165000000Y-115000000D02*
X166330000Y-116330000D01*
X166330000Y-118800000D02*
X167600000Y-120070000D01*
X167600000Y-120070000D02*
X167600000Y-125060000D01*
X168747882Y-126252118D02*
X170661600Y-126252118D01*
X167600000Y-125060000D02*
X168770000Y-126230000D01*
X166330000Y-116330000D02*
X166330000Y-118800000D01*
X168770000Y-126230000D02*
X168747882Y-126252118D01*
%TO.N,Net-(D1-A)*%
X167940000Y-96070000D02*
X167940000Y-100400000D01*
X167940000Y-100400000D02*
X172540000Y-105000000D01*
X164940000Y-93070000D02*
X167940000Y-96070000D01*
%TO.N,GND*%
X143940000Y-70000000D02*
X109870000Y-70000000D01*
X143940000Y-70000000D02*
X151595000Y-77655000D01*
X151595000Y-77655000D02*
X151595000Y-81260000D01*
X109870000Y-70000000D02*
X104320000Y-75550000D01*
%TO.N,Net-(D1-A)*%
X125000000Y-105000000D02*
X130000000Y-100000000D01*
X130000000Y-100000000D02*
X130000000Y-95000000D01*
X130000000Y-95000000D02*
X140000000Y-85000000D01*
X125000000Y-115000000D02*
X125000000Y-105000000D01*
X132500000Y-75000000D02*
X120000000Y-75000000D01*
%TO.N,Net-(D1-K)*%
X132460000Y-104960000D02*
X137500000Y-110000000D01*
X137500000Y-110000000D02*
X140120000Y-110000000D01*
%TO.N,Net-(Q1-C)*%
X108730000Y-86270000D02*
X110330000Y-87870000D01*
X112130000Y-87870000D02*
X115000000Y-85000000D01*
X110330000Y-87870000D02*
X112130000Y-87870000D01*
%TO.N,Net-(BT1-+)*%
X100772740Y-81037149D02*
X106037149Y-81037149D01*
X106037149Y-81037149D02*
X110000000Y-85000000D01*
%TO.N,Net-(D1-A)*%
X125000000Y-115000000D02*
X130000000Y-110000000D01*
%TO.N,GND*%
X120000000Y-127500000D02*
X120000000Y-130000000D01*
X116779649Y-131779649D02*
X116779649Y-129286065D01*
X161323199Y-102504235D02*
X161323199Y-111323199D01*
X170661600Y-133161600D02*
X175000000Y-137500000D01*
X175000000Y-137500000D02*
X177500000Y-137500000D01*
X132380000Y-110000000D02*
X132380000Y-115120000D01*
X170661600Y-126252118D02*
X170661600Y-133161600D01*
X120000000Y-130000000D02*
X117500000Y-132500000D01*
X177500000Y-137500000D02*
X178690000Y-138690000D01*
X178690000Y-138690000D02*
X182500000Y-138690000D01*
X132380000Y-115120000D02*
X120000000Y-127500000D01*
X161323199Y-111323199D02*
X165000000Y-115000000D01*
X117500000Y-132500000D02*
X116779649Y-131779649D01*
%TO.N,Net-(D1-K)*%
X132460000Y-100000000D02*
X132460000Y-104960000D01*
%TO.N,Net-(D1-A)*%
X113500000Y-75000000D02*
X120000000Y-75000000D01*
X172540000Y-107540000D02*
X177500000Y-112500000D01*
X172540000Y-105000000D02*
X172540000Y-107540000D01*
X180000000Y-122500000D02*
X177500000Y-120000000D01*
X182500000Y-132500000D02*
X180000000Y-130000000D01*
X177500000Y-112500000D02*
X177500000Y-120000000D01*
X180000000Y-130000000D02*
X180000000Y-122500000D01*
%TO.N,Net-(D2-K)*%
X120000000Y-117460000D02*
X122460000Y-115000000D01*
X120000000Y-122380000D02*
X120000000Y-117460000D01*
%TO.N,Net-(D4-K)*%
X167504235Y-107495765D02*
X170000000Y-105000000D01*
X163676801Y-107495765D02*
X167504235Y-107495765D01*
%TO.N,Net-(D5-K)*%
X174960000Y-120000000D02*
X170590518Y-120000000D01*
X170590518Y-120000000D02*
X169338401Y-118747883D01*
%TO.N,Net-(D6-K)*%
X187500000Y-142500000D02*
X185000000Y-140000000D01*
X185000000Y-137500000D02*
X180000000Y-132500000D01*
X186190000Y-146310000D02*
X187500000Y-145000000D01*
X187500000Y-145000000D02*
X187500000Y-142500000D01*
X185000000Y-140000000D02*
X185000000Y-137500000D01*
X182500000Y-146310000D02*
X186190000Y-146310000D01*
X180000000Y-132500000D02*
X179960000Y-132500000D01*
%TO.N,Net-(Q1-C)*%
X115000000Y-82500000D02*
X113500000Y-81000000D01*
X115000000Y-85000000D02*
X115000000Y-82500000D01*
X115000000Y-82500000D02*
X118000000Y-79500000D01*
X118000000Y-79500000D02*
X120000000Y-79500000D01*
X113500000Y-81000000D02*
X113500000Y-79500000D01*
%TO.N,Net-(D1-A)*%
X135000000Y-92976018D02*
X137976018Y-90000000D01*
X135000000Y-100000000D02*
X135000000Y-92976018D01*
%TO.N,Net-(D3-K)*%
X164330000Y-95000000D02*
X165400000Y-96070000D01*
X160000000Y-95000000D02*
X164330000Y-95000000D01*
%TO.N,GND*%
X143030000Y-82025765D02*
X150204235Y-89200000D01*
%TO.N,Net-(BT1-+)*%
X103479889Y-78200000D02*
X108461522Y-78200000D01*
X138640000Y-81260000D02*
X140610000Y-81260000D01*
X132900000Y-75520000D02*
X138640000Y-81260000D01*
X132900000Y-74834315D02*
X132900000Y-75520000D01*
X131765685Y-73700000D02*
X132900000Y-74834315D01*
X112961522Y-73700000D02*
X131765685Y-73700000D01*
X100092740Y-81587149D02*
X103479889Y-78200000D01*
X108461522Y-78200000D02*
X112961522Y-73700000D01*
X140610000Y-78110000D02*
X140610000Y-81260000D01*
X135000000Y-72500000D02*
X140610000Y-78110000D01*
X112500000Y-72500000D02*
X135000000Y-72500000D01*
X111270000Y-73730000D02*
X112500000Y-72500000D01*
%TD*%
%TA.AperFunction,Conductor*%
%TO.N,GND*%
G36*
X138019351Y-90908415D02*
G01*
X138063698Y-90936916D01*
X140677302Y-93550520D01*
X140677304Y-93550521D01*
X140677308Y-93550524D01*
X140814227Y-93629573D01*
X140814234Y-93629577D01*
X140966961Y-93670501D01*
X140966963Y-93670501D01*
X141132672Y-93670501D01*
X141132688Y-93670500D01*
X159238093Y-93670500D01*
X159305132Y-93690185D01*
X159350887Y-93742989D01*
X159360831Y-93812147D01*
X159331806Y-93875703D01*
X159309216Y-93896075D01*
X159160858Y-93999954D01*
X158999954Y-94160858D01*
X158869432Y-94347265D01*
X158869431Y-94347267D01*
X158773261Y-94553502D01*
X158773258Y-94553511D01*
X158714366Y-94773302D01*
X158714364Y-94773313D01*
X158694532Y-94999998D01*
X158694532Y-95000001D01*
X158714364Y-95226686D01*
X158714366Y-95226697D01*
X158773258Y-95446488D01*
X158773261Y-95446497D01*
X158869431Y-95652732D01*
X158869432Y-95652734D01*
X158999954Y-95839141D01*
X159160858Y-96000045D01*
X159160861Y-96000047D01*
X159347266Y-96130568D01*
X159553504Y-96226739D01*
X159553509Y-96226740D01*
X159553511Y-96226741D01*
X159572011Y-96231698D01*
X159773308Y-96285635D01*
X159935230Y-96299801D01*
X159999998Y-96305468D01*
X160000000Y-96305468D01*
X160000002Y-96305468D01*
X160056673Y-96300509D01*
X160226692Y-96285635D01*
X160446496Y-96226739D01*
X160652734Y-96130568D01*
X160839139Y-96000047D01*
X161000047Y-95839139D01*
X161130118Y-95653375D01*
X161184693Y-95609752D01*
X161231692Y-95600500D01*
X163875500Y-95600500D01*
X163942539Y-95620185D01*
X163988294Y-95672989D01*
X163999500Y-95724500D01*
X163999500Y-97017870D01*
X163999501Y-97017876D01*
X164005908Y-97077483D01*
X164056202Y-97212328D01*
X164056206Y-97212335D01*
X164142452Y-97327544D01*
X164142455Y-97327547D01*
X164257664Y-97413793D01*
X164257671Y-97413797D01*
X164392517Y-97464091D01*
X164392516Y-97464091D01*
X164399444Y-97464835D01*
X164452127Y-97470500D01*
X166347872Y-97470499D01*
X166407483Y-97464091D01*
X166542331Y-97413796D01*
X166657546Y-97327546D01*
X166743796Y-97212331D01*
X166755430Y-97181139D01*
X166772455Y-97135493D01*
X166814326Y-97079559D01*
X166879790Y-97055141D01*
X166948063Y-97069992D01*
X166979866Y-97094843D01*
X166983870Y-97099192D01*
X166988215Y-97103912D01*
X166988222Y-97103918D01*
X167171365Y-97246464D01*
X167171372Y-97246468D01*
X167171374Y-97246470D01*
X167217694Y-97271537D01*
X167274517Y-97302288D01*
X167324108Y-97351507D01*
X167339500Y-97411343D01*
X167339500Y-100313330D01*
X167339499Y-100313348D01*
X167339499Y-100479054D01*
X167339498Y-100479054D01*
X167339499Y-100479057D01*
X167380423Y-100631785D01*
X167409260Y-100681732D01*
X167409260Y-100681733D01*
X167459475Y-100768709D01*
X167459481Y-100768717D01*
X167578349Y-100887585D01*
X167578355Y-100887590D01*
X170078584Y-103387819D01*
X170112069Y-103449142D01*
X170107085Y-103518834D01*
X170065213Y-103574767D01*
X169999749Y-103599184D01*
X169990903Y-103599500D01*
X169052129Y-103599500D01*
X169052123Y-103599501D01*
X168992516Y-103605908D01*
X168857671Y-103656202D01*
X168857664Y-103656206D01*
X168742455Y-103742452D01*
X168742452Y-103742455D01*
X168656206Y-103857664D01*
X168656202Y-103857671D01*
X168605908Y-103992517D01*
X168599501Y-104052116D01*
X168599500Y-104052135D01*
X168599500Y-105499901D01*
X168579815Y-105566940D01*
X168563181Y-105587582D01*
X167291819Y-106858946D01*
X167230496Y-106892431D01*
X167204138Y-106895265D01*
X164908493Y-106895265D01*
X164841454Y-106875580D01*
X164806920Y-106842390D01*
X164676848Y-106656626D01*
X164676846Y-106656623D01*
X164515942Y-106495719D01*
X164329535Y-106365197D01*
X164329533Y-106365196D01*
X164123298Y-106269026D01*
X164123289Y-106269023D01*
X163903498Y-106210131D01*
X163903494Y-106210130D01*
X163903493Y-106210130D01*
X163903492Y-106210129D01*
X163903487Y-106210129D01*
X163676803Y-106190297D01*
X163676799Y-106190297D01*
X163450114Y-106210129D01*
X163450103Y-106210131D01*
X163230312Y-106269023D01*
X163230303Y-106269026D01*
X163024068Y-106365196D01*
X163024066Y-106365197D01*
X162837659Y-106495719D01*
X162676755Y-106656623D01*
X162546233Y-106843030D01*
X162546232Y-106843032D01*
X162450062Y-107049267D01*
X162450059Y-107049276D01*
X162391167Y-107269067D01*
X162391165Y-107269078D01*
X162371333Y-107495763D01*
X162371333Y-107495766D01*
X162391165Y-107722451D01*
X162391167Y-107722462D01*
X162450059Y-107942253D01*
X162450062Y-107942262D01*
X162546232Y-108148497D01*
X162546233Y-108148499D01*
X162676755Y-108334906D01*
X162837659Y-108495810D01*
X162837662Y-108495812D01*
X163024067Y-108626333D01*
X163230305Y-108722504D01*
X163450109Y-108781400D01*
X163612031Y-108795566D01*
X163676799Y-108801233D01*
X163676801Y-108801233D01*
X163676803Y-108801233D01*
X163733474Y-108796274D01*
X163903493Y-108781400D01*
X164123297Y-108722504D01*
X164329535Y-108626333D01*
X164515940Y-108495812D01*
X164676848Y-108334904D01*
X164806919Y-108149140D01*
X164861494Y-108105517D01*
X164908493Y-108096265D01*
X167417566Y-108096265D01*
X167417582Y-108096266D01*
X167425178Y-108096266D01*
X167583289Y-108096266D01*
X167583292Y-108096266D01*
X167736020Y-108055342D01*
X167799210Y-108018859D01*
X167872951Y-107976285D01*
X167984755Y-107864481D01*
X167984755Y-107864479D01*
X167994959Y-107854276D01*
X167994963Y-107854271D01*
X169412416Y-106436818D01*
X169473739Y-106403333D01*
X169500097Y-106400499D01*
X170947871Y-106400499D01*
X170947872Y-106400499D01*
X171007483Y-106394091D01*
X171142331Y-106343796D01*
X171257546Y-106257546D01*
X171343796Y-106142331D01*
X171372455Y-106065493D01*
X171414326Y-106009559D01*
X171479790Y-105985141D01*
X171548063Y-105999992D01*
X171579866Y-106024843D01*
X171587302Y-106032920D01*
X171588215Y-106033912D01*
X171588222Y-106033918D01*
X171771365Y-106176464D01*
X171771372Y-106176468D01*
X171771374Y-106176470D01*
X171833574Y-106210131D01*
X171874517Y-106232288D01*
X171924108Y-106281507D01*
X171939500Y-106341343D01*
X171939500Y-107453330D01*
X171939499Y-107453348D01*
X171939499Y-107619054D01*
X171939498Y-107619054D01*
X171980423Y-107771785D01*
X172009358Y-107821900D01*
X172009359Y-107821904D01*
X172009360Y-107821904D01*
X172030821Y-107859077D01*
X172059479Y-107908714D01*
X172059481Y-107908717D01*
X172178349Y-108027585D01*
X172178355Y-108027590D01*
X176863181Y-112712416D01*
X176896666Y-112773739D01*
X176899500Y-112800097D01*
X176899500Y-118658655D01*
X176879815Y-118725694D01*
X176834519Y-118767709D01*
X176731376Y-118823528D01*
X176731365Y-118823535D01*
X176548222Y-118966081D01*
X176548218Y-118966085D01*
X176548216Y-118966086D01*
X176548216Y-118966087D01*
X176540402Y-118974576D01*
X176539866Y-118975158D01*
X176479979Y-119011148D01*
X176410141Y-119009047D01*
X176352525Y-118969522D01*
X176332455Y-118934507D01*
X176303797Y-118857671D01*
X176303793Y-118857664D01*
X176217547Y-118742455D01*
X176217544Y-118742452D01*
X176102335Y-118656206D01*
X176102328Y-118656202D01*
X175967482Y-118605908D01*
X175967483Y-118605908D01*
X175907883Y-118599501D01*
X175907881Y-118599500D01*
X175907873Y-118599500D01*
X175907864Y-118599500D01*
X174012129Y-118599500D01*
X174012123Y-118599501D01*
X173952516Y-118605908D01*
X173817671Y-118656202D01*
X173817664Y-118656206D01*
X173702455Y-118742452D01*
X173702452Y-118742455D01*
X173616206Y-118857664D01*
X173616202Y-118857671D01*
X173565908Y-118992517D01*
X173559501Y-119052116D01*
X173559500Y-119052135D01*
X173559500Y-119275500D01*
X173539815Y-119342539D01*
X173487011Y-119388294D01*
X173435500Y-119399500D01*
X170890615Y-119399500D01*
X170823576Y-119379815D01*
X170802934Y-119363181D01*
X170630342Y-119190589D01*
X170596857Y-119129266D01*
X170598248Y-119070814D01*
X170624036Y-118974575D01*
X170643869Y-118747883D01*
X170624036Y-118521191D01*
X170572871Y-118330238D01*
X170565142Y-118301394D01*
X170565139Y-118301385D01*
X170555092Y-118279839D01*
X170468969Y-118095149D01*
X170338448Y-117908744D01*
X170338446Y-117908741D01*
X170177542Y-117747837D01*
X169991135Y-117617315D01*
X169991133Y-117617314D01*
X169784898Y-117521144D01*
X169784889Y-117521141D01*
X169565098Y-117462249D01*
X169565094Y-117462248D01*
X169565093Y-117462248D01*
X169565092Y-117462247D01*
X169565087Y-117462247D01*
X169338403Y-117442415D01*
X169338399Y-117442415D01*
X169111714Y-117462247D01*
X169111703Y-117462249D01*
X168891912Y-117521141D01*
X168891903Y-117521144D01*
X168685668Y-117617314D01*
X168685666Y-117617315D01*
X168499259Y-117747837D01*
X168338355Y-117908741D01*
X168207833Y-118095148D01*
X168207832Y-118095150D01*
X168111662Y-118301385D01*
X168111659Y-118301394D01*
X168052767Y-118521185D01*
X168052765Y-118521196D01*
X168032933Y-118747881D01*
X168032933Y-118747884D01*
X168052765Y-118974569D01*
X168052767Y-118974580D01*
X168111659Y-119194371D01*
X168111662Y-119194380D01*
X168207832Y-119400615D01*
X168207833Y-119400617D01*
X168338355Y-119587024D01*
X168499259Y-119747928D01*
X168499262Y-119747930D01*
X168685667Y-119878451D01*
X168891905Y-119974622D01*
X169111709Y-120033518D01*
X169273631Y-120047684D01*
X169338399Y-120053351D01*
X169338401Y-120053351D01*
X169338403Y-120053351D01*
X169395074Y-120048392D01*
X169565093Y-120033518D01*
X169661333Y-120007730D01*
X169731182Y-120009393D01*
X169781107Y-120039824D01*
X170105657Y-120364374D01*
X170105667Y-120364385D01*
X170109997Y-120368715D01*
X170109998Y-120368716D01*
X170221802Y-120480520D01*
X170298792Y-120524969D01*
X170308613Y-120530639D01*
X170308615Y-120530641D01*
X170346669Y-120552611D01*
X170358733Y-120559577D01*
X170511461Y-120600501D01*
X170511464Y-120600501D01*
X170677171Y-120600501D01*
X170677187Y-120600500D01*
X173435501Y-120600500D01*
X173502540Y-120620185D01*
X173548295Y-120672989D01*
X173559501Y-120724500D01*
X173559501Y-120947876D01*
X173565908Y-121007483D01*
X173616202Y-121142328D01*
X173616206Y-121142335D01*
X173702452Y-121257544D01*
X173702455Y-121257547D01*
X173817664Y-121343793D01*
X173817671Y-121343797D01*
X173952517Y-121394091D01*
X173952516Y-121394091D01*
X173959444Y-121394835D01*
X174012127Y-121400500D01*
X175907872Y-121400499D01*
X175967483Y-121394091D01*
X176102331Y-121343796D01*
X176217546Y-121257546D01*
X176303796Y-121142331D01*
X176332455Y-121065493D01*
X176374326Y-121009559D01*
X176439790Y-120985141D01*
X176508063Y-120999992D01*
X176539866Y-121024843D01*
X176547302Y-121032920D01*
X176548215Y-121033912D01*
X176548222Y-121033918D01*
X176731365Y-121176464D01*
X176731371Y-121176468D01*
X176731374Y-121176470D01*
X176935497Y-121286936D01*
X177049487Y-121326068D01*
X177155015Y-121362297D01*
X177155017Y-121362297D01*
X177155019Y-121362298D01*
X177383951Y-121400500D01*
X177383952Y-121400500D01*
X177616048Y-121400500D01*
X177616049Y-121400500D01*
X177844981Y-121362298D01*
X177896897Y-121344474D01*
X177966693Y-121341324D01*
X178024840Y-121374075D01*
X179363181Y-122712416D01*
X179396666Y-122773739D01*
X179399500Y-122800097D01*
X179399500Y-129913330D01*
X179399499Y-129913348D01*
X179399499Y-130079054D01*
X179399498Y-130079054D01*
X179440423Y-130231785D01*
X179469358Y-130281900D01*
X179469359Y-130281904D01*
X179469360Y-130281904D01*
X179519479Y-130368714D01*
X179519481Y-130368717D01*
X179638349Y-130487585D01*
X179638355Y-130487590D01*
X180038584Y-130887819D01*
X180072069Y-130949142D01*
X180067085Y-131018834D01*
X180025213Y-131074767D01*
X179959749Y-131099184D01*
X179950903Y-131099500D01*
X179012129Y-131099500D01*
X179012123Y-131099501D01*
X178952516Y-131105908D01*
X178817671Y-131156202D01*
X178817664Y-131156206D01*
X178702455Y-131242452D01*
X178702452Y-131242455D01*
X178616206Y-131357664D01*
X178616202Y-131357671D01*
X178565908Y-131492517D01*
X178559501Y-131552116D01*
X178559500Y-131552135D01*
X178559500Y-133447870D01*
X178559501Y-133447876D01*
X178565908Y-133507483D01*
X178616202Y-133642328D01*
X178616206Y-133642335D01*
X178702452Y-133757544D01*
X178702455Y-133757547D01*
X178817664Y-133843793D01*
X178817671Y-133843797D01*
X178952517Y-133894091D01*
X178952516Y-133894091D01*
X178959444Y-133894835D01*
X179012127Y-133900500D01*
X180499902Y-133900499D01*
X180566941Y-133920184D01*
X180587583Y-133936818D01*
X184363181Y-137712416D01*
X184396666Y-137773739D01*
X184399500Y-137800097D01*
X184399500Y-139913330D01*
X184399499Y-139913348D01*
X184399499Y-140079054D01*
X184399498Y-140079054D01*
X184440423Y-140231785D01*
X184469358Y-140281900D01*
X184469359Y-140281904D01*
X184469360Y-140281904D01*
X184519479Y-140368714D01*
X184519481Y-140368717D01*
X184638349Y-140487585D01*
X184638355Y-140487590D01*
X186863181Y-142712416D01*
X186896666Y-142773739D01*
X186899500Y-142800097D01*
X186899500Y-144699902D01*
X186879815Y-144766941D01*
X186863181Y-144787583D01*
X185977584Y-145673181D01*
X185916261Y-145706666D01*
X185889903Y-145709500D01*
X183731692Y-145709500D01*
X183664653Y-145689815D01*
X183630119Y-145656625D01*
X183500047Y-145470861D01*
X183500045Y-145470858D01*
X183339141Y-145309954D01*
X183152734Y-145179432D01*
X183152732Y-145179431D01*
X182946497Y-145083261D01*
X182946488Y-145083258D01*
X182726697Y-145024366D01*
X182726693Y-145024365D01*
X182726692Y-145024365D01*
X182726691Y-145024364D01*
X182726686Y-145024364D01*
X182500002Y-145004532D01*
X182499998Y-145004532D01*
X182273313Y-145024364D01*
X182273302Y-145024366D01*
X182053511Y-145083258D01*
X182053502Y-145083261D01*
X181847267Y-145179431D01*
X181847265Y-145179432D01*
X181660858Y-145309954D01*
X181499954Y-145470858D01*
X181369432Y-145657265D01*
X181369431Y-145657267D01*
X181273261Y-145863502D01*
X181273258Y-145863511D01*
X181214366Y-146083302D01*
X181214364Y-146083313D01*
X181194532Y-146309998D01*
X181194532Y-146310001D01*
X181214364Y-146536686D01*
X181214366Y-146536697D01*
X181273258Y-146756488D01*
X181273261Y-146756497D01*
X181369431Y-146962732D01*
X181369432Y-146962734D01*
X181499954Y-147149141D01*
X181660858Y-147310045D01*
X181660861Y-147310047D01*
X181847266Y-147440568D01*
X182053504Y-147536739D01*
X182273308Y-147595635D01*
X182435230Y-147609801D01*
X182499998Y-147615468D01*
X182500000Y-147615468D01*
X182500002Y-147615468D01*
X182560625Y-147610164D01*
X182726692Y-147595635D01*
X182946496Y-147536739D01*
X183152734Y-147440568D01*
X183339139Y-147310047D01*
X183500047Y-147149139D01*
X183630118Y-146963375D01*
X183684693Y-146919752D01*
X183731692Y-146910500D01*
X186103331Y-146910500D01*
X186103347Y-146910501D01*
X186110943Y-146910501D01*
X186269054Y-146910501D01*
X186269057Y-146910501D01*
X186421785Y-146869577D01*
X186488915Y-146830819D01*
X186558716Y-146790520D01*
X186670520Y-146678716D01*
X186670520Y-146678714D01*
X186680724Y-146668511D01*
X186680727Y-146668506D01*
X187980520Y-145368716D01*
X188059577Y-145231784D01*
X188100501Y-145079057D01*
X188100501Y-144920942D01*
X188100501Y-144913347D01*
X188100500Y-144913329D01*
X188100500Y-144214034D01*
X188120185Y-144146995D01*
X188172989Y-144101240D01*
X188242147Y-144091296D01*
X188305703Y-144120321D01*
X188341940Y-144174237D01*
X188694215Y-145213807D01*
X188695227Y-145216929D01*
X188766170Y-145446057D01*
X188768220Y-145453487D01*
X188822208Y-145675938D01*
X188823753Y-145683261D01*
X188864434Y-145909742D01*
X188865507Y-145916919D01*
X188893052Y-146146913D01*
X188893690Y-146153911D01*
X188908279Y-146386957D01*
X188908517Y-146393759D01*
X188910311Y-146629171D01*
X188910186Y-146635764D01*
X188899369Y-146873017D01*
X188898913Y-146879397D01*
X188875684Y-147117750D01*
X188874926Y-147123919D01*
X188839496Y-147362730D01*
X188838462Y-147368695D01*
X188791067Y-147607269D01*
X188789777Y-147613038D01*
X188730686Y-147850601D01*
X188729157Y-147856189D01*
X188658632Y-148092083D01*
X188656876Y-148097499D01*
X188575228Y-148330960D01*
X188573254Y-148336220D01*
X188483412Y-148560020D01*
X188480049Y-148567645D01*
X188261127Y-149022047D01*
X188255884Y-149031792D01*
X187997517Y-149464546D01*
X187992994Y-149471574D01*
X187855965Y-149669461D01*
X187852644Y-149674029D01*
X187703161Y-149870176D01*
X187699582Y-149874654D01*
X187542005Y-150062714D01*
X187538150Y-150067101D01*
X187372940Y-150246397D01*
X187368790Y-150250689D01*
X187196429Y-150420557D01*
X187191965Y-150424745D01*
X187012842Y-150584640D01*
X187008043Y-150588709D01*
X186822659Y-150738007D01*
X186817506Y-150741940D01*
X186626285Y-150880110D01*
X186620759Y-150883880D01*
X186424158Y-151010384D01*
X186418249Y-151013958D01*
X186216642Y-151128338D01*
X186210335Y-151131679D01*
X186004153Y-151233445D01*
X185997452Y-151236508D01*
X185787004Y-151325253D01*
X185779914Y-151327991D01*
X185565450Y-151403316D01*
X185557991Y-151405674D01*
X185367668Y-151459305D01*
X185348572Y-151463098D01*
X185331984Y-151465055D01*
X185331981Y-151465056D01*
X185301127Y-151477353D01*
X185288856Y-151481514D01*
X185256904Y-151490518D01*
X185256901Y-151490519D01*
X185242539Y-151499059D01*
X185225080Y-151507662D01*
X185150619Y-151537340D01*
X185142223Y-151540341D01*
X185013063Y-151581338D01*
X185005169Y-151583559D01*
X184815925Y-151630113D01*
X184807066Y-151631953D01*
X184558839Y-151674110D01*
X184551685Y-151675111D01*
X184418223Y-151689846D01*
X184413081Y-151690306D01*
X184262217Y-151700630D01*
X184256856Y-151700880D01*
X184094793Y-151704940D01*
X184089236Y-151704955D01*
X183916286Y-151701534D01*
X183910555Y-151701288D01*
X183727107Y-151689155D01*
X183721231Y-151688625D01*
X183527684Y-151666539D01*
X183521702Y-151665709D01*
X183318219Y-151632383D01*
X183312169Y-151631237D01*
X183099153Y-151585390D01*
X183093082Y-151583922D01*
X182870770Y-151524217D01*
X182864724Y-151522428D01*
X182633343Y-151447487D01*
X182627371Y-151445382D01*
X182387233Y-151353813D01*
X182381382Y-151351410D01*
X182132702Y-151241752D01*
X182127016Y-151239070D01*
X181870157Y-151109880D01*
X181864675Y-151106949D01*
X181599828Y-150956658D01*
X181594585Y-150953509D01*
X181322220Y-150780662D01*
X181317241Y-150777331D01*
X181037689Y-150580364D01*
X181032995Y-150576888D01*
X180746680Y-150354263D01*
X180742284Y-150350681D01*
X180449653Y-150100860D01*
X180445559Y-150097205D01*
X180147130Y-149818688D01*
X180143339Y-149814996D01*
X179839561Y-149506206D01*
X179836069Y-149502507D01*
X179527543Y-149162015D01*
X179524338Y-149158335D01*
X179236910Y-148814885D01*
X179225217Y-148798332D01*
X173111312Y-138439999D01*
X181221127Y-138439999D01*
X181221128Y-138440000D01*
X182184314Y-138440000D01*
X182179920Y-138444394D01*
X182127259Y-138535606D01*
X182100000Y-138637339D01*
X182100000Y-138742661D01*
X182127259Y-138844394D01*
X182179920Y-138935606D01*
X182184314Y-138940000D01*
X181221128Y-138940000D01*
X181273730Y-139136317D01*
X181273734Y-139136326D01*
X181369865Y-139342482D01*
X181500342Y-139528820D01*
X181661179Y-139689657D01*
X181847517Y-139820134D01*
X182053673Y-139916265D01*
X182053682Y-139916269D01*
X182249999Y-139968872D01*
X182250000Y-139968871D01*
X182250000Y-139005686D01*
X182254394Y-139010080D01*
X182345606Y-139062741D01*
X182447339Y-139090000D01*
X182552661Y-139090000D01*
X182654394Y-139062741D01*
X182745606Y-139010080D01*
X182750000Y-139005686D01*
X182750000Y-139968872D01*
X182946317Y-139916269D01*
X182946326Y-139916265D01*
X183152482Y-139820134D01*
X183338820Y-139689657D01*
X183499657Y-139528820D01*
X183630134Y-139342482D01*
X183726265Y-139136326D01*
X183726269Y-139136317D01*
X183778872Y-138940000D01*
X182815686Y-138940000D01*
X182820080Y-138935606D01*
X182872741Y-138844394D01*
X182900000Y-138742661D01*
X182900000Y-138637339D01*
X182872741Y-138535606D01*
X182820080Y-138444394D01*
X182815686Y-138440000D01*
X183778872Y-138440000D01*
X183778872Y-138439999D01*
X183726269Y-138243682D01*
X183726265Y-138243673D01*
X183630134Y-138037517D01*
X183499657Y-137851179D01*
X183338820Y-137690342D01*
X183152482Y-137559865D01*
X182946328Y-137463734D01*
X182750000Y-137411127D01*
X182750000Y-138374314D01*
X182745606Y-138369920D01*
X182654394Y-138317259D01*
X182552661Y-138290000D01*
X182447339Y-138290000D01*
X182345606Y-138317259D01*
X182254394Y-138369920D01*
X182250000Y-138374314D01*
X182250000Y-137411127D01*
X182053671Y-137463734D01*
X181847517Y-137559865D01*
X181661179Y-137690342D01*
X181500342Y-137851179D01*
X181369865Y-138037517D01*
X181273734Y-138243673D01*
X181273730Y-138243682D01*
X181221127Y-138439999D01*
X173111312Y-138439999D01*
X168203397Y-130124885D01*
X165903293Y-126227990D01*
X169358743Y-126227990D01*
X170310545Y-126060161D01*
X170288859Y-126097724D01*
X170261600Y-126199457D01*
X170261600Y-126304779D01*
X170288859Y-126406512D01*
X170341520Y-126497724D01*
X170396511Y-126552715D01*
X169445568Y-126720392D01*
X169531464Y-126904598D01*
X169661942Y-127090938D01*
X169822779Y-127251775D01*
X170009117Y-127382252D01*
X170215273Y-127478383D01*
X170215282Y-127478387D01*
X170434994Y-127537258D01*
X170637472Y-127554973D01*
X170469643Y-126603172D01*
X170507206Y-126624859D01*
X170608939Y-126652118D01*
X170714261Y-126652118D01*
X170815994Y-126624859D01*
X170907206Y-126572198D01*
X170962197Y-126517206D01*
X171129874Y-127468148D01*
X171129875Y-127468149D01*
X171314079Y-127382253D01*
X171314081Y-127382252D01*
X171500420Y-127251775D01*
X171661257Y-127090938D01*
X171791734Y-126904600D01*
X171887865Y-126698444D01*
X171887869Y-126698435D01*
X171946740Y-126478725D01*
X171946740Y-126478721D01*
X171964455Y-126276244D01*
X171012655Y-126444071D01*
X171034341Y-126406512D01*
X171061600Y-126304779D01*
X171061600Y-126199457D01*
X171034341Y-126097724D01*
X170981680Y-126006512D01*
X170926686Y-125951518D01*
X171877630Y-125783842D01*
X171791734Y-125599635D01*
X171661257Y-125413297D01*
X171500420Y-125252460D01*
X171314082Y-125121983D01*
X171107926Y-125025852D01*
X171107917Y-125025848D01*
X170888210Y-124966978D01*
X170888200Y-124966976D01*
X170685726Y-124949261D01*
X170853554Y-125901062D01*
X170815994Y-125879377D01*
X170714261Y-125852118D01*
X170608939Y-125852118D01*
X170507206Y-125879377D01*
X170415994Y-125932038D01*
X170361001Y-125987030D01*
X170193324Y-125036086D01*
X170009119Y-125121982D01*
X169822779Y-125252460D01*
X169661942Y-125413297D01*
X169531465Y-125599635D01*
X169435334Y-125805791D01*
X169435330Y-125805800D01*
X169376460Y-126025507D01*
X169376458Y-126025517D01*
X169358743Y-126227990D01*
X165903293Y-126227990D01*
X159261840Y-114975872D01*
X163697143Y-114975872D01*
X164648945Y-114808043D01*
X164627259Y-114845606D01*
X164600000Y-114947339D01*
X164600000Y-115052661D01*
X164627259Y-115154394D01*
X164679920Y-115245606D01*
X164734911Y-115300597D01*
X163783968Y-115468274D01*
X163869864Y-115652480D01*
X164000342Y-115838820D01*
X164161179Y-115999657D01*
X164347517Y-116130134D01*
X164553673Y-116226265D01*
X164553682Y-116226269D01*
X164773394Y-116285140D01*
X164975872Y-116302855D01*
X164808043Y-115351054D01*
X164845606Y-115372741D01*
X164947339Y-115400000D01*
X165052661Y-115400000D01*
X165154394Y-115372741D01*
X165245606Y-115320080D01*
X165300597Y-115265088D01*
X165468274Y-116216030D01*
X165468275Y-116216031D01*
X165652479Y-116130135D01*
X165652481Y-116130134D01*
X165838820Y-115999657D01*
X165999657Y-115838820D01*
X166130134Y-115652482D01*
X166226265Y-115446326D01*
X166226269Y-115446317D01*
X166285140Y-115226607D01*
X166285140Y-115226603D01*
X166302855Y-115024126D01*
X165351055Y-115191953D01*
X165372741Y-115154394D01*
X165400000Y-115052661D01*
X165400000Y-114947339D01*
X165372741Y-114845606D01*
X165320080Y-114754394D01*
X165265086Y-114699400D01*
X166216030Y-114531724D01*
X166130134Y-114347517D01*
X165999657Y-114161179D01*
X165838820Y-114000342D01*
X165652482Y-113869865D01*
X165446326Y-113773734D01*
X165446317Y-113773730D01*
X165226610Y-113714860D01*
X165226600Y-113714858D01*
X165024126Y-113697143D01*
X165191954Y-114648944D01*
X165154394Y-114627259D01*
X165052661Y-114600000D01*
X164947339Y-114600000D01*
X164845606Y-114627259D01*
X164754394Y-114679920D01*
X164699401Y-114734912D01*
X164531724Y-113783968D01*
X164347519Y-113869864D01*
X164161179Y-114000342D01*
X164000342Y-114161179D01*
X163869865Y-114347517D01*
X163773734Y-114553673D01*
X163773730Y-114553682D01*
X163714860Y-114773389D01*
X163714858Y-114773399D01*
X163697143Y-114975872D01*
X159261840Y-114975872D01*
X151886337Y-102480107D01*
X160020342Y-102480107D01*
X160972144Y-102312278D01*
X160950458Y-102349841D01*
X160923199Y-102451574D01*
X160923199Y-102556896D01*
X160950458Y-102658629D01*
X161003119Y-102749841D01*
X161058110Y-102804832D01*
X160107167Y-102972509D01*
X160193063Y-103156715D01*
X160323541Y-103343055D01*
X160484378Y-103503892D01*
X160670716Y-103634369D01*
X160876872Y-103730500D01*
X160876881Y-103730504D01*
X161096593Y-103789375D01*
X161299071Y-103807090D01*
X161131242Y-102855289D01*
X161168805Y-102876976D01*
X161270538Y-102904235D01*
X161375860Y-102904235D01*
X161477593Y-102876976D01*
X161568805Y-102824315D01*
X161623796Y-102769323D01*
X161791473Y-103720265D01*
X161791474Y-103720266D01*
X161975678Y-103634370D01*
X161975680Y-103634369D01*
X162162019Y-103503892D01*
X162322856Y-103343055D01*
X162453333Y-103156717D01*
X162549464Y-102950561D01*
X162549468Y-102950552D01*
X162608339Y-102730842D01*
X162608339Y-102730838D01*
X162626054Y-102528361D01*
X161674254Y-102696188D01*
X161695940Y-102658629D01*
X161723199Y-102556896D01*
X161723199Y-102451574D01*
X161695940Y-102349841D01*
X161643279Y-102258629D01*
X161588285Y-102203635D01*
X162539229Y-102035959D01*
X162453333Y-101851752D01*
X162322856Y-101665414D01*
X162162019Y-101504577D01*
X161975681Y-101374100D01*
X161769525Y-101277969D01*
X161769516Y-101277965D01*
X161549809Y-101219095D01*
X161549799Y-101219093D01*
X161347325Y-101201378D01*
X161515153Y-102153179D01*
X161477593Y-102131494D01*
X161375860Y-102104235D01*
X161270538Y-102104235D01*
X161168805Y-102131494D01*
X161077593Y-102184155D01*
X161022600Y-102239147D01*
X160854923Y-101288203D01*
X160670718Y-101374099D01*
X160484378Y-101504577D01*
X160323541Y-101665414D01*
X160193064Y-101851752D01*
X160096933Y-102057908D01*
X160096929Y-102057917D01*
X160038059Y-102277624D01*
X160038057Y-102277634D01*
X160020342Y-102480107D01*
X151886337Y-102480107D01*
X149682230Y-98745852D01*
X149681826Y-98745163D01*
X149629399Y-98654592D01*
X149623186Y-98640420D01*
X149622923Y-98640542D01*
X149619517Y-98633168D01*
X149619516Y-98633164D01*
X149590797Y-98587715D01*
X149588304Y-98583596D01*
X149561365Y-98537057D01*
X149556411Y-98530616D01*
X149556641Y-98530439D01*
X149546970Y-98518359D01*
X149527669Y-98487815D01*
X149520920Y-98473912D01*
X149520658Y-98474046D01*
X149516965Y-98466800D01*
X149486492Y-98422475D01*
X149483848Y-98418466D01*
X149455106Y-98372981D01*
X149449906Y-98366737D01*
X149450131Y-98366549D01*
X149440012Y-98354866D01*
X149420129Y-98325944D01*
X149412859Y-98312335D01*
X149412599Y-98312481D01*
X149408632Y-98305389D01*
X149376431Y-98262218D01*
X149373644Y-98258327D01*
X149343154Y-98213976D01*
X149343146Y-98213969D01*
X149337709Y-98207931D01*
X149337932Y-98207729D01*
X149327391Y-98196472D01*
X149306971Y-98169096D01*
X149299195Y-98155796D01*
X149298935Y-98155956D01*
X149294699Y-98149022D01*
X149260843Y-98107098D01*
X149257919Y-98103331D01*
X149247346Y-98089156D01*
X149225711Y-98060151D01*
X149225710Y-98060150D01*
X149220041Y-98054324D01*
X149220258Y-98054112D01*
X149209306Y-98043282D01*
X149207564Y-98041125D01*
X149188385Y-98017376D01*
X149180122Y-98004414D01*
X149179864Y-98004587D01*
X149175361Y-97997815D01*
X149139891Y-97957182D01*
X149136836Y-97953544D01*
X149102966Y-97911603D01*
X149097078Y-97906001D01*
X149097291Y-97905776D01*
X149085944Y-97895386D01*
X149064562Y-97870891D01*
X149055817Y-97858268D01*
X149055562Y-97858453D01*
X149050805Y-97851860D01*
X149013783Y-97812586D01*
X149010599Y-97809076D01*
X148975126Y-97768440D01*
X148969025Y-97763065D01*
X148969233Y-97762828D01*
X148957519Y-97752899D01*
X148935687Y-97729739D01*
X148926482Y-97717478D01*
X148926229Y-97717676D01*
X148921226Y-97711270D01*
X148921224Y-97711267D01*
X148882703Y-97673399D01*
X148879403Y-97670029D01*
X148842369Y-97630743D01*
X148836070Y-97625607D01*
X148836272Y-97625359D01*
X148824210Y-97615900D01*
X148801948Y-97594016D01*
X148792300Y-97582133D01*
X148792050Y-97582345D01*
X148786811Y-97576139D01*
X148786807Y-97576132D01*
X148757479Y-97549412D01*
X148746846Y-97539724D01*
X148743432Y-97536493D01*
X148704903Y-97498619D01*
X148704900Y-97498616D01*
X148704896Y-97498613D01*
X148698409Y-97493724D01*
X148698605Y-97493463D01*
X148686214Y-97484485D01*
X148663530Y-97463818D01*
X148653455Y-97452329D01*
X148653211Y-97452552D01*
X148647737Y-97446543D01*
X148606413Y-97411661D01*
X148602886Y-97408568D01*
X148562909Y-97372146D01*
X148556242Y-97367506D01*
X148556429Y-97367235D01*
X148543725Y-97358745D01*
X148520635Y-97339256D01*
X148510144Y-97328165D01*
X148509903Y-97328402D01*
X148504209Y-97322606D01*
X148504206Y-97322602D01*
X148486944Y-97309112D01*
X148461583Y-97289293D01*
X148457954Y-97286345D01*
X148416588Y-97251428D01*
X148409749Y-97247043D01*
X148409929Y-97246761D01*
X148396919Y-97238761D01*
X148373429Y-97220404D01*
X148362540Y-97209730D01*
X148362308Y-97209977D01*
X148356401Y-97204401D01*
X148312517Y-97172692D01*
X148308789Y-97169890D01*
X148266125Y-97136551D01*
X148266126Y-97136551D01*
X148266124Y-97136550D01*
X148266121Y-97136548D01*
X148259120Y-97132423D01*
X148259291Y-97132131D01*
X148246017Y-97124642D01*
X148222110Y-97107368D01*
X148210837Y-97097120D01*
X148210612Y-97097378D01*
X148204498Y-97092025D01*
X148159421Y-97061963D01*
X148155600Y-97059309D01*
X148111709Y-97027596D01*
X148104555Y-97023736D01*
X148104717Y-97023434D01*
X148091182Y-97016455D01*
X148066856Y-97000232D01*
X148055219Y-96990426D01*
X148055002Y-96990694D01*
X148048693Y-96985576D01*
X148002517Y-96957222D01*
X147998605Y-96954718D01*
X147953523Y-96924654D01*
X147953519Y-96924652D01*
X147953517Y-96924651D01*
X147946228Y-96921064D01*
X147946380Y-96920754D01*
X147932600Y-96914292D01*
X147907861Y-96899101D01*
X147895870Y-96889741D01*
X147895663Y-96890018D01*
X147889170Y-96885142D01*
X147841961Y-96858535D01*
X147837959Y-96856180D01*
X147791759Y-96827812D01*
X147784345Y-96824504D01*
X147784486Y-96824187D01*
X147770476Y-96818246D01*
X147745299Y-96804056D01*
X147732972Y-96795155D01*
X147732775Y-96795441D01*
X147726098Y-96790807D01*
X147726097Y-96790806D01*
X147677915Y-96765978D01*
X147673849Y-96763786D01*
X147626606Y-96737160D01*
X147619068Y-96734129D01*
X147619197Y-96733806D01*
X147604981Y-96728396D01*
X147579354Y-96715190D01*
X147566710Y-96706761D01*
X147566523Y-96707055D01*
X147559672Y-96702670D01*
X147510585Y-96679657D01*
X147506423Y-96677610D01*
X147458237Y-96652779D01*
X147450592Y-96650033D01*
X147450709Y-96649705D01*
X147436310Y-96644834D01*
X147410202Y-96632593D01*
X147397249Y-96624641D01*
X147397073Y-96624941D01*
X147390071Y-96620820D01*
X147340150Y-96599656D01*
X147335914Y-96597765D01*
X147286845Y-96574760D01*
X147279098Y-96572299D01*
X147279202Y-96571968D01*
X147264626Y-96567637D01*
X147238044Y-96556367D01*
X147224789Y-96548899D01*
X147224626Y-96549203D01*
X147217480Y-96545351D01*
X147217473Y-96545348D01*
X147166768Y-96526057D01*
X147162508Y-96524344D01*
X147139842Y-96514735D01*
X147112608Y-96503189D01*
X147104777Y-96501021D01*
X147104869Y-96500687D01*
X147090138Y-96496904D01*
X147063040Y-96486595D01*
X147049510Y-96479625D01*
X147049358Y-96479936D01*
X147042065Y-96476350D01*
X146990690Y-96458979D01*
X146986381Y-96457432D01*
X146950303Y-96443706D01*
X146935717Y-96438157D01*
X146927806Y-96436283D01*
X146927885Y-96435948D01*
X146913015Y-96432717D01*
X146885389Y-96423377D01*
X146871593Y-96416912D01*
X146871454Y-96417226D01*
X146864027Y-96413915D01*
X146812101Y-96398504D01*
X146807668Y-96397097D01*
X146756353Y-96379748D01*
X146748379Y-96378172D01*
X146748445Y-96377837D01*
X146733449Y-96375164D01*
X146705249Y-96366795D01*
X146691213Y-96360852D01*
X146691088Y-96361166D01*
X146683545Y-96358138D01*
X146631123Y-96344706D01*
X146626625Y-96343463D01*
X146574700Y-96328054D01*
X146566677Y-96326779D01*
X146566729Y-96326447D01*
X146551632Y-96324336D01*
X146522829Y-96316956D01*
X146508559Y-96311539D01*
X146508447Y-96311854D01*
X146500794Y-96309113D01*
X146447906Y-96297667D01*
X146443359Y-96296593D01*
X146390943Y-96283163D01*
X146382873Y-96282191D01*
X146382912Y-96281859D01*
X146367718Y-96280317D01*
X146338302Y-96273951D01*
X146323821Y-96269071D01*
X146323722Y-96269386D01*
X146315972Y-96266936D01*
X146315968Y-96266935D01*
X146291123Y-96262535D01*
X146262717Y-96257505D01*
X146258118Y-96256601D01*
X146236266Y-96251872D01*
X146205269Y-96245166D01*
X146205268Y-96245166D01*
X146197171Y-96244499D01*
X146197197Y-96244171D01*
X146181944Y-96243203D01*
X146151853Y-96237875D01*
X146137172Y-96233540D01*
X146137087Y-96233853D01*
X146129247Y-96231698D01*
X146075732Y-96224305D01*
X146071086Y-96223573D01*
X146017870Y-96214151D01*
X146009749Y-96213791D01*
X146009763Y-96213467D01*
X145994455Y-96213077D01*
X145963673Y-96208824D01*
X145948812Y-96205044D01*
X145948740Y-96205356D01*
X145940824Y-96203501D01*
X145887084Y-96198153D01*
X145882412Y-96197598D01*
X145828920Y-96190209D01*
X145828919Y-96190209D01*
X145828911Y-96190208D01*
X145820791Y-96190156D01*
X145820793Y-96189837D01*
X145805462Y-96190030D01*
X145773950Y-96186894D01*
X145758930Y-96183679D01*
X145758871Y-96183987D01*
X145750896Y-96182438D01*
X145697044Y-96179151D01*
X145692323Y-96178772D01*
X145638634Y-96173430D01*
X145638632Y-96173430D01*
X145638631Y-96173430D01*
X145630512Y-96173688D01*
X145630502Y-96173374D01*
X145615160Y-96174154D01*
X145582878Y-96172184D01*
X145567719Y-96169540D01*
X145567672Y-96169845D01*
X145559637Y-96168602D01*
X145505740Y-96167384D01*
X145500992Y-96167186D01*
X145447188Y-96163903D01*
X145439083Y-96164472D01*
X145439061Y-96164164D01*
X145423729Y-96165532D01*
X145422645Y-96165508D01*
X145390641Y-96164785D01*
X145375365Y-96162724D01*
X145375331Y-96163024D01*
X145367254Y-96162091D01*
X145313393Y-96162949D01*
X145308620Y-96162933D01*
X145254776Y-96161717D01*
X145246698Y-96162596D01*
X145246665Y-96162295D01*
X145231372Y-96164256D01*
X145197444Y-96164796D01*
X145182076Y-96163323D01*
X145182054Y-96163620D01*
X145173959Y-96163000D01*
X145173957Y-96163000D01*
X145173954Y-96163000D01*
X145173953Y-96163000D01*
X145120199Y-96165935D01*
X145115415Y-96166103D01*
X145061603Y-96166960D01*
X145053569Y-96168149D01*
X145053525Y-96167854D01*
X145038297Y-96170407D01*
X145003488Y-96172308D01*
X144988045Y-96171428D01*
X144988035Y-96171720D01*
X144979917Y-96171414D01*
X144926356Y-96176428D01*
X144921563Y-96176783D01*
X144867872Y-96179715D01*
X144859884Y-96181214D01*
X144859830Y-96180928D01*
X144844692Y-96184071D01*
X144808962Y-96187415D01*
X144793483Y-96187136D01*
X144793484Y-96187423D01*
X144785354Y-96187434D01*
X144732076Y-96194518D01*
X144727292Y-96195060D01*
X144673771Y-96200070D01*
X144665851Y-96201877D01*
X144665787Y-96201598D01*
X144650761Y-96205332D01*
X144602927Y-96211694D01*
X144579773Y-96212589D01*
X144572497Y-96212189D01*
X144572488Y-96212189D01*
X144530821Y-96220933D01*
X144521708Y-96222493D01*
X144479514Y-96228106D01*
X144479508Y-96228107D01*
X144472776Y-96230906D01*
X144450654Y-96237759D01*
X142802307Y-96583707D01*
X142798799Y-96584391D01*
X142742800Y-96594468D01*
X142735877Y-96596677D01*
X142728989Y-96599096D01*
X142678254Y-96624783D01*
X142675041Y-96626352D01*
X142571574Y-96675039D01*
X142548973Y-96683107D01*
X142543985Y-96684359D01*
X142543972Y-96684364D01*
X142504910Y-96706094D01*
X142497431Y-96709929D01*
X142486245Y-96715193D01*
X142456994Y-96728958D01*
X142456992Y-96728959D01*
X142456991Y-96728960D01*
X142456986Y-96728963D01*
X142453055Y-96732285D01*
X142433311Y-96745927D01*
X142374145Y-96778843D01*
X142351298Y-96788697D01*
X142348540Y-96789570D01*
X142348539Y-96789570D01*
X142308968Y-96814842D01*
X142302514Y-96818693D01*
X142261504Y-96841509D01*
X142261501Y-96841511D01*
X142259429Y-96843519D01*
X142239906Y-96858950D01*
X142180184Y-96897093D01*
X142157268Y-96908585D01*
X142156371Y-96908923D01*
X142156367Y-96908926D01*
X142116687Y-96937429D01*
X142111092Y-96941221D01*
X142069922Y-96967516D01*
X142069276Y-96968223D01*
X142050113Y-96985252D01*
X141989615Y-97028711D01*
X141969903Y-97039912D01*
X141967390Y-97041423D01*
X141927908Y-97072852D01*
X141923029Y-97076542D01*
X141882033Y-97105993D01*
X141879921Y-97107975D01*
X141863749Y-97123927D01*
X141802431Y-97172739D01*
X141788351Y-97181645D01*
X141788372Y-97181677D01*
X141781601Y-97186175D01*
X141742552Y-97220244D01*
X141738266Y-97223818D01*
X141697729Y-97256089D01*
X141692089Y-97261935D01*
X141692061Y-97261908D01*
X141680764Y-97274155D01*
X141665070Y-97287848D01*
X141618861Y-97328165D01*
X141618699Y-97328306D01*
X141605577Y-97337424D01*
X141605684Y-97337571D01*
X141599106Y-97342346D01*
X141560694Y-97378771D01*
X141556896Y-97382227D01*
X141516995Y-97417041D01*
X141511622Y-97423137D01*
X141511486Y-97423017D01*
X141501172Y-97435217D01*
X141439476Y-97493724D01*
X141438550Y-97494602D01*
X141426258Y-97503893D01*
X141426446Y-97504132D01*
X141420061Y-97509153D01*
X141382405Y-97547717D01*
X141379011Y-97551062D01*
X141339922Y-97588130D01*
X141334810Y-97594439D01*
X141334573Y-97594247D01*
X141325105Y-97606401D01*
X141258378Y-97674738D01*
X141238527Y-97691225D01*
X141238095Y-97691513D01*
X141238091Y-97691517D01*
X141238090Y-97691518D01*
X141205586Y-97728556D01*
X141201108Y-97733392D01*
X141166670Y-97768661D01*
X141166669Y-97768662D01*
X141166415Y-97769116D01*
X141151503Y-97790180D01*
X140921368Y-98052417D01*
X140903580Y-98069059D01*
X140900217Y-98071635D01*
X140900211Y-98071640D01*
X140872421Y-98107794D01*
X140867312Y-98114011D01*
X140837240Y-98148279D01*
X140837235Y-98148286D01*
X140835361Y-98152084D01*
X140822485Y-98172763D01*
X140599456Y-98462925D01*
X140582395Y-98481027D01*
X140580205Y-98482926D01*
X140580199Y-98482933D01*
X140553909Y-98521807D01*
X140549510Y-98527905D01*
X140520911Y-98565115D01*
X140520907Y-98565120D01*
X140519796Y-98567798D01*
X140507997Y-98589700D01*
X140298828Y-98899005D01*
X140282732Y-98918270D01*
X140281078Y-98919883D01*
X140281071Y-98919892D01*
X140256823Y-98960736D01*
X140252918Y-98966893D01*
X140226303Y-99006251D01*
X140226299Y-99006259D01*
X140225542Y-99008449D01*
X140214978Y-99031220D01*
X140022651Y-99355184D01*
X140007747Y-99375329D01*
X140006114Y-99377123D01*
X140006105Y-99377135D01*
X139984367Y-99419248D01*
X139980817Y-99425653D01*
X139956614Y-99466423D01*
X139956613Y-99466425D01*
X139956612Y-99466427D01*
X139955957Y-99468759D01*
X139946769Y-99492079D01*
X139774320Y-99826143D01*
X139760827Y-99846895D01*
X139758808Y-99849409D01*
X139758805Y-99849414D01*
X139740019Y-99892075D01*
X139736721Y-99898978D01*
X139715348Y-99940382D01*
X139715345Y-99940391D01*
X139714659Y-99943537D01*
X139706994Y-99967075D01*
X139559627Y-100301747D01*
X139548390Y-100321327D01*
X139546951Y-100323986D01*
X139528902Y-100371150D01*
X139526579Y-100376801D01*
X139506232Y-100423008D01*
X139505389Y-100425899D01*
X139499602Y-100447716D01*
X139461898Y-100546250D01*
X139455104Y-100559339D01*
X139455505Y-100559539D01*
X139451888Y-100566814D01*
X139434056Y-100618796D01*
X139432578Y-100622872D01*
X139412934Y-100674208D01*
X139411046Y-100682112D01*
X139410610Y-100682007D01*
X139407433Y-100696412D01*
X139375649Y-100789069D01*
X139369158Y-100802761D01*
X139369484Y-100802909D01*
X139366139Y-100810316D01*
X139350438Y-100862301D01*
X139349026Y-100866679D01*
X139331415Y-100918023D01*
X139329805Y-100925985D01*
X139329454Y-100925914D01*
X139326725Y-100940823D01*
X139299208Y-101031941D01*
X139293053Y-101046326D01*
X139293287Y-101046421D01*
X139290236Y-101053962D01*
X139276809Y-101105772D01*
X139275481Y-101110509D01*
X139260027Y-101161682D01*
X139258714Y-101169700D01*
X139258465Y-101169659D01*
X139256242Y-101185140D01*
X139233119Y-101274373D01*
X139227356Y-101289542D01*
X139227478Y-101289586D01*
X139224754Y-101297245D01*
X139213765Y-101348604D01*
X139212546Y-101353760D01*
X139199369Y-101404614D01*
X139198375Y-101412681D01*
X139198247Y-101412665D01*
X139196605Y-101428812D01*
X139177981Y-101515864D01*
X139172480Y-101532551D01*
X139170305Y-101539703D01*
X139161892Y-101590423D01*
X139160820Y-101596070D01*
X139150070Y-101646318D01*
X139149472Y-101653790D01*
X139148478Y-101671305D01*
X139134432Y-101755994D01*
X139127848Y-101779795D01*
X139127569Y-101780912D01*
X139121887Y-101830663D01*
X139121017Y-101836878D01*
X139112825Y-101886273D01*
X139112785Y-101887473D01*
X139112584Y-101912128D01*
X139103195Y-101994347D01*
X139097709Y-102019261D01*
X139097304Y-102020483D01*
X139097303Y-102020488D01*
X139094484Y-102068946D01*
X139093893Y-102075810D01*
X139088389Y-102124013D01*
X139088389Y-102124016D01*
X139088578Y-102125280D01*
X139089726Y-102150775D01*
X139085085Y-102230560D01*
X139081177Y-102255047D01*
X139080384Y-102258043D01*
X139080384Y-102258049D01*
X139080535Y-102304780D01*
X139080327Y-102312378D01*
X139077613Y-102359043D01*
X139078237Y-102362061D01*
X139080800Y-102386745D01*
X139081050Y-102464232D01*
X139078802Y-102488141D01*
X139077828Y-102493180D01*
X139077828Y-102493182D01*
X139081002Y-102537776D01*
X139081314Y-102546176D01*
X139081458Y-102590880D01*
X139081459Y-102590888D01*
X139082803Y-102595838D01*
X139086819Y-102619513D01*
X139092188Y-102694953D01*
X139091673Y-102718059D01*
X139090815Y-102725442D01*
X139096994Y-102767419D01*
X139098003Y-102776670D01*
X139101015Y-102818987D01*
X139101016Y-102818991D01*
X139103444Y-102826013D01*
X139108927Y-102848465D01*
X139119778Y-102922170D01*
X139121035Y-102944259D01*
X139120711Y-102954196D01*
X139120712Y-102954197D01*
X139129788Y-102993094D01*
X139131707Y-103003194D01*
X139134521Y-103022310D01*
X139137525Y-103042714D01*
X139141469Y-103051838D01*
X139148401Y-103072855D01*
X139171516Y-103171913D01*
X139173428Y-103181968D01*
X139179286Y-103221621D01*
X139179287Y-103221625D01*
X139183172Y-103230600D01*
X139190129Y-103251673D01*
X139192351Y-103261196D01*
X139192354Y-103261203D01*
X139211260Y-103296561D01*
X139215709Y-103305777D01*
X140689740Y-106711417D01*
X140691441Y-106715550D01*
X140912674Y-107281858D01*
X140915594Y-107290197D01*
X141090991Y-107854884D01*
X141093297Y-107863356D01*
X141227273Y-108434693D01*
X141228965Y-108443255D01*
X141321869Y-109019168D01*
X141322951Y-109027778D01*
X141325527Y-109056341D01*
X141311943Y-109124878D01*
X141263463Y-109175191D01*
X141195477Y-109191306D01*
X141129571Y-109168107D01*
X141114347Y-109155160D01*
X140959141Y-108999954D01*
X140772734Y-108869432D01*
X140772732Y-108869431D01*
X140566497Y-108773261D01*
X140566488Y-108773258D01*
X140346697Y-108714366D01*
X140346693Y-108714365D01*
X140346692Y-108714365D01*
X140346691Y-108714364D01*
X140346686Y-108714364D01*
X140120002Y-108694532D01*
X140119998Y-108694532D01*
X139893313Y-108714364D01*
X139893302Y-108714366D01*
X139673511Y-108773258D01*
X139673502Y-108773261D01*
X139467267Y-108869431D01*
X139467265Y-108869432D01*
X139280858Y-108999954D01*
X139119954Y-109160858D01*
X139082303Y-109214631D01*
X138989881Y-109346624D01*
X138935307Y-109390248D01*
X138888308Y-109399500D01*
X137800097Y-109399500D01*
X137733058Y-109379815D01*
X137712416Y-109363181D01*
X133096819Y-104747584D01*
X133063334Y-104686261D01*
X133060500Y-104659903D01*
X133060500Y-101524499D01*
X133080185Y-101457460D01*
X133132989Y-101411705D01*
X133184500Y-101400499D01*
X133407871Y-101400499D01*
X133407872Y-101400499D01*
X133467483Y-101394091D01*
X133602331Y-101343796D01*
X133717546Y-101257546D01*
X133803796Y-101142331D01*
X133832455Y-101065493D01*
X133874326Y-101009559D01*
X133939790Y-100985141D01*
X134008063Y-100999992D01*
X134039866Y-101024843D01*
X134046401Y-101031941D01*
X134048215Y-101033912D01*
X134048222Y-101033918D01*
X134231365Y-101176464D01*
X134231371Y-101176468D01*
X134231374Y-101176470D01*
X134435497Y-101286936D01*
X134549487Y-101326068D01*
X134655015Y-101362297D01*
X134655017Y-101362297D01*
X134655019Y-101362298D01*
X134883951Y-101400500D01*
X134883952Y-101400500D01*
X135116048Y-101400500D01*
X135116049Y-101400500D01*
X135344981Y-101362298D01*
X135564503Y-101286936D01*
X135768626Y-101176470D01*
X135951784Y-101033913D01*
X136108979Y-100863153D01*
X136235924Y-100668849D01*
X136329157Y-100456300D01*
X136386134Y-100231305D01*
X136389757Y-100187584D01*
X136405300Y-100000006D01*
X136405300Y-99999993D01*
X136386135Y-99768702D01*
X136386133Y-99768691D01*
X136329157Y-99543699D01*
X136235924Y-99331151D01*
X136108983Y-99136852D01*
X136108980Y-99136849D01*
X136108979Y-99136847D01*
X135951784Y-98966087D01*
X135951779Y-98966083D01*
X135951777Y-98966081D01*
X135768634Y-98823535D01*
X135768623Y-98823528D01*
X135665481Y-98767709D01*
X135615891Y-98718489D01*
X135600500Y-98658655D01*
X135600500Y-93276114D01*
X135620185Y-93209075D01*
X135636814Y-93188438D01*
X137888336Y-90936915D01*
X137949659Y-90903431D01*
X138019351Y-90908415D01*
G37*
%TD.AperFunction*%
%TA.AperFunction,Conductor*%
G36*
X151171322Y-68294913D02*
G01*
X151811111Y-68305671D01*
X151816599Y-68305886D01*
X152448308Y-68344938D01*
X152453682Y-68345389D01*
X153083447Y-68412150D01*
X153088713Y-68412822D01*
X153709375Y-68505659D01*
X153716941Y-68507033D01*
X154965155Y-68774185D01*
X154974772Y-68776651D01*
X156193678Y-69141881D01*
X156202734Y-69144981D01*
X157391068Y-69603812D01*
X157399603Y-69607482D01*
X158515422Y-70137701D01*
X158549413Y-70153853D01*
X158557510Y-70158072D01*
X159660928Y-70785819D01*
X159668624Y-70790578D01*
X160717684Y-71493339D01*
X160725031Y-71498660D01*
X161711934Y-72270009D01*
X161718972Y-72275944D01*
X162635878Y-73109256D01*
X162642628Y-73115877D01*
X163481909Y-74004491D01*
X163488366Y-74011894D01*
X163725646Y-74306751D01*
X164242476Y-74948995D01*
X164248589Y-74957273D01*
X164485397Y-75307584D01*
X164910206Y-75936008D01*
X164915917Y-75945316D01*
X165481595Y-76965370D01*
X165485517Y-76973062D01*
X165569236Y-77152467D01*
X165724089Y-77484312D01*
X165726500Y-77489824D01*
X165940669Y-78013691D01*
X165942878Y-78019508D01*
X166128829Y-78548710D01*
X166130803Y-78554832D01*
X166147766Y-78612516D01*
X166272939Y-79038189D01*
X166275705Y-79053786D01*
X166275913Y-79053745D01*
X166277493Y-79061713D01*
X166294560Y-79112079D01*
X166296082Y-79116891D01*
X166311082Y-79167901D01*
X166314373Y-79175331D01*
X166314178Y-79175417D01*
X166320885Y-79189763D01*
X172697264Y-98006557D01*
X177058517Y-110876683D01*
X177061390Y-110946494D01*
X177026064Y-111006775D01*
X176963755Y-111038389D01*
X176894246Y-111031297D01*
X176853396Y-111004161D01*
X173176819Y-107327584D01*
X173143334Y-107266261D01*
X173140500Y-107239903D01*
X173140500Y-106341343D01*
X173160185Y-106274304D01*
X173205483Y-106232288D01*
X173308626Y-106176470D01*
X173491784Y-106033913D01*
X173648979Y-105863153D01*
X173775924Y-105668849D01*
X173869157Y-105456300D01*
X173926134Y-105231305D01*
X173926135Y-105231297D01*
X173945300Y-105000006D01*
X173945300Y-104999993D01*
X173926135Y-104768702D01*
X173926133Y-104768691D01*
X173869157Y-104543699D01*
X173775924Y-104331151D01*
X173648983Y-104136852D01*
X173648980Y-104136849D01*
X173648979Y-104136847D01*
X173491784Y-103966087D01*
X173491779Y-103966083D01*
X173491777Y-103966081D01*
X173308634Y-103823535D01*
X173308628Y-103823531D01*
X173104504Y-103713064D01*
X173104495Y-103713061D01*
X172884984Y-103637702D01*
X172694450Y-103605908D01*
X172656049Y-103599500D01*
X172423951Y-103599500D01*
X172385795Y-103605867D01*
X172195014Y-103637702D01*
X172143098Y-103655524D01*
X172073300Y-103658672D01*
X172015158Y-103625923D01*
X168576819Y-100187584D01*
X168543334Y-100126261D01*
X168540500Y-100099903D01*
X168540500Y-97411343D01*
X168560185Y-97344304D01*
X168605483Y-97302288D01*
X168708626Y-97246470D01*
X168737730Y-97223818D01*
X168778462Y-97192115D01*
X168891784Y-97103913D01*
X169048979Y-96933153D01*
X169061302Y-96914292D01*
X169072538Y-96897093D01*
X169175924Y-96738849D01*
X169269157Y-96526300D01*
X169326134Y-96301305D01*
X169326135Y-96301297D01*
X169345300Y-96070006D01*
X169345300Y-96069993D01*
X169326135Y-95838702D01*
X169326133Y-95838691D01*
X169269157Y-95613699D01*
X169175924Y-95401151D01*
X169048983Y-95206852D01*
X169048980Y-95206849D01*
X169048979Y-95206847D01*
X168891784Y-95036087D01*
X168891779Y-95036083D01*
X168891777Y-95036081D01*
X168708634Y-94893535D01*
X168708628Y-94893531D01*
X168504504Y-94783064D01*
X168504495Y-94783061D01*
X168284984Y-94707702D01*
X168113282Y-94679050D01*
X168056049Y-94669500D01*
X167823951Y-94669500D01*
X167766718Y-94679050D01*
X167595016Y-94707702D01*
X167543100Y-94725524D01*
X167473301Y-94728672D01*
X167415159Y-94695923D01*
X165427590Y-92708355D01*
X165427588Y-92708352D01*
X165308717Y-92589481D01*
X165308716Y-92589480D01*
X165221904Y-92539360D01*
X165221904Y-92539359D01*
X165221900Y-92539358D01*
X165171785Y-92510423D01*
X165019057Y-92469499D01*
X164860943Y-92469499D01*
X164853347Y-92469499D01*
X164853331Y-92469500D01*
X141346116Y-92469500D01*
X141279077Y-92449815D01*
X141258435Y-92433181D01*
X138344736Y-89519483D01*
X138344734Y-89519481D01*
X138207803Y-89440423D01*
X138055075Y-89399499D01*
X137896961Y-89399499D01*
X137782415Y-89430192D01*
X137744232Y-89440423D01*
X137607302Y-89519481D01*
X137607299Y-89519483D01*
X134631286Y-92495496D01*
X134519481Y-92607300D01*
X134519479Y-92607303D01*
X134469361Y-92694112D01*
X134469359Y-92694114D01*
X134440425Y-92744227D01*
X134440424Y-92744228D01*
X134440423Y-92744233D01*
X134399499Y-92896961D01*
X134399499Y-92896963D01*
X134399499Y-93065064D01*
X134399500Y-93065077D01*
X134399500Y-98658655D01*
X134379815Y-98725694D01*
X134334519Y-98767709D01*
X134231376Y-98823528D01*
X134231365Y-98823535D01*
X134048222Y-98966081D01*
X134048218Y-98966085D01*
X134048216Y-98966086D01*
X134048216Y-98966087D01*
X134043148Y-98971593D01*
X134039866Y-98975158D01*
X133979979Y-99011148D01*
X133910141Y-99009047D01*
X133852525Y-98969522D01*
X133832455Y-98934507D01*
X133803797Y-98857671D01*
X133803793Y-98857664D01*
X133717547Y-98742455D01*
X133717544Y-98742452D01*
X133602335Y-98656206D01*
X133602328Y-98656202D01*
X133467482Y-98605908D01*
X133467483Y-98605908D01*
X133407883Y-98599501D01*
X133407881Y-98599500D01*
X133407873Y-98599500D01*
X133407864Y-98599500D01*
X131512129Y-98599500D01*
X131512123Y-98599501D01*
X131452516Y-98605908D01*
X131317671Y-98656202D01*
X131317664Y-98656206D01*
X131202455Y-98742452D01*
X131202452Y-98742455D01*
X131116206Y-98857664D01*
X131116202Y-98857671D01*
X131065908Y-98992517D01*
X131059501Y-99052116D01*
X131059500Y-99052135D01*
X131059500Y-100947870D01*
X131059501Y-100947876D01*
X131065908Y-101007483D01*
X131116202Y-101142328D01*
X131116206Y-101142335D01*
X131202452Y-101257544D01*
X131202455Y-101257547D01*
X131317664Y-101343793D01*
X131317671Y-101343797D01*
X131344384Y-101353760D01*
X131452517Y-101394091D01*
X131512127Y-101400500D01*
X131735500Y-101400499D01*
X131802539Y-101420183D01*
X131848294Y-101472987D01*
X131859500Y-101524499D01*
X131859500Y-104873330D01*
X131859499Y-104873348D01*
X131859499Y-105039054D01*
X131859498Y-105039054D01*
X131900424Y-105191789D01*
X131900425Y-105191790D01*
X131923239Y-105231304D01*
X131923240Y-105231306D01*
X131979475Y-105328709D01*
X131979481Y-105328717D01*
X132098349Y-105447585D01*
X132098355Y-105447590D01*
X137015139Y-110364374D01*
X137015149Y-110364385D01*
X137019479Y-110368715D01*
X137019480Y-110368716D01*
X137131284Y-110480520D01*
X137131286Y-110480521D01*
X137131290Y-110480524D01*
X137268209Y-110559573D01*
X137268216Y-110559577D01*
X137380019Y-110589534D01*
X137420942Y-110600500D01*
X137420943Y-110600500D01*
X138888308Y-110600500D01*
X138955347Y-110620185D01*
X138989880Y-110653374D01*
X139075480Y-110775624D01*
X139119954Y-110839141D01*
X139280858Y-111000045D01*
X139280861Y-111000047D01*
X139467266Y-111130568D01*
X139673504Y-111226739D01*
X139893308Y-111285635D01*
X140055230Y-111299801D01*
X140119998Y-111305468D01*
X140120000Y-111305468D01*
X140120002Y-111305468D01*
X140176673Y-111300509D01*
X140346692Y-111285635D01*
X140566496Y-111226739D01*
X140772734Y-111130568D01*
X140959139Y-111000047D01*
X141120047Y-110839139D01*
X141120051Y-110839132D01*
X141123188Y-110835395D01*
X141181357Y-110796688D01*
X141251217Y-110795574D01*
X141310590Y-110832406D01*
X141340625Y-110895491D01*
X141341318Y-110929722D01*
X141290119Y-111360661D01*
X141288814Y-111369135D01*
X141181310Y-111936038D01*
X141179420Y-111944409D01*
X141032841Y-112502992D01*
X141030370Y-112511232D01*
X140845054Y-113059369D01*
X140842004Y-113067451D01*
X140618282Y-113603018D01*
X140614657Y-113610907D01*
X140352878Y-114131749D01*
X140348683Y-114139411D01*
X140049160Y-114643435D01*
X140044404Y-114650828D01*
X139707448Y-115135931D01*
X139702146Y-115143012D01*
X139321231Y-115615554D01*
X139318262Y-115619099D01*
X139118702Y-115848595D01*
X139116899Y-115850624D01*
X138915707Y-116072015D01*
X138911731Y-116076191D01*
X138710348Y-116278083D01*
X138706166Y-116282083D01*
X138499521Y-116470763D01*
X138495168Y-116474556D01*
X138283326Y-116650618D01*
X138278842Y-116654173D01*
X138061695Y-116818316D01*
X138057125Y-116821610D01*
X137834706Y-116974374D01*
X137830093Y-116977394D01*
X137602287Y-117119383D01*
X137597680Y-117122118D01*
X137364501Y-117253824D01*
X137359940Y-117256276D01*
X137121315Y-117378209D01*
X137116843Y-117380382D01*
X136877996Y-117490584D01*
X136871554Y-117493338D01*
X136361461Y-117694584D01*
X136353437Y-117697436D01*
X135827978Y-117864071D01*
X135820780Y-117866116D01*
X135275044Y-118003572D01*
X135268764Y-118004982D01*
X134703859Y-118116456D01*
X134698527Y-118117388D01*
X134115863Y-118206147D01*
X134111472Y-118206736D01*
X133512658Y-118276174D01*
X133509181Y-118276527D01*
X132898105Y-118329982D01*
X132894621Y-118330238D01*
X131626776Y-118405229D01*
X131624865Y-118405327D01*
X130386717Y-118459403D01*
X130362707Y-118458118D01*
X130357704Y-118457359D01*
X130357701Y-118457358D01*
X130313183Y-118462330D01*
X130304837Y-118462978D01*
X130260106Y-118464933D01*
X130260104Y-118464933D01*
X130255278Y-118466455D01*
X130231769Y-118471425D01*
X130226733Y-118471987D01*
X130185030Y-118488308D01*
X130177131Y-118491095D01*
X130134428Y-118504559D01*
X130134420Y-118504563D01*
X130130143Y-118507288D01*
X130108732Y-118518167D01*
X130104019Y-118520011D01*
X130104007Y-118520018D01*
X130067959Y-118546568D01*
X130061054Y-118551303D01*
X130023279Y-118575370D01*
X130019849Y-118579113D01*
X130001984Y-118595163D01*
X129997905Y-118598167D01*
X129997902Y-118598170D01*
X129969950Y-118633150D01*
X129964508Y-118639507D01*
X129934246Y-118672536D01*
X129934244Y-118672538D01*
X129931905Y-118677032D01*
X129918791Y-118697175D01*
X114993452Y-137375829D01*
X114991326Y-137378417D01*
X114850640Y-137545044D01*
X114846086Y-137550145D01*
X114704685Y-137700013D01*
X114699861Y-137704852D01*
X114552382Y-137844843D01*
X114547314Y-137849396D01*
X114394149Y-137979563D01*
X114388859Y-137983815D01*
X114230406Y-138104188D01*
X114224920Y-138108125D01*
X114061467Y-138218801D01*
X114055808Y-138222412D01*
X113887813Y-138323355D01*
X113882005Y-138326636D01*
X113709824Y-138417868D01*
X113703887Y-138420813D01*
X113527886Y-138502342D01*
X113521839Y-138504951D01*
X113342407Y-138576761D01*
X113336271Y-138579031D01*
X113153835Y-138641096D01*
X113147622Y-138643029D01*
X112962601Y-138695320D01*
X112956326Y-138696918D01*
X112769134Y-138739410D01*
X112762812Y-138740673D01*
X112573882Y-138773340D01*
X112567520Y-138774271D01*
X112377283Y-138797086D01*
X112370895Y-138797685D01*
X112179797Y-138810625D01*
X112173390Y-138810892D01*
X111981879Y-138813935D01*
X111975464Y-138813871D01*
X111784012Y-138807004D01*
X111777597Y-138806608D01*
X111586540Y-138789811D01*
X111580136Y-138789079D01*
X111390044Y-138762353D01*
X111383661Y-138761285D01*
X111194861Y-138724608D01*
X111188532Y-138723206D01*
X111001494Y-138676577D01*
X110995219Y-138674836D01*
X110810373Y-138618252D01*
X110804135Y-138616160D01*
X110621863Y-138549599D01*
X110615706Y-138547162D01*
X110436442Y-138470623D01*
X110430384Y-138467842D01*
X110254475Y-138381279D01*
X110248539Y-138378156D01*
X110076388Y-138281547D01*
X110070597Y-138278086D01*
X109902572Y-138171379D01*
X109896950Y-138167590D01*
X109733370Y-138050688D01*
X109727942Y-138046579D01*
X109685539Y-138012611D01*
X109569226Y-137919435D01*
X109564043Y-137915043D01*
X109410508Y-137777519D01*
X109405546Y-137772822D01*
X109251897Y-137619125D01*
X109249371Y-137616523D01*
X108908152Y-137254625D01*
X108677439Y-137009931D01*
X108675922Y-137008291D01*
X108585613Y-136908940D01*
X108582370Y-136905225D01*
X108501116Y-136808275D01*
X108498018Y-136804424D01*
X108421207Y-136704934D01*
X108418260Y-136700955D01*
X108371549Y-136635181D01*
X108349445Y-136604057D01*
X108345359Y-136597924D01*
X108210565Y-136381956D01*
X108205715Y-136373456D01*
X108092057Y-136154629D01*
X108087923Y-136145846D01*
X108033609Y-136017645D01*
X107992199Y-135919903D01*
X107988799Y-135910921D01*
X107911159Y-135678947D01*
X107908477Y-135669768D01*
X107849122Y-135432994D01*
X107847158Y-135423648D01*
X107806248Y-135183222D01*
X107805015Y-135173793D01*
X107782714Y-134930876D01*
X107782210Y-134921373D01*
X107778675Y-134677210D01*
X107778907Y-134667638D01*
X107784254Y-134582679D01*
X107794277Y-134423423D01*
X107795250Y-134413878D01*
X107829666Y-134170690D01*
X107831396Y-134161172D01*
X107884984Y-133920239D01*
X107887468Y-133910831D01*
X107962241Y-133667155D01*
X107964593Y-133660233D01*
X108006247Y-133548633D01*
X108008023Y-133544152D01*
X108056721Y-133428045D01*
X108058718Y-133423539D01*
X108067692Y-133404337D01*
X108112347Y-133308781D01*
X108114537Y-133304333D01*
X108174673Y-133188070D01*
X108176385Y-133184876D01*
X110341346Y-129286063D01*
X115474683Y-129286063D01*
X115474683Y-129286067D01*
X115494507Y-129512664D01*
X115494509Y-129512675D01*
X115553379Y-129732382D01*
X115553383Y-129732391D01*
X115649514Y-129938547D01*
X115779991Y-130124885D01*
X115940832Y-130285726D01*
X116013821Y-130336834D01*
X116420682Y-129464317D01*
X116459569Y-129531671D01*
X116534043Y-129606145D01*
X116625255Y-129658806D01*
X116726988Y-129686065D01*
X116832310Y-129686065D01*
X116874204Y-129674839D01*
X116466976Y-130548143D01*
X116553042Y-130571205D01*
X116553049Y-130571206D01*
X116779647Y-130591031D01*
X116779651Y-130591031D01*
X117006248Y-130571206D01*
X117006259Y-130571204D01*
X117225966Y-130512334D01*
X117225975Y-130512330D01*
X117432131Y-130416199D01*
X117618465Y-130285725D01*
X117779312Y-130124879D01*
X117830418Y-130051891D01*
X117830418Y-130051890D01*
X116957903Y-129645030D01*
X117025255Y-129606145D01*
X117099729Y-129531671D01*
X117152390Y-129440459D01*
X117179649Y-129338726D01*
X117179649Y-129233404D01*
X117168422Y-129191507D01*
X118041727Y-129598736D01*
X118064789Y-129512671D01*
X118064790Y-129512664D01*
X118084615Y-129286067D01*
X118084615Y-129286062D01*
X118064790Y-129059465D01*
X118064788Y-129059454D01*
X118005918Y-128839747D01*
X118005914Y-128839738D01*
X117909783Y-128633582D01*
X117779306Y-128447244D01*
X117618468Y-128286406D01*
X117618457Y-128286397D01*
X117545475Y-128235293D01*
X117138613Y-129107809D01*
X117099729Y-129040459D01*
X117025255Y-128965985D01*
X116934043Y-128913324D01*
X116832310Y-128886065D01*
X116726988Y-128886065D01*
X116685090Y-128897291D01*
X117092321Y-128023985D01*
X117092320Y-128023984D01*
X117006261Y-128000926D01*
X117006247Y-128000923D01*
X116779651Y-127981099D01*
X116779647Y-127981099D01*
X116553049Y-128000923D01*
X116553038Y-128000925D01*
X116333331Y-128059795D01*
X116333322Y-128059799D01*
X116127166Y-128155930D01*
X115940828Y-128286407D01*
X115779990Y-128447245D01*
X115779985Y-128447251D01*
X115728878Y-128520237D01*
X116601395Y-128927098D01*
X116534043Y-128965985D01*
X116459569Y-129040459D01*
X116406908Y-129131671D01*
X116379649Y-129233404D01*
X116379649Y-129338726D01*
X116390874Y-129380621D01*
X115517569Y-128973391D01*
X115517568Y-128973392D01*
X115494510Y-129059452D01*
X115494507Y-129059466D01*
X115474683Y-129286063D01*
X110341346Y-129286063D01*
X129167092Y-95383348D01*
X129216847Y-95334295D01*
X129285223Y-95319928D01*
X129350513Y-95344809D01*
X129391986Y-95401038D01*
X129399500Y-95443546D01*
X129399500Y-99699902D01*
X129379815Y-99766941D01*
X129363181Y-99787583D01*
X124519481Y-104631282D01*
X124519480Y-104631284D01*
X124473304Y-104711265D01*
X124469361Y-104718094D01*
X124469359Y-104718096D01*
X124440425Y-104768209D01*
X124440424Y-104768210D01*
X124424544Y-104827472D01*
X124399499Y-104920943D01*
X124399499Y-104920945D01*
X124399499Y-105089046D01*
X124399500Y-105089059D01*
X124399500Y-113658655D01*
X124379815Y-113725694D01*
X124334519Y-113767709D01*
X124231376Y-113823528D01*
X124231365Y-113823535D01*
X124048222Y-113966081D01*
X124048218Y-113966085D01*
X124039866Y-113975158D01*
X123979979Y-114011148D01*
X123910141Y-114009047D01*
X123852525Y-113969522D01*
X123832455Y-113934507D01*
X123803797Y-113857671D01*
X123803793Y-113857664D01*
X123717547Y-113742455D01*
X123717544Y-113742452D01*
X123602335Y-113656206D01*
X123602328Y-113656202D01*
X123467482Y-113605908D01*
X123467483Y-113605908D01*
X123407883Y-113599501D01*
X123407881Y-113599500D01*
X123407873Y-113599500D01*
X123407864Y-113599500D01*
X121512129Y-113599500D01*
X121512123Y-113599501D01*
X121452516Y-113605908D01*
X121317671Y-113656202D01*
X121317664Y-113656206D01*
X121202455Y-113742452D01*
X121202452Y-113742455D01*
X121116206Y-113857664D01*
X121116202Y-113857671D01*
X121065908Y-113992517D01*
X121059501Y-114052116D01*
X121059500Y-114052135D01*
X121059500Y-115499902D01*
X121039815Y-115566941D01*
X121023181Y-115587583D01*
X119519481Y-117091282D01*
X119519479Y-117091285D01*
X119469361Y-117178094D01*
X119469359Y-117178096D01*
X119440425Y-117228209D01*
X119440424Y-117228210D01*
X119432904Y-117256276D01*
X119399499Y-117380943D01*
X119399499Y-117380945D01*
X119399499Y-117549046D01*
X119399500Y-117549059D01*
X119399500Y-121148306D01*
X119379815Y-121215345D01*
X119346623Y-121249881D01*
X119160859Y-121379953D01*
X118999954Y-121540858D01*
X118869432Y-121727265D01*
X118869431Y-121727267D01*
X118773261Y-121933502D01*
X118773258Y-121933511D01*
X118714366Y-122153302D01*
X118714365Y-122153309D01*
X118694532Y-122379998D01*
X118694532Y-122380001D01*
X118714364Y-122606686D01*
X118714366Y-122606697D01*
X118773258Y-122826488D01*
X118773261Y-122826497D01*
X118869431Y-123032732D01*
X118869432Y-123032734D01*
X118999954Y-123219141D01*
X119160858Y-123380045D01*
X119160861Y-123380047D01*
X119347266Y-123510568D01*
X119553504Y-123606739D01*
X119773308Y-123665635D01*
X119935230Y-123679801D01*
X119999998Y-123685468D01*
X120000000Y-123685468D01*
X120000002Y-123685468D01*
X120056673Y-123680509D01*
X120226692Y-123665635D01*
X120446496Y-123606739D01*
X120652734Y-123510568D01*
X120839139Y-123380047D01*
X121000047Y-123219139D01*
X121130568Y-123032734D01*
X121226739Y-122826496D01*
X121285635Y-122606692D01*
X121305468Y-122380000D01*
X121285635Y-122153308D01*
X121226739Y-121933504D01*
X121130568Y-121727266D01*
X121000047Y-121540861D01*
X121000045Y-121540858D01*
X120839140Y-121379953D01*
X120653377Y-121249881D01*
X120609752Y-121195304D01*
X120600500Y-121148306D01*
X120600500Y-117760096D01*
X120620185Y-117693057D01*
X120636814Y-117672420D01*
X121872416Y-116436817D01*
X121933739Y-116403333D01*
X121960097Y-116400499D01*
X123407871Y-116400499D01*
X123407872Y-116400499D01*
X123467483Y-116394091D01*
X123602331Y-116343796D01*
X123717546Y-116257546D01*
X123803796Y-116142331D01*
X123832455Y-116065493D01*
X123874326Y-116009559D01*
X123939790Y-115985141D01*
X124008063Y-115999992D01*
X124039866Y-116024843D01*
X124047302Y-116032920D01*
X124048215Y-116033912D01*
X124048222Y-116033918D01*
X124231365Y-116176464D01*
X124231371Y-116176468D01*
X124231374Y-116176470D01*
X124435497Y-116286936D01*
X124549487Y-116326068D01*
X124655015Y-116362297D01*
X124655017Y-116362297D01*
X124655019Y-116362298D01*
X124883951Y-116400500D01*
X124883952Y-116400500D01*
X125116048Y-116400500D01*
X125116049Y-116400500D01*
X125344981Y-116362298D01*
X125564503Y-116286936D01*
X125768626Y-116176470D01*
X125951784Y-116033913D01*
X126108979Y-115863153D01*
X126235924Y-115668849D01*
X126329157Y-115456300D01*
X126386134Y-115231305D01*
X126386201Y-115230498D01*
X126405300Y-115000006D01*
X126405300Y-114999993D01*
X126386135Y-114768702D01*
X126386131Y-114768682D01*
X126341680Y-114593151D01*
X126344304Y-114523331D01*
X126374202Y-114475031D01*
X130018535Y-110830698D01*
X130079856Y-110797215D01*
X130092311Y-110795163D01*
X130179255Y-110785368D01*
X130349522Y-110725789D01*
X130502262Y-110629816D01*
X130629816Y-110502262D01*
X130725789Y-110349522D01*
X130785368Y-110179255D01*
X130805565Y-110000000D01*
X130805565Y-109999997D01*
X131195034Y-109999997D01*
X131195034Y-110000002D01*
X131214858Y-110226599D01*
X131214860Y-110226610D01*
X131273730Y-110446317D01*
X131273735Y-110446331D01*
X131369863Y-110652478D01*
X131420974Y-110725472D01*
X132100000Y-110046446D01*
X132100000Y-110052661D01*
X132127259Y-110154394D01*
X132179920Y-110245606D01*
X132254394Y-110320080D01*
X132345606Y-110372741D01*
X132447339Y-110400000D01*
X132453553Y-110400000D01*
X131774526Y-111079025D01*
X131847513Y-111130132D01*
X131847521Y-111130136D01*
X132053668Y-111226264D01*
X132053682Y-111226269D01*
X132273389Y-111285139D01*
X132273400Y-111285141D01*
X132499998Y-111304966D01*
X132500002Y-111304966D01*
X132726599Y-111285141D01*
X132726610Y-111285139D01*
X132946317Y-111226269D01*
X132946331Y-111226264D01*
X133152478Y-111130136D01*
X133225471Y-111079024D01*
X132546447Y-110400000D01*
X132552661Y-110400000D01*
X132654394Y-110372741D01*
X132745606Y-110320080D01*
X132820080Y-110245606D01*
X132872741Y-110154394D01*
X132900000Y-110052661D01*
X132900000Y-110046447D01*
X133579024Y-110725471D01*
X133630136Y-110652478D01*
X133726264Y-110446331D01*
X133726269Y-110446317D01*
X133785139Y-110226610D01*
X133785141Y-110226599D01*
X133804966Y-110000002D01*
X133804966Y-109999997D01*
X133785141Y-109773400D01*
X133785139Y-109773389D01*
X133726269Y-109553682D01*
X133726264Y-109553668D01*
X133630136Y-109347521D01*
X133630132Y-109347513D01*
X133579025Y-109274526D01*
X132900000Y-109953551D01*
X132900000Y-109947339D01*
X132872741Y-109845606D01*
X132820080Y-109754394D01*
X132745606Y-109679920D01*
X132654394Y-109627259D01*
X132552661Y-109600000D01*
X132546448Y-109600000D01*
X133225472Y-108920974D01*
X133152478Y-108869863D01*
X132946331Y-108773735D01*
X132946317Y-108773730D01*
X132726610Y-108714860D01*
X132726599Y-108714858D01*
X132500002Y-108695034D01*
X132499998Y-108695034D01*
X132273400Y-108714858D01*
X132273389Y-108714860D01*
X132053682Y-108773730D01*
X132053673Y-108773734D01*
X131847516Y-108869866D01*
X131847512Y-108869868D01*
X131774526Y-108920973D01*
X131774526Y-108920974D01*
X132453553Y-109600000D01*
X132447339Y-109600000D01*
X132345606Y-109627259D01*
X132254394Y-109679920D01*
X132179920Y-109754394D01*
X132127259Y-109845606D01*
X132100000Y-109947339D01*
X132100000Y-109953552D01*
X131420974Y-109274526D01*
X131420973Y-109274526D01*
X131369868Y-109347512D01*
X131369866Y-109347516D01*
X131273734Y-109553673D01*
X131273730Y-109553682D01*
X131214860Y-109773389D01*
X131214858Y-109773400D01*
X131195034Y-109999997D01*
X130805565Y-109999997D01*
X130802419Y-109972082D01*
X130785369Y-109820750D01*
X130785368Y-109820745D01*
X130725788Y-109650476D01*
X130629815Y-109497737D01*
X130502262Y-109370184D01*
X130349523Y-109274211D01*
X130179254Y-109214631D01*
X130179249Y-109214630D01*
X130000004Y-109194435D01*
X129999996Y-109194435D01*
X129820750Y-109214630D01*
X129820745Y-109214631D01*
X129650476Y-109274211D01*
X129497737Y-109370184D01*
X129370184Y-109497737D01*
X129274210Y-109650478D01*
X129214630Y-109820750D01*
X129204837Y-109907668D01*
X129177770Y-109972082D01*
X129169298Y-109981465D01*
X125812181Y-113338583D01*
X125750858Y-113372068D01*
X125681166Y-113367084D01*
X125625233Y-113325212D01*
X125600816Y-113259748D01*
X125600500Y-113250902D01*
X125600500Y-105300096D01*
X125620185Y-105233057D01*
X125636814Y-105212420D01*
X130358506Y-100490727D01*
X130358511Y-100490724D01*
X130368714Y-100480520D01*
X130368716Y-100480520D01*
X130480520Y-100368716D01*
X130484059Y-100362586D01*
X130533327Y-100277252D01*
X130533328Y-100277250D01*
X130559574Y-100231790D01*
X130559575Y-100231789D01*
X130559575Y-100231787D01*
X130559577Y-100231785D01*
X130600501Y-100079057D01*
X130600501Y-99920943D01*
X130600501Y-99913348D01*
X130600500Y-99913330D01*
X130600500Y-95300097D01*
X130620185Y-95233058D01*
X130636819Y-95212416D01*
X135030734Y-90818501D01*
X140480520Y-85368716D01*
X140501678Y-85332069D01*
X140559577Y-85231785D01*
X140600501Y-85079058D01*
X140600501Y-84920943D01*
X140588678Y-84876817D01*
X140586061Y-84867048D01*
X140559578Y-84768218D01*
X140559577Y-84768215D01*
X140521871Y-84702907D01*
X140480520Y-84631284D01*
X140368716Y-84519480D01*
X140368715Y-84519479D01*
X140361416Y-84512180D01*
X140327931Y-84450857D01*
X140332915Y-84381165D01*
X140374787Y-84325232D01*
X140440251Y-84300815D01*
X140449097Y-84300499D01*
X140724137Y-84300499D01*
X140791176Y-84320184D01*
X140811818Y-84336818D01*
X147299374Y-90824374D01*
X147299384Y-90824385D01*
X147303714Y-90828715D01*
X147303715Y-90828716D01*
X147415519Y-90940520D01*
X147415521Y-90940521D01*
X147415525Y-90940524D01*
X147552444Y-91019573D01*
X147552451Y-91019577D01*
X147664254Y-91049534D01*
X147705177Y-91060500D01*
X147705178Y-91060500D01*
X156033331Y-91060500D01*
X156033347Y-91060501D01*
X156040943Y-91060501D01*
X156199054Y-91060501D01*
X156199057Y-91060501D01*
X156351785Y-91019577D01*
X156401904Y-90990639D01*
X156488716Y-90940520D01*
X156600520Y-90828716D01*
X156600520Y-90828714D01*
X156610728Y-90818507D01*
X156610729Y-90818504D01*
X163060520Y-84368716D01*
X163060649Y-84368491D01*
X163064111Y-84362498D01*
X163114678Y-84314283D01*
X163171497Y-84300499D01*
X163262871Y-84300499D01*
X163262872Y-84300499D01*
X163322483Y-84294091D01*
X163457331Y-84243796D01*
X163572546Y-84157546D01*
X163658796Y-84042331D01*
X163709091Y-83907483D01*
X163715500Y-83847873D01*
X163715499Y-78672128D01*
X163709091Y-78612517D01*
X163695178Y-78575215D01*
X163658797Y-78477671D01*
X163658793Y-78477664D01*
X163572547Y-78362455D01*
X163572544Y-78362452D01*
X163457335Y-78276206D01*
X163457328Y-78276202D01*
X163322482Y-78225908D01*
X163322483Y-78225908D01*
X163262883Y-78219501D01*
X163262881Y-78219500D01*
X163262873Y-78219500D01*
X163262864Y-78219500D01*
X161897129Y-78219500D01*
X161897123Y-78219501D01*
X161837516Y-78225908D01*
X161702671Y-78276202D01*
X161702664Y-78276206D01*
X161587455Y-78362452D01*
X161587452Y-78362455D01*
X161501206Y-78477664D01*
X161501202Y-78477671D01*
X161450908Y-78612517D01*
X161444501Y-78672116D01*
X161444501Y-78672123D01*
X161444500Y-78672135D01*
X161444500Y-83847870D01*
X161444501Y-83847876D01*
X161450908Y-83907483D01*
X161501202Y-84042327D01*
X161501203Y-84042328D01*
X161501204Y-84042331D01*
X161516968Y-84063389D01*
X161541385Y-84128850D01*
X161526534Y-84197124D01*
X161505382Y-84225380D01*
X160279282Y-85451480D01*
X160217959Y-85484965D01*
X160148267Y-85479981D01*
X160092334Y-85438109D01*
X160067917Y-85372645D01*
X160078654Y-85312623D01*
X160284118Y-84859155D01*
X160284127Y-84859132D01*
X160500908Y-84283159D01*
X160500913Y-84283144D01*
X160679564Y-83694209D01*
X160679567Y-83694201D01*
X160819321Y-83094828D01*
X160919575Y-82487598D01*
X160979898Y-81875130D01*
X161000035Y-81260000D01*
X160979898Y-80644869D01*
X160919575Y-80032401D01*
X160819321Y-79425171D01*
X160679567Y-78825798D01*
X160679564Y-78825790D01*
X160500913Y-78236855D01*
X160500908Y-78236840D01*
X160284127Y-77660867D01*
X160284118Y-77660844D01*
X160030123Y-77100267D01*
X160030110Y-77100240D01*
X159740008Y-76557495D01*
X159739995Y-76557473D01*
X159415010Y-76034854D01*
X159415004Y-76034844D01*
X159056517Y-75534577D01*
X158666087Y-75058838D01*
X158666070Y-75058818D01*
X158416354Y-74792198D01*
X158416353Y-74792197D01*
X151682680Y-81525871D01*
X151621357Y-81559356D01*
X151551665Y-81554372D01*
X151507318Y-81525871D01*
X144773645Y-74792198D01*
X144523914Y-75058835D01*
X144523912Y-75058838D01*
X144133482Y-75534577D01*
X143774995Y-76034844D01*
X143774989Y-76034854D01*
X143450004Y-76557473D01*
X143449991Y-76557495D01*
X143159889Y-77100240D01*
X143159876Y-77100267D01*
X142905881Y-77660844D01*
X142905872Y-77660867D01*
X142689091Y-78236840D01*
X142689086Y-78236855D01*
X142510435Y-78825790D01*
X142510432Y-78825798D01*
X142370678Y-79425171D01*
X142270424Y-80032401D01*
X142210101Y-80644869D01*
X142189964Y-81260000D01*
X142210101Y-81875130D01*
X142270424Y-82487598D01*
X142370678Y-83094828D01*
X142510432Y-83694201D01*
X142510435Y-83694209D01*
X142646611Y-84143123D01*
X142647234Y-84212990D01*
X142609986Y-84272103D01*
X142546692Y-84301693D01*
X142477447Y-84292368D01*
X142440269Y-84266799D01*
X141781818Y-83608348D01*
X141748333Y-83547025D01*
X141745499Y-83520667D01*
X141745499Y-78672129D01*
X141745498Y-78672123D01*
X141745497Y-78672116D01*
X141739091Y-78612517D01*
X141725178Y-78575215D01*
X141688797Y-78477671D01*
X141688793Y-78477664D01*
X141602547Y-78362455D01*
X141602544Y-78362452D01*
X141487335Y-78276206D01*
X141487328Y-78276202D01*
X141352482Y-78225908D01*
X141352484Y-78225908D01*
X141321244Y-78222550D01*
X141256693Y-78195812D01*
X141216845Y-78138419D01*
X141210500Y-78099261D01*
X141210500Y-78030945D01*
X141210500Y-78030943D01*
X141174379Y-77896136D01*
X141174379Y-77896135D01*
X141174379Y-77896134D01*
X141169578Y-77878218D01*
X141169577Y-77878216D01*
X141169577Y-77878215D01*
X141140639Y-77828095D01*
X141090520Y-77741284D01*
X140978716Y-77629480D01*
X140978715Y-77629479D01*
X140974385Y-77625149D01*
X140974374Y-77625139D01*
X137787880Y-74438645D01*
X145127198Y-74438645D01*
X151594999Y-80906446D01*
X158062801Y-74438645D01*
X157796181Y-74188929D01*
X157796161Y-74188912D01*
X157320422Y-73798482D01*
X157320423Y-73798482D01*
X156820155Y-73439995D01*
X156820145Y-73439989D01*
X156297526Y-73115004D01*
X156297504Y-73114991D01*
X155754759Y-72824889D01*
X155754732Y-72824876D01*
X155194155Y-72570881D01*
X155194132Y-72570872D01*
X154618159Y-72354091D01*
X154618144Y-72354086D01*
X154029209Y-72175435D01*
X154029201Y-72175432D01*
X153429828Y-72035678D01*
X152822598Y-71935424D01*
X152210130Y-71875101D01*
X151595000Y-71854964D01*
X150979869Y-71875101D01*
X150367401Y-71935424D01*
X149760171Y-72035678D01*
X149160798Y-72175432D01*
X149160790Y-72175435D01*
X148571855Y-72354086D01*
X148571840Y-72354091D01*
X147995867Y-72570872D01*
X147995844Y-72570881D01*
X147435267Y-72824876D01*
X147435240Y-72824889D01*
X146892495Y-73114991D01*
X146892473Y-73115004D01*
X146369854Y-73439989D01*
X146369844Y-73439995D01*
X145869577Y-73798482D01*
X145393838Y-74188912D01*
X145393835Y-74188914D01*
X145127198Y-74438645D01*
X137787880Y-74438645D01*
X135487590Y-72138355D01*
X135487588Y-72138352D01*
X135368717Y-72019481D01*
X135368716Y-72019480D01*
X135264042Y-71959047D01*
X135264041Y-71959046D01*
X135231783Y-71940422D01*
X135175881Y-71925443D01*
X135079057Y-71899499D01*
X134920943Y-71899499D01*
X134913347Y-71899499D01*
X134913331Y-71899500D01*
X112586670Y-71899500D01*
X112586654Y-71899499D01*
X112579058Y-71899499D01*
X112420943Y-71899499D01*
X112344579Y-71919961D01*
X112268214Y-71940423D01*
X112268209Y-71940426D01*
X112131290Y-72019475D01*
X112131282Y-72019481D01*
X111251465Y-72899298D01*
X111190142Y-72932783D01*
X111177668Y-72934837D01*
X111090750Y-72944630D01*
X110920478Y-73004210D01*
X110767737Y-73100184D01*
X110640184Y-73227737D01*
X110544211Y-73380476D01*
X110484631Y-73550745D01*
X110484630Y-73550750D01*
X110464435Y-73729996D01*
X110464435Y-73730003D01*
X110484630Y-73909249D01*
X110484631Y-73909254D01*
X110544211Y-74079523D01*
X110612956Y-74188929D01*
X110640184Y-74232262D01*
X110767738Y-74359816D01*
X110920478Y-74455789D01*
X111057205Y-74503631D01*
X111113980Y-74544353D01*
X111139728Y-74609305D01*
X111126272Y-74677867D01*
X111103931Y-74708354D01*
X108249106Y-77563181D01*
X108187783Y-77596666D01*
X108161425Y-77599500D01*
X104949256Y-77599500D01*
X104882217Y-77579815D01*
X104836462Y-77527011D01*
X104826518Y-77457853D01*
X104855543Y-77394297D01*
X104905923Y-77359318D01*
X105111306Y-77282714D01*
X105111310Y-77282712D01*
X105349835Y-77152467D01*
X105349843Y-77152462D01*
X105567405Y-76989598D01*
X105567423Y-76989582D01*
X105759582Y-76797423D01*
X105759598Y-76797405D01*
X105922462Y-76579843D01*
X105922467Y-76579835D01*
X106052712Y-76341310D01*
X106052714Y-76341306D01*
X106147694Y-76086654D01*
X106205462Y-75821097D01*
X106205463Y-75821090D01*
X106224853Y-75550000D01*
X106224853Y-75549999D01*
X106219058Y-75469000D01*
X105007325Y-75682661D01*
X105020000Y-75618944D01*
X105020000Y-75481056D01*
X104993099Y-75345818D01*
X104940332Y-75218426D01*
X104921404Y-75190098D01*
X106133879Y-74976306D01*
X106052714Y-74758693D01*
X106052712Y-74758689D01*
X105922467Y-74520164D01*
X105922462Y-74520156D01*
X105759598Y-74302594D01*
X105759582Y-74302576D01*
X105567423Y-74110417D01*
X105567405Y-74110401D01*
X105349843Y-73947537D01*
X105349835Y-73947532D01*
X105111310Y-73817287D01*
X105111306Y-73817285D01*
X104856654Y-73722305D01*
X104591097Y-73664537D01*
X104591090Y-73664536D01*
X104320001Y-73645147D01*
X104320000Y-73645147D01*
X104239000Y-73650939D01*
X104239000Y-73650940D01*
X104452661Y-74862674D01*
X104388944Y-74850000D01*
X104251056Y-74850000D01*
X104115818Y-74876901D01*
X103988426Y-74929668D01*
X103960098Y-74948595D01*
X103746306Y-73736119D01*
X103528689Y-73817287D01*
X103290164Y-73947532D01*
X103290156Y-73947537D01*
X103072594Y-74110401D01*
X103072576Y-74110417D01*
X102880417Y-74302576D01*
X102880401Y-74302594D01*
X102717537Y-74520156D01*
X102717532Y-74520164D01*
X102587287Y-74758689D01*
X102587285Y-74758693D01*
X102492305Y-75013345D01*
X102434537Y-75278902D01*
X102434536Y-75278909D01*
X102415147Y-75549998D01*
X102415147Y-75550001D01*
X102420939Y-75630998D01*
X102420940Y-75630998D01*
X103632674Y-75417336D01*
X103620000Y-75481056D01*
X103620000Y-75618944D01*
X103646901Y-75754182D01*
X103699668Y-75881574D01*
X103718594Y-75909900D01*
X102506119Y-76123692D01*
X102587287Y-76341310D01*
X102717532Y-76579835D01*
X102717537Y-76579843D01*
X102880401Y-76797405D01*
X102880417Y-76797423D01*
X103072576Y-76989582D01*
X103072594Y-76989598D01*
X103290156Y-77152462D01*
X103290164Y-77152467D01*
X103528689Y-77282712D01*
X103528693Y-77282714D01*
X103734077Y-77359318D01*
X103790011Y-77401189D01*
X103814428Y-77466654D01*
X103799576Y-77534927D01*
X103750171Y-77584332D01*
X103690744Y-77599500D01*
X103558946Y-77599500D01*
X103400832Y-77599500D01*
X103248104Y-77640423D01*
X103223142Y-77654834D01*
X103216453Y-77658697D01*
X103216452Y-77658696D01*
X103111176Y-77719477D01*
X103111171Y-77719481D01*
X102999367Y-77831286D01*
X101007917Y-79822735D01*
X100946594Y-79856220D01*
X100876904Y-79851236D01*
X100629541Y-79758974D01*
X100629534Y-79758972D01*
X100629533Y-79758972D01*
X100363907Y-79701189D01*
X100363900Y-79701188D01*
X100092741Y-79681794D01*
X100092739Y-79681794D01*
X99821579Y-79701188D01*
X99821572Y-79701189D01*
X99555946Y-79758972D01*
X99555942Y-79758973D01*
X99555939Y-79758974D01*
X99460830Y-79794448D01*
X99301220Y-79853979D01*
X99062632Y-79984258D01*
X99062631Y-79984259D01*
X98844999Y-80147177D01*
X98844987Y-80147187D01*
X98652778Y-80339396D01*
X98652768Y-80339408D01*
X98489850Y-80557040D01*
X98489849Y-80557041D01*
X98359570Y-80795629D01*
X98318238Y-80906446D01*
X98264565Y-81050348D01*
X98264564Y-81050351D01*
X98264563Y-81050355D01*
X98206780Y-81315981D01*
X98206779Y-81315988D01*
X98187385Y-81587147D01*
X98187385Y-81587150D01*
X98206779Y-81858309D01*
X98206780Y-81858316D01*
X98264563Y-82123942D01*
X98264565Y-82123950D01*
X98336109Y-82315765D01*
X98359570Y-82378668D01*
X98489849Y-82617256D01*
X98489850Y-82617257D01*
X98489853Y-82617262D01*
X98652769Y-82834891D01*
X98652773Y-82834895D01*
X98652778Y-82834901D01*
X98844987Y-83027110D01*
X98844993Y-83027115D01*
X98844998Y-83027120D01*
X99062627Y-83190036D01*
X99062631Y-83190038D01*
X99062632Y-83190039D01*
X99301221Y-83320318D01*
X99301220Y-83320318D01*
X99301224Y-83320319D01*
X99301227Y-83320321D01*
X99555939Y-83415324D01*
X99821580Y-83473110D01*
X100073345Y-83491116D01*
X100092739Y-83492504D01*
X100092740Y-83492504D01*
X100092741Y-83492504D01*
X100110840Y-83491209D01*
X100363900Y-83473110D01*
X100629541Y-83415324D01*
X100884253Y-83320321D01*
X100884257Y-83320318D01*
X100884259Y-83320318D01*
X101003553Y-83255178D01*
X101122853Y-83190036D01*
X101340482Y-83027120D01*
X101532711Y-82834891D01*
X101695627Y-82617262D01*
X101791827Y-82441085D01*
X101825909Y-82378668D01*
X101825909Y-82378666D01*
X101825912Y-82378662D01*
X101920915Y-82123950D01*
X101978701Y-81858309D01*
X101986247Y-81752803D01*
X102010664Y-81687338D01*
X102066598Y-81645467D01*
X102109931Y-81637649D01*
X105737052Y-81637649D01*
X105804091Y-81657334D01*
X105824733Y-81673968D01*
X108913181Y-84762416D01*
X108946666Y-84823739D01*
X108949500Y-84850097D01*
X108949500Y-85145500D01*
X108929815Y-85212539D01*
X108877011Y-85258294D01*
X108825500Y-85269500D01*
X108132129Y-85269500D01*
X108132123Y-85269501D01*
X108072516Y-85275908D01*
X107937671Y-85326202D01*
X107937664Y-85326206D01*
X107822455Y-85412452D01*
X107822452Y-85412455D01*
X107736206Y-85527664D01*
X107736202Y-85527671D01*
X107685908Y-85662517D01*
X107679501Y-85722116D01*
X107679500Y-85722135D01*
X107679500Y-87617870D01*
X107679501Y-87617876D01*
X107685908Y-87677483D01*
X107736202Y-87812328D01*
X107736206Y-87812335D01*
X107822452Y-87927544D01*
X107822455Y-87927547D01*
X107937664Y-88013793D01*
X107937671Y-88013797D01*
X108072517Y-88064091D01*
X108072516Y-88064091D01*
X108079444Y-88064835D01*
X108132127Y-88070500D01*
X109327872Y-88070499D01*
X109387483Y-88064091D01*
X109522124Y-88013872D01*
X109591815Y-88008889D01*
X109653138Y-88042374D01*
X109863416Y-88252652D01*
X109896901Y-88313975D01*
X109891917Y-88383667D01*
X109850045Y-88439600D01*
X109784581Y-88464017D01*
X109777073Y-88464326D01*
X100949076Y-88559596D01*
X100946017Y-88559591D01*
X100437180Y-88552527D01*
X100430826Y-88552276D01*
X99937017Y-88520052D01*
X99930699Y-88519477D01*
X99444137Y-88462616D01*
X99437877Y-88461722D01*
X98959144Y-88380857D01*
X98952965Y-88379651D01*
X98482635Y-88275409D01*
X98476556Y-88273900D01*
X98015143Y-88146881D01*
X98009199Y-88145083D01*
X97557301Y-87995899D01*
X97551514Y-87993827D01*
X97109758Y-87823099D01*
X97104075Y-87820739D01*
X96673052Y-87629070D01*
X96667525Y-87626447D01*
X96247839Y-87414439D01*
X96242479Y-87411564D01*
X95834749Y-87179829D01*
X95829562Y-87176711D01*
X95434434Y-86925873D01*
X95429428Y-86922521D01*
X95047526Y-86653193D01*
X95042705Y-86649616D01*
X94674626Y-86362389D01*
X94669998Y-86358594D01*
X94391829Y-86119060D01*
X94316408Y-86054114D01*
X94311999Y-86050128D01*
X93973538Y-85729023D01*
X93969310Y-85724814D01*
X93968716Y-85724193D01*
X93646643Y-85387743D01*
X93642626Y-85383339D01*
X93336326Y-85030868D01*
X93332516Y-85026265D01*
X93115883Y-84751265D01*
X93043258Y-84659072D01*
X93039673Y-84654287D01*
X93027405Y-84637064D01*
X92768086Y-84273003D01*
X92764743Y-84268061D01*
X92511428Y-83873279D01*
X92508302Y-83868136D01*
X92496649Y-83847872D01*
X92273928Y-83460560D01*
X92271042Y-83455245D01*
X92267662Y-83448641D01*
X92056211Y-83035469D01*
X92053572Y-83029985D01*
X91970175Y-82845194D01*
X91858862Y-82598548D01*
X91856499Y-82592947D01*
X91682569Y-82150556D01*
X91680475Y-82144816D01*
X91527919Y-81692019D01*
X91526093Y-81686117D01*
X91512413Y-81637649D01*
X91405973Y-81260523D01*
X91395539Y-81223554D01*
X91394001Y-81217529D01*
X91286065Y-80745792D01*
X91284825Y-80739669D01*
X91277691Y-80699210D01*
X91200107Y-80259233D01*
X91199184Y-80253096D01*
X91138319Y-79764557D01*
X91137702Y-79758307D01*
X91137145Y-79750704D01*
X91101335Y-79262282D01*
X91101036Y-79256024D01*
X91089801Y-78752821D01*
X91089818Y-78746627D01*
X91104221Y-78232900D01*
X91104547Y-78226766D01*
X91144213Y-77719946D01*
X91144843Y-77713847D01*
X91209142Y-77214495D01*
X91210070Y-77208474D01*
X91298373Y-76717208D01*
X91299593Y-76711272D01*
X91411275Y-76228688D01*
X91412799Y-76222773D01*
X91547246Y-75749437D01*
X91549048Y-75743640D01*
X91555515Y-75724500D01*
X91705668Y-75280083D01*
X91707727Y-75274446D01*
X91885923Y-74821248D01*
X91888233Y-74815765D01*
X92087392Y-74373555D01*
X92089959Y-74368206D01*
X92309437Y-73937671D01*
X92312261Y-73932445D01*
X92325523Y-73909255D01*
X92551502Y-73514096D01*
X92554541Y-73509065D01*
X92812889Y-73103612D01*
X92816177Y-73098714D01*
X93093048Y-72706725D01*
X93096538Y-72702026D01*
X93391297Y-72324163D01*
X93395019Y-72319619D01*
X93432550Y-72275944D01*
X93707057Y-71956495D01*
X93710957Y-71952169D01*
X94039669Y-71604401D01*
X94043769Y-71600264D01*
X94388456Y-71268556D01*
X94392782Y-71264587D01*
X94752890Y-70949498D01*
X94757406Y-70945733D01*
X95132265Y-70647927D01*
X95136904Y-70644417D01*
X95525966Y-70364458D01*
X95530801Y-70361151D01*
X95933327Y-70099744D01*
X95938389Y-70096628D01*
X96353764Y-69854376D01*
X96358953Y-69851515D01*
X96786638Y-69628990D01*
X96791990Y-69626368D01*
X97231313Y-69424212D01*
X97236798Y-69421848D01*
X97687217Y-69240643D01*
X97692881Y-69238525D01*
X98153675Y-69078927D01*
X98159454Y-69077084D01*
X98630160Y-68939656D01*
X98636060Y-68938092D01*
X99116002Y-68823474D01*
X99122018Y-68822194D01*
X99610696Y-68730982D01*
X99616758Y-68730007D01*
X100113638Y-68662819D01*
X100119764Y-68662147D01*
X100624227Y-68619624D01*
X100630405Y-68619259D01*
X101147134Y-68601857D01*
X101151308Y-68601787D01*
X101210889Y-68601787D01*
X101217602Y-68601325D01*
X114483041Y-68519947D01*
X114550199Y-68539220D01*
X114596277Y-68591743D01*
X114607801Y-68643945D01*
X114607801Y-70187849D01*
X131243698Y-70187849D01*
X131243698Y-68540369D01*
X131263383Y-68473330D01*
X131316187Y-68427575D01*
X131366932Y-68416372D01*
X151168565Y-68294898D01*
X151171322Y-68294913D01*
G37*
%TD.AperFunction*%
%TD*%
M02*
