%TF.GenerationSoftware,KiCad,Pcbnew,8.0.6*%
%TF.CreationDate,2025-04-24T23:31:37-04:00*%
%TF.ProjectId,hcsolder,6863736f-6c64-4657-922e-6b696361645f,rev?*%
%TF.SameCoordinates,Original*%
%TF.FileFunction,Profile,NP*%
%FSLAX46Y46*%
G04 Gerber Fmt 4.6, Leading zero omitted, Abs format (unit mm)*
G04 Created by KiCad (PCBNEW 8.0.6) date 2025-04-24 23:31:37*
%MOMM*%
%LPD*%
G01*
G04 APERTURE LIST*
%TA.AperFunction,Profile*%
%ADD10C,0.100000*%
%TD*%
G04 APERTURE END LIST*
D10*
X151833539Y-67805479D02*
X152492841Y-67846236D01*
X153149534Y-67915853D01*
X153802663Y-68013545D01*
X155094419Y-68290017D01*
X156360481Y-68669377D01*
X157593221Y-69145354D01*
X158785012Y-69711673D01*
X159928227Y-70362061D01*
X161015238Y-71090244D01*
X162038417Y-71889948D01*
X162990137Y-72754899D01*
X163862770Y-73678825D01*
X164648688Y-74655451D01*
X165340264Y-75678504D01*
X165929871Y-76741710D01*
X166184051Y-77286411D01*
X166409879Y-77838796D01*
X166606401Y-78398084D01*
X166772664Y-78963488D01*
X189170887Y-145060992D01*
X189250023Y-145316581D01*
X189313036Y-145576218D01*
X189360281Y-145839241D01*
X189392108Y-146104984D01*
X189408872Y-146372784D01*
X189410924Y-146641976D01*
X189398618Y-146911898D01*
X189372305Y-147181884D01*
X189332340Y-147451270D01*
X189279074Y-147719393D01*
X189212861Y-147985588D01*
X189134052Y-148249192D01*
X189043001Y-148509540D01*
X188940061Y-148765968D01*
X188699921Y-149264410D01*
X188416455Y-149739203D01*
X188259357Y-149966072D01*
X188092485Y-150185037D01*
X187916192Y-150395434D01*
X187730832Y-150596599D01*
X187536756Y-150787867D01*
X187334317Y-150968576D01*
X187123868Y-151138059D01*
X186905762Y-151295655D01*
X186680351Y-151440698D01*
X186447989Y-151572525D01*
X186209027Y-151690471D01*
X185963819Y-151793873D01*
X185712717Y-151882066D01*
X185456074Y-151954386D01*
X185315057Y-152010590D01*
X185144786Y-152064637D01*
X184913339Y-152121572D01*
X184624717Y-152170590D01*
X184460215Y-152188753D01*
X184282919Y-152200885D01*
X184093329Y-152205635D01*
X183891944Y-152201651D01*
X183679266Y-152187585D01*
X183455794Y-152162084D01*
X183222027Y-152123798D01*
X182978467Y-152071377D01*
X182725612Y-152003469D01*
X182463964Y-151918725D01*
X182194021Y-151815792D01*
X181916283Y-151693321D01*
X181631252Y-151549960D01*
X181339426Y-151384360D01*
X181041306Y-151195169D01*
X180737392Y-150981037D01*
X180428184Y-150740612D01*
X180114181Y-150472545D01*
X179795883Y-150175485D01*
X179473792Y-149848080D01*
X179148406Y-149488980D01*
X178820225Y-149096835D01*
X149249913Y-98998061D01*
X149161211Y-98844821D01*
X149067199Y-98696044D01*
X148968045Y-98551815D01*
X148863917Y-98412213D01*
X148754983Y-98277322D01*
X148641412Y-98147223D01*
X148523370Y-98021999D01*
X148401026Y-97901732D01*
X148274548Y-97786502D01*
X148144104Y-97676394D01*
X148009861Y-97571488D01*
X147871988Y-97471866D01*
X147730653Y-97377612D01*
X147586023Y-97288806D01*
X147438267Y-97205530D01*
X147287553Y-97127868D01*
X147134048Y-97055900D01*
X146977920Y-96989709D01*
X146819338Y-96929378D01*
X146658468Y-96874987D01*
X146495481Y-96826619D01*
X146330542Y-96784356D01*
X146163820Y-96748280D01*
X145995484Y-96718473D01*
X145825700Y-96695018D01*
X145654638Y-96677995D01*
X145482465Y-96667488D01*
X145309348Y-96663578D01*
X145135456Y-96666348D01*
X144960957Y-96675878D01*
X144786019Y-96692252D01*
X144610810Y-96715552D01*
X142896283Y-97075389D01*
X142729717Y-97153769D01*
X142562408Y-97246848D01*
X142394854Y-97353860D01*
X142227551Y-97474042D01*
X142060998Y-97606628D01*
X141895692Y-97750855D01*
X141732130Y-97905960D01*
X141570809Y-98071176D01*
X141256882Y-98428891D01*
X140957889Y-98817885D01*
X140677810Y-99232047D01*
X140420624Y-99665262D01*
X140190311Y-100111417D01*
X139990848Y-100564398D01*
X139903930Y-100791538D01*
X139826216Y-101018093D01*
X139758205Y-101243297D01*
X139700394Y-101466387D01*
X139653280Y-101686598D01*
X139617361Y-101903167D01*
X139593133Y-102115329D01*
X139581095Y-102322321D01*
X139581744Y-102523377D01*
X139595576Y-102717734D01*
X139623091Y-102904627D01*
X139664784Y-103083293D01*
X141153531Y-106522933D01*
X141386965Y-107120476D01*
X141575527Y-107727543D01*
X141719576Y-108341835D01*
X141819465Y-108961051D01*
X141875554Y-109582893D01*
X141888197Y-110205061D01*
X141857751Y-110825255D01*
X141784574Y-111441175D01*
X141669021Y-112050521D01*
X141511450Y-112650995D01*
X141312216Y-113240296D01*
X141071676Y-113816124D01*
X140790187Y-114376181D01*
X140468106Y-114918166D01*
X140105788Y-115439780D01*
X139703591Y-115938723D01*
X139491921Y-116182147D01*
X139276344Y-116419367D01*
X139054398Y-116641874D01*
X138826268Y-116850170D01*
X138592137Y-117044757D01*
X138352190Y-117226135D01*
X138106611Y-117394805D01*
X137855584Y-117551269D01*
X137599293Y-117696028D01*
X137337922Y-117829584D01*
X137071655Y-117952437D01*
X136525171Y-118168041D01*
X135961312Y-118346852D01*
X135381553Y-118492878D01*
X134787365Y-118610130D01*
X134180222Y-118702619D01*
X133561596Y-118774354D01*
X132932960Y-118829346D01*
X131651550Y-118905139D01*
X130347775Y-118962081D01*
X115379172Y-137694880D01*
X115221958Y-137881081D01*
X115056905Y-138056017D01*
X114884501Y-138219667D01*
X114705239Y-138372013D01*
X114519606Y-138513033D01*
X114328095Y-138642708D01*
X114131196Y-138761018D01*
X113929398Y-138867943D01*
X113723191Y-138963463D01*
X113513068Y-139047557D01*
X113299516Y-139120207D01*
X113083028Y-139181391D01*
X112864092Y-139231089D01*
X112643200Y-139269282D01*
X112420841Y-139295950D01*
X112197507Y-139311073D01*
X111973686Y-139314630D01*
X111749870Y-139306602D01*
X111526549Y-139286968D01*
X111304214Y-139255709D01*
X111083353Y-139212804D01*
X110864458Y-139158234D01*
X110648019Y-139091979D01*
X110434527Y-139014017D01*
X110224471Y-138924331D01*
X110018341Y-138822898D01*
X109816629Y-138709700D01*
X109619825Y-138584716D01*
X109428418Y-138447927D01*
X109242899Y-138299312D01*
X109063758Y-138138851D01*
X108891486Y-137966525D01*
X108309391Y-137349154D01*
X108206826Y-137236320D01*
X108109493Y-137120184D01*
X108017413Y-137000918D01*
X107930611Y-136878692D01*
X107772927Y-136626049D01*
X107636623Y-136363622D01*
X107521878Y-136092783D01*
X107428873Y-135814900D01*
X107357790Y-135531342D01*
X107308809Y-135243480D01*
X107282112Y-134952683D01*
X107277879Y-134660319D01*
X107296291Y-134367760D01*
X107337528Y-134076373D01*
X107401772Y-133787529D01*
X107489204Y-133502597D01*
X107541672Y-133362026D01*
X107600005Y-133222946D01*
X107664225Y-133085529D01*
X107734354Y-132949946D01*
X133706269Y-86177910D01*
X133865582Y-85861000D01*
X134004777Y-85536912D01*
X134123746Y-85206985D01*
X134222380Y-84872556D01*
X134300570Y-84534965D01*
X134358208Y-84195549D01*
X134395186Y-83855648D01*
X134411395Y-83516600D01*
X134406726Y-83179742D01*
X134381070Y-82846415D01*
X134334321Y-82517955D01*
X134266368Y-82195702D01*
X134177103Y-81880993D01*
X134066418Y-81575168D01*
X133934205Y-81279565D01*
X133780354Y-80995522D01*
X133732518Y-80918947D01*
X133681068Y-80844009D01*
X133626170Y-80770712D01*
X133567994Y-80699060D01*
X133506707Y-80629056D01*
X133442476Y-80560704D01*
X133305859Y-80428974D01*
X133159484Y-80303899D01*
X133004697Y-80185512D01*
X132842840Y-80073842D01*
X132675258Y-79968922D01*
X132503293Y-79870782D01*
X132328290Y-79779453D01*
X132151592Y-79694965D01*
X131974542Y-79617351D01*
X131798485Y-79546641D01*
X131624764Y-79482867D01*
X131454722Y-79426058D01*
X131289704Y-79376246D01*
X131059256Y-79318645D01*
X130823960Y-79275606D01*
X130585254Y-79247306D01*
X130344574Y-79233920D01*
X130103356Y-79235623D01*
X129863038Y-79252592D01*
X129625055Y-79285002D01*
X129390845Y-79333029D01*
X129161844Y-79396849D01*
X128939489Y-79476637D01*
X128725216Y-79572569D01*
X128520462Y-79684820D01*
X128326664Y-79813567D01*
X128145257Y-79958985D01*
X128059650Y-80038001D01*
X127977680Y-80121250D01*
X127899526Y-80208755D01*
X127825367Y-80300538D01*
X127356460Y-80895443D01*
X126825158Y-81538449D01*
X125612864Y-82921057D01*
X124950622Y-83636804D01*
X124263482Y-84352944D01*
X123560818Y-85057550D01*
X122852004Y-85738694D01*
X122146415Y-86384450D01*
X121453425Y-86982890D01*
X120782407Y-87522087D01*
X120142738Y-87990114D01*
X119543790Y-88375045D01*
X118994938Y-88664951D01*
X118742227Y-88770543D01*
X118505556Y-88847906D01*
X118286096Y-88895549D01*
X118085019Y-88911982D01*
X110263369Y-88959608D01*
X100946798Y-89060151D01*
X100414209Y-89052757D01*
X99888464Y-89018449D01*
X99370226Y-88957886D01*
X98860159Y-88871728D01*
X98358927Y-88760637D01*
X97867192Y-88625271D01*
X97385618Y-88466291D01*
X96914869Y-88284358D01*
X96455607Y-88080131D01*
X96008497Y-87854270D01*
X95574201Y-87607436D01*
X95153384Y-87340290D01*
X94746708Y-87053490D01*
X94354837Y-86747698D01*
X93978434Y-86423573D01*
X93618163Y-86081776D01*
X93274687Y-85722967D01*
X92948669Y-85347806D01*
X92640773Y-84956953D01*
X92351663Y-84551068D01*
X92082002Y-84130812D01*
X91832452Y-83696845D01*
X91603678Y-83249826D01*
X91396344Y-82790417D01*
X91211111Y-82319277D01*
X91048644Y-81837066D01*
X90909607Y-81344445D01*
X90794662Y-80842074D01*
X90704473Y-80330612D01*
X90639703Y-79810721D01*
X90601016Y-79283060D01*
X90589076Y-78748290D01*
X90604356Y-78203266D01*
X90646456Y-77665351D01*
X90714720Y-77135203D01*
X90808497Y-76613482D01*
X90927134Y-76100844D01*
X91069977Y-75597951D01*
X91236373Y-75105460D01*
X91425669Y-74624031D01*
X91637212Y-74154322D01*
X91870349Y-73696993D01*
X92124427Y-73252701D01*
X92398793Y-72822107D01*
X92692794Y-72405869D01*
X93005776Y-72004645D01*
X93337087Y-71619095D01*
X93686073Y-71249878D01*
X94052082Y-70897652D01*
X94434461Y-70563077D01*
X94832556Y-70246811D01*
X95245714Y-69949513D01*
X95673282Y-69671842D01*
X96114608Y-69414457D01*
X96569037Y-69178016D01*
X97035918Y-68963180D01*
X97514596Y-68770606D01*
X98004419Y-68600953D01*
X98504734Y-68454881D01*
X99014888Y-68333048D01*
X99534227Y-68236113D01*
X100062099Y-68164735D01*
X100597851Y-68119573D01*
X101140829Y-68101286D01*
X101140829Y-68101287D01*
X151172581Y-67794365D01*
X151833539Y-67805479D01*
M02*
