%TF.GenerationSoftware,KiCad,Pcbnew,8.0.6*%
%TF.CreationDate,2025-04-24T23:31:37-04:00*%
%TF.ProjectId,hcsolder,6863736f-6c64-4657-922e-6b696361645f,rev?*%
%TF.SameCoordinates,Original*%
%TF.FileFunction,Legend,Bot*%
%TF.FilePolarity,Positive*%
%FSLAX46Y46*%
G04 Gerber Fmt 4.6, Leading zero omitted, Abs format (unit mm)*
G04 Created by KiCad (PCBNEW 8.0.6) date 2025-04-24 23:31:37*
%MOMM*%
%LPD*%
G01*
G04 APERTURE LIST*
%ADD10C,0.092604*%
G04 APERTURE END LIST*
D10*
X143173626Y-72507726D02*
X143333377Y-72545581D01*
X143496900Y-72603472D01*
X143663773Y-72680306D01*
X143833575Y-72774993D01*
X144005885Y-72886438D01*
X144180280Y-73013552D01*
X144533642Y-73310414D01*
X144890288Y-73656842D01*
X145246846Y-74044101D01*
X145599943Y-74463454D01*
X145946206Y-74906165D01*
X146282263Y-75363499D01*
X146604741Y-75826719D01*
X146910267Y-76287088D01*
X147456974Y-77164333D01*
X147895401Y-77925345D01*
X148186154Y-77990999D01*
X148546908Y-78048521D01*
X149440430Y-78141908D01*
X150499985Y-78210990D01*
X151649591Y-78261250D01*
X155628908Y-78383736D01*
X155678778Y-78340424D01*
X155728921Y-78296406D01*
X155779262Y-78251669D01*
X155829728Y-78206200D01*
X156023242Y-78027859D01*
X156205459Y-77854397D01*
X156377028Y-77685752D01*
X156538601Y-77521863D01*
X156834356Y-77208105D01*
X157097929Y-76912629D01*
X157334522Y-76634943D01*
X157549339Y-76374551D01*
X157934455Y-75903680D01*
X158115161Y-75692213D01*
X158294902Y-75496067D01*
X158386038Y-75403585D01*
X158478883Y-75314748D01*
X158574090Y-75229495D01*
X158672307Y-75147764D01*
X158774186Y-75069492D01*
X158880376Y-74994619D01*
X158991529Y-74923082D01*
X159108294Y-74854821D01*
X159231322Y-74789773D01*
X159361264Y-74727876D01*
X159498769Y-74669069D01*
X159644489Y-74613291D01*
X159835539Y-74545026D01*
X160033631Y-74479306D01*
X160134105Y-74449431D01*
X160234883Y-74422630D01*
X160335481Y-74399715D01*
X160435411Y-74381499D01*
X160534190Y-74368794D01*
X160631332Y-74362413D01*
X160726351Y-74363169D01*
X160772913Y-74366476D01*
X160818762Y-74371873D01*
X160863837Y-74379460D01*
X160908079Y-74389339D01*
X160951426Y-74401611D01*
X160993817Y-74416378D01*
X161035192Y-74433743D01*
X161075491Y-74453805D01*
X161114651Y-74476667D01*
X161152614Y-74502430D01*
X161319306Y-74626665D01*
X161386859Y-74683620D01*
X161445322Y-74742095D01*
X161495770Y-74805811D01*
X161539283Y-74878489D01*
X161576938Y-74963849D01*
X161609814Y-75065612D01*
X161638987Y-75187500D01*
X161665536Y-75333233D01*
X161690538Y-75506533D01*
X161715072Y-75711119D01*
X161767046Y-76229037D01*
X161830080Y-76916753D01*
X161829420Y-76956455D01*
X161822722Y-77016743D01*
X161794159Y-77188484D01*
X161750285Y-77410783D01*
X161696994Y-77662448D01*
X161585741Y-78169104D01*
X161507552Y-78538913D01*
X161507819Y-78538907D01*
X161496700Y-78594314D01*
X161484585Y-78647669D01*
X161471525Y-78699073D01*
X161457571Y-78748629D01*
X161427179Y-78842610D01*
X161393816Y-78930433D01*
X161357886Y-79012920D01*
X161319793Y-79090892D01*
X161279942Y-79165172D01*
X161238737Y-79236581D01*
X161153887Y-79374071D01*
X161068478Y-79509936D01*
X161026576Y-79579314D01*
X160985748Y-79650750D01*
X160946400Y-79725067D01*
X160908934Y-79803086D01*
X160861313Y-79918512D01*
X160826535Y-80025638D01*
X160803088Y-80126271D01*
X160789464Y-80222220D01*
X160784152Y-80315290D01*
X160785641Y-80407292D01*
X160792422Y-80500031D01*
X160802985Y-80595315D01*
X160829413Y-80800752D01*
X160842258Y-80914519D01*
X160852844Y-81038062D01*
X160859661Y-81173190D01*
X160861197Y-81321708D01*
X160855944Y-81485426D01*
X160842391Y-81666150D01*
X160814651Y-81897905D01*
X160795344Y-82023737D01*
X160772248Y-82154616D01*
X160745241Y-82289351D01*
X160714199Y-82426750D01*
X160679001Y-82565621D01*
X160639522Y-82704772D01*
X160595641Y-82843011D01*
X160547233Y-82979148D01*
X160494178Y-83111988D01*
X160436351Y-83240342D01*
X160373629Y-83363018D01*
X160305891Y-83478822D01*
X160233012Y-83586565D01*
X160154871Y-83685053D01*
X160172326Y-83729579D01*
X160187083Y-83776437D01*
X160199358Y-83825329D01*
X160209367Y-83875954D01*
X160217327Y-83928013D01*
X160223454Y-83981207D01*
X160227963Y-84035235D01*
X160231072Y-84089799D01*
X160233953Y-84199334D01*
X160233826Y-84307415D01*
X160231469Y-84509627D01*
X160233341Y-84637371D01*
X160239210Y-84760022D01*
X160248860Y-84877867D01*
X160262075Y-84991193D01*
X160278639Y-85100287D01*
X160298336Y-85205435D01*
X160320950Y-85306925D01*
X160346266Y-85405043D01*
X160404135Y-85592310D01*
X160470218Y-85769531D01*
X160542785Y-85939001D01*
X160620109Y-86103013D01*
X160782118Y-86423845D01*
X160863346Y-86585254D01*
X160942421Y-86750382D01*
X161017614Y-86921526D01*
X161087196Y-87100980D01*
X161149442Y-87291037D01*
X161177273Y-87390760D01*
X161202622Y-87493993D01*
X161238374Y-87672194D01*
X161264794Y-87852547D01*
X161282108Y-88034732D01*
X161290543Y-88218429D01*
X161290323Y-88403320D01*
X161281677Y-88589084D01*
X161264828Y-88775402D01*
X161240005Y-88961954D01*
X161207433Y-89148422D01*
X161167338Y-89334484D01*
X161119946Y-89519823D01*
X161065484Y-89704118D01*
X161004178Y-89887050D01*
X160936254Y-90068299D01*
X160781455Y-90424470D01*
X160602899Y-90770077D01*
X160402394Y-91102562D01*
X160181749Y-91419369D01*
X159942774Y-91717942D01*
X159816978Y-91859592D01*
X159687278Y-91995725D01*
X159553901Y-92126021D01*
X159417072Y-92250161D01*
X159277017Y-92367826D01*
X159133963Y-92478695D01*
X158988136Y-92582449D01*
X158839762Y-92678770D01*
X158749189Y-92733144D01*
X158657545Y-92785030D01*
X158472026Y-92881422D01*
X158285176Y-92968105D01*
X158098967Y-93045241D01*
X157915372Y-93112990D01*
X157736361Y-93171515D01*
X157563907Y-93220975D01*
X157399982Y-93261532D01*
X157246556Y-93293347D01*
X157105603Y-93316581D01*
X156979093Y-93331394D01*
X156868998Y-93337949D01*
X156777291Y-93336406D01*
X156738949Y-93332648D01*
X156705943Y-93326926D01*
X156678519Y-93319259D01*
X156656925Y-93309669D01*
X156641407Y-93298176D01*
X156632210Y-93284798D01*
X156630439Y-93277747D01*
X156630762Y-93270064D01*
X156637734Y-93252670D01*
X156653207Y-93232346D01*
X156677266Y-93208822D01*
X156709991Y-93181828D01*
X156751466Y-93151095D01*
X156860992Y-93077332D01*
X157665540Y-92578757D01*
X157623311Y-92572146D01*
X157582352Y-92564632D01*
X157542818Y-92556238D01*
X157504861Y-92546987D01*
X157468638Y-92536904D01*
X157434301Y-92526012D01*
X157402004Y-92514335D01*
X157371902Y-92501896D01*
X157357722Y-92495399D01*
X157344149Y-92488720D01*
X157331201Y-92481862D01*
X157318898Y-92474829D01*
X157307260Y-92467623D01*
X157296305Y-92460247D01*
X157286052Y-92452705D01*
X157276522Y-92444999D01*
X157267733Y-92437132D01*
X157259704Y-92429107D01*
X157252455Y-92420927D01*
X157246005Y-92412595D01*
X157240373Y-92404114D01*
X157235579Y-92395487D01*
X157231642Y-92386717D01*
X157228580Y-92377807D01*
X157225171Y-92360260D01*
X157224853Y-92342207D01*
X157227418Y-92323696D01*
X157232658Y-92304776D01*
X157240367Y-92285497D01*
X157250338Y-92265908D01*
X157262364Y-92246059D01*
X157276236Y-92225999D01*
X157291749Y-92205777D01*
X157308694Y-92185444D01*
X157346054Y-92144636D01*
X157386660Y-92103973D01*
X157428853Y-92063847D01*
X157511373Y-91986791D01*
X157548385Y-91950650D01*
X157580354Y-91916627D01*
X157593930Y-91900533D01*
X157605624Y-91885117D01*
X157615229Y-91870428D01*
X157622537Y-91856515D01*
X157627341Y-91843428D01*
X157629435Y-91831216D01*
X157628611Y-91819929D01*
X157624662Y-91809615D01*
X157618393Y-91801540D01*
X157610059Y-91795521D01*
X157599745Y-91791409D01*
X157587535Y-91789052D01*
X157557757Y-91789005D01*
X157521397Y-91794183D01*
X157479123Y-91803383D01*
X157431605Y-91815406D01*
X157323515Y-91843118D01*
X157264282Y-91856408D01*
X157202483Y-91867718D01*
X157138788Y-91875850D01*
X157073866Y-91879602D01*
X157041154Y-91879461D01*
X157008387Y-91877775D01*
X156975647Y-91874394D01*
X156943020Y-91869168D01*
X156910588Y-91861947D01*
X156878434Y-91852581D01*
X156846644Y-91840920D01*
X156815300Y-91826814D01*
X156788851Y-91812697D01*
X156763078Y-91796881D01*
X156738021Y-91779467D01*
X156713716Y-91760556D01*
X156690199Y-91740250D01*
X156667508Y-91718650D01*
X156645679Y-91695857D01*
X156624749Y-91671973D01*
X156604755Y-91647099D01*
X156585735Y-91621336D01*
X156550761Y-91567549D01*
X156520121Y-91511423D01*
X156494112Y-91453769D01*
X156473029Y-91395396D01*
X156457165Y-91337117D01*
X156451284Y-91308266D01*
X156446818Y-91279741D01*
X156443804Y-91251645D01*
X156442281Y-91224080D01*
X156442283Y-91197145D01*
X156443850Y-91170942D01*
X156447016Y-91145574D01*
X156451819Y-91121140D01*
X156458297Y-91097743D01*
X156466485Y-91075484D01*
X156476422Y-91054464D01*
X156488143Y-91034785D01*
X156508637Y-91008379D01*
X156533178Y-90984464D01*
X156561575Y-90963024D01*
X156593634Y-90944043D01*
X156629160Y-90927504D01*
X156667962Y-90913392D01*
X156754616Y-90892381D01*
X156852049Y-90880879D01*
X156958714Y-90878757D01*
X157073065Y-90885884D01*
X157193555Y-90902129D01*
X157318637Y-90927363D01*
X157446764Y-90961456D01*
X157576389Y-91004276D01*
X157705966Y-91055695D01*
X157833948Y-91115581D01*
X157958788Y-91183805D01*
X158078938Y-91260236D01*
X158192853Y-91344744D01*
X158252895Y-91394904D01*
X158318355Y-91453775D01*
X158386900Y-91520122D01*
X158421600Y-91555712D01*
X158456197Y-91592708D01*
X158490398Y-91630955D01*
X158523912Y-91670299D01*
X158556448Y-91710585D01*
X158587713Y-91751659D01*
X158617417Y-91793366D01*
X158645266Y-91835552D01*
X158670971Y-91878062D01*
X158694239Y-91920742D01*
X158919403Y-91774366D01*
X159118443Y-91643618D01*
X159292544Y-91527322D01*
X159442894Y-91424301D01*
X159570678Y-91333379D01*
X159626478Y-91292087D01*
X159677081Y-91253379D01*
X159722636Y-91217106D01*
X159763291Y-91183123D01*
X159799193Y-91151282D01*
X159830492Y-91121436D01*
X159999701Y-90939136D01*
X160154045Y-90745053D01*
X160293800Y-90540520D01*
X160419240Y-90326870D01*
X160530640Y-90105435D01*
X160628276Y-89877547D01*
X160712423Y-89644541D01*
X160783356Y-89407747D01*
X160841350Y-89168499D01*
X160886680Y-88928130D01*
X160919623Y-88687972D01*
X160940452Y-88449358D01*
X160949443Y-88213620D01*
X160946871Y-87982092D01*
X160933011Y-87756106D01*
X160908139Y-87536994D01*
X160885313Y-87389978D01*
X160858797Y-87245844D01*
X160828881Y-87104710D01*
X160795855Y-86966693D01*
X160760007Y-86831909D01*
X160721629Y-86700477D01*
X160681008Y-86572512D01*
X160638434Y-86448132D01*
X160594198Y-86327455D01*
X160548588Y-86210596D01*
X160501894Y-86097673D01*
X160454405Y-85988803D01*
X160358201Y-85783690D01*
X160262292Y-85596193D01*
X160168994Y-85427248D01*
X160080622Y-85277792D01*
X159999493Y-85148761D01*
X159927921Y-85041091D01*
X159822714Y-84893578D01*
X159783529Y-84842742D01*
X159383361Y-84372892D01*
X159339829Y-84318015D01*
X159299207Y-84263975D01*
X159261935Y-84210763D01*
X159228454Y-84158374D01*
X159199205Y-84106802D01*
X159174628Y-84056039D01*
X159164229Y-84030959D01*
X159155163Y-84006079D01*
X159147485Y-83981399D01*
X159141251Y-83956917D01*
X159104798Y-83943203D01*
X159069746Y-83928528D01*
X159036231Y-83913002D01*
X159004387Y-83896739D01*
X158974351Y-83879848D01*
X158946259Y-83862441D01*
X158920245Y-83844630D01*
X158896446Y-83826527D01*
X158885419Y-83817400D01*
X158874997Y-83808242D01*
X158865196Y-83799066D01*
X158856034Y-83789887D01*
X158847527Y-83780718D01*
X158839692Y-83771573D01*
X158832547Y-83762467D01*
X158826108Y-83753413D01*
X158820392Y-83744425D01*
X158815417Y-83735517D01*
X158811198Y-83726702D01*
X158807754Y-83717996D01*
X158805100Y-83709412D01*
X158803255Y-83700963D01*
X158802234Y-83692664D01*
X158802056Y-83684528D01*
X158804609Y-83667792D01*
X158811089Y-83652797D01*
X158821323Y-83639385D01*
X158835138Y-83627394D01*
X158852364Y-83616665D01*
X158872827Y-83607037D01*
X158922777Y-83590446D01*
X158983613Y-83576339D01*
X159053958Y-83563435D01*
X159217665Y-83536113D01*
X159308275Y-83519132D01*
X159402885Y-83498230D01*
X159500119Y-83472126D01*
X159598601Y-83439538D01*
X159696954Y-83399185D01*
X159745651Y-83375697D01*
X159793800Y-83349787D01*
X159841228Y-83321295D01*
X159887763Y-83290062D01*
X159933233Y-83255926D01*
X159977466Y-83218729D01*
X160041491Y-83156278D01*
X160097060Y-83090795D01*
X160144722Y-83022283D01*
X160185026Y-82950746D01*
X160218519Y-82876189D01*
X160245752Y-82798616D01*
X160267273Y-82718031D01*
X160283630Y-82634438D01*
X160303051Y-82458245D01*
X160308404Y-82270070D01*
X160294470Y-81857910D01*
X160276952Y-81398225D01*
X160277824Y-81150643D01*
X160290972Y-80891280D01*
X160320786Y-80620169D01*
X160371656Y-80337343D01*
X160406359Y-80191547D01*
X160447972Y-80042835D01*
X160497044Y-79891212D01*
X160554125Y-79736680D01*
X161263871Y-78494725D01*
X161351471Y-78245552D01*
X161425259Y-77984786D01*
X161484859Y-77715536D01*
X161529897Y-77440911D01*
X161559998Y-77164017D01*
X161574787Y-76887963D01*
X161573889Y-76615857D01*
X161556930Y-76350807D01*
X161523535Y-76095920D01*
X161500557Y-75973259D01*
X161473329Y-75854305D01*
X161441804Y-75739446D01*
X161405936Y-75629070D01*
X161365679Y-75523566D01*
X161320984Y-75423322D01*
X161271805Y-75328727D01*
X161218096Y-75240170D01*
X161159809Y-75158039D01*
X161096898Y-75082721D01*
X161029315Y-75014607D01*
X160957014Y-74954084D01*
X160879949Y-74901541D01*
X160798072Y-74857366D01*
X160714761Y-74823113D01*
X160628890Y-74797626D01*
X160540683Y-74780539D01*
X160450367Y-74771488D01*
X160358167Y-74770108D01*
X160264309Y-74776033D01*
X160169018Y-74788899D01*
X160072520Y-74808342D01*
X159975041Y-74833995D01*
X159876807Y-74865495D01*
X159778043Y-74902476D01*
X159678975Y-74944573D01*
X159579828Y-74991421D01*
X159480829Y-75042656D01*
X159284176Y-75156825D01*
X159090819Y-75284161D01*
X158902566Y-75421744D01*
X158721221Y-75566655D01*
X158548591Y-75715974D01*
X158386479Y-75866783D01*
X158236693Y-76016161D01*
X158101037Y-76161189D01*
X157981318Y-76298948D01*
X157885775Y-76416033D01*
X157763843Y-76576866D01*
X157625335Y-76780075D01*
X157552932Y-76897141D01*
X157480065Y-77024287D01*
X157407961Y-77161341D01*
X157337846Y-77308131D01*
X157270947Y-77464486D01*
X157208491Y-77630235D01*
X157151705Y-77805205D01*
X157101814Y-77989226D01*
X157060046Y-78182125D01*
X157027628Y-78383733D01*
X157011099Y-78535064D01*
X157001508Y-78685026D01*
X156998347Y-78833356D01*
X157001109Y-78979792D01*
X157009290Y-79124070D01*
X157022381Y-79265928D01*
X157039876Y-79405105D01*
X157061269Y-79541336D01*
X157086053Y-79674361D01*
X157113722Y-79803915D01*
X157175686Y-80051563D01*
X157243110Y-80282182D01*
X157311939Y-80493669D01*
X157437607Y-80850850D01*
X157486340Y-80992342D01*
X157520268Y-81106301D01*
X157530414Y-81152300D01*
X157535339Y-81190628D01*
X157534537Y-81221022D01*
X157527501Y-81243221D01*
X157513724Y-81256961D01*
X157492700Y-81261980D01*
X157463923Y-81258015D01*
X157426885Y-81244804D01*
X157320705Y-81191489D01*
X157204548Y-81120637D01*
X157078756Y-81034402D01*
X156943667Y-80934934D01*
X156317139Y-80447797D01*
X155956929Y-80180801D01*
X155766276Y-80048980D01*
X155569044Y-79921146D01*
X155365574Y-79799452D01*
X155156203Y-79686050D01*
X154941273Y-79583094D01*
X154721123Y-79492734D01*
X154708795Y-79487863D01*
X154697256Y-79482776D01*
X154686496Y-79477474D01*
X154676507Y-79471958D01*
X154667282Y-79466229D01*
X154658810Y-79460287D01*
X154654855Y-79457237D01*
X154651085Y-79454134D01*
X154647499Y-79450979D01*
X154644096Y-79447771D01*
X154640876Y-79444511D01*
X154637836Y-79441199D01*
X154634977Y-79437835D01*
X154632296Y-79434418D01*
X154629794Y-79430950D01*
X154627468Y-79427430D01*
X154625318Y-79423859D01*
X154623343Y-79420236D01*
X154621541Y-79416562D01*
X154619912Y-79412836D01*
X154618454Y-79409060D01*
X154617167Y-79405232D01*
X154616049Y-79401354D01*
X154615100Y-79397424D01*
X154614317Y-79393445D01*
X154613701Y-79389414D01*
X154609907Y-79384744D01*
X154606165Y-79379955D01*
X154602479Y-79375043D01*
X154598851Y-79370001D01*
X154595286Y-79364822D01*
X154591786Y-79359500D01*
X154588354Y-79354029D01*
X154584993Y-79348404D01*
X154347331Y-78958524D01*
X154288288Y-78854748D01*
X154261448Y-78804412D01*
X154237033Y-78755715D01*
X154215520Y-78709111D01*
X154197387Y-78665056D01*
X154183111Y-78624002D01*
X154173169Y-78586404D01*
X153586052Y-78600369D01*
X152982115Y-78611308D01*
X152381801Y-78618923D01*
X151805546Y-78622917D01*
X151815633Y-78656735D01*
X151824008Y-78691930D01*
X151830730Y-78728382D01*
X151835862Y-78765969D01*
X151839463Y-78804573D01*
X151841595Y-78844071D01*
X151842319Y-78884343D01*
X151841695Y-78925269D01*
X151839784Y-78966729D01*
X151836648Y-79008601D01*
X151832346Y-79050766D01*
X151826940Y-79093102D01*
X151820491Y-79135489D01*
X151813060Y-79177807D01*
X151795492Y-79261753D01*
X151808384Y-79265476D01*
X151821239Y-79269310D01*
X151834020Y-79273269D01*
X151846689Y-79277364D01*
X151897999Y-79294990D01*
X151969406Y-79322781D01*
X152010800Y-79340958D01*
X152055002Y-79362242D01*
X152101273Y-79386820D01*
X152148876Y-79414880D01*
X152197071Y-79446612D01*
X152245119Y-79482203D01*
X152292282Y-79521842D01*
X152315301Y-79543239D01*
X152337822Y-79565718D01*
X152359751Y-79589303D01*
X152380998Y-79614017D01*
X152401469Y-79639885D01*
X152421073Y-79666930D01*
X152439717Y-79695175D01*
X152457308Y-79724644D01*
X152473755Y-79755360D01*
X152488965Y-79787347D01*
X152507043Y-79831861D01*
X152521279Y-79875448D01*
X152531915Y-79918199D01*
X152539190Y-79960204D01*
X152543346Y-80001556D01*
X152544624Y-80042345D01*
X152543265Y-80082662D01*
X152539509Y-80122599D01*
X152533597Y-80162247D01*
X152525770Y-80201697D01*
X152505336Y-80280368D01*
X152480133Y-80359342D01*
X152452089Y-80439347D01*
X152395183Y-80605370D01*
X152370175Y-80692846D01*
X152350034Y-80784272D01*
X152342391Y-80831694D01*
X152336686Y-80880377D01*
X152333162Y-80930412D01*
X152332059Y-80981890D01*
X152333617Y-81034903D01*
X152338079Y-81089541D01*
X152345684Y-81145896D01*
X152356673Y-81204059D01*
X152368226Y-81252524D01*
X152381524Y-81299487D01*
X152396407Y-81344971D01*
X152412720Y-81389000D01*
X152430303Y-81431600D01*
X152449001Y-81472793D01*
X152468655Y-81512605D01*
X152489108Y-81551059D01*
X152510201Y-81588181D01*
X152531779Y-81623993D01*
X152575755Y-81691787D01*
X152619776Y-81754635D01*
X152662581Y-81812732D01*
X152739504Y-81915446D01*
X152771101Y-81960451D01*
X152784632Y-81981450D01*
X152796442Y-82001479D01*
X152806372Y-82020563D01*
X152814266Y-82038725D01*
X152819966Y-82055990D01*
X152823313Y-82072381D01*
X152824152Y-82087924D01*
X152822324Y-82102643D01*
X152817671Y-82116561D01*
X152810037Y-82129703D01*
X152798314Y-82142809D01*
X152784001Y-82153390D01*
X152767276Y-82161609D01*
X152748317Y-82167632D01*
X152727304Y-82171621D01*
X152704415Y-82173741D01*
X152679828Y-82174157D01*
X152653722Y-82173032D01*
X152597666Y-82166818D01*
X152537677Y-82156413D01*
X152411607Y-82128281D01*
X152286940Y-82099144D01*
X152228702Y-82087483D01*
X152175099Y-82079511D01*
X152127559Y-82076542D01*
X152106509Y-82077344D01*
X152087511Y-82079889D01*
X152070742Y-82084341D01*
X152056382Y-82090866D01*
X152044609Y-82099626D01*
X152035602Y-82110786D01*
X152030900Y-82120718D01*
X152028548Y-82131129D01*
X152028424Y-82142036D01*
X152030407Y-82153457D01*
X152034376Y-82165409D01*
X152040211Y-82177910D01*
X152056996Y-82204630D01*
X152079794Y-82233755D01*
X152107639Y-82265427D01*
X152174607Y-82336971D01*
X152211797Y-82377123D01*
X152250170Y-82420384D01*
X152288759Y-82466892D01*
X152326597Y-82516788D01*
X152362720Y-82570213D01*
X152379836Y-82598292D01*
X152396161Y-82627306D01*
X152411573Y-82657273D01*
X152425953Y-82688209D01*
X152439178Y-82720132D01*
X152451130Y-82753061D01*
X152466247Y-82803939D01*
X152477045Y-82853727D01*
X152483743Y-82902562D01*
X152486562Y-82950585D01*
X152485721Y-82997934D01*
X152481441Y-83044747D01*
X152473942Y-83091164D01*
X152463445Y-83137323D01*
X152434335Y-83229422D01*
X152395872Y-83322157D01*
X152349819Y-83416635D01*
X152297936Y-83513970D01*
X152183727Y-83721645D01*
X152124925Y-83834208D01*
X152067339Y-83954067D01*
X152012731Y-84082334D01*
X151962863Y-84220118D01*
X151940257Y-84292926D01*
X151919496Y-84368530D01*
X151900801Y-84447068D01*
X151884391Y-84528680D01*
X151871189Y-84608806D01*
X151861061Y-84687018D01*
X151853800Y-84763291D01*
X151849199Y-84837601D01*
X151847052Y-84909924D01*
X151847150Y-84980234D01*
X151849288Y-85048507D01*
X151853258Y-85114718D01*
X151858853Y-85178843D01*
X151865865Y-85240856D01*
X151874089Y-85300734D01*
X151883317Y-85358451D01*
X151903958Y-85467304D01*
X151926130Y-85567220D01*
X151968446Y-85739445D01*
X151985278Y-85811360D01*
X151997018Y-85873547D01*
X152000460Y-85900931D01*
X152002009Y-85925808D01*
X152001456Y-85948155D01*
X151998596Y-85967946D01*
X151993220Y-85985157D01*
X151985122Y-85999763D01*
X151974094Y-86011740D01*
X151959931Y-86021062D01*
X151938111Y-86028680D01*
X151912602Y-86031532D01*
X151883690Y-86029752D01*
X151851659Y-86023474D01*
X151816794Y-86012832D01*
X151779381Y-85997961D01*
X151698047Y-85956068D01*
X151609937Y-85898868D01*
X151517330Y-85827435D01*
X151422505Y-85742842D01*
X151327742Y-85646165D01*
X151235320Y-85538475D01*
X151147518Y-85420847D01*
X151066615Y-85294355D01*
X151029464Y-85228121D01*
X150994892Y-85160073D01*
X150963184Y-85090346D01*
X150934627Y-85019074D01*
X150909503Y-84946392D01*
X150888099Y-84872432D01*
X150870699Y-84797331D01*
X150857588Y-84721222D01*
X150849051Y-84644238D01*
X150845373Y-84566515D01*
X150846156Y-84503098D01*
X150850218Y-84441558D01*
X150857303Y-84381785D01*
X150867153Y-84323671D01*
X150879513Y-84267104D01*
X150894124Y-84211974D01*
X150910731Y-84158173D01*
X150929077Y-84105589D01*
X150969956Y-84003635D01*
X151014707Y-83905233D01*
X151107608Y-83715566D01*
X151151649Y-83622542D01*
X151191344Y-83529552D01*
X151224639Y-83435716D01*
X151238244Y-83388205D01*
X151249479Y-83340153D01*
X151258086Y-83291450D01*
X151263809Y-83241986D01*
X151266391Y-83191651D01*
X151265576Y-83140334D01*
X151261105Y-83087926D01*
X151252723Y-83034317D01*
X151240173Y-82979398D01*
X151223198Y-82923057D01*
X151201667Y-82864850D01*
X151173258Y-82798217D01*
X151138078Y-82724555D01*
X151096231Y-82645260D01*
X151072841Y-82603938D01*
X151047824Y-82561731D01*
X151021193Y-82518814D01*
X150992961Y-82475363D01*
X150963142Y-82431551D01*
X150931748Y-82387553D01*
X150898794Y-82343544D01*
X150864291Y-82299698D01*
X150815251Y-82241257D01*
X150763479Y-82183513D01*
X150709794Y-82126624D01*
X150655014Y-82070749D01*
X150441322Y-81860540D01*
X150393348Y-81812100D01*
X150349191Y-81765621D01*
X150309669Y-81721261D01*
X150275601Y-81679178D01*
X150260869Y-81659040D01*
X150247806Y-81639530D01*
X150236516Y-81620668D01*
X150227102Y-81602474D01*
X150219665Y-81584968D01*
X150214307Y-81568169D01*
X150211132Y-81552097D01*
X150210241Y-81536772D01*
X150212729Y-81513981D01*
X150219099Y-81493874D01*
X150229119Y-81476257D01*
X150242559Y-81460940D01*
X150259189Y-81447730D01*
X150278779Y-81436435D01*
X150301097Y-81426862D01*
X150325913Y-81418820D01*
X150382121Y-81406557D01*
X150445557Y-81398108D01*
X150586743Y-81386505D01*
X150660807Y-81380275D01*
X150734726Y-81371708D01*
X150806658Y-81359268D01*
X150841302Y-81351115D01*
X150874759Y-81341416D01*
X150906797Y-81329981D01*
X150937186Y-81316616D01*
X150965695Y-81301129D01*
X150992095Y-81283328D01*
X151016155Y-81263021D01*
X151037644Y-81240016D01*
X151056332Y-81214120D01*
X151071989Y-81185141D01*
X151090854Y-81136493D01*
X151103257Y-81087341D01*
X151109623Y-81037724D01*
X151110379Y-80987683D01*
X151105950Y-80937259D01*
X151096760Y-80886492D01*
X151083236Y-80835424D01*
X151065802Y-80784095D01*
X151044885Y-80732545D01*
X151020910Y-80680815D01*
X150965486Y-80576978D01*
X150902935Y-80472910D01*
X150836659Y-80368934D01*
X150770062Y-80265378D01*
X150706548Y-80162565D01*
X150649520Y-80060821D01*
X150624501Y-80010452D01*
X150602381Y-79960472D01*
X150583584Y-79910921D01*
X150568535Y-79861841D01*
X150557661Y-79813272D01*
X150551386Y-79765255D01*
X150550136Y-79717830D01*
X150554336Y-79671039D01*
X150564413Y-79624921D01*
X150580790Y-79579517D01*
X150599871Y-79541738D01*
X150623128Y-79505855D01*
X150650335Y-79471894D01*
X150681266Y-79439879D01*
X150715694Y-79409835D01*
X150753394Y-79381785D01*
X150794138Y-79355755D01*
X150837701Y-79331768D01*
X150883856Y-79309849D01*
X150932376Y-79290023D01*
X150983036Y-79272314D01*
X151035609Y-79256746D01*
X151089869Y-79243344D01*
X151145589Y-79232132D01*
X151202543Y-79223135D01*
X151260505Y-79216376D01*
X151252595Y-79137701D01*
X151246936Y-79058759D01*
X151243696Y-78980326D01*
X151243042Y-78903176D01*
X151245141Y-78828085D01*
X151247276Y-78791554D01*
X151250161Y-78755828D01*
X151253819Y-78721004D01*
X151258269Y-78687180D01*
X151263534Y-78654452D01*
X151269633Y-78622916D01*
X151102416Y-78622023D01*
X150943534Y-78620535D01*
X150647343Y-78614426D01*
X150368348Y-78603065D01*
X150106068Y-78586856D01*
X149860022Y-78566202D01*
X149629729Y-78541508D01*
X149414709Y-78513176D01*
X149214480Y-78481611D01*
X149028563Y-78447216D01*
X148856475Y-78410395D01*
X148697737Y-78371552D01*
X148551868Y-78331089D01*
X148418386Y-78289411D01*
X148296811Y-78246922D01*
X148186663Y-78204024D01*
X148087460Y-78161123D01*
X147998722Y-78118621D01*
X148032657Y-78190030D01*
X148062474Y-78258815D01*
X148088349Y-78325029D01*
X148110458Y-78388725D01*
X148128978Y-78449958D01*
X148144085Y-78508779D01*
X148155955Y-78565244D01*
X148164766Y-78619405D01*
X148170694Y-78671315D01*
X148173915Y-78721030D01*
X148174605Y-78768601D01*
X148172941Y-78814083D01*
X148169100Y-78857529D01*
X148163258Y-78898992D01*
X148155591Y-78938526D01*
X148146277Y-78976185D01*
X148135490Y-79012022D01*
X148123409Y-79046090D01*
X148110209Y-79078443D01*
X148096066Y-79109135D01*
X148081158Y-79138219D01*
X148065660Y-79165748D01*
X148049750Y-79191777D01*
X148033604Y-79216358D01*
X148001307Y-79261392D01*
X147970183Y-79301279D01*
X147917098Y-79367322D01*
X147877131Y-79415514D01*
X147833494Y-79460621D01*
X147786475Y-79502675D01*
X147736358Y-79541708D01*
X147683428Y-79577752D01*
X147627970Y-79610840D01*
X147570271Y-79641003D01*
X147510616Y-79668275D01*
X147449289Y-79692687D01*
X147386576Y-79714271D01*
X147322762Y-79733060D01*
X147258134Y-79749087D01*
X147192975Y-79762382D01*
X147127573Y-79772979D01*
X147062211Y-79780910D01*
X146997175Y-79786206D01*
X146869224Y-79789027D01*
X146806879Y-79786615D01*
X146746002Y-79781698D01*
X146686878Y-79774308D01*
X146629792Y-79764478D01*
X146575029Y-79752239D01*
X146522876Y-79737624D01*
X146473618Y-79720666D01*
X146427539Y-79701395D01*
X146384925Y-79679846D01*
X146346061Y-79656049D01*
X146311234Y-79630038D01*
X146280727Y-79601843D01*
X146254827Y-79571499D01*
X146233819Y-79539036D01*
X146220141Y-79507884D01*
X146212989Y-79476374D01*
X146211950Y-79444445D01*
X146216613Y-79412036D01*
X146226566Y-79379086D01*
X146241397Y-79345534D01*
X146260694Y-79311319D01*
X146284044Y-79276379D01*
X146341260Y-79204084D01*
X146409748Y-79128159D01*
X146567359Y-78963468D01*
X146649892Y-78873726D01*
X146730515Y-78778400D01*
X146769080Y-78728492D01*
X146805933Y-78677004D01*
X146840660Y-78623877D01*
X146872850Y-78569049D01*
X146902091Y-78512459D01*
X146927971Y-78454046D01*
X146950078Y-78393749D01*
X146968000Y-78331507D01*
X146981325Y-78267258D01*
X146989642Y-78200943D01*
X146992538Y-78132500D01*
X146989601Y-78061867D01*
X146968813Y-77872078D01*
X146937659Y-77674260D01*
X146896521Y-77469414D01*
X146845780Y-77258543D01*
X146717012Y-76822736D01*
X146554403Y-76374857D01*
X146361002Y-75922925D01*
X146139857Y-75474958D01*
X145894019Y-75038975D01*
X145626534Y-74622995D01*
X145485627Y-74425012D01*
X145340452Y-74235037D01*
X145191389Y-74054072D01*
X145038821Y-73883119D01*
X144883127Y-73723181D01*
X144724690Y-73575260D01*
X144563890Y-73440358D01*
X144401108Y-73319478D01*
X144236725Y-73213622D01*
X144071123Y-73123793D01*
X143904682Y-73050992D01*
X143737784Y-72996223D01*
X143570810Y-72960486D01*
X143404140Y-72944786D01*
X143238156Y-72950124D01*
X143073239Y-72977502D01*
X142992823Y-72999499D01*
X142915362Y-73026737D01*
X142840746Y-73059051D01*
X142768868Y-73096278D01*
X142699616Y-73138255D01*
X142632883Y-73184818D01*
X142568559Y-73235803D01*
X142506534Y-73291048D01*
X142388948Y-73413661D01*
X142279250Y-73551348D01*
X142176567Y-73702803D01*
X142080026Y-73866717D01*
X141988753Y-74041782D01*
X141901874Y-74226691D01*
X141818515Y-74420135D01*
X141737804Y-74620806D01*
X141580829Y-75038601D01*
X141423959Y-75469612D01*
X141400487Y-75547579D01*
X141382522Y-75637162D01*
X141361405Y-75848326D01*
X141357193Y-76097404D01*
X141366470Y-76378694D01*
X141411829Y-77015111D01*
X141470162Y-77711973D01*
X141514144Y-78423674D01*
X141522217Y-78770838D01*
X141516455Y-79104609D01*
X141493446Y-79419288D01*
X141449772Y-79709174D01*
X141419119Y-79843038D01*
X141382019Y-79968566D01*
X141338046Y-80085045D01*
X141286772Y-80191763D01*
X141260491Y-80252751D01*
X141245784Y-80316407D01*
X141241934Y-80382546D01*
X141248222Y-80450986D01*
X141263930Y-80521543D01*
X141288339Y-80594032D01*
X141320731Y-80668272D01*
X141360388Y-80744077D01*
X141406592Y-80821265D01*
X141458624Y-80899651D01*
X141577299Y-81059287D01*
X141710667Y-81221516D01*
X141852981Y-81384869D01*
X142141462Y-81709074D01*
X142276136Y-81866989D01*
X142396770Y-82020154D01*
X142450026Y-82094497D01*
X142497617Y-82167101D01*
X142538825Y-82237784D01*
X142572932Y-82306362D01*
X142599219Y-82372650D01*
X142616967Y-82436467D01*
X142625459Y-82497627D01*
X142623976Y-82555948D01*
X142622567Y-82566805D01*
X142620922Y-82577424D01*
X142619043Y-82587808D01*
X142616934Y-82597958D01*
X142614597Y-82607878D01*
X142612037Y-82617568D01*
X142609255Y-82627031D01*
X142606256Y-82636270D01*
X142603041Y-82645285D01*
X142599615Y-82654080D01*
X142595980Y-82662656D01*
X142592139Y-82671015D01*
X142588095Y-82679160D01*
X142583853Y-82687093D01*
X142579413Y-82694815D01*
X142574780Y-82702329D01*
X142569957Y-82709636D01*
X142564947Y-82716740D01*
X142554377Y-82730343D01*
X142543095Y-82743155D01*
X142531126Y-82755191D01*
X142518494Y-82766470D01*
X142505224Y-82777008D01*
X142491341Y-82786820D01*
X142476868Y-82795925D01*
X142475148Y-82798026D01*
X142473162Y-82800110D01*
X142470905Y-82802179D01*
X142468375Y-82804230D01*
X142465568Y-82806265D01*
X142462481Y-82808282D01*
X142459110Y-82810282D01*
X142455453Y-82812263D01*
X142451507Y-82814226D01*
X142447267Y-82816169D01*
X142442730Y-82818094D01*
X142437894Y-82819998D01*
X142432754Y-82821883D01*
X142427309Y-82823746D01*
X142421553Y-82825589D01*
X142415485Y-82827411D01*
X142175719Y-82905944D01*
X141954046Y-82996704D01*
X141749820Y-83098942D01*
X141562395Y-83211908D01*
X141391127Y-83334853D01*
X141235369Y-83467028D01*
X141094477Y-83607684D01*
X140967805Y-83756070D01*
X140854707Y-83911437D01*
X140754539Y-84073036D01*
X140666655Y-84240118D01*
X140590410Y-84411933D01*
X140525158Y-84587732D01*
X140470254Y-84766764D01*
X140425053Y-84948282D01*
X140388909Y-85131535D01*
X140341211Y-85500250D01*
X140321998Y-85866913D01*
X140326106Y-86225529D01*
X140348374Y-86570104D01*
X140383637Y-86894640D01*
X140426734Y-87193144D01*
X140515776Y-87688071D01*
X140538520Y-87665753D01*
X140564142Y-87645141D01*
X140592507Y-87626059D01*
X140623476Y-87608331D01*
X140692679Y-87576239D01*
X140770651Y-87547458D01*
X140948506Y-87494219D01*
X141148246Y-87437379D01*
X141253575Y-87404099D01*
X141361078Y-87365707D01*
X141469654Y-87320798D01*
X141578205Y-87267968D01*
X141685631Y-87205812D01*
X141738578Y-87170799D01*
X141790833Y-87132928D01*
X141842256Y-87092024D01*
X141892711Y-87047911D01*
X141942061Y-87000413D01*
X141990167Y-86949355D01*
X142033309Y-86898903D01*
X142072512Y-86848399D01*
X142108024Y-86797914D01*
X142140091Y-86747518D01*
X142168962Y-86697280D01*
X142194883Y-86647271D01*
X142218103Y-86597560D01*
X142238869Y-86548219D01*
X142257428Y-86499317D01*
X142274028Y-86450924D01*
X142302341Y-86355946D01*
X142325787Y-86263846D01*
X142346346Y-86175186D01*
X142365998Y-86090524D01*
X142386723Y-86010424D01*
X142410501Y-85935445D01*
X142424154Y-85900051D01*
X142439312Y-85866148D01*
X142456223Y-85833805D01*
X142475135Y-85803094D01*
X142496296Y-85774083D01*
X142519952Y-85746844D01*
X142546351Y-85721445D01*
X142575740Y-85697958D01*
X142608368Y-85676453D01*
X142644482Y-85656998D01*
X142696691Y-85635159D01*
X142750932Y-85619049D01*
X142806950Y-85608364D01*
X142864492Y-85602802D01*
X142923307Y-85602058D01*
X142983140Y-85605829D01*
X143043739Y-85613813D01*
X143104850Y-85625705D01*
X143166222Y-85641203D01*
X143227601Y-85660003D01*
X143288733Y-85681802D01*
X143349366Y-85706296D01*
X143409248Y-85733181D01*
X143468124Y-85762156D01*
X143525743Y-85792916D01*
X143581851Y-85825158D01*
X143688522Y-85892874D01*
X143786113Y-85962878D01*
X143872602Y-86032742D01*
X143945965Y-86100041D01*
X143977091Y-86131970D01*
X144004177Y-86162347D01*
X144026970Y-86190870D01*
X144045216Y-86217234D01*
X144058662Y-86241137D01*
X144067056Y-86262274D01*
X144070145Y-86280344D01*
X144067675Y-86295042D01*
X144061309Y-86304302D01*
X144051270Y-86310562D01*
X144037715Y-86314064D01*
X144020802Y-86315047D01*
X143977536Y-86310417D01*
X143922731Y-86298594D01*
X143613369Y-86217799D01*
X143519801Y-86198831D01*
X143422266Y-86184199D01*
X143322026Y-86175823D01*
X143220341Y-86175625D01*
X143169351Y-86179193D01*
X143118474Y-86185527D01*
X143067867Y-86194865D01*
X143017687Y-86207449D01*
X142968092Y-86223518D01*
X142919241Y-86243314D01*
X142871290Y-86267075D01*
X142824398Y-86295042D01*
X142788334Y-86320247D01*
X142755591Y-86346621D01*
X142725939Y-86374159D01*
X142699146Y-86402855D01*
X142674981Y-86432703D01*
X142653211Y-86463697D01*
X142633607Y-86495831D01*
X142615935Y-86529100D01*
X142585467Y-86599019D01*
X142559954Y-86673406D01*
X142537545Y-86752216D01*
X142516390Y-86835402D01*
X142470433Y-87014719D01*
X142441928Y-87110756D01*
X142407270Y-87210985D01*
X142364608Y-87315358D01*
X142312091Y-87423830D01*
X142281558Y-87479588D01*
X142247866Y-87536354D01*
X142210785Y-87594121D01*
X142170084Y-87652883D01*
X142114750Y-87726531D01*
X142053314Y-87801806D01*
X141986359Y-87877570D01*
X141914463Y-87952685D01*
X141838208Y-88026012D01*
X141758174Y-88096414D01*
X141674942Y-88162752D01*
X141589092Y-88223887D01*
X141501205Y-88278681D01*
X141411861Y-88325997D01*
X141366825Y-88346494D01*
X141321642Y-88364695D01*
X141276385Y-88380457D01*
X141231127Y-88393637D01*
X141185940Y-88404095D01*
X141140897Y-88411686D01*
X141096071Y-88416270D01*
X141051534Y-88417703D01*
X141007358Y-88415843D01*
X140963616Y-88410549D01*
X140920382Y-88401677D01*
X140877726Y-88389086D01*
X140861111Y-88383069D01*
X140844518Y-88376441D01*
X140827969Y-88369220D01*
X140811487Y-88361425D01*
X140795095Y-88353072D01*
X140778814Y-88344182D01*
X140762666Y-88334771D01*
X140746675Y-88324858D01*
X140730862Y-88314462D01*
X140715249Y-88303600D01*
X140699859Y-88292291D01*
X140684715Y-88280553D01*
X140669838Y-88268404D01*
X140655250Y-88255863D01*
X140640975Y-88242947D01*
X140627034Y-88229675D01*
X140810929Y-88974378D01*
X141031499Y-89835563D01*
X141418799Y-91332708D01*
X141459839Y-91391688D01*
X141502411Y-91449955D01*
X141546544Y-91507422D01*
X141592267Y-91564003D01*
X141639608Y-91619610D01*
X141688597Y-91674156D01*
X141739261Y-91727555D01*
X141791630Y-91779721D01*
X141845732Y-91830565D01*
X141901597Y-91880002D01*
X141959251Y-91927944D01*
X142018725Y-91974305D01*
X142080047Y-92018998D01*
X142143246Y-92061936D01*
X142208350Y-92103033D01*
X142275388Y-92142200D01*
X142397997Y-92205876D01*
X142515054Y-92257045D01*
X142627757Y-92297633D01*
X142737305Y-92329565D01*
X142844894Y-92354764D01*
X142951723Y-92375156D01*
X143167893Y-92409214D01*
X143395399Y-92447136D01*
X143516398Y-92472357D01*
X143643825Y-92504318D01*
X143778878Y-92544942D01*
X143922754Y-92596154D01*
X144076652Y-92659880D01*
X144241771Y-92738042D01*
X144327989Y-92782664D01*
X144413310Y-92829319D01*
X144580675Y-92927994D01*
X144742697Y-93032606D01*
X144898206Y-93141693D01*
X145046034Y-93253792D01*
X145185011Y-93367441D01*
X145313968Y-93481177D01*
X145431735Y-93593539D01*
X145537143Y-93703064D01*
X145629022Y-93808289D01*
X145706204Y-93907753D01*
X145738919Y-93954867D01*
X145767520Y-93999993D01*
X145791862Y-94042947D01*
X145811799Y-94083546D01*
X145827185Y-94121609D01*
X145837873Y-94156951D01*
X145843717Y-94189391D01*
X145844572Y-94218745D01*
X145840290Y-94244831D01*
X145830726Y-94267466D01*
X145808472Y-94293576D01*
X145775350Y-94315173D01*
X145731849Y-94332218D01*
X145678458Y-94344667D01*
X145543967Y-94355614D01*
X145375794Y-94347680D01*
X145177856Y-94320534D01*
X144954071Y-94273843D01*
X144708354Y-94207272D01*
X144444624Y-94120490D01*
X144166797Y-94013164D01*
X143878790Y-93884960D01*
X143584520Y-93735546D01*
X143287905Y-93564589D01*
X142992860Y-93371755D01*
X142703304Y-93156712D01*
X142423154Y-92919128D01*
X142156325Y-92658668D01*
X142007783Y-92495439D01*
X141869591Y-92329567D01*
X141741381Y-92161742D01*
X141622787Y-91992654D01*
X141513443Y-91822991D01*
X141412982Y-91653445D01*
X141321039Y-91484706D01*
X141237246Y-91317462D01*
X141161236Y-91152404D01*
X141092645Y-90990222D01*
X141031104Y-90831606D01*
X140976249Y-90677245D01*
X140927711Y-90527830D01*
X140885125Y-90384050D01*
X140816343Y-90116155D01*
X140710724Y-89813805D01*
X140610384Y-89509244D01*
X140518331Y-89208617D01*
X140437576Y-88918072D01*
X140402374Y-88778500D01*
X140371126Y-88643755D01*
X140344206Y-88514603D01*
X140321992Y-88391813D01*
X140304858Y-88276154D01*
X140293182Y-88168394D01*
X140287339Y-88069301D01*
X140287706Y-87979644D01*
X140293611Y-87809682D01*
X140297446Y-87648750D01*
X140300412Y-87501757D01*
X140303713Y-87373615D01*
X140286565Y-87245080D01*
X140271996Y-87110445D01*
X140250672Y-86826434D01*
X140239903Y-86528697D01*
X140239849Y-86224348D01*
X140250672Y-85920501D01*
X140272533Y-85624271D01*
X140287654Y-85481235D01*
X140305594Y-85342772D01*
X140326374Y-85209769D01*
X140350015Y-85083118D01*
X140396365Y-84873083D01*
X140448017Y-84670061D01*
X140504399Y-84474121D01*
X140564937Y-84285330D01*
X140629059Y-84103757D01*
X140696191Y-83929469D01*
X140765761Y-83762535D01*
X140837196Y-83603022D01*
X140909921Y-83450998D01*
X140983365Y-83306532D01*
X141056954Y-83169691D01*
X141130116Y-83040544D01*
X141202277Y-82919159D01*
X141272864Y-82805603D01*
X141407025Y-82602251D01*
X141413731Y-82567021D01*
X141425277Y-82525281D01*
X141459078Y-82423493D01*
X141500810Y-82299331D01*
X141522270Y-82229623D01*
X141542856Y-82155238D01*
X141561615Y-82076482D01*
X141577596Y-81993658D01*
X141589847Y-81907074D01*
X141597414Y-81817035D01*
X141599346Y-81723845D01*
X141594690Y-81627810D01*
X141582494Y-81529236D01*
X141573271Y-81479092D01*
X141561807Y-81428428D01*
X141551082Y-81389813D01*
X141538881Y-81354014D01*
X141525324Y-81320846D01*
X141510530Y-81290124D01*
X141494619Y-81261663D01*
X141477712Y-81235279D01*
X141459928Y-81210786D01*
X141441386Y-81188000D01*
X141422207Y-81166736D01*
X141402511Y-81146810D01*
X141382416Y-81128036D01*
X141362044Y-81110229D01*
X141320946Y-81076779D01*
X141280174Y-81044981D01*
X141240687Y-81013356D01*
X141221726Y-80997147D01*
X141203445Y-80980427D01*
X141185964Y-80963011D01*
X141169404Y-80944714D01*
X141153885Y-80925352D01*
X141139525Y-80904739D01*
X141126446Y-80882691D01*
X141114766Y-80859023D01*
X141104606Y-80833551D01*
X141096085Y-80806088D01*
X141089324Y-80776451D01*
X141084442Y-80744455D01*
X141081558Y-80709915D01*
X141080794Y-80672646D01*
X141086419Y-78714977D01*
X141128138Y-77403794D01*
X141171207Y-76719498D01*
X141233839Y-76036782D01*
X141319600Y-75371185D01*
X141432056Y-74738243D01*
X141574774Y-74153496D01*
X141658596Y-73884051D01*
X141751320Y-73632480D01*
X141853394Y-73400728D01*
X141965263Y-73190734D01*
X142087372Y-73004443D01*
X142220167Y-72843796D01*
X142364095Y-72710735D01*
X142519600Y-72607202D01*
X142687129Y-72535141D01*
X142867128Y-72496492D01*
X143018070Y-72490999D01*
X143173626Y-72507726D01*
G36*
X143173626Y-72507726D02*
G01*
X143333377Y-72545581D01*
X143496900Y-72603472D01*
X143663773Y-72680306D01*
X143833575Y-72774993D01*
X144005885Y-72886438D01*
X144180280Y-73013552D01*
X144533642Y-73310414D01*
X144890288Y-73656842D01*
X145246846Y-74044101D01*
X145599943Y-74463454D01*
X145946206Y-74906165D01*
X146282263Y-75363499D01*
X146604741Y-75826719D01*
X146910267Y-76287088D01*
X147456974Y-77164333D01*
X147895401Y-77925345D01*
X148186154Y-77990999D01*
X148546908Y-78048521D01*
X149440430Y-78141908D01*
X150499985Y-78210990D01*
X151649591Y-78261250D01*
X155628908Y-78383736D01*
X155678778Y-78340424D01*
X155728921Y-78296406D01*
X155779262Y-78251669D01*
X155829728Y-78206200D01*
X156023242Y-78027859D01*
X156205459Y-77854397D01*
X156377028Y-77685752D01*
X156538601Y-77521863D01*
X156834356Y-77208105D01*
X157097929Y-76912629D01*
X157334522Y-76634943D01*
X157549339Y-76374551D01*
X157934455Y-75903680D01*
X158115161Y-75692213D01*
X158294902Y-75496067D01*
X158386038Y-75403585D01*
X158478883Y-75314748D01*
X158574090Y-75229495D01*
X158672307Y-75147764D01*
X158774186Y-75069492D01*
X158880376Y-74994619D01*
X158991529Y-74923082D01*
X159108294Y-74854821D01*
X159231322Y-74789773D01*
X159361264Y-74727876D01*
X159498769Y-74669069D01*
X159644489Y-74613291D01*
X159835539Y-74545026D01*
X160033631Y-74479306D01*
X160134105Y-74449431D01*
X160234883Y-74422630D01*
X160335481Y-74399715D01*
X160435411Y-74381499D01*
X160534190Y-74368794D01*
X160631332Y-74362413D01*
X160726351Y-74363169D01*
X160772913Y-74366476D01*
X160818762Y-74371873D01*
X160863837Y-74379460D01*
X160908079Y-74389339D01*
X160951426Y-74401611D01*
X160993817Y-74416378D01*
X161035192Y-74433743D01*
X161075491Y-74453805D01*
X161114651Y-74476667D01*
X161152614Y-74502430D01*
X161319306Y-74626665D01*
X161386859Y-74683620D01*
X161445322Y-74742095D01*
X161495770Y-74805811D01*
X161539283Y-74878489D01*
X161576938Y-74963849D01*
X161609814Y-75065612D01*
X161638987Y-75187500D01*
X161665536Y-75333233D01*
X161690538Y-75506533D01*
X161715072Y-75711119D01*
X161767046Y-76229037D01*
X161830080Y-76916753D01*
X161829420Y-76956455D01*
X161822722Y-77016743D01*
X161794159Y-77188484D01*
X161750285Y-77410783D01*
X161696994Y-77662448D01*
X161585741Y-78169104D01*
X161507552Y-78538913D01*
X161507819Y-78538907D01*
X161496700Y-78594314D01*
X161484585Y-78647669D01*
X161471525Y-78699073D01*
X161457571Y-78748629D01*
X161427179Y-78842610D01*
X161393816Y-78930433D01*
X161357886Y-79012920D01*
X161319793Y-79090892D01*
X161279942Y-79165172D01*
X161238737Y-79236581D01*
X161153887Y-79374071D01*
X161068478Y-79509936D01*
X161026576Y-79579314D01*
X160985748Y-79650750D01*
X160946400Y-79725067D01*
X160908934Y-79803086D01*
X160861313Y-79918512D01*
X160826535Y-80025638D01*
X160803088Y-80126271D01*
X160789464Y-80222220D01*
X160784152Y-80315290D01*
X160785641Y-80407292D01*
X160792422Y-80500031D01*
X160802985Y-80595315D01*
X160829413Y-80800752D01*
X160842258Y-80914519D01*
X160852844Y-81038062D01*
X160859661Y-81173190D01*
X160861197Y-81321708D01*
X160855944Y-81485426D01*
X160842391Y-81666150D01*
X160814651Y-81897905D01*
X160795344Y-82023737D01*
X160772248Y-82154616D01*
X160745241Y-82289351D01*
X160714199Y-82426750D01*
X160679001Y-82565621D01*
X160639522Y-82704772D01*
X160595641Y-82843011D01*
X160547233Y-82979148D01*
X160494178Y-83111988D01*
X160436351Y-83240342D01*
X160373629Y-83363018D01*
X160305891Y-83478822D01*
X160233012Y-83586565D01*
X160154871Y-83685053D01*
X160172326Y-83729579D01*
X160187083Y-83776437D01*
X160199358Y-83825329D01*
X160209367Y-83875954D01*
X160217327Y-83928013D01*
X160223454Y-83981207D01*
X160227963Y-84035235D01*
X160231072Y-84089799D01*
X160233953Y-84199334D01*
X160233826Y-84307415D01*
X160231469Y-84509627D01*
X160233341Y-84637371D01*
X160239210Y-84760022D01*
X160248860Y-84877867D01*
X160262075Y-84991193D01*
X160278639Y-85100287D01*
X160298336Y-85205435D01*
X160320950Y-85306925D01*
X160346266Y-85405043D01*
X160404135Y-85592310D01*
X160470218Y-85769531D01*
X160542785Y-85939001D01*
X160620109Y-86103013D01*
X160782118Y-86423845D01*
X160863346Y-86585254D01*
X160942421Y-86750382D01*
X161017614Y-86921526D01*
X161087196Y-87100980D01*
X161149442Y-87291037D01*
X161177273Y-87390760D01*
X161202622Y-87493993D01*
X161238374Y-87672194D01*
X161264794Y-87852547D01*
X161282108Y-88034732D01*
X161290543Y-88218429D01*
X161290323Y-88403320D01*
X161281677Y-88589084D01*
X161264828Y-88775402D01*
X161240005Y-88961954D01*
X161207433Y-89148422D01*
X161167338Y-89334484D01*
X161119946Y-89519823D01*
X161065484Y-89704118D01*
X161004178Y-89887050D01*
X160936254Y-90068299D01*
X160781455Y-90424470D01*
X160602899Y-90770077D01*
X160402394Y-91102562D01*
X160181749Y-91419369D01*
X159942774Y-91717942D01*
X159816978Y-91859592D01*
X159687278Y-91995725D01*
X159553901Y-92126021D01*
X159417072Y-92250161D01*
X159277017Y-92367826D01*
X159133963Y-92478695D01*
X158988136Y-92582449D01*
X158839762Y-92678770D01*
X158749189Y-92733144D01*
X158657545Y-92785030D01*
X158472026Y-92881422D01*
X158285176Y-92968105D01*
X158098967Y-93045241D01*
X157915372Y-93112990D01*
X157736361Y-93171515D01*
X157563907Y-93220975D01*
X157399982Y-93261532D01*
X157246556Y-93293347D01*
X157105603Y-93316581D01*
X156979093Y-93331394D01*
X156868998Y-93337949D01*
X156777291Y-93336406D01*
X156738949Y-93332648D01*
X156705943Y-93326926D01*
X156678519Y-93319259D01*
X156656925Y-93309669D01*
X156641407Y-93298176D01*
X156632210Y-93284798D01*
X156630439Y-93277747D01*
X156630762Y-93270064D01*
X156637734Y-93252670D01*
X156653207Y-93232346D01*
X156677266Y-93208822D01*
X156709991Y-93181828D01*
X156751466Y-93151095D01*
X156860992Y-93077332D01*
X157665540Y-92578757D01*
X157623311Y-92572146D01*
X157582352Y-92564632D01*
X157542818Y-92556238D01*
X157504861Y-92546987D01*
X157468638Y-92536904D01*
X157434301Y-92526012D01*
X157402004Y-92514335D01*
X157371902Y-92501896D01*
X157357722Y-92495399D01*
X157344149Y-92488720D01*
X157331201Y-92481862D01*
X157318898Y-92474829D01*
X157307260Y-92467623D01*
X157296305Y-92460247D01*
X157286052Y-92452705D01*
X157276522Y-92444999D01*
X157267733Y-92437132D01*
X157259704Y-92429107D01*
X157252455Y-92420927D01*
X157246005Y-92412595D01*
X157240373Y-92404114D01*
X157235579Y-92395487D01*
X157231642Y-92386717D01*
X157228580Y-92377807D01*
X157225171Y-92360260D01*
X157224853Y-92342207D01*
X157227418Y-92323696D01*
X157232658Y-92304776D01*
X157240367Y-92285497D01*
X157250338Y-92265908D01*
X157262364Y-92246059D01*
X157276236Y-92225999D01*
X157291749Y-92205777D01*
X157308694Y-92185444D01*
X157346054Y-92144636D01*
X157386660Y-92103973D01*
X157428853Y-92063847D01*
X157511373Y-91986791D01*
X157548385Y-91950650D01*
X157580354Y-91916627D01*
X157593930Y-91900533D01*
X157605624Y-91885117D01*
X157615229Y-91870428D01*
X157622537Y-91856515D01*
X157627341Y-91843428D01*
X157629435Y-91831216D01*
X157628611Y-91819929D01*
X157624662Y-91809615D01*
X157618393Y-91801540D01*
X157610059Y-91795521D01*
X157599745Y-91791409D01*
X157587535Y-91789052D01*
X157557757Y-91789005D01*
X157521397Y-91794183D01*
X157479123Y-91803383D01*
X157431605Y-91815406D01*
X157323515Y-91843118D01*
X157264282Y-91856408D01*
X157202483Y-91867718D01*
X157138788Y-91875850D01*
X157073866Y-91879602D01*
X157041154Y-91879461D01*
X157008387Y-91877775D01*
X156975647Y-91874394D01*
X156943020Y-91869168D01*
X156910588Y-91861947D01*
X156878434Y-91852581D01*
X156846644Y-91840920D01*
X156815300Y-91826814D01*
X156788851Y-91812697D01*
X156763078Y-91796881D01*
X156738021Y-91779467D01*
X156713716Y-91760556D01*
X156690199Y-91740250D01*
X156667508Y-91718650D01*
X156645679Y-91695857D01*
X156624749Y-91671973D01*
X156604755Y-91647099D01*
X156585735Y-91621336D01*
X156550761Y-91567549D01*
X156520121Y-91511423D01*
X156494112Y-91453769D01*
X156473029Y-91395396D01*
X156457165Y-91337117D01*
X156451284Y-91308266D01*
X156446818Y-91279741D01*
X156443804Y-91251645D01*
X156442281Y-91224080D01*
X156442283Y-91197145D01*
X156443850Y-91170942D01*
X156447016Y-91145574D01*
X156451819Y-91121140D01*
X156458297Y-91097743D01*
X156466485Y-91075484D01*
X156476422Y-91054464D01*
X156488143Y-91034785D01*
X156508637Y-91008379D01*
X156533178Y-90984464D01*
X156561575Y-90963024D01*
X156593634Y-90944043D01*
X156629160Y-90927504D01*
X156667962Y-90913392D01*
X156754616Y-90892381D01*
X156852049Y-90880879D01*
X156958714Y-90878757D01*
X157073065Y-90885884D01*
X157193555Y-90902129D01*
X157318637Y-90927363D01*
X157446764Y-90961456D01*
X157576389Y-91004276D01*
X157705966Y-91055695D01*
X157833948Y-91115581D01*
X157958788Y-91183805D01*
X158078938Y-91260236D01*
X158192853Y-91344744D01*
X158252895Y-91394904D01*
X158318355Y-91453775D01*
X158386900Y-91520122D01*
X158421600Y-91555712D01*
X158456197Y-91592708D01*
X158490398Y-91630955D01*
X158523912Y-91670299D01*
X158556448Y-91710585D01*
X158587713Y-91751659D01*
X158617417Y-91793366D01*
X158645266Y-91835552D01*
X158670971Y-91878062D01*
X158694239Y-91920742D01*
X158919403Y-91774366D01*
X159118443Y-91643618D01*
X159292544Y-91527322D01*
X159442894Y-91424301D01*
X159570678Y-91333379D01*
X159626478Y-91292087D01*
X159677081Y-91253379D01*
X159722636Y-91217106D01*
X159763291Y-91183123D01*
X159799193Y-91151282D01*
X159830492Y-91121436D01*
X159999701Y-90939136D01*
X160154045Y-90745053D01*
X160293800Y-90540520D01*
X160419240Y-90326870D01*
X160530640Y-90105435D01*
X160628276Y-89877547D01*
X160712423Y-89644541D01*
X160783356Y-89407747D01*
X160841350Y-89168499D01*
X160886680Y-88928130D01*
X160919623Y-88687972D01*
X160940452Y-88449358D01*
X160949443Y-88213620D01*
X160946871Y-87982092D01*
X160933011Y-87756106D01*
X160908139Y-87536994D01*
X160885313Y-87389978D01*
X160858797Y-87245844D01*
X160828881Y-87104710D01*
X160795855Y-86966693D01*
X160760007Y-86831909D01*
X160721629Y-86700477D01*
X160681008Y-86572512D01*
X160638434Y-86448132D01*
X160594198Y-86327455D01*
X160548588Y-86210596D01*
X160501894Y-86097673D01*
X160454405Y-85988803D01*
X160358201Y-85783690D01*
X160262292Y-85596193D01*
X160168994Y-85427248D01*
X160080622Y-85277792D01*
X159999493Y-85148761D01*
X159927921Y-85041091D01*
X159822714Y-84893578D01*
X159783529Y-84842742D01*
X159383361Y-84372892D01*
X159339829Y-84318015D01*
X159299207Y-84263975D01*
X159261935Y-84210763D01*
X159228454Y-84158374D01*
X159199205Y-84106802D01*
X159174628Y-84056039D01*
X159164229Y-84030959D01*
X159155163Y-84006079D01*
X159147485Y-83981399D01*
X159141251Y-83956917D01*
X159104798Y-83943203D01*
X159069746Y-83928528D01*
X159036231Y-83913002D01*
X159004387Y-83896739D01*
X158974351Y-83879848D01*
X158946259Y-83862441D01*
X158920245Y-83844630D01*
X158896446Y-83826527D01*
X158885419Y-83817400D01*
X158874997Y-83808242D01*
X158865196Y-83799066D01*
X158856034Y-83789887D01*
X158847527Y-83780718D01*
X158839692Y-83771573D01*
X158832547Y-83762467D01*
X158826108Y-83753413D01*
X158820392Y-83744425D01*
X158815417Y-83735517D01*
X158811198Y-83726702D01*
X158807754Y-83717996D01*
X158805100Y-83709412D01*
X158803255Y-83700963D01*
X158802234Y-83692664D01*
X158802056Y-83684528D01*
X158804609Y-83667792D01*
X158811089Y-83652797D01*
X158821323Y-83639385D01*
X158835138Y-83627394D01*
X158852364Y-83616665D01*
X158872827Y-83607037D01*
X158922777Y-83590446D01*
X158983613Y-83576339D01*
X159053958Y-83563435D01*
X159217665Y-83536113D01*
X159308275Y-83519132D01*
X159402885Y-83498230D01*
X159500119Y-83472126D01*
X159598601Y-83439538D01*
X159696954Y-83399185D01*
X159745651Y-83375697D01*
X159793800Y-83349787D01*
X159841228Y-83321295D01*
X159887763Y-83290062D01*
X159933233Y-83255926D01*
X159977466Y-83218729D01*
X160041491Y-83156278D01*
X160097060Y-83090795D01*
X160144722Y-83022283D01*
X160185026Y-82950746D01*
X160218519Y-82876189D01*
X160245752Y-82798616D01*
X160267273Y-82718031D01*
X160283630Y-82634438D01*
X160303051Y-82458245D01*
X160308404Y-82270070D01*
X160294470Y-81857910D01*
X160276952Y-81398225D01*
X160277824Y-81150643D01*
X160290972Y-80891280D01*
X160320786Y-80620169D01*
X160371656Y-80337343D01*
X160406359Y-80191547D01*
X160447972Y-80042835D01*
X160497044Y-79891212D01*
X160554125Y-79736680D01*
X161263871Y-78494725D01*
X161351471Y-78245552D01*
X161425259Y-77984786D01*
X161484859Y-77715536D01*
X161529897Y-77440911D01*
X161559998Y-77164017D01*
X161574787Y-76887963D01*
X161573889Y-76615857D01*
X161556930Y-76350807D01*
X161523535Y-76095920D01*
X161500557Y-75973259D01*
X161473329Y-75854305D01*
X161441804Y-75739446D01*
X161405936Y-75629070D01*
X161365679Y-75523566D01*
X161320984Y-75423322D01*
X161271805Y-75328727D01*
X161218096Y-75240170D01*
X161159809Y-75158039D01*
X161096898Y-75082721D01*
X161029315Y-75014607D01*
X160957014Y-74954084D01*
X160879949Y-74901541D01*
X160798072Y-74857366D01*
X160714761Y-74823113D01*
X160628890Y-74797626D01*
X160540683Y-74780539D01*
X160450367Y-74771488D01*
X160358167Y-74770108D01*
X160264309Y-74776033D01*
X160169018Y-74788899D01*
X160072520Y-74808342D01*
X159975041Y-74833995D01*
X159876807Y-74865495D01*
X159778043Y-74902476D01*
X159678975Y-74944573D01*
X159579828Y-74991421D01*
X159480829Y-75042656D01*
X159284176Y-75156825D01*
X159090819Y-75284161D01*
X158902566Y-75421744D01*
X158721221Y-75566655D01*
X158548591Y-75715974D01*
X158386479Y-75866783D01*
X158236693Y-76016161D01*
X158101037Y-76161189D01*
X157981318Y-76298948D01*
X157885775Y-76416033D01*
X157763843Y-76576866D01*
X157625335Y-76780075D01*
X157552932Y-76897141D01*
X157480065Y-77024287D01*
X157407961Y-77161341D01*
X157337846Y-77308131D01*
X157270947Y-77464486D01*
X157208491Y-77630235D01*
X157151705Y-77805205D01*
X157101814Y-77989226D01*
X157060046Y-78182125D01*
X157027628Y-78383733D01*
X157011099Y-78535064D01*
X157001508Y-78685026D01*
X156998347Y-78833356D01*
X157001109Y-78979792D01*
X157009290Y-79124070D01*
X157022381Y-79265928D01*
X157039876Y-79405105D01*
X157061269Y-79541336D01*
X157086053Y-79674361D01*
X157113722Y-79803915D01*
X157175686Y-80051563D01*
X157243110Y-80282182D01*
X157311939Y-80493669D01*
X157437607Y-80850850D01*
X157486340Y-80992342D01*
X157520268Y-81106301D01*
X157530414Y-81152300D01*
X157535339Y-81190628D01*
X157534537Y-81221022D01*
X157527501Y-81243221D01*
X157513724Y-81256961D01*
X157492700Y-81261980D01*
X157463923Y-81258015D01*
X157426885Y-81244804D01*
X157320705Y-81191489D01*
X157204548Y-81120637D01*
X157078756Y-81034402D01*
X156943667Y-80934934D01*
X156317139Y-80447797D01*
X155956929Y-80180801D01*
X155766276Y-80048980D01*
X155569044Y-79921146D01*
X155365574Y-79799452D01*
X155156203Y-79686050D01*
X154941273Y-79583094D01*
X154721123Y-79492734D01*
X154708795Y-79487863D01*
X154697256Y-79482776D01*
X154686496Y-79477474D01*
X154676507Y-79471958D01*
X154667282Y-79466229D01*
X154658810Y-79460287D01*
X154654855Y-79457237D01*
X154651085Y-79454134D01*
X154647499Y-79450979D01*
X154644096Y-79447771D01*
X154640876Y-79444511D01*
X154637836Y-79441199D01*
X154634977Y-79437835D01*
X154632296Y-79434418D01*
X154629794Y-79430950D01*
X154627468Y-79427430D01*
X154625318Y-79423859D01*
X154623343Y-79420236D01*
X154621541Y-79416562D01*
X154619912Y-79412836D01*
X154618454Y-79409060D01*
X154617167Y-79405232D01*
X154616049Y-79401354D01*
X154615100Y-79397424D01*
X154614317Y-79393445D01*
X154613701Y-79389414D01*
X154609907Y-79384744D01*
X154606165Y-79379955D01*
X154602479Y-79375043D01*
X154598851Y-79370001D01*
X154595286Y-79364822D01*
X154591786Y-79359500D01*
X154588354Y-79354029D01*
X154584993Y-79348404D01*
X154347331Y-78958524D01*
X154288288Y-78854748D01*
X154261448Y-78804412D01*
X154237033Y-78755715D01*
X154215520Y-78709111D01*
X154197387Y-78665056D01*
X154183111Y-78624002D01*
X154173169Y-78586404D01*
X153586052Y-78600369D01*
X152982115Y-78611308D01*
X152381801Y-78618923D01*
X151805546Y-78622917D01*
X151815633Y-78656735D01*
X151824008Y-78691930D01*
X151830730Y-78728382D01*
X151835862Y-78765969D01*
X151839463Y-78804573D01*
X151841595Y-78844071D01*
X151842319Y-78884343D01*
X151841695Y-78925269D01*
X151839784Y-78966729D01*
X151836648Y-79008601D01*
X151832346Y-79050766D01*
X151826940Y-79093102D01*
X151820491Y-79135489D01*
X151813060Y-79177807D01*
X151795492Y-79261753D01*
X151808384Y-79265476D01*
X151821239Y-79269310D01*
X151834020Y-79273269D01*
X151846689Y-79277364D01*
X151897999Y-79294990D01*
X151969406Y-79322781D01*
X152010800Y-79340958D01*
X152055002Y-79362242D01*
X152101273Y-79386820D01*
X152148876Y-79414880D01*
X152197071Y-79446612D01*
X152245119Y-79482203D01*
X152292282Y-79521842D01*
X152315301Y-79543239D01*
X152337822Y-79565718D01*
X152359751Y-79589303D01*
X152380998Y-79614017D01*
X152401469Y-79639885D01*
X152421073Y-79666930D01*
X152439717Y-79695175D01*
X152457308Y-79724644D01*
X152473755Y-79755360D01*
X152488965Y-79787347D01*
X152507043Y-79831861D01*
X152521279Y-79875448D01*
X152531915Y-79918199D01*
X152539190Y-79960204D01*
X152543346Y-80001556D01*
X152544624Y-80042345D01*
X152543265Y-80082662D01*
X152539509Y-80122599D01*
X152533597Y-80162247D01*
X152525770Y-80201697D01*
X152505336Y-80280368D01*
X152480133Y-80359342D01*
X152452089Y-80439347D01*
X152395183Y-80605370D01*
X152370175Y-80692846D01*
X152350034Y-80784272D01*
X152342391Y-80831694D01*
X152336686Y-80880377D01*
X152333162Y-80930412D01*
X152332059Y-80981890D01*
X152333617Y-81034903D01*
X152338079Y-81089541D01*
X152345684Y-81145896D01*
X152356673Y-81204059D01*
X152368226Y-81252524D01*
X152381524Y-81299487D01*
X152396407Y-81344971D01*
X152412720Y-81389000D01*
X152430303Y-81431600D01*
X152449001Y-81472793D01*
X152468655Y-81512605D01*
X152489108Y-81551059D01*
X152510201Y-81588181D01*
X152531779Y-81623993D01*
X152575755Y-81691787D01*
X152619776Y-81754635D01*
X152662581Y-81812732D01*
X152739504Y-81915446D01*
X152771101Y-81960451D01*
X152784632Y-81981450D01*
X152796442Y-82001479D01*
X152806372Y-82020563D01*
X152814266Y-82038725D01*
X152819966Y-82055990D01*
X152823313Y-82072381D01*
X152824152Y-82087924D01*
X152822324Y-82102643D01*
X152817671Y-82116561D01*
X152810037Y-82129703D01*
X152798314Y-82142809D01*
X152784001Y-82153390D01*
X152767276Y-82161609D01*
X152748317Y-82167632D01*
X152727304Y-82171621D01*
X152704415Y-82173741D01*
X152679828Y-82174157D01*
X152653722Y-82173032D01*
X152597666Y-82166818D01*
X152537677Y-82156413D01*
X152411607Y-82128281D01*
X152286940Y-82099144D01*
X152228702Y-82087483D01*
X152175099Y-82079511D01*
X152127559Y-82076542D01*
X152106509Y-82077344D01*
X152087511Y-82079889D01*
X152070742Y-82084341D01*
X152056382Y-82090866D01*
X152044609Y-82099626D01*
X152035602Y-82110786D01*
X152030900Y-82120718D01*
X152028548Y-82131129D01*
X152028424Y-82142036D01*
X152030407Y-82153457D01*
X152034376Y-82165409D01*
X152040211Y-82177910D01*
X152056996Y-82204630D01*
X152079794Y-82233755D01*
X152107639Y-82265427D01*
X152174607Y-82336971D01*
X152211797Y-82377123D01*
X152250170Y-82420384D01*
X152288759Y-82466892D01*
X152326597Y-82516788D01*
X152362720Y-82570213D01*
X152379836Y-82598292D01*
X152396161Y-82627306D01*
X152411573Y-82657273D01*
X152425953Y-82688209D01*
X152439178Y-82720132D01*
X152451130Y-82753061D01*
X152466247Y-82803939D01*
X152477045Y-82853727D01*
X152483743Y-82902562D01*
X152486562Y-82950585D01*
X152485721Y-82997934D01*
X152481441Y-83044747D01*
X152473942Y-83091164D01*
X152463445Y-83137323D01*
X152434335Y-83229422D01*
X152395872Y-83322157D01*
X152349819Y-83416635D01*
X152297936Y-83513970D01*
X152183727Y-83721645D01*
X152124925Y-83834208D01*
X152067339Y-83954067D01*
X152012731Y-84082334D01*
X151962863Y-84220118D01*
X151940257Y-84292926D01*
X151919496Y-84368530D01*
X151900801Y-84447068D01*
X151884391Y-84528680D01*
X151871189Y-84608806D01*
X151861061Y-84687018D01*
X151853800Y-84763291D01*
X151849199Y-84837601D01*
X151847052Y-84909924D01*
X151847150Y-84980234D01*
X151849288Y-85048507D01*
X151853258Y-85114718D01*
X151858853Y-85178843D01*
X151865865Y-85240856D01*
X151874089Y-85300734D01*
X151883317Y-85358451D01*
X151903958Y-85467304D01*
X151926130Y-85567220D01*
X151968446Y-85739445D01*
X151985278Y-85811360D01*
X151997018Y-85873547D01*
X152000460Y-85900931D01*
X152002009Y-85925808D01*
X152001456Y-85948155D01*
X151998596Y-85967946D01*
X151993220Y-85985157D01*
X151985122Y-85999763D01*
X151974094Y-86011740D01*
X151959931Y-86021062D01*
X151938111Y-86028680D01*
X151912602Y-86031532D01*
X151883690Y-86029752D01*
X151851659Y-86023474D01*
X151816794Y-86012832D01*
X151779381Y-85997961D01*
X151698047Y-85956068D01*
X151609937Y-85898868D01*
X151517330Y-85827435D01*
X151422505Y-85742842D01*
X151327742Y-85646165D01*
X151235320Y-85538475D01*
X151147518Y-85420847D01*
X151066615Y-85294355D01*
X151029464Y-85228121D01*
X150994892Y-85160073D01*
X150963184Y-85090346D01*
X150934627Y-85019074D01*
X150909503Y-84946392D01*
X150888099Y-84872432D01*
X150870699Y-84797331D01*
X150857588Y-84721222D01*
X150849051Y-84644238D01*
X150845373Y-84566515D01*
X150846156Y-84503098D01*
X150850218Y-84441558D01*
X150857303Y-84381785D01*
X150867153Y-84323671D01*
X150879513Y-84267104D01*
X150894124Y-84211974D01*
X150910731Y-84158173D01*
X150929077Y-84105589D01*
X150969956Y-84003635D01*
X151014707Y-83905233D01*
X151107608Y-83715566D01*
X151151649Y-83622542D01*
X151191344Y-83529552D01*
X151224639Y-83435716D01*
X151238244Y-83388205D01*
X151249479Y-83340153D01*
X151258086Y-83291450D01*
X151263809Y-83241986D01*
X151266391Y-83191651D01*
X151265576Y-83140334D01*
X151261105Y-83087926D01*
X151252723Y-83034317D01*
X151240173Y-82979398D01*
X151223198Y-82923057D01*
X151201667Y-82864850D01*
X151173258Y-82798217D01*
X151138078Y-82724555D01*
X151096231Y-82645260D01*
X151072841Y-82603938D01*
X151047824Y-82561731D01*
X151021193Y-82518814D01*
X150992961Y-82475363D01*
X150963142Y-82431551D01*
X150931748Y-82387553D01*
X150898794Y-82343544D01*
X150864291Y-82299698D01*
X150815251Y-82241257D01*
X150763479Y-82183513D01*
X150709794Y-82126624D01*
X150655014Y-82070749D01*
X150441322Y-81860540D01*
X150393348Y-81812100D01*
X150349191Y-81765621D01*
X150309669Y-81721261D01*
X150275601Y-81679178D01*
X150260869Y-81659040D01*
X150247806Y-81639530D01*
X150236516Y-81620668D01*
X150227102Y-81602474D01*
X150219665Y-81584968D01*
X150214307Y-81568169D01*
X150211132Y-81552097D01*
X150210241Y-81536772D01*
X150212729Y-81513981D01*
X150219099Y-81493874D01*
X150229119Y-81476257D01*
X150242559Y-81460940D01*
X150259189Y-81447730D01*
X150278779Y-81436435D01*
X150301097Y-81426862D01*
X150325913Y-81418820D01*
X150382121Y-81406557D01*
X150445557Y-81398108D01*
X150586743Y-81386505D01*
X150660807Y-81380275D01*
X150734726Y-81371708D01*
X150806658Y-81359268D01*
X150841302Y-81351115D01*
X150874759Y-81341416D01*
X150906797Y-81329981D01*
X150937186Y-81316616D01*
X150965695Y-81301129D01*
X150992095Y-81283328D01*
X151016155Y-81263021D01*
X151037644Y-81240016D01*
X151056332Y-81214120D01*
X151071989Y-81185141D01*
X151090854Y-81136493D01*
X151103257Y-81087341D01*
X151109623Y-81037724D01*
X151110379Y-80987683D01*
X151105950Y-80937259D01*
X151096760Y-80886492D01*
X151083236Y-80835424D01*
X151065802Y-80784095D01*
X151044885Y-80732545D01*
X151020910Y-80680815D01*
X150965486Y-80576978D01*
X150902935Y-80472910D01*
X150836659Y-80368934D01*
X150770062Y-80265378D01*
X150706548Y-80162565D01*
X150649520Y-80060821D01*
X150624501Y-80010452D01*
X150602381Y-79960472D01*
X150583584Y-79910921D01*
X150568535Y-79861841D01*
X150557661Y-79813272D01*
X150551386Y-79765255D01*
X150550136Y-79717830D01*
X150554336Y-79671039D01*
X150564413Y-79624921D01*
X150580790Y-79579517D01*
X150599871Y-79541738D01*
X150623128Y-79505855D01*
X150650335Y-79471894D01*
X150681266Y-79439879D01*
X150715694Y-79409835D01*
X150753394Y-79381785D01*
X150794138Y-79355755D01*
X150837701Y-79331768D01*
X150883856Y-79309849D01*
X150932376Y-79290023D01*
X150983036Y-79272314D01*
X151035609Y-79256746D01*
X151089869Y-79243344D01*
X151145589Y-79232132D01*
X151202543Y-79223135D01*
X151260505Y-79216376D01*
X151252595Y-79137701D01*
X151246936Y-79058759D01*
X151243696Y-78980326D01*
X151243042Y-78903176D01*
X151245141Y-78828085D01*
X151247276Y-78791554D01*
X151250161Y-78755828D01*
X151253819Y-78721004D01*
X151258269Y-78687180D01*
X151263534Y-78654452D01*
X151269633Y-78622916D01*
X151102416Y-78622023D01*
X150943534Y-78620535D01*
X150647343Y-78614426D01*
X150368348Y-78603065D01*
X150106068Y-78586856D01*
X149860022Y-78566202D01*
X149629729Y-78541508D01*
X149414709Y-78513176D01*
X149214480Y-78481611D01*
X149028563Y-78447216D01*
X148856475Y-78410395D01*
X148697737Y-78371552D01*
X148551868Y-78331089D01*
X148418386Y-78289411D01*
X148296811Y-78246922D01*
X148186663Y-78204024D01*
X148087460Y-78161123D01*
X147998722Y-78118621D01*
X148032657Y-78190030D01*
X148062474Y-78258815D01*
X148088349Y-78325029D01*
X148110458Y-78388725D01*
X148128978Y-78449958D01*
X148144085Y-78508779D01*
X148155955Y-78565244D01*
X148164766Y-78619405D01*
X148170694Y-78671315D01*
X148173915Y-78721030D01*
X148174605Y-78768601D01*
X148172941Y-78814083D01*
X148169100Y-78857529D01*
X148163258Y-78898992D01*
X148155591Y-78938526D01*
X148146277Y-78976185D01*
X148135490Y-79012022D01*
X148123409Y-79046090D01*
X148110209Y-79078443D01*
X148096066Y-79109135D01*
X148081158Y-79138219D01*
X148065660Y-79165748D01*
X148049750Y-79191777D01*
X148033604Y-79216358D01*
X148001307Y-79261392D01*
X147970183Y-79301279D01*
X147917098Y-79367322D01*
X147877131Y-79415514D01*
X147833494Y-79460621D01*
X147786475Y-79502675D01*
X147736358Y-79541708D01*
X147683428Y-79577752D01*
X147627970Y-79610840D01*
X147570271Y-79641003D01*
X147510616Y-79668275D01*
X147449289Y-79692687D01*
X147386576Y-79714271D01*
X147322762Y-79733060D01*
X147258134Y-79749087D01*
X147192975Y-79762382D01*
X147127573Y-79772979D01*
X147062211Y-79780910D01*
X146997175Y-79786206D01*
X146869224Y-79789027D01*
X146806879Y-79786615D01*
X146746002Y-79781698D01*
X146686878Y-79774308D01*
X146629792Y-79764478D01*
X146575029Y-79752239D01*
X146522876Y-79737624D01*
X146473618Y-79720666D01*
X146427539Y-79701395D01*
X146384925Y-79679846D01*
X146346061Y-79656049D01*
X146311234Y-79630038D01*
X146280727Y-79601843D01*
X146254827Y-79571499D01*
X146233819Y-79539036D01*
X146220141Y-79507884D01*
X146212989Y-79476374D01*
X146211950Y-79444445D01*
X146216613Y-79412036D01*
X146226566Y-79379086D01*
X146241397Y-79345534D01*
X146260694Y-79311319D01*
X146284044Y-79276379D01*
X146341260Y-79204084D01*
X146409748Y-79128159D01*
X146567359Y-78963468D01*
X146649892Y-78873726D01*
X146730515Y-78778400D01*
X146769080Y-78728492D01*
X146805933Y-78677004D01*
X146840660Y-78623877D01*
X146872850Y-78569049D01*
X146902091Y-78512459D01*
X146927971Y-78454046D01*
X146950078Y-78393749D01*
X146968000Y-78331507D01*
X146981325Y-78267258D01*
X146989642Y-78200943D01*
X146992538Y-78132500D01*
X146989601Y-78061867D01*
X146968813Y-77872078D01*
X146937659Y-77674260D01*
X146896521Y-77469414D01*
X146845780Y-77258543D01*
X146717012Y-76822736D01*
X146554403Y-76374857D01*
X146361002Y-75922925D01*
X146139857Y-75474958D01*
X145894019Y-75038975D01*
X145626534Y-74622995D01*
X145485627Y-74425012D01*
X145340452Y-74235037D01*
X145191389Y-74054072D01*
X145038821Y-73883119D01*
X144883127Y-73723181D01*
X144724690Y-73575260D01*
X144563890Y-73440358D01*
X144401108Y-73319478D01*
X144236725Y-73213622D01*
X144071123Y-73123793D01*
X143904682Y-73050992D01*
X143737784Y-72996223D01*
X143570810Y-72960486D01*
X143404140Y-72944786D01*
X143238156Y-72950124D01*
X143073239Y-72977502D01*
X142992823Y-72999499D01*
X142915362Y-73026737D01*
X142840746Y-73059051D01*
X142768868Y-73096278D01*
X142699616Y-73138255D01*
X142632883Y-73184818D01*
X142568559Y-73235803D01*
X142506534Y-73291048D01*
X142388948Y-73413661D01*
X142279250Y-73551348D01*
X142176567Y-73702803D01*
X142080026Y-73866717D01*
X141988753Y-74041782D01*
X141901874Y-74226691D01*
X141818515Y-74420135D01*
X141737804Y-74620806D01*
X141580829Y-75038601D01*
X141423959Y-75469612D01*
X141400487Y-75547579D01*
X141382522Y-75637162D01*
X141361405Y-75848326D01*
X141357193Y-76097404D01*
X141366470Y-76378694D01*
X141411829Y-77015111D01*
X141470162Y-77711973D01*
X141514144Y-78423674D01*
X141522217Y-78770838D01*
X141516455Y-79104609D01*
X141493446Y-79419288D01*
X141449772Y-79709174D01*
X141419119Y-79843038D01*
X141382019Y-79968566D01*
X141338046Y-80085045D01*
X141286772Y-80191763D01*
X141260491Y-80252751D01*
X141245784Y-80316407D01*
X141241934Y-80382546D01*
X141248222Y-80450986D01*
X141263930Y-80521543D01*
X141288339Y-80594032D01*
X141320731Y-80668272D01*
X141360388Y-80744077D01*
X141406592Y-80821265D01*
X141458624Y-80899651D01*
X141577299Y-81059287D01*
X141710667Y-81221516D01*
X141852981Y-81384869D01*
X142141462Y-81709074D01*
X142276136Y-81866989D01*
X142396770Y-82020154D01*
X142450026Y-82094497D01*
X142497617Y-82167101D01*
X142538825Y-82237784D01*
X142572932Y-82306362D01*
X142599219Y-82372650D01*
X142616967Y-82436467D01*
X142625459Y-82497627D01*
X142623976Y-82555948D01*
X142622567Y-82566805D01*
X142620922Y-82577424D01*
X142619043Y-82587808D01*
X142616934Y-82597958D01*
X142614597Y-82607878D01*
X142612037Y-82617568D01*
X142609255Y-82627031D01*
X142606256Y-82636270D01*
X142603041Y-82645285D01*
X142599615Y-82654080D01*
X142595980Y-82662656D01*
X142592139Y-82671015D01*
X142588095Y-82679160D01*
X142583853Y-82687093D01*
X142579413Y-82694815D01*
X142574780Y-82702329D01*
X142569957Y-82709636D01*
X142564947Y-82716740D01*
X142554377Y-82730343D01*
X142543095Y-82743155D01*
X142531126Y-82755191D01*
X142518494Y-82766470D01*
X142505224Y-82777008D01*
X142491341Y-82786820D01*
X142476868Y-82795925D01*
X142475148Y-82798026D01*
X142473162Y-82800110D01*
X142470905Y-82802179D01*
X142468375Y-82804230D01*
X142465568Y-82806265D01*
X142462481Y-82808282D01*
X142459110Y-82810282D01*
X142455453Y-82812263D01*
X142451507Y-82814226D01*
X142447267Y-82816169D01*
X142442730Y-82818094D01*
X142437894Y-82819998D01*
X142432754Y-82821883D01*
X142427309Y-82823746D01*
X142421553Y-82825589D01*
X142415485Y-82827411D01*
X142175719Y-82905944D01*
X141954046Y-82996704D01*
X141749820Y-83098942D01*
X141562395Y-83211908D01*
X141391127Y-83334853D01*
X141235369Y-83467028D01*
X141094477Y-83607684D01*
X140967805Y-83756070D01*
X140854707Y-83911437D01*
X140754539Y-84073036D01*
X140666655Y-84240118D01*
X140590410Y-84411933D01*
X140525158Y-84587732D01*
X140470254Y-84766764D01*
X140425053Y-84948282D01*
X140388909Y-85131535D01*
X140341211Y-85500250D01*
X140321998Y-85866913D01*
X140326106Y-86225529D01*
X140348374Y-86570104D01*
X140383637Y-86894640D01*
X140426734Y-87193144D01*
X140515776Y-87688071D01*
X140538520Y-87665753D01*
X140564142Y-87645141D01*
X140592507Y-87626059D01*
X140623476Y-87608331D01*
X140692679Y-87576239D01*
X140770651Y-87547458D01*
X140948506Y-87494219D01*
X141148246Y-87437379D01*
X141253575Y-87404099D01*
X141361078Y-87365707D01*
X141469654Y-87320798D01*
X141578205Y-87267968D01*
X141685631Y-87205812D01*
X141738578Y-87170799D01*
X141790833Y-87132928D01*
X141842256Y-87092024D01*
X141892711Y-87047911D01*
X141942061Y-87000413D01*
X141990167Y-86949355D01*
X142033309Y-86898903D01*
X142072512Y-86848399D01*
X142108024Y-86797914D01*
X142140091Y-86747518D01*
X142168962Y-86697280D01*
X142194883Y-86647271D01*
X142218103Y-86597560D01*
X142238869Y-86548219D01*
X142257428Y-86499317D01*
X142274028Y-86450924D01*
X142302341Y-86355946D01*
X142325787Y-86263846D01*
X142346346Y-86175186D01*
X142365998Y-86090524D01*
X142386723Y-86010424D01*
X142410501Y-85935445D01*
X142424154Y-85900051D01*
X142439312Y-85866148D01*
X142456223Y-85833805D01*
X142475135Y-85803094D01*
X142496296Y-85774083D01*
X142519952Y-85746844D01*
X142546351Y-85721445D01*
X142575740Y-85697958D01*
X142608368Y-85676453D01*
X142644482Y-85656998D01*
X142696691Y-85635159D01*
X142750932Y-85619049D01*
X142806950Y-85608364D01*
X142864492Y-85602802D01*
X142923307Y-85602058D01*
X142983140Y-85605829D01*
X143043739Y-85613813D01*
X143104850Y-85625705D01*
X143166222Y-85641203D01*
X143227601Y-85660003D01*
X143288733Y-85681802D01*
X143349366Y-85706296D01*
X143409248Y-85733181D01*
X143468124Y-85762156D01*
X143525743Y-85792916D01*
X143581851Y-85825158D01*
X143688522Y-85892874D01*
X143786113Y-85962878D01*
X143872602Y-86032742D01*
X143945965Y-86100041D01*
X143977091Y-86131970D01*
X144004177Y-86162347D01*
X144026970Y-86190870D01*
X144045216Y-86217234D01*
X144058662Y-86241137D01*
X144067056Y-86262274D01*
X144070145Y-86280344D01*
X144067675Y-86295042D01*
X144061309Y-86304302D01*
X144051270Y-86310562D01*
X144037715Y-86314064D01*
X144020802Y-86315047D01*
X143977536Y-86310417D01*
X143922731Y-86298594D01*
X143613369Y-86217799D01*
X143519801Y-86198831D01*
X143422266Y-86184199D01*
X143322026Y-86175823D01*
X143220341Y-86175625D01*
X143169351Y-86179193D01*
X143118474Y-86185527D01*
X143067867Y-86194865D01*
X143017687Y-86207449D01*
X142968092Y-86223518D01*
X142919241Y-86243314D01*
X142871290Y-86267075D01*
X142824398Y-86295042D01*
X142788334Y-86320247D01*
X142755591Y-86346621D01*
X142725939Y-86374159D01*
X142699146Y-86402855D01*
X142674981Y-86432703D01*
X142653211Y-86463697D01*
X142633607Y-86495831D01*
X142615935Y-86529100D01*
X142585467Y-86599019D01*
X142559954Y-86673406D01*
X142537545Y-86752216D01*
X142516390Y-86835402D01*
X142470433Y-87014719D01*
X142441928Y-87110756D01*
X142407270Y-87210985D01*
X142364608Y-87315358D01*
X142312091Y-87423830D01*
X142281558Y-87479588D01*
X142247866Y-87536354D01*
X142210785Y-87594121D01*
X142170084Y-87652883D01*
X142114750Y-87726531D01*
X142053314Y-87801806D01*
X141986359Y-87877570D01*
X141914463Y-87952685D01*
X141838208Y-88026012D01*
X141758174Y-88096414D01*
X141674942Y-88162752D01*
X141589092Y-88223887D01*
X141501205Y-88278681D01*
X141411861Y-88325997D01*
X141366825Y-88346494D01*
X141321642Y-88364695D01*
X141276385Y-88380457D01*
X141231127Y-88393637D01*
X141185940Y-88404095D01*
X141140897Y-88411686D01*
X141096071Y-88416270D01*
X141051534Y-88417703D01*
X141007358Y-88415843D01*
X140963616Y-88410549D01*
X140920382Y-88401677D01*
X140877726Y-88389086D01*
X140861111Y-88383069D01*
X140844518Y-88376441D01*
X140827969Y-88369220D01*
X140811487Y-88361425D01*
X140795095Y-88353072D01*
X140778814Y-88344182D01*
X140762666Y-88334771D01*
X140746675Y-88324858D01*
X140730862Y-88314462D01*
X140715249Y-88303600D01*
X140699859Y-88292291D01*
X140684715Y-88280553D01*
X140669838Y-88268404D01*
X140655250Y-88255863D01*
X140640975Y-88242947D01*
X140627034Y-88229675D01*
X140810929Y-88974378D01*
X141031499Y-89835563D01*
X141418799Y-91332708D01*
X141459839Y-91391688D01*
X141502411Y-91449955D01*
X141546544Y-91507422D01*
X141592267Y-91564003D01*
X141639608Y-91619610D01*
X141688597Y-91674156D01*
X141739261Y-91727555D01*
X141791630Y-91779721D01*
X141845732Y-91830565D01*
X141901597Y-91880002D01*
X141959251Y-91927944D01*
X142018725Y-91974305D01*
X142080047Y-92018998D01*
X142143246Y-92061936D01*
X142208350Y-92103033D01*
X142275388Y-92142200D01*
X142397997Y-92205876D01*
X142515054Y-92257045D01*
X142627757Y-92297633D01*
X142737305Y-92329565D01*
X142844894Y-92354764D01*
X142951723Y-92375156D01*
X143167893Y-92409214D01*
X143395399Y-92447136D01*
X143516398Y-92472357D01*
X143643825Y-92504318D01*
X143778878Y-92544942D01*
X143922754Y-92596154D01*
X144076652Y-92659880D01*
X144241771Y-92738042D01*
X144327989Y-92782664D01*
X144413310Y-92829319D01*
X144580675Y-92927994D01*
X144742697Y-93032606D01*
X144898206Y-93141693D01*
X145046034Y-93253792D01*
X145185011Y-93367441D01*
X145313968Y-93481177D01*
X145431735Y-93593539D01*
X145537143Y-93703064D01*
X145629022Y-93808289D01*
X145706204Y-93907753D01*
X145738919Y-93954867D01*
X145767520Y-93999993D01*
X145791862Y-94042947D01*
X145811799Y-94083546D01*
X145827185Y-94121609D01*
X145837873Y-94156951D01*
X145843717Y-94189391D01*
X145844572Y-94218745D01*
X145840290Y-94244831D01*
X145830726Y-94267466D01*
X145808472Y-94293576D01*
X145775350Y-94315173D01*
X145731849Y-94332218D01*
X145678458Y-94344667D01*
X145543967Y-94355614D01*
X145375794Y-94347680D01*
X145177856Y-94320534D01*
X144954071Y-94273843D01*
X144708354Y-94207272D01*
X144444624Y-94120490D01*
X144166797Y-94013164D01*
X143878790Y-93884960D01*
X143584520Y-93735546D01*
X143287905Y-93564589D01*
X142992860Y-93371755D01*
X142703304Y-93156712D01*
X142423154Y-92919128D01*
X142156325Y-92658668D01*
X142007783Y-92495439D01*
X141869591Y-92329567D01*
X141741381Y-92161742D01*
X141622787Y-91992654D01*
X141513443Y-91822991D01*
X141412982Y-91653445D01*
X141321039Y-91484706D01*
X141237246Y-91317462D01*
X141161236Y-91152404D01*
X141092645Y-90990222D01*
X141031104Y-90831606D01*
X140976249Y-90677245D01*
X140927711Y-90527830D01*
X140885125Y-90384050D01*
X140816343Y-90116155D01*
X140710724Y-89813805D01*
X140610384Y-89509244D01*
X140518331Y-89208617D01*
X140437576Y-88918072D01*
X140402374Y-88778500D01*
X140371126Y-88643755D01*
X140344206Y-88514603D01*
X140321992Y-88391813D01*
X140304858Y-88276154D01*
X140293182Y-88168394D01*
X140287339Y-88069301D01*
X140287706Y-87979644D01*
X140293611Y-87809682D01*
X140297446Y-87648750D01*
X140300412Y-87501757D01*
X140303713Y-87373615D01*
X140286565Y-87245080D01*
X140271996Y-87110445D01*
X140250672Y-86826434D01*
X140239903Y-86528697D01*
X140239849Y-86224348D01*
X140250672Y-85920501D01*
X140272533Y-85624271D01*
X140287654Y-85481235D01*
X140305594Y-85342772D01*
X140326374Y-85209769D01*
X140350015Y-85083118D01*
X140396365Y-84873083D01*
X140448017Y-84670061D01*
X140504399Y-84474121D01*
X140564937Y-84285330D01*
X140629059Y-84103757D01*
X140696191Y-83929469D01*
X140765761Y-83762535D01*
X140837196Y-83603022D01*
X140909921Y-83450998D01*
X140983365Y-83306532D01*
X141056954Y-83169691D01*
X141130116Y-83040544D01*
X141202277Y-82919159D01*
X141272864Y-82805603D01*
X141407025Y-82602251D01*
X141413731Y-82567021D01*
X141425277Y-82525281D01*
X141459078Y-82423493D01*
X141500810Y-82299331D01*
X141522270Y-82229623D01*
X141542856Y-82155238D01*
X141561615Y-82076482D01*
X141577596Y-81993658D01*
X141589847Y-81907074D01*
X141597414Y-81817035D01*
X141599346Y-81723845D01*
X141594690Y-81627810D01*
X141582494Y-81529236D01*
X141573271Y-81479092D01*
X141561807Y-81428428D01*
X141551082Y-81389813D01*
X141538881Y-81354014D01*
X141525324Y-81320846D01*
X141510530Y-81290124D01*
X141494619Y-81261663D01*
X141477712Y-81235279D01*
X141459928Y-81210786D01*
X141441386Y-81188000D01*
X141422207Y-81166736D01*
X141402511Y-81146810D01*
X141382416Y-81128036D01*
X141362044Y-81110229D01*
X141320946Y-81076779D01*
X141280174Y-81044981D01*
X141240687Y-81013356D01*
X141221726Y-80997147D01*
X141203445Y-80980427D01*
X141185964Y-80963011D01*
X141169404Y-80944714D01*
X141153885Y-80925352D01*
X141139525Y-80904739D01*
X141126446Y-80882691D01*
X141114766Y-80859023D01*
X141104606Y-80833551D01*
X141096085Y-80806088D01*
X141089324Y-80776451D01*
X141084442Y-80744455D01*
X141081558Y-80709915D01*
X141080794Y-80672646D01*
X141086419Y-78714977D01*
X141128138Y-77403794D01*
X141171207Y-76719498D01*
X141233839Y-76036782D01*
X141319600Y-75371185D01*
X141432056Y-74738243D01*
X141574774Y-74153496D01*
X141658596Y-73884051D01*
X141751320Y-73632480D01*
X141853394Y-73400728D01*
X141965263Y-73190734D01*
X142087372Y-73004443D01*
X142220167Y-72843796D01*
X142364095Y-72710735D01*
X142519600Y-72607202D01*
X142687129Y-72535141D01*
X142867128Y-72496492D01*
X143018070Y-72490999D01*
X143173626Y-72507726D01*
G37*
X150039356Y-79544012D02*
X150078756Y-79547554D01*
X150116136Y-79554611D01*
X150151300Y-79565279D01*
X150184050Y-79579654D01*
X150221478Y-79602801D01*
X150256541Y-79632156D01*
X150289197Y-79667384D01*
X150319402Y-79708148D01*
X150347113Y-79754113D01*
X150372287Y-79804942D01*
X150394881Y-79860300D01*
X150414851Y-79919850D01*
X150446750Y-80050183D01*
X150467639Y-80193253D01*
X150477174Y-80346372D01*
X150475009Y-80506852D01*
X150460799Y-80672005D01*
X150434201Y-80839142D01*
X150394869Y-81005575D01*
X150342458Y-81168616D01*
X150276625Y-81325577D01*
X150238566Y-81400938D01*
X150197023Y-81473770D01*
X150151951Y-81543738D01*
X150103309Y-81610506D01*
X150051051Y-81673738D01*
X149995137Y-81733097D01*
X149974864Y-81752742D01*
X149954488Y-81771623D01*
X149913620Y-81807271D01*
X149872933Y-81840400D01*
X149832825Y-81871371D01*
X149755940Y-81928271D01*
X149719960Y-81954920D01*
X149686153Y-81980846D01*
X149654918Y-82006410D01*
X149640390Y-82019168D01*
X149626654Y-82031970D01*
X149613760Y-82044861D01*
X149601759Y-82057886D01*
X149590700Y-82071090D01*
X149580632Y-82084517D01*
X149571606Y-82098213D01*
X149563671Y-82112223D01*
X149556877Y-82126591D01*
X149551275Y-82141362D01*
X149546914Y-82156581D01*
X149543843Y-82172294D01*
X149542113Y-82188544D01*
X149541773Y-82205378D01*
X149544108Y-82231708D01*
X149549813Y-82256559D01*
X149558721Y-82280058D01*
X149570668Y-82302331D01*
X149585488Y-82323505D01*
X149603016Y-82343707D01*
X149623086Y-82363062D01*
X149645533Y-82381698D01*
X149696898Y-82417317D01*
X149755786Y-82451577D01*
X149890842Y-82520067D01*
X150040117Y-82595267D01*
X150116779Y-82637913D01*
X150193027Y-82685275D01*
X150267538Y-82738363D01*
X150303729Y-82767370D01*
X150338989Y-82798190D01*
X150373153Y-82830947D01*
X150406057Y-82865768D01*
X150437533Y-82902781D01*
X150467418Y-82942110D01*
X150508664Y-83005264D01*
X150544200Y-83071112D01*
X150574294Y-83139345D01*
X150599211Y-83209650D01*
X150619219Y-83281717D01*
X150634584Y-83355234D01*
X150645574Y-83429889D01*
X150652455Y-83505371D01*
X150655493Y-83581370D01*
X150654957Y-83657572D01*
X150651111Y-83733668D01*
X150644224Y-83809346D01*
X150634561Y-83884294D01*
X150622390Y-83958201D01*
X150591590Y-84101647D01*
X150553958Y-84237193D01*
X150511629Y-84362347D01*
X150466735Y-84474619D01*
X150421412Y-84571518D01*
X150377793Y-84650553D01*
X150338013Y-84709233D01*
X150320229Y-84730162D01*
X150304206Y-84745068D01*
X150290209Y-84753639D01*
X150278505Y-84755565D01*
X150270793Y-84751993D01*
X150264797Y-84743854D01*
X150257205Y-84714455D01*
X150254237Y-84668524D01*
X150254401Y-84607216D01*
X150258155Y-84443100D01*
X150256528Y-84231359D01*
X150249966Y-84110520D01*
X150237582Y-83981245D01*
X150217882Y-83844689D01*
X150189376Y-83702010D01*
X150150570Y-83554364D01*
X150099973Y-83402907D01*
X150036092Y-83248796D01*
X149998703Y-83171107D01*
X149957434Y-83093188D01*
X149913684Y-83015490D01*
X149856076Y-82919458D01*
X149822504Y-82867420D01*
X149785981Y-82814225D01*
X149746681Y-82761015D01*
X149704773Y-82708930D01*
X149660430Y-82659113D01*
X149613823Y-82612706D01*
X149589724Y-82591139D01*
X149565123Y-82570852D01*
X149540042Y-82551988D01*
X149514502Y-82534691D01*
X149488525Y-82519103D01*
X149462132Y-82505367D01*
X149435345Y-82493625D01*
X149408184Y-82484020D01*
X149380672Y-82476695D01*
X149352830Y-82471793D01*
X149324678Y-82469457D01*
X149296240Y-82469829D01*
X149258834Y-82474604D01*
X149222370Y-82484048D01*
X149186845Y-82497906D01*
X149152259Y-82515924D01*
X149118611Y-82537849D01*
X149085898Y-82563427D01*
X149054120Y-82592404D01*
X149023275Y-82624525D01*
X148993362Y-82659538D01*
X148964379Y-82697188D01*
X148909201Y-82779384D01*
X148857729Y-82869083D01*
X148809953Y-82964253D01*
X148765861Y-83062862D01*
X148725444Y-83162881D01*
X148688691Y-83262278D01*
X148655591Y-83359021D01*
X148600307Y-83536425D01*
X148559507Y-83678843D01*
X148525616Y-83806534D01*
X148496526Y-83930458D01*
X148471871Y-84050484D01*
X148451287Y-84166478D01*
X148434409Y-84278308D01*
X148420872Y-84385841D01*
X148410311Y-84488945D01*
X148402361Y-84587488D01*
X148392837Y-84770357D01*
X148389378Y-84933389D01*
X148388984Y-85195699D01*
X148390423Y-85215761D01*
X148391247Y-85235525D01*
X148391423Y-85254925D01*
X148390918Y-85273900D01*
X148390400Y-85283207D01*
X148389700Y-85292384D01*
X148388814Y-85301423D01*
X148387737Y-85310315D01*
X148386465Y-85319053D01*
X148384995Y-85327629D01*
X148383322Y-85336034D01*
X148381443Y-85344262D01*
X148379973Y-85354045D01*
X148378336Y-85363301D01*
X148376523Y-85372026D01*
X148374524Y-85380216D01*
X148373453Y-85384110D01*
X148372331Y-85387869D01*
X148371159Y-85391492D01*
X148369934Y-85394980D01*
X148368656Y-85398331D01*
X148367324Y-85401546D01*
X148365937Y-85404624D01*
X148364493Y-85407564D01*
X148362991Y-85410366D01*
X148361430Y-85413029D01*
X148359810Y-85415554D01*
X148358128Y-85417940D01*
X148356383Y-85420185D01*
X148354576Y-85422291D01*
X148352703Y-85424256D01*
X148350766Y-85426080D01*
X148348761Y-85427763D01*
X148346688Y-85429303D01*
X148344546Y-85430702D01*
X148342334Y-85431957D01*
X148340050Y-85433070D01*
X148337694Y-85434038D01*
X148335264Y-85434863D01*
X148332760Y-85435543D01*
X148308410Y-85456135D01*
X148281350Y-85474709D01*
X148251729Y-85491314D01*
X148219697Y-85505999D01*
X148185404Y-85518811D01*
X148148998Y-85529800D01*
X148070452Y-85546503D01*
X147985256Y-85556496D01*
X147894607Y-85560168D01*
X147799704Y-85557909D01*
X147701745Y-85550108D01*
X147601927Y-85537153D01*
X147501447Y-85519435D01*
X147401505Y-85497342D01*
X147303297Y-85471262D01*
X147208022Y-85441586D01*
X147116876Y-85408703D01*
X147031059Y-85373001D01*
X146951767Y-85334870D01*
X146921129Y-85509290D01*
X146904584Y-85603279D01*
X146887242Y-85695977D01*
X146869118Y-85783025D01*
X146859768Y-85823069D01*
X146850229Y-85860066D01*
X146840502Y-85893472D01*
X146830589Y-85922742D01*
X146820493Y-85947331D01*
X146810215Y-85966695D01*
X146844912Y-85980001D01*
X146879236Y-85993622D01*
X146913160Y-86007550D01*
X146946657Y-86021777D01*
X146979702Y-86036296D01*
X147012268Y-86051099D01*
X147044328Y-86066177D01*
X147075856Y-86081524D01*
X147139671Y-86114204D01*
X147206461Y-86150962D01*
X147276021Y-86192227D01*
X147348148Y-86238423D01*
X147422638Y-86289978D01*
X147499288Y-86347319D01*
X147577895Y-86410870D01*
X147658254Y-86481061D01*
X147740161Y-86558315D01*
X147823414Y-86643061D01*
X147907808Y-86735725D01*
X147993140Y-86836733D01*
X148079206Y-86946512D01*
X148165802Y-87065488D01*
X148252725Y-87194088D01*
X148339771Y-87332738D01*
X148430282Y-87488554D01*
X148511936Y-87641739D01*
X148650900Y-87941179D01*
X148761121Y-88232990D01*
X148847057Y-88519103D01*
X148913168Y-88801447D01*
X148963911Y-89081954D01*
X149003746Y-89362555D01*
X149037129Y-89645179D01*
X149102379Y-90224223D01*
X149143162Y-90524504D01*
X149195328Y-90834533D01*
X149263335Y-91156238D01*
X149351643Y-91491552D01*
X149464709Y-91842405D01*
X149606992Y-92210728D01*
X149801438Y-92238825D01*
X149927621Y-92254388D01*
X150073535Y-92268721D01*
X150239497Y-92280146D01*
X150425825Y-92286984D01*
X150632838Y-92287555D01*
X150860852Y-92280181D01*
X150957296Y-92274669D01*
X151050941Y-92268010D01*
X151229663Y-92251867D01*
X151396673Y-92232989D01*
X151551630Y-92212613D01*
X152044069Y-92140878D01*
X152086139Y-92007335D01*
X152124273Y-91881865D01*
X152188911Y-91663024D01*
X152215506Y-91573594D01*
X152238345Y-91500118D01*
X152257472Y-91444566D01*
X152265658Y-91424127D01*
X152272933Y-91408909D01*
X152376863Y-91212564D01*
X152470848Y-91024151D01*
X152555528Y-90843335D01*
X152631545Y-90669781D01*
X152699539Y-90503155D01*
X152760149Y-90343122D01*
X152814017Y-90189348D01*
X152861784Y-90041497D01*
X152941573Y-89762228D01*
X153004642Y-89502639D01*
X153101112Y-89031793D01*
X153144762Y-88815181D01*
X153192187Y-88607542D01*
X153248511Y-88406198D01*
X153281612Y-88307050D01*
X153318860Y-88208471D01*
X153360894Y-88110128D01*
X153394146Y-88041158D01*
X153786481Y-88041158D01*
X153789307Y-88083127D01*
X153797634Y-88123730D01*
X153811239Y-88162970D01*
X153829900Y-88200849D01*
X153853392Y-88237370D01*
X153881492Y-88272534D01*
X153913978Y-88306343D01*
X153950624Y-88338800D01*
X154035507Y-88399666D01*
X154134355Y-88455149D01*
X154245380Y-88505267D01*
X154366795Y-88550035D01*
X154496812Y-88589472D01*
X154633645Y-88623594D01*
X154775506Y-88652420D01*
X154920607Y-88675966D01*
X155067162Y-88694250D01*
X155213383Y-88707288D01*
X155357482Y-88715098D01*
X155497673Y-88717698D01*
X155497672Y-88717696D01*
X155566756Y-88714535D01*
X155636254Y-88705264D01*
X155705995Y-88690202D01*
X155775807Y-88669667D01*
X155845519Y-88643978D01*
X155914962Y-88613452D01*
X155983963Y-88578409D01*
X156052352Y-88539167D01*
X156119959Y-88496044D01*
X156186611Y-88449360D01*
X156316369Y-88346578D01*
X156440259Y-88233369D01*
X156556915Y-88112281D01*
X156664968Y-87985861D01*
X156763051Y-87856658D01*
X156849797Y-87727219D01*
X156923837Y-87600091D01*
X156983804Y-87477823D01*
X157028331Y-87362962D01*
X157044377Y-87309105D01*
X157056050Y-87258056D01*
X157063179Y-87210132D01*
X157065593Y-87165652D01*
X157063156Y-87124894D01*
X157055961Y-87087818D01*
X157044181Y-87054269D01*
X157027990Y-87024088D01*
X157007562Y-86997121D01*
X156983071Y-86973209D01*
X156954692Y-86952197D01*
X156922596Y-86933928D01*
X156886960Y-86918245D01*
X156847956Y-86904991D01*
X156760540Y-86885145D01*
X156661740Y-86873137D01*
X156552947Y-86867714D01*
X155489736Y-86910990D01*
X155503946Y-86912129D01*
X155517870Y-86915496D01*
X155531497Y-86921012D01*
X155544816Y-86928600D01*
X155557817Y-86938183D01*
X155570489Y-86949683D01*
X155594801Y-86978126D01*
X155617666Y-87013309D01*
X155638998Y-87054612D01*
X155658708Y-87101415D01*
X155676712Y-87153100D01*
X155692922Y-87209047D01*
X155707252Y-87268636D01*
X155719615Y-87331248D01*
X155729925Y-87396263D01*
X155738094Y-87463061D01*
X155744036Y-87531024D01*
X155747665Y-87599531D01*
X155748894Y-87667963D01*
X155748534Y-87701849D01*
X155747465Y-87735288D01*
X155745704Y-87768242D01*
X155743269Y-87800667D01*
X155740177Y-87832524D01*
X155736446Y-87863769D01*
X155732092Y-87894363D01*
X155727134Y-87924264D01*
X155721589Y-87953429D01*
X155715473Y-87981819D01*
X155708805Y-88009392D01*
X155701602Y-88036105D01*
X155693880Y-88061919D01*
X155685658Y-88086792D01*
X155676953Y-88110681D01*
X155667783Y-88133547D01*
X155658163Y-88155347D01*
X155648113Y-88176040D01*
X155637649Y-88195585D01*
X155626789Y-88213941D01*
X155615550Y-88231066D01*
X155603949Y-88246919D01*
X155592004Y-88261458D01*
X155579732Y-88274642D01*
X155567151Y-88286430D01*
X155554277Y-88296781D01*
X155541129Y-88305652D01*
X155527724Y-88313003D01*
X155514078Y-88318793D01*
X155500210Y-88322980D01*
X155486137Y-88325522D01*
X155471875Y-88326379D01*
X155457614Y-88325522D01*
X155443541Y-88322978D01*
X155429673Y-88318790D01*
X155416028Y-88312998D01*
X155402622Y-88305644D01*
X155389474Y-88296769D01*
X155364020Y-88274623D01*
X155339803Y-88246892D01*
X155316963Y-88213906D01*
X155295639Y-88175997D01*
X155275970Y-88133497D01*
X155258094Y-88086736D01*
X155242151Y-88036047D01*
X155228279Y-87981760D01*
X155216618Y-87924208D01*
X155207307Y-87863720D01*
X155200483Y-87800629D01*
X155196288Y-87735267D01*
X155194858Y-87667963D01*
X155195500Y-87600094D01*
X155197470Y-87533131D01*
X155200835Y-87467555D01*
X155205661Y-87403843D01*
X155212013Y-87342476D01*
X155219959Y-87283931D01*
X155229564Y-87228689D01*
X155240896Y-87177228D01*
X155247229Y-87153065D01*
X155254019Y-87130027D01*
X155261273Y-87108174D01*
X155269001Y-87087565D01*
X155277209Y-87068261D01*
X155285907Y-87050322D01*
X155295103Y-87033807D01*
X155304805Y-87018776D01*
X155315021Y-87005289D01*
X155325760Y-86993406D01*
X155337029Y-86983187D01*
X155348838Y-86974692D01*
X155361194Y-86967980D01*
X155374106Y-86963112D01*
X155387582Y-86960147D01*
X155401630Y-86959145D01*
X155332410Y-86960958D01*
X155262517Y-86966299D01*
X155192140Y-86975021D01*
X155121466Y-86986978D01*
X155050684Y-87002024D01*
X154979982Y-87020013D01*
X154909548Y-87040798D01*
X154839570Y-87064232D01*
X154770238Y-87090171D01*
X154701738Y-87118466D01*
X154634259Y-87148972D01*
X154567990Y-87181543D01*
X154503119Y-87216032D01*
X154439833Y-87252293D01*
X154378322Y-87290179D01*
X154318773Y-87329545D01*
X154261375Y-87370243D01*
X154206316Y-87412128D01*
X154153783Y-87455054D01*
X154103966Y-87498873D01*
X154057053Y-87543439D01*
X154013232Y-87588607D01*
X153972690Y-87634230D01*
X153935617Y-87680161D01*
X153902201Y-87726255D01*
X153872629Y-87772364D01*
X153847090Y-87818343D01*
X153825773Y-87864045D01*
X153808865Y-87909324D01*
X153796555Y-87954033D01*
X153789031Y-87998027D01*
X153786481Y-88041158D01*
X153394146Y-88041158D01*
X153408356Y-88011686D01*
X153461885Y-87912810D01*
X153522123Y-87813165D01*
X153589711Y-87712417D01*
X153665287Y-87610231D01*
X153749494Y-87506272D01*
X153842971Y-87400207D01*
X153936480Y-87305655D01*
X154036193Y-87218671D01*
X154141570Y-87139062D01*
X154252070Y-87066633D01*
X154367152Y-87001191D01*
X154486276Y-86942543D01*
X154608902Y-86890496D01*
X154734488Y-86844854D01*
X154862495Y-86805425D01*
X154992382Y-86772016D01*
X155123608Y-86744432D01*
X155255633Y-86722480D01*
X155387916Y-86705967D01*
X155519917Y-86694698D01*
X155780911Y-86687121D01*
X156034289Y-86698200D01*
X156275729Y-86726387D01*
X156500904Y-86770132D01*
X156705493Y-86827887D01*
X156798715Y-86861535D01*
X156885170Y-86898104D01*
X156964315Y-86937401D01*
X157035611Y-86979233D01*
X157098516Y-87023406D01*
X157152492Y-87069726D01*
X157196996Y-87118000D01*
X157231488Y-87168034D01*
X157231492Y-87168305D01*
X157251801Y-87209503D01*
X157266548Y-87252702D01*
X157275883Y-87297747D01*
X157279961Y-87344482D01*
X157278934Y-87392753D01*
X157272954Y-87442405D01*
X157262177Y-87493283D01*
X157246753Y-87545232D01*
X157226836Y-87598096D01*
X157202579Y-87651722D01*
X157174135Y-87705953D01*
X157141657Y-87760635D01*
X157065211Y-87870732D01*
X156974465Y-87980773D01*
X156870642Y-88089518D01*
X156754966Y-88195727D01*
X156628661Y-88298160D01*
X156492950Y-88395578D01*
X156349058Y-88486740D01*
X156198208Y-88570407D01*
X156041623Y-88645339D01*
X155880529Y-88710296D01*
X155806256Y-88735909D01*
X155733482Y-88758046D01*
X155662169Y-88776957D01*
X155592283Y-88792891D01*
X155523787Y-88806099D01*
X155456644Y-88816829D01*
X155326272Y-88831857D01*
X155200879Y-88839971D01*
X155080173Y-88843168D01*
X154851664Y-88842802D01*
X154743279Y-88843231D01*
X154638421Y-88846732D01*
X154536800Y-88855302D01*
X154487112Y-88862111D01*
X154438124Y-88870937D01*
X154389800Y-88882027D01*
X154342104Y-88895634D01*
X154294999Y-88912005D01*
X154248450Y-88931390D01*
X154202418Y-88954039D01*
X154156870Y-88980202D01*
X154111768Y-89010129D01*
X154067075Y-89044068D01*
X154033602Y-89073309D01*
X154003888Y-89103612D01*
X153977696Y-89134942D01*
X153954785Y-89167265D01*
X153934916Y-89200546D01*
X153917849Y-89234751D01*
X153903345Y-89269845D01*
X153891164Y-89305794D01*
X153881068Y-89342564D01*
X153872816Y-89380120D01*
X153860888Y-89457452D01*
X153853464Y-89537514D01*
X153848628Y-89620032D01*
X153839061Y-89791332D01*
X153830496Y-89879562D01*
X153816858Y-89969146D01*
X153796229Y-90059807D01*
X153782694Y-90105455D01*
X153766694Y-90151270D01*
X153747988Y-90197216D01*
X153726337Y-90243259D01*
X153701502Y-90289365D01*
X153673243Y-90335499D01*
X153453378Y-90684949D01*
X153239276Y-91045966D01*
X153030785Y-91413494D01*
X152827755Y-91782477D01*
X152437472Y-92504586D01*
X152067222Y-93171847D01*
X151889233Y-93472271D01*
X151715799Y-93743815D01*
X151546771Y-93981425D01*
X151463862Y-94085925D01*
X151381997Y-94180044D01*
X151301158Y-94263153D01*
X151221327Y-94334618D01*
X151142483Y-94393807D01*
X151064609Y-94440089D01*
X150987686Y-94472831D01*
X150911694Y-94491403D01*
X150836615Y-94495170D01*
X150762429Y-94483503D01*
X150726778Y-94471946D01*
X150695390Y-94457269D01*
X150666940Y-94438957D01*
X150640105Y-94416490D01*
X150613560Y-94389351D01*
X150585980Y-94357023D01*
X150522419Y-94274729D01*
X150438829Y-94165465D01*
X150386212Y-94099426D01*
X150324615Y-94025092D01*
X150252712Y-93941946D01*
X150169181Y-93849469D01*
X150072696Y-93747144D01*
X149961933Y-93634454D01*
X149873623Y-93547748D01*
X149793471Y-93471646D01*
X149720780Y-93405054D01*
X149654850Y-93346877D01*
X149594986Y-93296020D01*
X149540488Y-93251389D01*
X149490660Y-93211890D01*
X149444804Y-93176428D01*
X149362217Y-93113236D01*
X149324090Y-93083317D01*
X149287145Y-93053057D01*
X149250684Y-93021362D01*
X149214009Y-92987137D01*
X149176422Y-92949287D01*
X149137226Y-92906718D01*
X149055119Y-92806442D01*
X148986861Y-92706104D01*
X148930833Y-92604162D01*
X148885417Y-92499077D01*
X148856462Y-92411811D01*
X149694966Y-92411811D01*
X149718480Y-92462942D01*
X149742590Y-92514469D01*
X149792967Y-92618794D01*
X149842436Y-92717128D01*
X149890978Y-92809652D01*
X149938574Y-92896543D01*
X149985205Y-92977981D01*
X150030853Y-93054145D01*
X150075497Y-93125214D01*
X150119119Y-93191367D01*
X150161701Y-93252784D01*
X150203223Y-93309642D01*
X150243666Y-93362123D01*
X150283011Y-93410404D01*
X150321239Y-93454664D01*
X150358332Y-93495083D01*
X150394271Y-93531840D01*
X150429035Y-93565114D01*
X150462607Y-93595083D01*
X150494968Y-93621928D01*
X150526098Y-93645827D01*
X150555979Y-93666959D01*
X150584591Y-93685503D01*
X150611916Y-93701639D01*
X150637934Y-93715545D01*
X150662627Y-93727400D01*
X150685976Y-93737384D01*
X150707962Y-93745676D01*
X150747767Y-93757899D01*
X150781892Y-93765502D01*
X150810184Y-93769917D01*
X150810250Y-93769983D01*
X150810283Y-93770017D01*
X150810300Y-93770033D01*
X150810317Y-93770049D01*
X150855831Y-93773967D01*
X150900571Y-93773875D01*
X150944542Y-93769906D01*
X150987747Y-93762191D01*
X151030187Y-93750860D01*
X151071867Y-93736046D01*
X151112790Y-93717878D01*
X151152958Y-93696489D01*
X151192375Y-93672010D01*
X151231044Y-93644572D01*
X151306149Y-93581343D01*
X151378298Y-93507852D01*
X151447516Y-93425149D01*
X151513827Y-93334283D01*
X151577256Y-93236305D01*
X151637827Y-93132265D01*
X151695565Y-93023211D01*
X151750495Y-92910194D01*
X151802641Y-92794263D01*
X151852028Y-92676469D01*
X151898681Y-92557861D01*
X151804272Y-92570185D01*
X151698643Y-92579784D01*
X151581188Y-92586376D01*
X151451303Y-92589678D01*
X151308383Y-92589407D01*
X151151824Y-92585283D01*
X150981020Y-92577023D01*
X150795368Y-92564344D01*
X150598679Y-92547947D01*
X150420373Y-92530725D01*
X150259705Y-92512710D01*
X150115934Y-92493931D01*
X149988318Y-92474421D01*
X149876112Y-92454210D01*
X149778576Y-92433330D01*
X149694966Y-92411811D01*
X148856462Y-92411811D01*
X148848996Y-92389311D01*
X148819953Y-92273324D01*
X148796668Y-92149576D01*
X148777525Y-92016527D01*
X148710015Y-91360542D01*
X148659049Y-90936723D01*
X148623601Y-90695468D01*
X148579352Y-90432598D01*
X148505151Y-90023027D01*
X148470202Y-89837710D01*
X148435878Y-89664849D01*
X148401570Y-89504052D01*
X148366672Y-89354926D01*
X148330576Y-89217079D01*
X148292676Y-89090118D01*
X148252363Y-88973652D01*
X148231113Y-88919231D01*
X148209031Y-88867286D01*
X148186043Y-88817769D01*
X148162072Y-88770630D01*
X148137042Y-88725820D01*
X148110878Y-88683291D01*
X148083504Y-88642992D01*
X148054843Y-88604875D01*
X148024821Y-88568892D01*
X147993360Y-88534992D01*
X147960384Y-88503127D01*
X147925819Y-88473248D01*
X147889588Y-88445306D01*
X147851616Y-88419251D01*
X147795623Y-88385728D01*
X147739973Y-88357554D01*
X147684612Y-88334381D01*
X147629485Y-88315861D01*
X147574537Y-88301647D01*
X147519715Y-88291391D01*
X147464963Y-88284743D01*
X147410226Y-88281357D01*
X147300584Y-88282978D01*
X147190351Y-88293468D01*
X147079092Y-88310043D01*
X146966369Y-88329921D01*
X146851748Y-88350316D01*
X146734791Y-88368445D01*
X146615063Y-88381524D01*
X146492126Y-88386769D01*
X146429319Y-88385583D01*
X146365546Y-88381396D01*
X146300753Y-88373857D01*
X146234886Y-88362621D01*
X146167889Y-88347338D01*
X146099709Y-88327660D01*
X146030291Y-88303240D01*
X145959580Y-88273730D01*
X145880535Y-88235119D01*
X145803370Y-88191545D01*
X145728200Y-88143309D01*
X145655142Y-88090712D01*
X145584313Y-88034054D01*
X145515829Y-87973638D01*
X145449806Y-87909762D01*
X145386362Y-87842729D01*
X145325612Y-87772840D01*
X145267674Y-87700395D01*
X145160696Y-87549041D01*
X145066361Y-87391076D01*
X144985599Y-87228906D01*
X144919344Y-87064940D01*
X144891947Y-86983036D01*
X144868526Y-86901585D01*
X144849198Y-86820888D01*
X144834079Y-86741247D01*
X144823285Y-86662962D01*
X144816934Y-86586335D01*
X144815140Y-86511666D01*
X144818022Y-86439256D01*
X144820654Y-86415293D01*
X145146646Y-86415293D01*
X145151500Y-86521602D01*
X145166254Y-86641037D01*
X145191195Y-86770828D01*
X145226612Y-86908206D01*
X145272793Y-87050400D01*
X145330026Y-87194639D01*
X145398598Y-87338154D01*
X145437226Y-87408774D01*
X145478797Y-87478174D01*
X145523348Y-87546008D01*
X145570913Y-87611930D01*
X145621528Y-87675593D01*
X145675231Y-87736651D01*
X145732057Y-87794758D01*
X145792041Y-87849567D01*
X145855221Y-87900732D01*
X145921631Y-87947907D01*
X145991308Y-87990746D01*
X146064288Y-88028902D01*
X146140607Y-88062029D01*
X146220301Y-88089782D01*
X146303405Y-88111812D01*
X146389956Y-88127775D01*
X146479991Y-88137324D01*
X146573544Y-88140113D01*
X146699889Y-88137933D01*
X146825304Y-88132962D01*
X146948791Y-88124724D01*
X147069354Y-88112745D01*
X147185998Y-88096549D01*
X147242538Y-88086721D01*
X147297725Y-88075661D01*
X147351434Y-88063309D01*
X147403540Y-88049606D01*
X147453919Y-88034492D01*
X147502446Y-88017908D01*
X147548997Y-87999795D01*
X147593447Y-87980094D01*
X147635672Y-87958744D01*
X147675547Y-87935686D01*
X147712948Y-87910862D01*
X147747750Y-87884211D01*
X147779828Y-87855675D01*
X147809059Y-87825193D01*
X147835317Y-87792707D01*
X147858478Y-87758157D01*
X147878417Y-87721483D01*
X147895011Y-87682627D01*
X147908133Y-87641529D01*
X147917661Y-87598129D01*
X147923469Y-87552369D01*
X147925432Y-87504188D01*
X147924020Y-87463728D01*
X147919837Y-87422193D01*
X147912961Y-87379694D01*
X147903472Y-87336342D01*
X147891447Y-87292247D01*
X147876967Y-87247519D01*
X147840954Y-87156609D01*
X147796063Y-87064495D01*
X147742925Y-86972063D01*
X147682171Y-86880196D01*
X147614431Y-86789780D01*
X147540337Y-86701699D01*
X147460519Y-86616837D01*
X147375608Y-86536078D01*
X147286234Y-86460307D01*
X147193029Y-86390409D01*
X147096623Y-86327268D01*
X146997647Y-86271769D01*
X146947393Y-86247161D01*
X146896732Y-86224795D01*
X146910141Y-86238264D01*
X146922776Y-86253891D01*
X146934623Y-86271564D01*
X146945668Y-86291171D01*
X146965300Y-86335734D01*
X146981562Y-86386683D01*
X146994344Y-86443118D01*
X147003537Y-86504141D01*
X147009032Y-86568852D01*
X147010718Y-86636354D01*
X147008487Y-86705748D01*
X147002228Y-86776133D01*
X146991833Y-86846613D01*
X146977192Y-86916288D01*
X146958196Y-86984259D01*
X146934734Y-87049627D01*
X146906698Y-87111494D01*
X146890930Y-87140834D01*
X146873978Y-87168961D01*
X146859898Y-87190245D01*
X146843721Y-87213152D01*
X146825621Y-87237210D01*
X146805775Y-87261945D01*
X146784358Y-87286884D01*
X146761545Y-87311556D01*
X146737512Y-87335486D01*
X146712433Y-87358203D01*
X146686485Y-87379233D01*
X146659842Y-87398103D01*
X146646316Y-87406581D01*
X146632681Y-87414341D01*
X146618960Y-87421325D01*
X146605176Y-87427474D01*
X146591349Y-87432728D01*
X146577502Y-87437029D01*
X146563657Y-87440317D01*
X146549836Y-87442533D01*
X146536061Y-87443618D01*
X146522352Y-87443513D01*
X146508734Y-87442159D01*
X146495227Y-87439497D01*
X146479377Y-87434583D01*
X146464012Y-87427856D01*
X146449150Y-87419389D01*
X146434809Y-87409259D01*
X146421010Y-87397539D01*
X146407769Y-87384305D01*
X146395106Y-87369631D01*
X146383039Y-87353593D01*
X146360770Y-87317724D01*
X146341111Y-87277296D01*
X146324210Y-87232910D01*
X146310217Y-87185165D01*
X146299281Y-87134660D01*
X146291552Y-87081995D01*
X146287178Y-87027770D01*
X146286309Y-86972584D01*
X146289095Y-86917037D01*
X146295683Y-86861728D01*
X146306224Y-86807258D01*
X146320866Y-86754224D01*
X146338355Y-86705203D01*
X146359323Y-86655792D01*
X146383406Y-86606475D01*
X146410238Y-86557735D01*
X146439454Y-86510053D01*
X146470690Y-86463912D01*
X146503580Y-86419796D01*
X146537759Y-86378186D01*
X146572862Y-86339565D01*
X146608524Y-86304415D01*
X146644379Y-86273220D01*
X146662265Y-86259255D01*
X146680063Y-86246461D01*
X146697727Y-86234896D01*
X146715211Y-86224621D01*
X146732470Y-86215696D01*
X146749457Y-86208182D01*
X146766128Y-86202140D01*
X146782437Y-86197628D01*
X146798338Y-86194709D01*
X146813785Y-86193441D01*
X146775139Y-86181170D01*
X146736413Y-86170385D01*
X146697641Y-86161131D01*
X146658855Y-86153456D01*
X146620088Y-86147405D01*
X146600722Y-86145004D01*
X146581372Y-86143026D01*
X146562043Y-86141477D01*
X146542739Y-86140364D01*
X146523465Y-86139691D01*
X146504223Y-86139466D01*
X146377813Y-86136773D01*
X146252219Y-86129701D01*
X146128451Y-86119756D01*
X146007524Y-86108448D01*
X145778242Y-86087771D01*
X145671913Y-86081420D01*
X145572477Y-86079736D01*
X145525659Y-86081116D01*
X145480945Y-86084229D01*
X145438460Y-86089263D01*
X145398331Y-86096406D01*
X145360685Y-86105848D01*
X145325648Y-86117776D01*
X145293347Y-86132379D01*
X145263908Y-86149846D01*
X145237459Y-86170365D01*
X145214125Y-86194125D01*
X145194034Y-86221314D01*
X145177312Y-86252120D01*
X145164086Y-86286733D01*
X145154482Y-86325340D01*
X145148626Y-86368131D01*
X145146646Y-86415293D01*
X144820654Y-86415293D01*
X144825695Y-86369406D01*
X144838276Y-86302417D01*
X144855881Y-86238590D01*
X144878627Y-86178226D01*
X144906631Y-86121625D01*
X144940008Y-86069089D01*
X144967956Y-86033279D01*
X144998666Y-85999909D01*
X145032026Y-85968936D01*
X145067925Y-85940313D01*
X145106249Y-85913995D01*
X145146888Y-85889939D01*
X145189727Y-85868098D01*
X145234655Y-85848428D01*
X145330329Y-85815420D01*
X145433011Y-85790554D01*
X145541803Y-85773471D01*
X145655806Y-85763809D01*
X145774121Y-85761209D01*
X145895852Y-85765310D01*
X146020098Y-85775752D01*
X146145963Y-85792175D01*
X146272546Y-85814219D01*
X146398951Y-85841523D01*
X146524278Y-85873727D01*
X146647629Y-85910471D01*
X146641989Y-85878608D01*
X146640728Y-85841375D01*
X146643518Y-85750584D01*
X146643653Y-85696920D01*
X146640339Y-85637673D01*
X146631618Y-85572791D01*
X146615532Y-85502219D01*
X146590124Y-85425904D01*
X146573313Y-85385577D01*
X146553437Y-85343795D01*
X146530252Y-85300550D01*
X146503513Y-85255837D01*
X146472976Y-85209648D01*
X146438395Y-85161977D01*
X146399527Y-85112817D01*
X146356126Y-85062163D01*
X146307947Y-85010006D01*
X146254747Y-84956340D01*
X146196280Y-84901160D01*
X146132301Y-84844457D01*
X146062567Y-84786226D01*
X145986832Y-84726460D01*
X145944120Y-84684144D01*
X145912121Y-84631836D01*
X145890235Y-84570287D01*
X145877860Y-84500246D01*
X145874394Y-84422464D01*
X145879236Y-84337689D01*
X145891784Y-84246672D01*
X145911436Y-84150162D01*
X145937591Y-84048911D01*
X145969648Y-83943666D01*
X146049058Y-83724198D01*
X146144855Y-83497757D01*
X146252226Y-83270342D01*
X146366357Y-83047952D01*
X146482436Y-82836585D01*
X146595651Y-82642239D01*
X146701188Y-82470914D01*
X146794236Y-82328608D01*
X146869981Y-82221320D01*
X146923611Y-82155049D01*
X146940628Y-82139169D01*
X146950312Y-82135793D01*
X146956310Y-82149174D01*
X146958515Y-82180465D01*
X146950600Y-82293966D01*
X146924660Y-82470672D01*
X146878792Y-82704961D01*
X146811089Y-82991209D01*
X146719647Y-83323795D01*
X146602560Y-83697094D01*
X146533804Y-83897253D01*
X146457922Y-84105483D01*
X146443986Y-84146391D01*
X146433119Y-84186373D01*
X146425189Y-84225437D01*
X146420066Y-84263594D01*
X146417617Y-84300852D01*
X146417709Y-84337222D01*
X146420213Y-84372711D01*
X146424994Y-84407329D01*
X146431923Y-84441086D01*
X146440866Y-84473991D01*
X146451693Y-84506054D01*
X146464271Y-84537282D01*
X146478468Y-84567687D01*
X146494153Y-84597276D01*
X146511194Y-84626060D01*
X146529459Y-84654047D01*
X146548816Y-84681247D01*
X146569134Y-84707670D01*
X146612122Y-84758217D01*
X146657370Y-84805765D01*
X146703824Y-84850387D01*
X146750427Y-84892157D01*
X146796127Y-84931149D01*
X146880594Y-85001098D01*
X146943799Y-85023171D01*
X147012924Y-85050224D01*
X147165127Y-85114063D01*
X147329592Y-85182199D01*
X147414046Y-85214624D01*
X147498711Y-85244218D01*
X147582636Y-85269678D01*
X147664871Y-85289704D01*
X147744463Y-85302992D01*
X147782971Y-85306704D01*
X147820462Y-85308243D01*
X147856817Y-85307446D01*
X147891917Y-85304152D01*
X147925643Y-85298197D01*
X147957876Y-85289419D01*
X147988497Y-85277655D01*
X148017387Y-85262742D01*
X148044428Y-85244518D01*
X148069500Y-85222819D01*
X148025998Y-85161984D01*
X147982527Y-85094988D01*
X147939715Y-85022300D01*
X147898188Y-84944390D01*
X147858574Y-84861729D01*
X147821499Y-84774786D01*
X147787590Y-84684031D01*
X147757474Y-84589935D01*
X147731777Y-84492969D01*
X147711128Y-84393601D01*
X147696152Y-84292302D01*
X147687477Y-84189542D01*
X147685729Y-84085792D01*
X147691536Y-83981522D01*
X147705524Y-83877201D01*
X147728320Y-83773299D01*
X147754123Y-83688552D01*
X147785051Y-83608727D01*
X147820737Y-83533514D01*
X147860816Y-83462601D01*
X147904919Y-83395677D01*
X147952681Y-83332432D01*
X148003735Y-83272554D01*
X148057714Y-83215731D01*
X148114251Y-83161653D01*
X148172980Y-83110009D01*
X148295546Y-83012778D01*
X148422478Y-82921548D01*
X148550843Y-82833830D01*
X148677708Y-82747135D01*
X148800138Y-82658974D01*
X148915201Y-82566859D01*
X148969052Y-82518540D01*
X149019962Y-82468300D01*
X149067563Y-82415826D01*
X149111488Y-82360808D01*
X149151372Y-82302934D01*
X149186846Y-82241894D01*
X149217545Y-82177376D01*
X149243102Y-82109069D01*
X149263150Y-82036663D01*
X149277323Y-81959845D01*
X149283498Y-81903072D01*
X149285951Y-81848283D01*
X149284942Y-81795347D01*
X149280729Y-81744137D01*
X149273575Y-81694522D01*
X149263738Y-81646374D01*
X149251478Y-81599564D01*
X149237056Y-81553962D01*
X149220733Y-81509439D01*
X149202767Y-81465867D01*
X149162948Y-81381057D01*
X149119682Y-81298499D01*
X149075049Y-81217159D01*
X149031128Y-81136006D01*
X148990002Y-81054006D01*
X148953749Y-80970126D01*
X148938101Y-80927159D01*
X148924451Y-80883334D01*
X148913060Y-80838523D01*
X148904188Y-80792596D01*
X148898095Y-80745425D01*
X148895041Y-80696880D01*
X148895286Y-80646832D01*
X148899090Y-80595152D01*
X148906713Y-80541712D01*
X148918416Y-80486381D01*
X148934153Y-80430072D01*
X148953401Y-80374618D01*
X148975964Y-80320113D01*
X149001643Y-80266652D01*
X149030241Y-80214330D01*
X149061561Y-80163242D01*
X149095405Y-80113484D01*
X149131575Y-80065150D01*
X149169874Y-80018335D01*
X149210104Y-79973135D01*
X149252069Y-79929645D01*
X149295569Y-79887959D01*
X149340409Y-79848173D01*
X149386390Y-79810382D01*
X149480986Y-79741165D01*
X149577777Y-79681069D01*
X149626502Y-79654678D01*
X149675183Y-79630853D01*
X149723623Y-79609688D01*
X149771624Y-79591279D01*
X149818989Y-79575720D01*
X149865520Y-79563107D01*
X149911020Y-79553535D01*
X149955291Y-79547098D01*
X149998136Y-79543892D01*
X150039356Y-79544012D01*
G36*
X150039356Y-79544012D02*
G01*
X150078756Y-79547554D01*
X150116136Y-79554611D01*
X150151300Y-79565279D01*
X150184050Y-79579654D01*
X150221478Y-79602801D01*
X150256541Y-79632156D01*
X150289197Y-79667384D01*
X150319402Y-79708148D01*
X150347113Y-79754113D01*
X150372287Y-79804942D01*
X150394881Y-79860300D01*
X150414851Y-79919850D01*
X150446750Y-80050183D01*
X150467639Y-80193253D01*
X150477174Y-80346372D01*
X150475009Y-80506852D01*
X150460799Y-80672005D01*
X150434201Y-80839142D01*
X150394869Y-81005575D01*
X150342458Y-81168616D01*
X150276625Y-81325577D01*
X150238566Y-81400938D01*
X150197023Y-81473770D01*
X150151951Y-81543738D01*
X150103309Y-81610506D01*
X150051051Y-81673738D01*
X149995137Y-81733097D01*
X149974864Y-81752742D01*
X149954488Y-81771623D01*
X149913620Y-81807271D01*
X149872933Y-81840400D01*
X149832825Y-81871371D01*
X149755940Y-81928271D01*
X149719960Y-81954920D01*
X149686153Y-81980846D01*
X149654918Y-82006410D01*
X149640390Y-82019168D01*
X149626654Y-82031970D01*
X149613760Y-82044861D01*
X149601759Y-82057886D01*
X149590700Y-82071090D01*
X149580632Y-82084517D01*
X149571606Y-82098213D01*
X149563671Y-82112223D01*
X149556877Y-82126591D01*
X149551275Y-82141362D01*
X149546914Y-82156581D01*
X149543843Y-82172294D01*
X149542113Y-82188544D01*
X149541773Y-82205378D01*
X149544108Y-82231708D01*
X149549813Y-82256559D01*
X149558721Y-82280058D01*
X149570668Y-82302331D01*
X149585488Y-82323505D01*
X149603016Y-82343707D01*
X149623086Y-82363062D01*
X149645533Y-82381698D01*
X149696898Y-82417317D01*
X149755786Y-82451577D01*
X149890842Y-82520067D01*
X150040117Y-82595267D01*
X150116779Y-82637913D01*
X150193027Y-82685275D01*
X150267538Y-82738363D01*
X150303729Y-82767370D01*
X150338989Y-82798190D01*
X150373153Y-82830947D01*
X150406057Y-82865768D01*
X150437533Y-82902781D01*
X150467418Y-82942110D01*
X150508664Y-83005264D01*
X150544200Y-83071112D01*
X150574294Y-83139345D01*
X150599211Y-83209650D01*
X150619219Y-83281717D01*
X150634584Y-83355234D01*
X150645574Y-83429889D01*
X150652455Y-83505371D01*
X150655493Y-83581370D01*
X150654957Y-83657572D01*
X150651111Y-83733668D01*
X150644224Y-83809346D01*
X150634561Y-83884294D01*
X150622390Y-83958201D01*
X150591590Y-84101647D01*
X150553958Y-84237193D01*
X150511629Y-84362347D01*
X150466735Y-84474619D01*
X150421412Y-84571518D01*
X150377793Y-84650553D01*
X150338013Y-84709233D01*
X150320229Y-84730162D01*
X150304206Y-84745068D01*
X150290209Y-84753639D01*
X150278505Y-84755565D01*
X150270793Y-84751993D01*
X150264797Y-84743854D01*
X150257205Y-84714455D01*
X150254237Y-84668524D01*
X150254401Y-84607216D01*
X150258155Y-84443100D01*
X150256528Y-84231359D01*
X150249966Y-84110520D01*
X150237582Y-83981245D01*
X150217882Y-83844689D01*
X150189376Y-83702010D01*
X150150570Y-83554364D01*
X150099973Y-83402907D01*
X150036092Y-83248796D01*
X149998703Y-83171107D01*
X149957434Y-83093188D01*
X149913684Y-83015490D01*
X149856076Y-82919458D01*
X149822504Y-82867420D01*
X149785981Y-82814225D01*
X149746681Y-82761015D01*
X149704773Y-82708930D01*
X149660430Y-82659113D01*
X149613823Y-82612706D01*
X149589724Y-82591139D01*
X149565123Y-82570852D01*
X149540042Y-82551988D01*
X149514502Y-82534691D01*
X149488525Y-82519103D01*
X149462132Y-82505367D01*
X149435345Y-82493625D01*
X149408184Y-82484020D01*
X149380672Y-82476695D01*
X149352830Y-82471793D01*
X149324678Y-82469457D01*
X149296240Y-82469829D01*
X149258834Y-82474604D01*
X149222370Y-82484048D01*
X149186845Y-82497906D01*
X149152259Y-82515924D01*
X149118611Y-82537849D01*
X149085898Y-82563427D01*
X149054120Y-82592404D01*
X149023275Y-82624525D01*
X148993362Y-82659538D01*
X148964379Y-82697188D01*
X148909201Y-82779384D01*
X148857729Y-82869083D01*
X148809953Y-82964253D01*
X148765861Y-83062862D01*
X148725444Y-83162881D01*
X148688691Y-83262278D01*
X148655591Y-83359021D01*
X148600307Y-83536425D01*
X148559507Y-83678843D01*
X148525616Y-83806534D01*
X148496526Y-83930458D01*
X148471871Y-84050484D01*
X148451287Y-84166478D01*
X148434409Y-84278308D01*
X148420872Y-84385841D01*
X148410311Y-84488945D01*
X148402361Y-84587488D01*
X148392837Y-84770357D01*
X148389378Y-84933389D01*
X148388984Y-85195699D01*
X148390423Y-85215761D01*
X148391247Y-85235525D01*
X148391423Y-85254925D01*
X148390918Y-85273900D01*
X148390400Y-85283207D01*
X148389700Y-85292384D01*
X148388814Y-85301423D01*
X148387737Y-85310315D01*
X148386465Y-85319053D01*
X148384995Y-85327629D01*
X148383322Y-85336034D01*
X148381443Y-85344262D01*
X148379973Y-85354045D01*
X148378336Y-85363301D01*
X148376523Y-85372026D01*
X148374524Y-85380216D01*
X148373453Y-85384110D01*
X148372331Y-85387869D01*
X148371159Y-85391492D01*
X148369934Y-85394980D01*
X148368656Y-85398331D01*
X148367324Y-85401546D01*
X148365937Y-85404624D01*
X148364493Y-85407564D01*
X148362991Y-85410366D01*
X148361430Y-85413029D01*
X148359810Y-85415554D01*
X148358128Y-85417940D01*
X148356383Y-85420185D01*
X148354576Y-85422291D01*
X148352703Y-85424256D01*
X148350766Y-85426080D01*
X148348761Y-85427763D01*
X148346688Y-85429303D01*
X148344546Y-85430702D01*
X148342334Y-85431957D01*
X148340050Y-85433070D01*
X148337694Y-85434038D01*
X148335264Y-85434863D01*
X148332760Y-85435543D01*
X148308410Y-85456135D01*
X148281350Y-85474709D01*
X148251729Y-85491314D01*
X148219697Y-85505999D01*
X148185404Y-85518811D01*
X148148998Y-85529800D01*
X148070452Y-85546503D01*
X147985256Y-85556496D01*
X147894607Y-85560168D01*
X147799704Y-85557909D01*
X147701745Y-85550108D01*
X147601927Y-85537153D01*
X147501447Y-85519435D01*
X147401505Y-85497342D01*
X147303297Y-85471262D01*
X147208022Y-85441586D01*
X147116876Y-85408703D01*
X147031059Y-85373001D01*
X146951767Y-85334870D01*
X146921129Y-85509290D01*
X146904584Y-85603279D01*
X146887242Y-85695977D01*
X146869118Y-85783025D01*
X146859768Y-85823069D01*
X146850229Y-85860066D01*
X146840502Y-85893472D01*
X146830589Y-85922742D01*
X146820493Y-85947331D01*
X146810215Y-85966695D01*
X146844912Y-85980001D01*
X146879236Y-85993622D01*
X146913160Y-86007550D01*
X146946657Y-86021777D01*
X146979702Y-86036296D01*
X147012268Y-86051099D01*
X147044328Y-86066177D01*
X147075856Y-86081524D01*
X147139671Y-86114204D01*
X147206461Y-86150962D01*
X147276021Y-86192227D01*
X147348148Y-86238423D01*
X147422638Y-86289978D01*
X147499288Y-86347319D01*
X147577895Y-86410870D01*
X147658254Y-86481061D01*
X147740161Y-86558315D01*
X147823414Y-86643061D01*
X147907808Y-86735725D01*
X147993140Y-86836733D01*
X148079206Y-86946512D01*
X148165802Y-87065488D01*
X148252725Y-87194088D01*
X148339771Y-87332738D01*
X148430282Y-87488554D01*
X148511936Y-87641739D01*
X148650900Y-87941179D01*
X148761121Y-88232990D01*
X148847057Y-88519103D01*
X148913168Y-88801447D01*
X148963911Y-89081954D01*
X149003746Y-89362555D01*
X149037129Y-89645179D01*
X149102379Y-90224223D01*
X149143162Y-90524504D01*
X149195328Y-90834533D01*
X149263335Y-91156238D01*
X149351643Y-91491552D01*
X149464709Y-91842405D01*
X149606992Y-92210728D01*
X149801438Y-92238825D01*
X149927621Y-92254388D01*
X150073535Y-92268721D01*
X150239497Y-92280146D01*
X150425825Y-92286984D01*
X150632838Y-92287555D01*
X150860852Y-92280181D01*
X150957296Y-92274669D01*
X151050941Y-92268010D01*
X151229663Y-92251867D01*
X151396673Y-92232989D01*
X151551630Y-92212613D01*
X152044069Y-92140878D01*
X152086139Y-92007335D01*
X152124273Y-91881865D01*
X152188911Y-91663024D01*
X152215506Y-91573594D01*
X152238345Y-91500118D01*
X152257472Y-91444566D01*
X152265658Y-91424127D01*
X152272933Y-91408909D01*
X152376863Y-91212564D01*
X152470848Y-91024151D01*
X152555528Y-90843335D01*
X152631545Y-90669781D01*
X152699539Y-90503155D01*
X152760149Y-90343122D01*
X152814017Y-90189348D01*
X152861784Y-90041497D01*
X152941573Y-89762228D01*
X153004642Y-89502639D01*
X153101112Y-89031793D01*
X153144762Y-88815181D01*
X153192187Y-88607542D01*
X153248511Y-88406198D01*
X153281612Y-88307050D01*
X153318860Y-88208471D01*
X153360894Y-88110128D01*
X153394146Y-88041158D01*
X153786481Y-88041158D01*
X153789307Y-88083127D01*
X153797634Y-88123730D01*
X153811239Y-88162970D01*
X153829900Y-88200849D01*
X153853392Y-88237370D01*
X153881492Y-88272534D01*
X153913978Y-88306343D01*
X153950624Y-88338800D01*
X154035507Y-88399666D01*
X154134355Y-88455149D01*
X154245380Y-88505267D01*
X154366795Y-88550035D01*
X154496812Y-88589472D01*
X154633645Y-88623594D01*
X154775506Y-88652420D01*
X154920607Y-88675966D01*
X155067162Y-88694250D01*
X155213383Y-88707288D01*
X155357482Y-88715098D01*
X155497673Y-88717698D01*
X155497672Y-88717696D01*
X155566756Y-88714535D01*
X155636254Y-88705264D01*
X155705995Y-88690202D01*
X155775807Y-88669667D01*
X155845519Y-88643978D01*
X155914962Y-88613452D01*
X155983963Y-88578409D01*
X156052352Y-88539167D01*
X156119959Y-88496044D01*
X156186611Y-88449360D01*
X156316369Y-88346578D01*
X156440259Y-88233369D01*
X156556915Y-88112281D01*
X156664968Y-87985861D01*
X156763051Y-87856658D01*
X156849797Y-87727219D01*
X156923837Y-87600091D01*
X156983804Y-87477823D01*
X157028331Y-87362962D01*
X157044377Y-87309105D01*
X157056050Y-87258056D01*
X157063179Y-87210132D01*
X157065593Y-87165652D01*
X157063156Y-87124894D01*
X157055961Y-87087818D01*
X157044181Y-87054269D01*
X157027990Y-87024088D01*
X157007562Y-86997121D01*
X156983071Y-86973209D01*
X156954692Y-86952197D01*
X156922596Y-86933928D01*
X156886960Y-86918245D01*
X156847956Y-86904991D01*
X156760540Y-86885145D01*
X156661740Y-86873137D01*
X156552947Y-86867714D01*
X155489736Y-86910990D01*
X155503946Y-86912129D01*
X155517870Y-86915496D01*
X155531497Y-86921012D01*
X155544816Y-86928600D01*
X155557817Y-86938183D01*
X155570489Y-86949683D01*
X155594801Y-86978126D01*
X155617666Y-87013309D01*
X155638998Y-87054612D01*
X155658708Y-87101415D01*
X155676712Y-87153100D01*
X155692922Y-87209047D01*
X155707252Y-87268636D01*
X155719615Y-87331248D01*
X155729925Y-87396263D01*
X155738094Y-87463061D01*
X155744036Y-87531024D01*
X155747665Y-87599531D01*
X155748894Y-87667963D01*
X155748534Y-87701849D01*
X155747465Y-87735288D01*
X155745704Y-87768242D01*
X155743269Y-87800667D01*
X155740177Y-87832524D01*
X155736446Y-87863769D01*
X155732092Y-87894363D01*
X155727134Y-87924264D01*
X155721589Y-87953429D01*
X155715473Y-87981819D01*
X155708805Y-88009392D01*
X155701602Y-88036105D01*
X155693880Y-88061919D01*
X155685658Y-88086792D01*
X155676953Y-88110681D01*
X155667783Y-88133547D01*
X155658163Y-88155347D01*
X155648113Y-88176040D01*
X155637649Y-88195585D01*
X155626789Y-88213941D01*
X155615550Y-88231066D01*
X155603949Y-88246919D01*
X155592004Y-88261458D01*
X155579732Y-88274642D01*
X155567151Y-88286430D01*
X155554277Y-88296781D01*
X155541129Y-88305652D01*
X155527724Y-88313003D01*
X155514078Y-88318793D01*
X155500210Y-88322980D01*
X155486137Y-88325522D01*
X155471875Y-88326379D01*
X155457614Y-88325522D01*
X155443541Y-88322978D01*
X155429673Y-88318790D01*
X155416028Y-88312998D01*
X155402622Y-88305644D01*
X155389474Y-88296769D01*
X155364020Y-88274623D01*
X155339803Y-88246892D01*
X155316963Y-88213906D01*
X155295639Y-88175997D01*
X155275970Y-88133497D01*
X155258094Y-88086736D01*
X155242151Y-88036047D01*
X155228279Y-87981760D01*
X155216618Y-87924208D01*
X155207307Y-87863720D01*
X155200483Y-87800629D01*
X155196288Y-87735267D01*
X155194858Y-87667963D01*
X155195500Y-87600094D01*
X155197470Y-87533131D01*
X155200835Y-87467555D01*
X155205661Y-87403843D01*
X155212013Y-87342476D01*
X155219959Y-87283931D01*
X155229564Y-87228689D01*
X155240896Y-87177228D01*
X155247229Y-87153065D01*
X155254019Y-87130027D01*
X155261273Y-87108174D01*
X155269001Y-87087565D01*
X155277209Y-87068261D01*
X155285907Y-87050322D01*
X155295103Y-87033807D01*
X155304805Y-87018776D01*
X155315021Y-87005289D01*
X155325760Y-86993406D01*
X155337029Y-86983187D01*
X155348838Y-86974692D01*
X155361194Y-86967980D01*
X155374106Y-86963112D01*
X155387582Y-86960147D01*
X155401630Y-86959145D01*
X155332410Y-86960958D01*
X155262517Y-86966299D01*
X155192140Y-86975021D01*
X155121466Y-86986978D01*
X155050684Y-87002024D01*
X154979982Y-87020013D01*
X154909548Y-87040798D01*
X154839570Y-87064232D01*
X154770238Y-87090171D01*
X154701738Y-87118466D01*
X154634259Y-87148972D01*
X154567990Y-87181543D01*
X154503119Y-87216032D01*
X154439833Y-87252293D01*
X154378322Y-87290179D01*
X154318773Y-87329545D01*
X154261375Y-87370243D01*
X154206316Y-87412128D01*
X154153783Y-87455054D01*
X154103966Y-87498873D01*
X154057053Y-87543439D01*
X154013232Y-87588607D01*
X153972690Y-87634230D01*
X153935617Y-87680161D01*
X153902201Y-87726255D01*
X153872629Y-87772364D01*
X153847090Y-87818343D01*
X153825773Y-87864045D01*
X153808865Y-87909324D01*
X153796555Y-87954033D01*
X153789031Y-87998027D01*
X153786481Y-88041158D01*
X153394146Y-88041158D01*
X153408356Y-88011686D01*
X153461885Y-87912810D01*
X153522123Y-87813165D01*
X153589711Y-87712417D01*
X153665287Y-87610231D01*
X153749494Y-87506272D01*
X153842971Y-87400207D01*
X153936480Y-87305655D01*
X154036193Y-87218671D01*
X154141570Y-87139062D01*
X154252070Y-87066633D01*
X154367152Y-87001191D01*
X154486276Y-86942543D01*
X154608902Y-86890496D01*
X154734488Y-86844854D01*
X154862495Y-86805425D01*
X154992382Y-86772016D01*
X155123608Y-86744432D01*
X155255633Y-86722480D01*
X155387916Y-86705967D01*
X155519917Y-86694698D01*
X155780911Y-86687121D01*
X156034289Y-86698200D01*
X156275729Y-86726387D01*
X156500904Y-86770132D01*
X156705493Y-86827887D01*
X156798715Y-86861535D01*
X156885170Y-86898104D01*
X156964315Y-86937401D01*
X157035611Y-86979233D01*
X157098516Y-87023406D01*
X157152492Y-87069726D01*
X157196996Y-87118000D01*
X157231488Y-87168034D01*
X157231492Y-87168305D01*
X157251801Y-87209503D01*
X157266548Y-87252702D01*
X157275883Y-87297747D01*
X157279961Y-87344482D01*
X157278934Y-87392753D01*
X157272954Y-87442405D01*
X157262177Y-87493283D01*
X157246753Y-87545232D01*
X157226836Y-87598096D01*
X157202579Y-87651722D01*
X157174135Y-87705953D01*
X157141657Y-87760635D01*
X157065211Y-87870732D01*
X156974465Y-87980773D01*
X156870642Y-88089518D01*
X156754966Y-88195727D01*
X156628661Y-88298160D01*
X156492950Y-88395578D01*
X156349058Y-88486740D01*
X156198208Y-88570407D01*
X156041623Y-88645339D01*
X155880529Y-88710296D01*
X155806256Y-88735909D01*
X155733482Y-88758046D01*
X155662169Y-88776957D01*
X155592283Y-88792891D01*
X155523787Y-88806099D01*
X155456644Y-88816829D01*
X155326272Y-88831857D01*
X155200879Y-88839971D01*
X155080173Y-88843168D01*
X154851664Y-88842802D01*
X154743279Y-88843231D01*
X154638421Y-88846732D01*
X154536800Y-88855302D01*
X154487112Y-88862111D01*
X154438124Y-88870937D01*
X154389800Y-88882027D01*
X154342104Y-88895634D01*
X154294999Y-88912005D01*
X154248450Y-88931390D01*
X154202418Y-88954039D01*
X154156870Y-88980202D01*
X154111768Y-89010129D01*
X154067075Y-89044068D01*
X154033602Y-89073309D01*
X154003888Y-89103612D01*
X153977696Y-89134942D01*
X153954785Y-89167265D01*
X153934916Y-89200546D01*
X153917849Y-89234751D01*
X153903345Y-89269845D01*
X153891164Y-89305794D01*
X153881068Y-89342564D01*
X153872816Y-89380120D01*
X153860888Y-89457452D01*
X153853464Y-89537514D01*
X153848628Y-89620032D01*
X153839061Y-89791332D01*
X153830496Y-89879562D01*
X153816858Y-89969146D01*
X153796229Y-90059807D01*
X153782694Y-90105455D01*
X153766694Y-90151270D01*
X153747988Y-90197216D01*
X153726337Y-90243259D01*
X153701502Y-90289365D01*
X153673243Y-90335499D01*
X153453378Y-90684949D01*
X153239276Y-91045966D01*
X153030785Y-91413494D01*
X152827755Y-91782477D01*
X152437472Y-92504586D01*
X152067222Y-93171847D01*
X151889233Y-93472271D01*
X151715799Y-93743815D01*
X151546771Y-93981425D01*
X151463862Y-94085925D01*
X151381997Y-94180044D01*
X151301158Y-94263153D01*
X151221327Y-94334618D01*
X151142483Y-94393807D01*
X151064609Y-94440089D01*
X150987686Y-94472831D01*
X150911694Y-94491403D01*
X150836615Y-94495170D01*
X150762429Y-94483503D01*
X150726778Y-94471946D01*
X150695390Y-94457269D01*
X150666940Y-94438957D01*
X150640105Y-94416490D01*
X150613560Y-94389351D01*
X150585980Y-94357023D01*
X150522419Y-94274729D01*
X150438829Y-94165465D01*
X150386212Y-94099426D01*
X150324615Y-94025092D01*
X150252712Y-93941946D01*
X150169181Y-93849469D01*
X150072696Y-93747144D01*
X149961933Y-93634454D01*
X149873623Y-93547748D01*
X149793471Y-93471646D01*
X149720780Y-93405054D01*
X149654850Y-93346877D01*
X149594986Y-93296020D01*
X149540488Y-93251389D01*
X149490660Y-93211890D01*
X149444804Y-93176428D01*
X149362217Y-93113236D01*
X149324090Y-93083317D01*
X149287145Y-93053057D01*
X149250684Y-93021362D01*
X149214009Y-92987137D01*
X149176422Y-92949287D01*
X149137226Y-92906718D01*
X149055119Y-92806442D01*
X148986861Y-92706104D01*
X148930833Y-92604162D01*
X148885417Y-92499077D01*
X148856462Y-92411811D01*
X149694966Y-92411811D01*
X149718480Y-92462942D01*
X149742590Y-92514469D01*
X149792967Y-92618794D01*
X149842436Y-92717128D01*
X149890978Y-92809652D01*
X149938574Y-92896543D01*
X149985205Y-92977981D01*
X150030853Y-93054145D01*
X150075497Y-93125214D01*
X150119119Y-93191367D01*
X150161701Y-93252784D01*
X150203223Y-93309642D01*
X150243666Y-93362123D01*
X150283011Y-93410404D01*
X150321239Y-93454664D01*
X150358332Y-93495083D01*
X150394271Y-93531840D01*
X150429035Y-93565114D01*
X150462607Y-93595083D01*
X150494968Y-93621928D01*
X150526098Y-93645827D01*
X150555979Y-93666959D01*
X150584591Y-93685503D01*
X150611916Y-93701639D01*
X150637934Y-93715545D01*
X150662627Y-93727400D01*
X150685976Y-93737384D01*
X150707962Y-93745676D01*
X150747767Y-93757899D01*
X150781892Y-93765502D01*
X150810184Y-93769917D01*
X150810250Y-93769983D01*
X150810283Y-93770017D01*
X150810300Y-93770033D01*
X150810317Y-93770049D01*
X150855831Y-93773967D01*
X150900571Y-93773875D01*
X150944542Y-93769906D01*
X150987747Y-93762191D01*
X151030187Y-93750860D01*
X151071867Y-93736046D01*
X151112790Y-93717878D01*
X151152958Y-93696489D01*
X151192375Y-93672010D01*
X151231044Y-93644572D01*
X151306149Y-93581343D01*
X151378298Y-93507852D01*
X151447516Y-93425149D01*
X151513827Y-93334283D01*
X151577256Y-93236305D01*
X151637827Y-93132265D01*
X151695565Y-93023211D01*
X151750495Y-92910194D01*
X151802641Y-92794263D01*
X151852028Y-92676469D01*
X151898681Y-92557861D01*
X151804272Y-92570185D01*
X151698643Y-92579784D01*
X151581188Y-92586376D01*
X151451303Y-92589678D01*
X151308383Y-92589407D01*
X151151824Y-92585283D01*
X150981020Y-92577023D01*
X150795368Y-92564344D01*
X150598679Y-92547947D01*
X150420373Y-92530725D01*
X150259705Y-92512710D01*
X150115934Y-92493931D01*
X149988318Y-92474421D01*
X149876112Y-92454210D01*
X149778576Y-92433330D01*
X149694966Y-92411811D01*
X148856462Y-92411811D01*
X148848996Y-92389311D01*
X148819953Y-92273324D01*
X148796668Y-92149576D01*
X148777525Y-92016527D01*
X148710015Y-91360542D01*
X148659049Y-90936723D01*
X148623601Y-90695468D01*
X148579352Y-90432598D01*
X148505151Y-90023027D01*
X148470202Y-89837710D01*
X148435878Y-89664849D01*
X148401570Y-89504052D01*
X148366672Y-89354926D01*
X148330576Y-89217079D01*
X148292676Y-89090118D01*
X148252363Y-88973652D01*
X148231113Y-88919231D01*
X148209031Y-88867286D01*
X148186043Y-88817769D01*
X148162072Y-88770630D01*
X148137042Y-88725820D01*
X148110878Y-88683291D01*
X148083504Y-88642992D01*
X148054843Y-88604875D01*
X148024821Y-88568892D01*
X147993360Y-88534992D01*
X147960384Y-88503127D01*
X147925819Y-88473248D01*
X147889588Y-88445306D01*
X147851616Y-88419251D01*
X147795623Y-88385728D01*
X147739973Y-88357554D01*
X147684612Y-88334381D01*
X147629485Y-88315861D01*
X147574537Y-88301647D01*
X147519715Y-88291391D01*
X147464963Y-88284743D01*
X147410226Y-88281357D01*
X147300584Y-88282978D01*
X147190351Y-88293468D01*
X147079092Y-88310043D01*
X146966369Y-88329921D01*
X146851748Y-88350316D01*
X146734791Y-88368445D01*
X146615063Y-88381524D01*
X146492126Y-88386769D01*
X146429319Y-88385583D01*
X146365546Y-88381396D01*
X146300753Y-88373857D01*
X146234886Y-88362621D01*
X146167889Y-88347338D01*
X146099709Y-88327660D01*
X146030291Y-88303240D01*
X145959580Y-88273730D01*
X145880535Y-88235119D01*
X145803370Y-88191545D01*
X145728200Y-88143309D01*
X145655142Y-88090712D01*
X145584313Y-88034054D01*
X145515829Y-87973638D01*
X145449806Y-87909762D01*
X145386362Y-87842729D01*
X145325612Y-87772840D01*
X145267674Y-87700395D01*
X145160696Y-87549041D01*
X145066361Y-87391076D01*
X144985599Y-87228906D01*
X144919344Y-87064940D01*
X144891947Y-86983036D01*
X144868526Y-86901585D01*
X144849198Y-86820888D01*
X144834079Y-86741247D01*
X144823285Y-86662962D01*
X144816934Y-86586335D01*
X144815140Y-86511666D01*
X144818022Y-86439256D01*
X144820654Y-86415293D01*
X145146646Y-86415293D01*
X145151500Y-86521602D01*
X145166254Y-86641037D01*
X145191195Y-86770828D01*
X145226612Y-86908206D01*
X145272793Y-87050400D01*
X145330026Y-87194639D01*
X145398598Y-87338154D01*
X145437226Y-87408774D01*
X145478797Y-87478174D01*
X145523348Y-87546008D01*
X145570913Y-87611930D01*
X145621528Y-87675593D01*
X145675231Y-87736651D01*
X145732057Y-87794758D01*
X145792041Y-87849567D01*
X145855221Y-87900732D01*
X145921631Y-87947907D01*
X145991308Y-87990746D01*
X146064288Y-88028902D01*
X146140607Y-88062029D01*
X146220301Y-88089782D01*
X146303405Y-88111812D01*
X146389956Y-88127775D01*
X146479991Y-88137324D01*
X146573544Y-88140113D01*
X146699889Y-88137933D01*
X146825304Y-88132962D01*
X146948791Y-88124724D01*
X147069354Y-88112745D01*
X147185998Y-88096549D01*
X147242538Y-88086721D01*
X147297725Y-88075661D01*
X147351434Y-88063309D01*
X147403540Y-88049606D01*
X147453919Y-88034492D01*
X147502446Y-88017908D01*
X147548997Y-87999795D01*
X147593447Y-87980094D01*
X147635672Y-87958744D01*
X147675547Y-87935686D01*
X147712948Y-87910862D01*
X147747750Y-87884211D01*
X147779828Y-87855675D01*
X147809059Y-87825193D01*
X147835317Y-87792707D01*
X147858478Y-87758157D01*
X147878417Y-87721483D01*
X147895011Y-87682627D01*
X147908133Y-87641529D01*
X147917661Y-87598129D01*
X147923469Y-87552369D01*
X147925432Y-87504188D01*
X147924020Y-87463728D01*
X147919837Y-87422193D01*
X147912961Y-87379694D01*
X147903472Y-87336342D01*
X147891447Y-87292247D01*
X147876967Y-87247519D01*
X147840954Y-87156609D01*
X147796063Y-87064495D01*
X147742925Y-86972063D01*
X147682171Y-86880196D01*
X147614431Y-86789780D01*
X147540337Y-86701699D01*
X147460519Y-86616837D01*
X147375608Y-86536078D01*
X147286234Y-86460307D01*
X147193029Y-86390409D01*
X147096623Y-86327268D01*
X146997647Y-86271769D01*
X146947393Y-86247161D01*
X146896732Y-86224795D01*
X146910141Y-86238264D01*
X146922776Y-86253891D01*
X146934623Y-86271564D01*
X146945668Y-86291171D01*
X146965300Y-86335734D01*
X146981562Y-86386683D01*
X146994344Y-86443118D01*
X147003537Y-86504141D01*
X147009032Y-86568852D01*
X147010718Y-86636354D01*
X147008487Y-86705748D01*
X147002228Y-86776133D01*
X146991833Y-86846613D01*
X146977192Y-86916288D01*
X146958196Y-86984259D01*
X146934734Y-87049627D01*
X146906698Y-87111494D01*
X146890930Y-87140834D01*
X146873978Y-87168961D01*
X146859898Y-87190245D01*
X146843721Y-87213152D01*
X146825621Y-87237210D01*
X146805775Y-87261945D01*
X146784358Y-87286884D01*
X146761545Y-87311556D01*
X146737512Y-87335486D01*
X146712433Y-87358203D01*
X146686485Y-87379233D01*
X146659842Y-87398103D01*
X146646316Y-87406581D01*
X146632681Y-87414341D01*
X146618960Y-87421325D01*
X146605176Y-87427474D01*
X146591349Y-87432728D01*
X146577502Y-87437029D01*
X146563657Y-87440317D01*
X146549836Y-87442533D01*
X146536061Y-87443618D01*
X146522352Y-87443513D01*
X146508734Y-87442159D01*
X146495227Y-87439497D01*
X146479377Y-87434583D01*
X146464012Y-87427856D01*
X146449150Y-87419389D01*
X146434809Y-87409259D01*
X146421010Y-87397539D01*
X146407769Y-87384305D01*
X146395106Y-87369631D01*
X146383039Y-87353593D01*
X146360770Y-87317724D01*
X146341111Y-87277296D01*
X146324210Y-87232910D01*
X146310217Y-87185165D01*
X146299281Y-87134660D01*
X146291552Y-87081995D01*
X146287178Y-87027770D01*
X146286309Y-86972584D01*
X146289095Y-86917037D01*
X146295683Y-86861728D01*
X146306224Y-86807258D01*
X146320866Y-86754224D01*
X146338355Y-86705203D01*
X146359323Y-86655792D01*
X146383406Y-86606475D01*
X146410238Y-86557735D01*
X146439454Y-86510053D01*
X146470690Y-86463912D01*
X146503580Y-86419796D01*
X146537759Y-86378186D01*
X146572862Y-86339565D01*
X146608524Y-86304415D01*
X146644379Y-86273220D01*
X146662265Y-86259255D01*
X146680063Y-86246461D01*
X146697727Y-86234896D01*
X146715211Y-86224621D01*
X146732470Y-86215696D01*
X146749457Y-86208182D01*
X146766128Y-86202140D01*
X146782437Y-86197628D01*
X146798338Y-86194709D01*
X146813785Y-86193441D01*
X146775139Y-86181170D01*
X146736413Y-86170385D01*
X146697641Y-86161131D01*
X146658855Y-86153456D01*
X146620088Y-86147405D01*
X146600722Y-86145004D01*
X146581372Y-86143026D01*
X146562043Y-86141477D01*
X146542739Y-86140364D01*
X146523465Y-86139691D01*
X146504223Y-86139466D01*
X146377813Y-86136773D01*
X146252219Y-86129701D01*
X146128451Y-86119756D01*
X146007524Y-86108448D01*
X145778242Y-86087771D01*
X145671913Y-86081420D01*
X145572477Y-86079736D01*
X145525659Y-86081116D01*
X145480945Y-86084229D01*
X145438460Y-86089263D01*
X145398331Y-86096406D01*
X145360685Y-86105848D01*
X145325648Y-86117776D01*
X145293347Y-86132379D01*
X145263908Y-86149846D01*
X145237459Y-86170365D01*
X145214125Y-86194125D01*
X145194034Y-86221314D01*
X145177312Y-86252120D01*
X145164086Y-86286733D01*
X145154482Y-86325340D01*
X145148626Y-86368131D01*
X145146646Y-86415293D01*
X144820654Y-86415293D01*
X144825695Y-86369406D01*
X144838276Y-86302417D01*
X144855881Y-86238590D01*
X144878627Y-86178226D01*
X144906631Y-86121625D01*
X144940008Y-86069089D01*
X144967956Y-86033279D01*
X144998666Y-85999909D01*
X145032026Y-85968936D01*
X145067925Y-85940313D01*
X145106249Y-85913995D01*
X145146888Y-85889939D01*
X145189727Y-85868098D01*
X145234655Y-85848428D01*
X145330329Y-85815420D01*
X145433011Y-85790554D01*
X145541803Y-85773471D01*
X145655806Y-85763809D01*
X145774121Y-85761209D01*
X145895852Y-85765310D01*
X146020098Y-85775752D01*
X146145963Y-85792175D01*
X146272546Y-85814219D01*
X146398951Y-85841523D01*
X146524278Y-85873727D01*
X146647629Y-85910471D01*
X146641989Y-85878608D01*
X146640728Y-85841375D01*
X146643518Y-85750584D01*
X146643653Y-85696920D01*
X146640339Y-85637673D01*
X146631618Y-85572791D01*
X146615532Y-85502219D01*
X146590124Y-85425904D01*
X146573313Y-85385577D01*
X146553437Y-85343795D01*
X146530252Y-85300550D01*
X146503513Y-85255837D01*
X146472976Y-85209648D01*
X146438395Y-85161977D01*
X146399527Y-85112817D01*
X146356126Y-85062163D01*
X146307947Y-85010006D01*
X146254747Y-84956340D01*
X146196280Y-84901160D01*
X146132301Y-84844457D01*
X146062567Y-84786226D01*
X145986832Y-84726460D01*
X145944120Y-84684144D01*
X145912121Y-84631836D01*
X145890235Y-84570287D01*
X145877860Y-84500246D01*
X145874394Y-84422464D01*
X145879236Y-84337689D01*
X145891784Y-84246672D01*
X145911436Y-84150162D01*
X145937591Y-84048911D01*
X145969648Y-83943666D01*
X146049058Y-83724198D01*
X146144855Y-83497757D01*
X146252226Y-83270342D01*
X146366357Y-83047952D01*
X146482436Y-82836585D01*
X146595651Y-82642239D01*
X146701188Y-82470914D01*
X146794236Y-82328608D01*
X146869981Y-82221320D01*
X146923611Y-82155049D01*
X146940628Y-82139169D01*
X146950312Y-82135793D01*
X146956310Y-82149174D01*
X146958515Y-82180465D01*
X146950600Y-82293966D01*
X146924660Y-82470672D01*
X146878792Y-82704961D01*
X146811089Y-82991209D01*
X146719647Y-83323795D01*
X146602560Y-83697094D01*
X146533804Y-83897253D01*
X146457922Y-84105483D01*
X146443986Y-84146391D01*
X146433119Y-84186373D01*
X146425189Y-84225437D01*
X146420066Y-84263594D01*
X146417617Y-84300852D01*
X146417709Y-84337222D01*
X146420213Y-84372711D01*
X146424994Y-84407329D01*
X146431923Y-84441086D01*
X146440866Y-84473991D01*
X146451693Y-84506054D01*
X146464271Y-84537282D01*
X146478468Y-84567687D01*
X146494153Y-84597276D01*
X146511194Y-84626060D01*
X146529459Y-84654047D01*
X146548816Y-84681247D01*
X146569134Y-84707670D01*
X146612122Y-84758217D01*
X146657370Y-84805765D01*
X146703824Y-84850387D01*
X146750427Y-84892157D01*
X146796127Y-84931149D01*
X146880594Y-85001098D01*
X146943799Y-85023171D01*
X147012924Y-85050224D01*
X147165127Y-85114063D01*
X147329592Y-85182199D01*
X147414046Y-85214624D01*
X147498711Y-85244218D01*
X147582636Y-85269678D01*
X147664871Y-85289704D01*
X147744463Y-85302992D01*
X147782971Y-85306704D01*
X147820462Y-85308243D01*
X147856817Y-85307446D01*
X147891917Y-85304152D01*
X147925643Y-85298197D01*
X147957876Y-85289419D01*
X147988497Y-85277655D01*
X148017387Y-85262742D01*
X148044428Y-85244518D01*
X148069500Y-85222819D01*
X148025998Y-85161984D01*
X147982527Y-85094988D01*
X147939715Y-85022300D01*
X147898188Y-84944390D01*
X147858574Y-84861729D01*
X147821499Y-84774786D01*
X147787590Y-84684031D01*
X147757474Y-84589935D01*
X147731777Y-84492969D01*
X147711128Y-84393601D01*
X147696152Y-84292302D01*
X147687477Y-84189542D01*
X147685729Y-84085792D01*
X147691536Y-83981522D01*
X147705524Y-83877201D01*
X147728320Y-83773299D01*
X147754123Y-83688552D01*
X147785051Y-83608727D01*
X147820737Y-83533514D01*
X147860816Y-83462601D01*
X147904919Y-83395677D01*
X147952681Y-83332432D01*
X148003735Y-83272554D01*
X148057714Y-83215731D01*
X148114251Y-83161653D01*
X148172980Y-83110009D01*
X148295546Y-83012778D01*
X148422478Y-82921548D01*
X148550843Y-82833830D01*
X148677708Y-82747135D01*
X148800138Y-82658974D01*
X148915201Y-82566859D01*
X148969052Y-82518540D01*
X149019962Y-82468300D01*
X149067563Y-82415826D01*
X149111488Y-82360808D01*
X149151372Y-82302934D01*
X149186846Y-82241894D01*
X149217545Y-82177376D01*
X149243102Y-82109069D01*
X149263150Y-82036663D01*
X149277323Y-81959845D01*
X149283498Y-81903072D01*
X149285951Y-81848283D01*
X149284942Y-81795347D01*
X149280729Y-81744137D01*
X149273575Y-81694522D01*
X149263738Y-81646374D01*
X149251478Y-81599564D01*
X149237056Y-81553962D01*
X149220733Y-81509439D01*
X149202767Y-81465867D01*
X149162948Y-81381057D01*
X149119682Y-81298499D01*
X149075049Y-81217159D01*
X149031128Y-81136006D01*
X148990002Y-81054006D01*
X148953749Y-80970126D01*
X148938101Y-80927159D01*
X148924451Y-80883334D01*
X148913060Y-80838523D01*
X148904188Y-80792596D01*
X148898095Y-80745425D01*
X148895041Y-80696880D01*
X148895286Y-80646832D01*
X148899090Y-80595152D01*
X148906713Y-80541712D01*
X148918416Y-80486381D01*
X148934153Y-80430072D01*
X148953401Y-80374618D01*
X148975964Y-80320113D01*
X149001643Y-80266652D01*
X149030241Y-80214330D01*
X149061561Y-80163242D01*
X149095405Y-80113484D01*
X149131575Y-80065150D01*
X149169874Y-80018335D01*
X149210104Y-79973135D01*
X149252069Y-79929645D01*
X149295569Y-79887959D01*
X149340409Y-79848173D01*
X149386390Y-79810382D01*
X149480986Y-79741165D01*
X149577777Y-79681069D01*
X149626502Y-79654678D01*
X149675183Y-79630853D01*
X149723623Y-79609688D01*
X149771624Y-79591279D01*
X149818989Y-79575720D01*
X149865520Y-79563107D01*
X149911020Y-79553535D01*
X149955291Y-79547098D01*
X149998136Y-79543892D01*
X150039356Y-79544012D01*
G37*
X153017051Y-79545733D02*
X153033549Y-79555255D01*
X153048487Y-79570348D01*
X153062304Y-79591105D01*
X153075441Y-79617620D01*
X153088337Y-79649986D01*
X153115167Y-79732649D01*
X153185294Y-79972320D01*
X153235629Y-80130829D01*
X153266155Y-80220080D01*
X153300838Y-80316121D01*
X153329533Y-80391765D01*
X153357709Y-80462898D01*
X153385347Y-80529736D01*
X153412430Y-80592499D01*
X153438937Y-80651404D01*
X153464850Y-80706671D01*
X153514816Y-80807161D01*
X153562176Y-80895716D01*
X153606778Y-80974083D01*
X153687097Y-81107242D01*
X153722510Y-81165527D01*
X153754555Y-81220612D01*
X153783081Y-81274244D01*
X153795976Y-81301062D01*
X153807934Y-81328171D01*
X153818936Y-81355790D01*
X153828962Y-81384138D01*
X153837995Y-81413433D01*
X153846014Y-81443893D01*
X153853001Y-81475737D01*
X153858936Y-81509183D01*
X153863801Y-81544450D01*
X153867577Y-81581755D01*
X153870077Y-81621949D01*
X153870201Y-81658594D01*
X153867602Y-81693326D01*
X153861930Y-81727782D01*
X153852839Y-81763600D01*
X153839979Y-81802418D01*
X153801564Y-81895600D01*
X153664204Y-82189997D01*
X153559690Y-82417408D01*
X153427575Y-82715759D01*
X153528694Y-82714037D01*
X153647258Y-82724402D01*
X153781109Y-82745816D01*
X153928088Y-82777241D01*
X154086039Y-82817639D01*
X154252804Y-82865973D01*
X154426224Y-82921203D01*
X154604144Y-82982293D01*
X154964848Y-83117899D01*
X155317655Y-83264488D01*
X155645303Y-83413755D01*
X155930533Y-83557398D01*
X156010979Y-83585241D01*
X156093096Y-83617598D01*
X156176175Y-83654511D01*
X156259508Y-83696021D01*
X156342387Y-83742169D01*
X156424106Y-83792996D01*
X156503955Y-83848541D01*
X156581226Y-83908848D01*
X156655213Y-83973955D01*
X156725207Y-84043905D01*
X156758485Y-84080708D01*
X156790500Y-84118738D01*
X156821162Y-84157998D01*
X156850384Y-84198494D01*
X156878077Y-84240232D01*
X156904152Y-84283216D01*
X156928521Y-84327451D01*
X156951095Y-84372943D01*
X156971786Y-84419696D01*
X156990505Y-84467716D01*
X157007165Y-84517008D01*
X157021676Y-84567577D01*
X157040858Y-84654326D01*
X157053864Y-84744077D01*
X157060632Y-84836099D01*
X157061099Y-84929666D01*
X157055204Y-85024046D01*
X157042884Y-85118513D01*
X157024078Y-85212337D01*
X156998723Y-85304789D01*
X156966758Y-85395140D01*
X156948277Y-85439300D01*
X156928121Y-85482662D01*
X156906281Y-85525134D01*
X156882749Y-85566626D01*
X156857518Y-85607045D01*
X156830580Y-85646302D01*
X156801928Y-85684305D01*
X156771553Y-85720963D01*
X156739449Y-85756184D01*
X156705606Y-85789878D01*
X156670018Y-85821954D01*
X156632676Y-85852320D01*
X156593573Y-85880886D01*
X156552701Y-85907560D01*
X156520939Y-85926260D01*
X156488254Y-85943859D01*
X156454747Y-85960351D01*
X156420519Y-85975727D01*
X156350308Y-86003104D01*
X156278431Y-86025935D01*
X156205700Y-86044162D01*
X156132927Y-86057726D01*
X156060921Y-86066572D01*
X155990494Y-86070641D01*
X155922459Y-86069877D01*
X155889591Y-86067664D01*
X155857625Y-86064221D01*
X155826662Y-86059541D01*
X155796803Y-86053617D01*
X155768151Y-86046441D01*
X155740806Y-86038007D01*
X155714870Y-86028306D01*
X155690444Y-86017333D01*
X155667630Y-86005080D01*
X155646529Y-85991539D01*
X155627242Y-85976704D01*
X155609871Y-85960567D01*
X155594518Y-85943122D01*
X155581282Y-85924360D01*
X155568929Y-85901289D01*
X155560298Y-85877739D01*
X155555171Y-85853672D01*
X155553331Y-85829046D01*
X155554558Y-85803824D01*
X155558635Y-85777963D01*
X155565342Y-85751426D01*
X155574463Y-85724172D01*
X155599070Y-85667356D01*
X155630710Y-85607196D01*
X155708100Y-85475578D01*
X155750359Y-85403483D01*
X155792666Y-85326776D01*
X155833274Y-85245137D01*
X155870437Y-85158249D01*
X155887181Y-85112738D01*
X155902409Y-85065795D01*
X155915902Y-85017382D01*
X155927443Y-84967457D01*
X155936813Y-84915983D01*
X155943794Y-84862918D01*
X155948167Y-84808223D01*
X155949715Y-84751859D01*
X155949183Y-84716942D01*
X155947539Y-84682561D01*
X155944826Y-84648714D01*
X155941083Y-84615397D01*
X155936353Y-84582610D01*
X155930677Y-84550350D01*
X155916651Y-84487400D01*
X155899335Y-84426531D01*
X155879059Y-84367725D01*
X155856154Y-84310963D01*
X155830951Y-84256229D01*
X155803778Y-84203503D01*
X155774967Y-84152769D01*
X155744847Y-84104009D01*
X155713749Y-84057204D01*
X155682002Y-84012337D01*
X155649938Y-83969390D01*
X155586178Y-83889185D01*
X155420309Y-83866132D01*
X155245957Y-83838898D01*
X155065205Y-83807869D01*
X154880138Y-83773430D01*
X154901372Y-83814004D01*
X154921765Y-83855851D01*
X154941240Y-83898886D01*
X154959721Y-83943028D01*
X154977134Y-83988192D01*
X154993403Y-84034298D01*
X155008450Y-84081260D01*
X155022202Y-84128997D01*
X155034582Y-84177425D01*
X155045513Y-84226462D01*
X155054922Y-84276024D01*
X155062730Y-84326029D01*
X155068864Y-84376393D01*
X155073247Y-84427034D01*
X155075804Y-84477870D01*
X155076458Y-84528815D01*
X155074001Y-84601424D01*
X155067688Y-84672911D01*
X155057725Y-84743179D01*
X155044321Y-84812132D01*
X155027681Y-84879671D01*
X155008014Y-84945700D01*
X154985526Y-85010121D01*
X154960426Y-85072836D01*
X154932919Y-85133749D01*
X154903215Y-85192762D01*
X154871519Y-85249777D01*
X154838040Y-85304698D01*
X154802984Y-85357427D01*
X154766559Y-85407867D01*
X154728972Y-85455920D01*
X154690431Y-85501490D01*
X154651143Y-85544478D01*
X154611314Y-85584787D01*
X154571153Y-85622321D01*
X154530866Y-85656982D01*
X154490662Y-85688671D01*
X154450747Y-85717293D01*
X154411328Y-85742750D01*
X154372613Y-85764945D01*
X154334810Y-85783779D01*
X154298124Y-85799156D01*
X154262765Y-85810979D01*
X154228939Y-85819149D01*
X154196853Y-85823571D01*
X154166715Y-85824146D01*
X154138732Y-85820777D01*
X154113111Y-85813367D01*
X154082483Y-85797149D01*
X154054322Y-85773518D01*
X154028586Y-85742877D01*
X154005234Y-85705627D01*
X153984226Y-85662170D01*
X153965522Y-85612910D01*
X153934858Y-85498585D01*
X153912917Y-85365870D01*
X153899372Y-85217982D01*
X153893898Y-85058139D01*
X153896168Y-84889558D01*
X153905857Y-84715456D01*
X153922637Y-84539051D01*
X153946183Y-84363560D01*
X153976169Y-84192201D01*
X154012269Y-84028191D01*
X154054156Y-83874748D01*
X154101504Y-83735088D01*
X154153988Y-83612431D01*
X154005378Y-83573677D01*
X153862200Y-83533957D01*
X153725691Y-83493480D01*
X153597090Y-83452457D01*
X153477635Y-83411099D01*
X153368566Y-83369617D01*
X153318313Y-83348896D01*
X153271121Y-83328222D01*
X153227145Y-83307623D01*
X153186539Y-83287125D01*
X153025819Y-83681117D01*
X152893959Y-84010678D01*
X152771936Y-84320985D01*
X152726185Y-84439508D01*
X152685897Y-84544809D01*
X152650669Y-84637652D01*
X152620097Y-84718798D01*
X152571310Y-84849050D01*
X152552288Y-84899680D01*
X152536309Y-84941664D01*
X152522971Y-84975763D01*
X152517165Y-84990093D01*
X152511869Y-85002739D01*
X152507031Y-85013794D01*
X152502601Y-85023355D01*
X152498529Y-85031516D01*
X152494763Y-85038373D01*
X152491255Y-85044022D01*
X152487953Y-85048556D01*
X152484807Y-85052073D01*
X152483276Y-85053479D01*
X152481766Y-85054667D01*
X152480269Y-85055647D01*
X152478780Y-85056432D01*
X152477293Y-85057035D01*
X152475800Y-85057466D01*
X152474295Y-85057738D01*
X152472773Y-85057862D01*
X152469651Y-85057717D01*
X152453552Y-85050311D01*
X152437799Y-85032435D01*
X152407929Y-84967809D01*
X152381234Y-84868911D01*
X152358908Y-84740811D01*
X152342146Y-84588581D01*
X152332140Y-84417294D01*
X152330086Y-84232020D01*
X152337177Y-84037831D01*
X152354607Y-83839800D01*
X152383569Y-83642996D01*
X152425259Y-83452493D01*
X152480869Y-83273361D01*
X152514267Y-83189644D01*
X152551593Y-83110673D01*
X152592996Y-83037079D01*
X152638626Y-82969499D01*
X152688631Y-82908565D01*
X152743161Y-82854911D01*
X152802365Y-82809172D01*
X152866393Y-82771982D01*
X152866393Y-82771851D01*
X152883073Y-82764008D01*
X152899529Y-82756955D01*
X152915764Y-82750630D01*
X152931779Y-82744970D01*
X152963161Y-82735395D01*
X152993695Y-82727728D01*
X153023400Y-82721467D01*
X153052294Y-82716111D01*
X153107727Y-82706103D01*
X153134303Y-82700447D01*
X153160146Y-82693688D01*
X153185272Y-82685324D01*
X153197574Y-82680383D01*
X153209703Y-82674853D01*
X153221663Y-82668670D01*
X153233456Y-82661772D01*
X153245084Y-82654097D01*
X153256550Y-82645581D01*
X153267856Y-82636162D01*
X153279005Y-82625776D01*
X153289999Y-82614362D01*
X153300840Y-82601857D01*
X153323914Y-82570316D01*
X153343300Y-82536471D01*
X153359180Y-82500516D01*
X153371736Y-82462645D01*
X153381150Y-82423051D01*
X153387603Y-82381928D01*
X153391278Y-82339472D01*
X153392356Y-82295874D01*
X153391020Y-82251331D01*
X153387449Y-82206035D01*
X153381828Y-82160180D01*
X153374337Y-82113961D01*
X153354474Y-82021205D01*
X153329315Y-81929319D01*
X153300314Y-81839854D01*
X153268926Y-81754363D01*
X153236606Y-81674397D01*
X153204808Y-81601508D01*
X153148596Y-81483169D01*
X153111927Y-81411761D01*
X153091026Y-81372795D01*
X153070590Y-81336250D01*
X153050616Y-81301990D01*
X153031099Y-81269879D01*
X153012039Y-81239783D01*
X152993430Y-81211565D01*
X152957558Y-81160225D01*
X152923460Y-81114776D01*
X152891112Y-81074135D01*
X152831567Y-81002947D01*
X152804323Y-80970233D01*
X152778732Y-80937996D01*
X152754770Y-80905154D01*
X152743393Y-80888166D01*
X152732414Y-80870622D01*
X152721831Y-80852384D01*
X152711640Y-80833318D01*
X152701838Y-80813288D01*
X152692422Y-80792159D01*
X152683390Y-80769796D01*
X152674738Y-80746063D01*
X152666463Y-80720825D01*
X152658563Y-80693946D01*
X152645848Y-80643153D01*
X152635758Y-80591992D01*
X152628180Y-80540595D01*
X152623003Y-80489093D01*
X152620115Y-80437620D01*
X152619403Y-80386307D01*
X152620757Y-80335287D01*
X152624064Y-80284692D01*
X152629212Y-80234654D01*
X152636090Y-80185305D01*
X152644585Y-80136778D01*
X152654587Y-80089204D01*
X152665982Y-80042717D01*
X152678659Y-79997448D01*
X152692506Y-79953530D01*
X152707412Y-79911094D01*
X152723264Y-79870273D01*
X152739950Y-79831200D01*
X152757360Y-79794006D01*
X152775380Y-79758824D01*
X152793899Y-79725786D01*
X152812806Y-79695024D01*
X152831987Y-79666670D01*
X152851332Y-79640857D01*
X152870729Y-79617717D01*
X152890065Y-79597382D01*
X152909230Y-79579985D01*
X152928110Y-79565657D01*
X152946594Y-79554531D01*
X152964570Y-79546739D01*
X152981927Y-79542413D01*
X152998552Y-79541686D01*
X153017051Y-79545733D01*
G36*
X153017051Y-79545733D02*
G01*
X153033549Y-79555255D01*
X153048487Y-79570348D01*
X153062304Y-79591105D01*
X153075441Y-79617620D01*
X153088337Y-79649986D01*
X153115167Y-79732649D01*
X153185294Y-79972320D01*
X153235629Y-80130829D01*
X153266155Y-80220080D01*
X153300838Y-80316121D01*
X153329533Y-80391765D01*
X153357709Y-80462898D01*
X153385347Y-80529736D01*
X153412430Y-80592499D01*
X153438937Y-80651404D01*
X153464850Y-80706671D01*
X153514816Y-80807161D01*
X153562176Y-80895716D01*
X153606778Y-80974083D01*
X153687097Y-81107242D01*
X153722510Y-81165527D01*
X153754555Y-81220612D01*
X153783081Y-81274244D01*
X153795976Y-81301062D01*
X153807934Y-81328171D01*
X153818936Y-81355790D01*
X153828962Y-81384138D01*
X153837995Y-81413433D01*
X153846014Y-81443893D01*
X153853001Y-81475737D01*
X153858936Y-81509183D01*
X153863801Y-81544450D01*
X153867577Y-81581755D01*
X153870077Y-81621949D01*
X153870201Y-81658594D01*
X153867602Y-81693326D01*
X153861930Y-81727782D01*
X153852839Y-81763600D01*
X153839979Y-81802418D01*
X153801564Y-81895600D01*
X153664204Y-82189997D01*
X153559690Y-82417408D01*
X153427575Y-82715759D01*
X153528694Y-82714037D01*
X153647258Y-82724402D01*
X153781109Y-82745816D01*
X153928088Y-82777241D01*
X154086039Y-82817639D01*
X154252804Y-82865973D01*
X154426224Y-82921203D01*
X154604144Y-82982293D01*
X154964848Y-83117899D01*
X155317655Y-83264488D01*
X155645303Y-83413755D01*
X155930533Y-83557398D01*
X156010979Y-83585241D01*
X156093096Y-83617598D01*
X156176175Y-83654511D01*
X156259508Y-83696021D01*
X156342387Y-83742169D01*
X156424106Y-83792996D01*
X156503955Y-83848541D01*
X156581226Y-83908848D01*
X156655213Y-83973955D01*
X156725207Y-84043905D01*
X156758485Y-84080708D01*
X156790500Y-84118738D01*
X156821162Y-84157998D01*
X156850384Y-84198494D01*
X156878077Y-84240232D01*
X156904152Y-84283216D01*
X156928521Y-84327451D01*
X156951095Y-84372943D01*
X156971786Y-84419696D01*
X156990505Y-84467716D01*
X157007165Y-84517008D01*
X157021676Y-84567577D01*
X157040858Y-84654326D01*
X157053864Y-84744077D01*
X157060632Y-84836099D01*
X157061099Y-84929666D01*
X157055204Y-85024046D01*
X157042884Y-85118513D01*
X157024078Y-85212337D01*
X156998723Y-85304789D01*
X156966758Y-85395140D01*
X156948277Y-85439300D01*
X156928121Y-85482662D01*
X156906281Y-85525134D01*
X156882749Y-85566626D01*
X156857518Y-85607045D01*
X156830580Y-85646302D01*
X156801928Y-85684305D01*
X156771553Y-85720963D01*
X156739449Y-85756184D01*
X156705606Y-85789878D01*
X156670018Y-85821954D01*
X156632676Y-85852320D01*
X156593573Y-85880886D01*
X156552701Y-85907560D01*
X156520939Y-85926260D01*
X156488254Y-85943859D01*
X156454747Y-85960351D01*
X156420519Y-85975727D01*
X156350308Y-86003104D01*
X156278431Y-86025935D01*
X156205700Y-86044162D01*
X156132927Y-86057726D01*
X156060921Y-86066572D01*
X155990494Y-86070641D01*
X155922459Y-86069877D01*
X155889591Y-86067664D01*
X155857625Y-86064221D01*
X155826662Y-86059541D01*
X155796803Y-86053617D01*
X155768151Y-86046441D01*
X155740806Y-86038007D01*
X155714870Y-86028306D01*
X155690444Y-86017333D01*
X155667630Y-86005080D01*
X155646529Y-85991539D01*
X155627242Y-85976704D01*
X155609871Y-85960567D01*
X155594518Y-85943122D01*
X155581282Y-85924360D01*
X155568929Y-85901289D01*
X155560298Y-85877739D01*
X155555171Y-85853672D01*
X155553331Y-85829046D01*
X155554558Y-85803824D01*
X155558635Y-85777963D01*
X155565342Y-85751426D01*
X155574463Y-85724172D01*
X155599070Y-85667356D01*
X155630710Y-85607196D01*
X155708100Y-85475578D01*
X155750359Y-85403483D01*
X155792666Y-85326776D01*
X155833274Y-85245137D01*
X155870437Y-85158249D01*
X155887181Y-85112738D01*
X155902409Y-85065795D01*
X155915902Y-85017382D01*
X155927443Y-84967457D01*
X155936813Y-84915983D01*
X155943794Y-84862918D01*
X155948167Y-84808223D01*
X155949715Y-84751859D01*
X155949183Y-84716942D01*
X155947539Y-84682561D01*
X155944826Y-84648714D01*
X155941083Y-84615397D01*
X155936353Y-84582610D01*
X155930677Y-84550350D01*
X155916651Y-84487400D01*
X155899335Y-84426531D01*
X155879059Y-84367725D01*
X155856154Y-84310963D01*
X155830951Y-84256229D01*
X155803778Y-84203503D01*
X155774967Y-84152769D01*
X155744847Y-84104009D01*
X155713749Y-84057204D01*
X155682002Y-84012337D01*
X155649938Y-83969390D01*
X155586178Y-83889185D01*
X155420309Y-83866132D01*
X155245957Y-83838898D01*
X155065205Y-83807869D01*
X154880138Y-83773430D01*
X154901372Y-83814004D01*
X154921765Y-83855851D01*
X154941240Y-83898886D01*
X154959721Y-83943028D01*
X154977134Y-83988192D01*
X154993403Y-84034298D01*
X155008450Y-84081260D01*
X155022202Y-84128997D01*
X155034582Y-84177425D01*
X155045513Y-84226462D01*
X155054922Y-84276024D01*
X155062730Y-84326029D01*
X155068864Y-84376393D01*
X155073247Y-84427034D01*
X155075804Y-84477870D01*
X155076458Y-84528815D01*
X155074001Y-84601424D01*
X155067688Y-84672911D01*
X155057725Y-84743179D01*
X155044321Y-84812132D01*
X155027681Y-84879671D01*
X155008014Y-84945700D01*
X154985526Y-85010121D01*
X154960426Y-85072836D01*
X154932919Y-85133749D01*
X154903215Y-85192762D01*
X154871519Y-85249777D01*
X154838040Y-85304698D01*
X154802984Y-85357427D01*
X154766559Y-85407867D01*
X154728972Y-85455920D01*
X154690431Y-85501490D01*
X154651143Y-85544478D01*
X154611314Y-85584787D01*
X154571153Y-85622321D01*
X154530866Y-85656982D01*
X154490662Y-85688671D01*
X154450747Y-85717293D01*
X154411328Y-85742750D01*
X154372613Y-85764945D01*
X154334810Y-85783779D01*
X154298124Y-85799156D01*
X154262765Y-85810979D01*
X154228939Y-85819149D01*
X154196853Y-85823571D01*
X154166715Y-85824146D01*
X154138732Y-85820777D01*
X154113111Y-85813367D01*
X154082483Y-85797149D01*
X154054322Y-85773518D01*
X154028586Y-85742877D01*
X154005234Y-85705627D01*
X153984226Y-85662170D01*
X153965522Y-85612910D01*
X153934858Y-85498585D01*
X153912917Y-85365870D01*
X153899372Y-85217982D01*
X153893898Y-85058139D01*
X153896168Y-84889558D01*
X153905857Y-84715456D01*
X153922637Y-84539051D01*
X153946183Y-84363560D01*
X153976169Y-84192201D01*
X154012269Y-84028191D01*
X154054156Y-83874748D01*
X154101504Y-83735088D01*
X154153988Y-83612431D01*
X154005378Y-83573677D01*
X153862200Y-83533957D01*
X153725691Y-83493480D01*
X153597090Y-83452457D01*
X153477635Y-83411099D01*
X153368566Y-83369617D01*
X153318313Y-83348896D01*
X153271121Y-83328222D01*
X153227145Y-83307623D01*
X153186539Y-83287125D01*
X153025819Y-83681117D01*
X152893959Y-84010678D01*
X152771936Y-84320985D01*
X152726185Y-84439508D01*
X152685897Y-84544809D01*
X152650669Y-84637652D01*
X152620097Y-84718798D01*
X152571310Y-84849050D01*
X152552288Y-84899680D01*
X152536309Y-84941664D01*
X152522971Y-84975763D01*
X152517165Y-84990093D01*
X152511869Y-85002739D01*
X152507031Y-85013794D01*
X152502601Y-85023355D01*
X152498529Y-85031516D01*
X152494763Y-85038373D01*
X152491255Y-85044022D01*
X152487953Y-85048556D01*
X152484807Y-85052073D01*
X152483276Y-85053479D01*
X152481766Y-85054667D01*
X152480269Y-85055647D01*
X152478780Y-85056432D01*
X152477293Y-85057035D01*
X152475800Y-85057466D01*
X152474295Y-85057738D01*
X152472773Y-85057862D01*
X152469651Y-85057717D01*
X152453552Y-85050311D01*
X152437799Y-85032435D01*
X152407929Y-84967809D01*
X152381234Y-84868911D01*
X152358908Y-84740811D01*
X152342146Y-84588581D01*
X152332140Y-84417294D01*
X152330086Y-84232020D01*
X152337177Y-84037831D01*
X152354607Y-83839800D01*
X152383569Y-83642996D01*
X152425259Y-83452493D01*
X152480869Y-83273361D01*
X152514267Y-83189644D01*
X152551593Y-83110673D01*
X152592996Y-83037079D01*
X152638626Y-82969499D01*
X152688631Y-82908565D01*
X152743161Y-82854911D01*
X152802365Y-82809172D01*
X152866393Y-82771982D01*
X152866393Y-82771851D01*
X152883073Y-82764008D01*
X152899529Y-82756955D01*
X152915764Y-82750630D01*
X152931779Y-82744970D01*
X152963161Y-82735395D01*
X152993695Y-82727728D01*
X153023400Y-82721467D01*
X153052294Y-82716111D01*
X153107727Y-82706103D01*
X153134303Y-82700447D01*
X153160146Y-82693688D01*
X153185272Y-82685324D01*
X153197574Y-82680383D01*
X153209703Y-82674853D01*
X153221663Y-82668670D01*
X153233456Y-82661772D01*
X153245084Y-82654097D01*
X153256550Y-82645581D01*
X153267856Y-82636162D01*
X153279005Y-82625776D01*
X153289999Y-82614362D01*
X153300840Y-82601857D01*
X153323914Y-82570316D01*
X153343300Y-82536471D01*
X153359180Y-82500516D01*
X153371736Y-82462645D01*
X153381150Y-82423051D01*
X153387603Y-82381928D01*
X153391278Y-82339472D01*
X153392356Y-82295874D01*
X153391020Y-82251331D01*
X153387449Y-82206035D01*
X153381828Y-82160180D01*
X153374337Y-82113961D01*
X153354474Y-82021205D01*
X153329315Y-81929319D01*
X153300314Y-81839854D01*
X153268926Y-81754363D01*
X153236606Y-81674397D01*
X153204808Y-81601508D01*
X153148596Y-81483169D01*
X153111927Y-81411761D01*
X153091026Y-81372795D01*
X153070590Y-81336250D01*
X153050616Y-81301990D01*
X153031099Y-81269879D01*
X153012039Y-81239783D01*
X152993430Y-81211565D01*
X152957558Y-81160225D01*
X152923460Y-81114776D01*
X152891112Y-81074135D01*
X152831567Y-81002947D01*
X152804323Y-80970233D01*
X152778732Y-80937996D01*
X152754770Y-80905154D01*
X152743393Y-80888166D01*
X152732414Y-80870622D01*
X152721831Y-80852384D01*
X152711640Y-80833318D01*
X152701838Y-80813288D01*
X152692422Y-80792159D01*
X152683390Y-80769796D01*
X152674738Y-80746063D01*
X152666463Y-80720825D01*
X152658563Y-80693946D01*
X152645848Y-80643153D01*
X152635758Y-80591992D01*
X152628180Y-80540595D01*
X152623003Y-80489093D01*
X152620115Y-80437620D01*
X152619403Y-80386307D01*
X152620757Y-80335287D01*
X152624064Y-80284692D01*
X152629212Y-80234654D01*
X152636090Y-80185305D01*
X152644585Y-80136778D01*
X152654587Y-80089204D01*
X152665982Y-80042717D01*
X152678659Y-79997448D01*
X152692506Y-79953530D01*
X152707412Y-79911094D01*
X152723264Y-79870273D01*
X152739950Y-79831200D01*
X152757360Y-79794006D01*
X152775380Y-79758824D01*
X152793899Y-79725786D01*
X152812806Y-79695024D01*
X152831987Y-79666670D01*
X152851332Y-79640857D01*
X152870729Y-79617717D01*
X152890065Y-79597382D01*
X152909230Y-79579985D01*
X152928110Y-79565657D01*
X152946594Y-79554531D01*
X152964570Y-79546739D01*
X152981927Y-79542413D01*
X152998552Y-79541686D01*
X153017051Y-79545733D01*
G37*
X142500000Y-90000000D02*
X142636678Y-90011572D01*
X142772508Y-90030669D01*
X142906154Y-90057549D01*
X142955426Y-90069692D01*
X143001790Y-90082375D01*
X143045435Y-90095553D01*
X143086547Y-90109178D01*
X143125313Y-90123205D01*
X143161921Y-90137585D01*
X143229411Y-90167221D01*
X143290515Y-90197714D01*
X143346730Y-90228690D01*
X143450485Y-90290598D01*
X143501021Y-90320783D01*
X143552659Y-90349957D01*
X143606897Y-90377747D01*
X143665234Y-90403780D01*
X143696407Y-90416020D01*
X143729166Y-90427681D01*
X143763698Y-90438716D01*
X143800192Y-90449079D01*
X143838833Y-90458721D01*
X143879809Y-90467598D01*
X143923307Y-90475662D01*
X143969515Y-90482867D01*
X144033670Y-90490792D01*
X144096697Y-90496298D01*
X144158549Y-90499548D01*
X144219180Y-90500707D01*
X144278541Y-90499940D01*
X144336585Y-90497411D01*
X144393266Y-90493284D01*
X144448537Y-90487724D01*
X144502349Y-90480896D01*
X144554657Y-90472964D01*
X144654568Y-90454445D01*
X144747894Y-90433484D01*
X144834256Y-90411396D01*
X144984581Y-90369104D01*
X145047789Y-90351531D01*
X145102525Y-90338094D01*
X145148410Y-90330110D01*
X145167917Y-90328574D01*
X145185069Y-90328894D01*
X145199820Y-90331235D01*
X145212123Y-90335762D01*
X145221931Y-90342639D01*
X145229196Y-90352030D01*
X145233107Y-90361472D01*
X145235027Y-90372150D01*
X145235009Y-90384007D01*
X145233103Y-90396988D01*
X145229363Y-90411038D01*
X145223838Y-90426099D01*
X145207647Y-90459035D01*
X145184943Y-90495351D01*
X145156142Y-90534598D01*
X145121658Y-90576331D01*
X145081906Y-90620102D01*
X145037299Y-90665466D01*
X144988253Y-90711976D01*
X144935182Y-90759184D01*
X144878501Y-90806644D01*
X144818624Y-90853909D01*
X144755965Y-90900534D01*
X144690940Y-90946070D01*
X144623962Y-90990072D01*
X144444552Y-91094486D01*
X144254889Y-91186729D01*
X144056776Y-91266366D01*
X143852013Y-91332964D01*
X143642403Y-91386090D01*
X143429748Y-91425311D01*
X143215851Y-91450193D01*
X143002512Y-91460303D01*
X142791535Y-91455208D01*
X142584720Y-91434474D01*
X142383871Y-91397669D01*
X142286247Y-91373104D01*
X142190789Y-91344358D01*
X142097724Y-91311378D01*
X142007276Y-91274109D01*
X141919671Y-91232497D01*
X141835135Y-91186488D01*
X141753891Y-91136027D01*
X141676166Y-91081061D01*
X141602185Y-91021536D01*
X141532173Y-90957397D01*
X141490658Y-90916276D01*
X141440708Y-90863757D01*
X141414189Y-90833826D01*
X141387505Y-90801771D01*
X141361304Y-90767832D01*
X141336233Y-90732252D01*
X141312940Y-90695272D01*
X141292073Y-90657134D01*
X141274280Y-90618079D01*
X141266738Y-90598283D01*
X141260208Y-90578349D01*
X141254771Y-90558307D01*
X141250506Y-90538186D01*
X141247497Y-90518018D01*
X141245822Y-90497831D01*
X141245564Y-90477658D01*
X141246803Y-90457526D01*
X141249620Y-90437468D01*
X141254096Y-90417513D01*
X141253831Y-90417382D01*
X141264754Y-90385446D01*
X141279973Y-90354523D01*
X141299321Y-90324646D01*
X141322632Y-90295847D01*
X141349738Y-90268158D01*
X141380473Y-90241611D01*
X141452159Y-90192071D01*
X141536356Y-90147485D01*
X141631727Y-90108110D01*
X141736937Y-90074204D01*
X141850649Y-90046023D01*
X141971528Y-90023825D01*
X142098239Y-90007866D01*
X142229445Y-89998404D01*
X142363810Y-89995697D01*
X142500000Y-90000000D01*
G36*
X142500000Y-90000000D02*
G01*
X142636678Y-90011572D01*
X142772508Y-90030669D01*
X142906154Y-90057549D01*
X142955426Y-90069692D01*
X143001790Y-90082375D01*
X143045435Y-90095553D01*
X143086547Y-90109178D01*
X143125313Y-90123205D01*
X143161921Y-90137585D01*
X143229411Y-90167221D01*
X143290515Y-90197714D01*
X143346730Y-90228690D01*
X143450485Y-90290598D01*
X143501021Y-90320783D01*
X143552659Y-90349957D01*
X143606897Y-90377747D01*
X143665234Y-90403780D01*
X143696407Y-90416020D01*
X143729166Y-90427681D01*
X143763698Y-90438716D01*
X143800192Y-90449079D01*
X143838833Y-90458721D01*
X143879809Y-90467598D01*
X143923307Y-90475662D01*
X143969515Y-90482867D01*
X144033670Y-90490792D01*
X144096697Y-90496298D01*
X144158549Y-90499548D01*
X144219180Y-90500707D01*
X144278541Y-90499940D01*
X144336585Y-90497411D01*
X144393266Y-90493284D01*
X144448537Y-90487724D01*
X144502349Y-90480896D01*
X144554657Y-90472964D01*
X144654568Y-90454445D01*
X144747894Y-90433484D01*
X144834256Y-90411396D01*
X144984581Y-90369104D01*
X145047789Y-90351531D01*
X145102525Y-90338094D01*
X145148410Y-90330110D01*
X145167917Y-90328574D01*
X145185069Y-90328894D01*
X145199820Y-90331235D01*
X145212123Y-90335762D01*
X145221931Y-90342639D01*
X145229196Y-90352030D01*
X145233107Y-90361472D01*
X145235027Y-90372150D01*
X145235009Y-90384007D01*
X145233103Y-90396988D01*
X145229363Y-90411038D01*
X145223838Y-90426099D01*
X145207647Y-90459035D01*
X145184943Y-90495351D01*
X145156142Y-90534598D01*
X145121658Y-90576331D01*
X145081906Y-90620102D01*
X145037299Y-90665466D01*
X144988253Y-90711976D01*
X144935182Y-90759184D01*
X144878501Y-90806644D01*
X144818624Y-90853909D01*
X144755965Y-90900534D01*
X144690940Y-90946070D01*
X144623962Y-90990072D01*
X144444552Y-91094486D01*
X144254889Y-91186729D01*
X144056776Y-91266366D01*
X143852013Y-91332964D01*
X143642403Y-91386090D01*
X143429748Y-91425311D01*
X143215851Y-91450193D01*
X143002512Y-91460303D01*
X142791535Y-91455208D01*
X142584720Y-91434474D01*
X142383871Y-91397669D01*
X142286247Y-91373104D01*
X142190789Y-91344358D01*
X142097724Y-91311378D01*
X142007276Y-91274109D01*
X141919671Y-91232497D01*
X141835135Y-91186488D01*
X141753891Y-91136027D01*
X141676166Y-91081061D01*
X141602185Y-91021536D01*
X141532173Y-90957397D01*
X141490658Y-90916276D01*
X141440708Y-90863757D01*
X141414189Y-90833826D01*
X141387505Y-90801771D01*
X141361304Y-90767832D01*
X141336233Y-90732252D01*
X141312940Y-90695272D01*
X141292073Y-90657134D01*
X141274280Y-90618079D01*
X141266738Y-90598283D01*
X141260208Y-90578349D01*
X141254771Y-90558307D01*
X141250506Y-90538186D01*
X141247497Y-90518018D01*
X141245822Y-90497831D01*
X141245564Y-90477658D01*
X141246803Y-90457526D01*
X141249620Y-90437468D01*
X141254096Y-90417513D01*
X141253831Y-90417382D01*
X141264754Y-90385446D01*
X141279973Y-90354523D01*
X141299321Y-90324646D01*
X141322632Y-90295847D01*
X141349738Y-90268158D01*
X141380473Y-90241611D01*
X141452159Y-90192071D01*
X141536356Y-90147485D01*
X141631727Y-90108110D01*
X141736937Y-90074204D01*
X141850649Y-90046023D01*
X141971528Y-90023825D01*
X142098239Y-90007866D01*
X142229445Y-89998404D01*
X142363810Y-89995697D01*
X142500000Y-90000000D01*
G37*
X158638319Y-86576532D02*
X158696364Y-86579735D01*
X158754489Y-86585937D01*
X158812536Y-86595302D01*
X158870345Y-86607995D01*
X158927758Y-86624182D01*
X158984618Y-86644027D01*
X159050100Y-86672023D01*
X159112479Y-86704255D01*
X159171794Y-86740402D01*
X159228088Y-86780146D01*
X159281400Y-86823166D01*
X159331772Y-86869144D01*
X159379243Y-86917759D01*
X159423854Y-86968693D01*
X159465646Y-87021626D01*
X159504660Y-87076239D01*
X159540937Y-87132211D01*
X159574516Y-87189224D01*
X159605438Y-87246957D01*
X159633745Y-87305092D01*
X159682673Y-87421289D01*
X159721625Y-87535259D01*
X159750925Y-87644444D01*
X159770900Y-87746290D01*
X159781873Y-87838241D01*
X159784170Y-87917741D01*
X159782166Y-87952023D01*
X159778116Y-87982234D01*
X159772058Y-88008054D01*
X159764035Y-88029163D01*
X159754087Y-88045244D01*
X159742254Y-88055975D01*
X159733660Y-88059890D01*
X159724464Y-88061352D01*
X159714610Y-88060454D01*
X159704045Y-88057286D01*
X159680560Y-88044508D01*
X159653576Y-88023751D01*
X159622657Y-87995747D01*
X159587369Y-87961229D01*
X159501945Y-87875578D01*
X159450939Y-87825910D01*
X159393824Y-87772657D01*
X159330166Y-87716551D01*
X159259529Y-87658324D01*
X159181478Y-87598709D01*
X159095579Y-87538438D01*
X159001396Y-87478244D01*
X158898496Y-87418858D01*
X158835371Y-87385446D01*
X158773189Y-87354675D01*
X158712017Y-87326413D01*
X158651921Y-87300528D01*
X158592967Y-87276889D01*
X158535223Y-87255363D01*
X158478754Y-87235818D01*
X158423627Y-87218124D01*
X158369908Y-87202147D01*
X158317665Y-87187757D01*
X158217868Y-87163206D01*
X158124768Y-87143418D01*
X158038898Y-87127337D01*
X157890971Y-87102078D01*
X157829978Y-87090790D01*
X157778341Y-87078991D01*
X157756197Y-87072570D01*
X157736592Y-87065625D01*
X157719592Y-87058025D01*
X157705263Y-87049638D01*
X157693671Y-87040331D01*
X157684884Y-87029974D01*
X157678968Y-87018434D01*
X157675989Y-87005579D01*
X157676367Y-86988695D01*
X157680944Y-86970522D01*
X157689559Y-86951226D01*
X157702056Y-86930971D01*
X157738060Y-86888244D01*
X157787687Y-86843661D01*
X157849671Y-86798541D01*
X157922744Y-86754202D01*
X158005640Y-86711965D01*
X158097090Y-86673148D01*
X158195829Y-86639070D01*
X158300588Y-86611050D01*
X158410101Y-86590408D01*
X158523100Y-86578462D01*
X158580511Y-86576163D01*
X158638319Y-86576532D01*
G36*
X158638319Y-86576532D02*
G01*
X158696364Y-86579735D01*
X158754489Y-86585937D01*
X158812536Y-86595302D01*
X158870345Y-86607995D01*
X158927758Y-86624182D01*
X158984618Y-86644027D01*
X159050100Y-86672023D01*
X159112479Y-86704255D01*
X159171794Y-86740402D01*
X159228088Y-86780146D01*
X159281400Y-86823166D01*
X159331772Y-86869144D01*
X159379243Y-86917759D01*
X159423854Y-86968693D01*
X159465646Y-87021626D01*
X159504660Y-87076239D01*
X159540937Y-87132211D01*
X159574516Y-87189224D01*
X159605438Y-87246957D01*
X159633745Y-87305092D01*
X159682673Y-87421289D01*
X159721625Y-87535259D01*
X159750925Y-87644444D01*
X159770900Y-87746290D01*
X159781873Y-87838241D01*
X159784170Y-87917741D01*
X159782166Y-87952023D01*
X159778116Y-87982234D01*
X159772058Y-88008054D01*
X159764035Y-88029163D01*
X159754087Y-88045244D01*
X159742254Y-88055975D01*
X159733660Y-88059890D01*
X159724464Y-88061352D01*
X159714610Y-88060454D01*
X159704045Y-88057286D01*
X159680560Y-88044508D01*
X159653576Y-88023751D01*
X159622657Y-87995747D01*
X159587369Y-87961229D01*
X159501945Y-87875578D01*
X159450939Y-87825910D01*
X159393824Y-87772657D01*
X159330166Y-87716551D01*
X159259529Y-87658324D01*
X159181478Y-87598709D01*
X159095579Y-87538438D01*
X159001396Y-87478244D01*
X158898496Y-87418858D01*
X158835371Y-87385446D01*
X158773189Y-87354675D01*
X158712017Y-87326413D01*
X158651921Y-87300528D01*
X158592967Y-87276889D01*
X158535223Y-87255363D01*
X158478754Y-87235818D01*
X158423627Y-87218124D01*
X158369908Y-87202147D01*
X158317665Y-87187757D01*
X158217868Y-87163206D01*
X158124768Y-87143418D01*
X158038898Y-87127337D01*
X157890971Y-87102078D01*
X157829978Y-87090790D01*
X157778341Y-87078991D01*
X157756197Y-87072570D01*
X157736592Y-87065625D01*
X157719592Y-87058025D01*
X157705263Y-87049638D01*
X157693671Y-87040331D01*
X157684884Y-87029974D01*
X157678968Y-87018434D01*
X157675989Y-87005579D01*
X157676367Y-86988695D01*
X157680944Y-86970522D01*
X157689559Y-86951226D01*
X157702056Y-86930971D01*
X157738060Y-86888244D01*
X157787687Y-86843661D01*
X157849671Y-86798541D01*
X157922744Y-86754202D01*
X158005640Y-86711965D01*
X158097090Y-86673148D01*
X158195829Y-86639070D01*
X158300588Y-86611050D01*
X158410101Y-86590408D01*
X158523100Y-86578462D01*
X158580511Y-86576163D01*
X158638319Y-86576532D01*
G37*
X143289938Y-88906292D02*
X143316956Y-88916900D01*
X143348962Y-88935349D01*
X143428961Y-88991936D01*
X143531977Y-89068386D01*
X143592755Y-89111665D01*
X143660052Y-89157035D01*
X143734125Y-89203537D01*
X143815228Y-89250215D01*
X143903617Y-89296108D01*
X143999546Y-89340260D01*
X144103272Y-89381712D01*
X144215048Y-89419505D01*
X144268144Y-89435086D01*
X144320152Y-89448907D01*
X144371037Y-89461066D01*
X144420762Y-89471661D01*
X144469291Y-89480791D01*
X144516589Y-89488555D01*
X144562621Y-89495051D01*
X144607349Y-89500379D01*
X144650738Y-89504636D01*
X144692753Y-89507921D01*
X144772514Y-89511971D01*
X144846346Y-89513319D01*
X144913962Y-89512754D01*
X145029395Y-89509040D01*
X145076639Y-89507471D01*
X145116519Y-89507146D01*
X145148747Y-89508853D01*
X145161902Y-89510716D01*
X145173036Y-89513384D01*
X145182115Y-89516954D01*
X145189101Y-89521526D01*
X145193958Y-89527198D01*
X145196652Y-89534069D01*
X145196520Y-89534069D01*
X145196547Y-89545834D01*
X145192174Y-89559583D01*
X145170910Y-89592202D01*
X145134083Y-89630258D01*
X145083045Y-89672084D01*
X145019152Y-89716013D01*
X144943757Y-89760378D01*
X144858214Y-89803512D01*
X144763877Y-89843747D01*
X144662100Y-89879417D01*
X144554238Y-89908853D01*
X144441643Y-89930390D01*
X144325671Y-89942360D01*
X144266841Y-89944237D01*
X144207675Y-89943096D01*
X144148341Y-89938730D01*
X144089009Y-89930930D01*
X144029848Y-89919489D01*
X143971027Y-89904196D01*
X143912715Y-89884845D01*
X143855083Y-89861227D01*
X143809274Y-89838983D01*
X143765189Y-89814466D01*
X143722829Y-89787855D01*
X143682194Y-89759329D01*
X143643287Y-89729068D01*
X143606107Y-89697252D01*
X143570657Y-89664060D01*
X143536938Y-89629671D01*
X143504950Y-89594266D01*
X143474695Y-89558025D01*
X143446174Y-89521125D01*
X143419389Y-89483748D01*
X143394339Y-89446073D01*
X143371027Y-89408279D01*
X143329620Y-89333053D01*
X143295178Y-89259508D01*
X143267708Y-89189080D01*
X143247221Y-89123206D01*
X143233726Y-89063323D01*
X143229603Y-89036077D01*
X143227231Y-89010867D01*
X143226613Y-88987874D01*
X143227748Y-88967276D01*
X143230638Y-88949253D01*
X143235284Y-88933985D01*
X143241687Y-88921652D01*
X143249849Y-88912432D01*
X143258208Y-88907178D01*
X143267654Y-88904484D01*
X143278221Y-88904228D01*
X143289938Y-88906292D01*
G36*
X143289938Y-88906292D02*
G01*
X143316956Y-88916900D01*
X143348962Y-88935349D01*
X143428961Y-88991936D01*
X143531977Y-89068386D01*
X143592755Y-89111665D01*
X143660052Y-89157035D01*
X143734125Y-89203537D01*
X143815228Y-89250215D01*
X143903617Y-89296108D01*
X143999546Y-89340260D01*
X144103272Y-89381712D01*
X144215048Y-89419505D01*
X144268144Y-89435086D01*
X144320152Y-89448907D01*
X144371037Y-89461066D01*
X144420762Y-89471661D01*
X144469291Y-89480791D01*
X144516589Y-89488555D01*
X144562621Y-89495051D01*
X144607349Y-89500379D01*
X144650738Y-89504636D01*
X144692753Y-89507921D01*
X144772514Y-89511971D01*
X144846346Y-89513319D01*
X144913962Y-89512754D01*
X145029395Y-89509040D01*
X145076639Y-89507471D01*
X145116519Y-89507146D01*
X145148747Y-89508853D01*
X145161902Y-89510716D01*
X145173036Y-89513384D01*
X145182115Y-89516954D01*
X145189101Y-89521526D01*
X145193958Y-89527198D01*
X145196652Y-89534069D01*
X145196520Y-89534069D01*
X145196547Y-89545834D01*
X145192174Y-89559583D01*
X145170910Y-89592202D01*
X145134083Y-89630258D01*
X145083045Y-89672084D01*
X145019152Y-89716013D01*
X144943757Y-89760378D01*
X144858214Y-89803512D01*
X144763877Y-89843747D01*
X144662100Y-89879417D01*
X144554238Y-89908853D01*
X144441643Y-89930390D01*
X144325671Y-89942360D01*
X144266841Y-89944237D01*
X144207675Y-89943096D01*
X144148341Y-89938730D01*
X144089009Y-89930930D01*
X144029848Y-89919489D01*
X143971027Y-89904196D01*
X143912715Y-89884845D01*
X143855083Y-89861227D01*
X143809274Y-89838983D01*
X143765189Y-89814466D01*
X143722829Y-89787855D01*
X143682194Y-89759329D01*
X143643287Y-89729068D01*
X143606107Y-89697252D01*
X143570657Y-89664060D01*
X143536938Y-89629671D01*
X143504950Y-89594266D01*
X143474695Y-89558025D01*
X143446174Y-89521125D01*
X143419389Y-89483748D01*
X143394339Y-89446073D01*
X143371027Y-89408279D01*
X143329620Y-89333053D01*
X143295178Y-89259508D01*
X143267708Y-89189080D01*
X143247221Y-89123206D01*
X143233726Y-89063323D01*
X143229603Y-89036077D01*
X143227231Y-89010867D01*
X143226613Y-88987874D01*
X143227748Y-88967276D01*
X143230638Y-88949253D01*
X143235284Y-88933985D01*
X143241687Y-88921652D01*
X143249849Y-88912432D01*
X143258208Y-88907178D01*
X143267654Y-88904484D01*
X143278221Y-88904228D01*
X143289938Y-88906292D01*
G37*
X158343492Y-89721337D02*
X158383672Y-89728827D01*
X158418149Y-89740604D01*
X158446428Y-89756884D01*
X158468020Y-89777882D01*
X158475794Y-89789544D01*
X158481988Y-89802243D01*
X158486653Y-89815915D01*
X158489842Y-89830502D01*
X158491607Y-89845941D01*
X158492001Y-89862173D01*
X158491076Y-89879136D01*
X158488884Y-89896771D01*
X158485478Y-89915015D01*
X158480910Y-89933808D01*
X158468498Y-89972800D01*
X158452067Y-90013260D01*
X158432036Y-90054702D01*
X158408824Y-90096640D01*
X158382849Y-90138588D01*
X158354531Y-90180061D01*
X158324289Y-90220571D01*
X158292541Y-90259633D01*
X158259708Y-90296762D01*
X158226206Y-90331470D01*
X158192457Y-90363273D01*
X158147882Y-90400485D01*
X158101580Y-90434117D01*
X158053750Y-90464291D01*
X158004592Y-90491128D01*
X157954307Y-90514748D01*
X157903093Y-90535275D01*
X157851152Y-90552828D01*
X157798682Y-90567530D01*
X157745885Y-90579501D01*
X157692960Y-90588863D01*
X157640107Y-90595738D01*
X157587526Y-90600247D01*
X157535417Y-90602511D01*
X157483981Y-90602652D01*
X157433416Y-90600791D01*
X157383923Y-90597049D01*
X157335702Y-90591548D01*
X157288954Y-90584410D01*
X157243877Y-90575754D01*
X157200672Y-90565704D01*
X157159539Y-90554380D01*
X157120678Y-90541904D01*
X157084289Y-90528397D01*
X157050572Y-90513980D01*
X157019727Y-90498776D01*
X156991954Y-90482904D01*
X156967453Y-90466487D01*
X156946423Y-90449646D01*
X156929066Y-90432503D01*
X156915580Y-90415178D01*
X156906166Y-90397794D01*
X156901025Y-90380472D01*
X156901073Y-90355224D01*
X156909200Y-90328119D01*
X156924913Y-90299504D01*
X156947721Y-90269593D01*
X156977130Y-90238600D01*
X157012649Y-90206741D01*
X157100046Y-90141283D01*
X157205975Y-90074937D01*
X157326498Y-90009421D01*
X157457676Y-89946453D01*
X157595572Y-89887750D01*
X157736247Y-89835032D01*
X157875764Y-89790016D01*
X158010185Y-89754421D01*
X158135572Y-89729964D01*
X158247987Y-89718363D01*
X158298099Y-89717921D01*
X158343492Y-89721337D01*
G36*
X158343492Y-89721337D02*
G01*
X158383672Y-89728827D01*
X158418149Y-89740604D01*
X158446428Y-89756884D01*
X158468020Y-89777882D01*
X158475794Y-89789544D01*
X158481988Y-89802243D01*
X158486653Y-89815915D01*
X158489842Y-89830502D01*
X158491607Y-89845941D01*
X158492001Y-89862173D01*
X158491076Y-89879136D01*
X158488884Y-89896771D01*
X158485478Y-89915015D01*
X158480910Y-89933808D01*
X158468498Y-89972800D01*
X158452067Y-90013260D01*
X158432036Y-90054702D01*
X158408824Y-90096640D01*
X158382849Y-90138588D01*
X158354531Y-90180061D01*
X158324289Y-90220571D01*
X158292541Y-90259633D01*
X158259708Y-90296762D01*
X158226206Y-90331470D01*
X158192457Y-90363273D01*
X158147882Y-90400485D01*
X158101580Y-90434117D01*
X158053750Y-90464291D01*
X158004592Y-90491128D01*
X157954307Y-90514748D01*
X157903093Y-90535275D01*
X157851152Y-90552828D01*
X157798682Y-90567530D01*
X157745885Y-90579501D01*
X157692960Y-90588863D01*
X157640107Y-90595738D01*
X157587526Y-90600247D01*
X157535417Y-90602511D01*
X157483981Y-90602652D01*
X157433416Y-90600791D01*
X157383923Y-90597049D01*
X157335702Y-90591548D01*
X157288954Y-90584410D01*
X157243877Y-90575754D01*
X157200672Y-90565704D01*
X157159539Y-90554380D01*
X157120678Y-90541904D01*
X157084289Y-90528397D01*
X157050572Y-90513980D01*
X157019727Y-90498776D01*
X156991954Y-90482904D01*
X156967453Y-90466487D01*
X156946423Y-90449646D01*
X156929066Y-90432503D01*
X156915580Y-90415178D01*
X156906166Y-90397794D01*
X156901025Y-90380472D01*
X156901073Y-90355224D01*
X156909200Y-90328119D01*
X156924913Y-90299504D01*
X156947721Y-90269593D01*
X156977130Y-90238600D01*
X157012649Y-90206741D01*
X157100046Y-90141283D01*
X157205975Y-90074937D01*
X157326498Y-90009421D01*
X157457676Y-89946453D01*
X157595572Y-89887750D01*
X157736247Y-89835032D01*
X157875764Y-89790016D01*
X158010185Y-89754421D01*
X158135572Y-89729964D01*
X158247987Y-89718363D01*
X158298099Y-89717921D01*
X158343492Y-89721337D01*
G37*
M02*
