%TF.GenerationSoftware,KiCad,Pcbnew,8.0.6*%
%TF.CreationDate,2025-04-24T17:11:33-04:00*%
%TF.ProjectId,hcsolder,6863736f-6c64-4657-922e-6b696361645f,rev?*%
%TF.SameCoordinates,Original*%
%TF.FileFunction,Legend,Top*%
%TF.FilePolarity,Positive*%
%FSLAX46Y46*%
G04 Gerber Fmt 4.6, Leading zero omitted, Abs format (unit mm)*
G04 Created by KiCad (PCBNEW 8.0.6) date 2025-04-24 17:11:33*
%MOMM*%
%LPD*%
G01*
G04 APERTURE LIST*
%ADD10C,0.300000*%
%ADD11C,0.150000*%
%ADD12C,0.120000*%
G04 APERTURE END LIST*
D10*
X140793082Y-92393685D02*
X140864510Y-92322257D01*
X140864510Y-92322257D02*
X141007368Y-92250828D01*
X141007368Y-92250828D02*
X141364510Y-92250828D01*
X141364510Y-92250828D02*
X141507368Y-92322257D01*
X141507368Y-92322257D02*
X141578796Y-92393685D01*
X141578796Y-92393685D02*
X141650225Y-92536542D01*
X141650225Y-92536542D02*
X141650225Y-92679400D01*
X141650225Y-92679400D02*
X141578796Y-92893685D01*
X141578796Y-92893685D02*
X140721653Y-93750828D01*
X140721653Y-93750828D02*
X141650225Y-93750828D01*
X142578796Y-92250828D02*
X142721653Y-92250828D01*
X142721653Y-92250828D02*
X142864510Y-92322257D01*
X142864510Y-92322257D02*
X142935939Y-92393685D01*
X142935939Y-92393685D02*
X143007367Y-92536542D01*
X143007367Y-92536542D02*
X143078796Y-92822257D01*
X143078796Y-92822257D02*
X143078796Y-93179400D01*
X143078796Y-93179400D02*
X143007367Y-93465114D01*
X143007367Y-93465114D02*
X142935939Y-93607971D01*
X142935939Y-93607971D02*
X142864510Y-93679400D01*
X142864510Y-93679400D02*
X142721653Y-93750828D01*
X142721653Y-93750828D02*
X142578796Y-93750828D01*
X142578796Y-93750828D02*
X142435939Y-93679400D01*
X142435939Y-93679400D02*
X142364510Y-93607971D01*
X142364510Y-93607971D02*
X142293081Y-93465114D01*
X142293081Y-93465114D02*
X142221653Y-93179400D01*
X142221653Y-93179400D02*
X142221653Y-92822257D01*
X142221653Y-92822257D02*
X142293081Y-92536542D01*
X142293081Y-92536542D02*
X142364510Y-92393685D01*
X142364510Y-92393685D02*
X142435939Y-92322257D01*
X142435939Y-92322257D02*
X142578796Y-92250828D01*
X143650224Y-92393685D02*
X143721652Y-92322257D01*
X143721652Y-92322257D02*
X143864510Y-92250828D01*
X143864510Y-92250828D02*
X144221652Y-92250828D01*
X144221652Y-92250828D02*
X144364510Y-92322257D01*
X144364510Y-92322257D02*
X144435938Y-92393685D01*
X144435938Y-92393685D02*
X144507367Y-92536542D01*
X144507367Y-92536542D02*
X144507367Y-92679400D01*
X144507367Y-92679400D02*
X144435938Y-92893685D01*
X144435938Y-92893685D02*
X143578795Y-93750828D01*
X143578795Y-93750828D02*
X144507367Y-93750828D01*
X145864509Y-92250828D02*
X145150223Y-92250828D01*
X145150223Y-92250828D02*
X145078795Y-92965114D01*
X145078795Y-92965114D02*
X145150223Y-92893685D01*
X145150223Y-92893685D02*
X145293081Y-92822257D01*
X145293081Y-92822257D02*
X145650223Y-92822257D01*
X145650223Y-92822257D02*
X145793081Y-92893685D01*
X145793081Y-92893685D02*
X145864509Y-92965114D01*
X145864509Y-92965114D02*
X145935938Y-93107971D01*
X145935938Y-93107971D02*
X145935938Y-93465114D01*
X145935938Y-93465114D02*
X145864509Y-93607971D01*
X145864509Y-93607971D02*
X145793081Y-93679400D01*
X145793081Y-93679400D02*
X145650223Y-93750828D01*
X145650223Y-93750828D02*
X145293081Y-93750828D01*
X145293081Y-93750828D02*
X145150223Y-93679400D01*
X145150223Y-93679400D02*
X145078795Y-93607971D01*
X150556885Y-98066211D02*
X150547316Y-97906779D01*
X150547316Y-97906779D02*
X150635319Y-97773491D01*
X150635319Y-97773491D02*
X151748781Y-97130634D01*
X150949742Y-98746659D02*
X150940173Y-98587227D01*
X150940173Y-98587227D02*
X150966317Y-98489654D01*
X150966317Y-98489654D02*
X151054321Y-98356366D01*
X151054321Y-98356366D02*
X151425475Y-98142081D01*
X151425475Y-98142081D02*
X151584907Y-98132511D01*
X151584907Y-98132511D02*
X151682480Y-98158656D01*
X151682480Y-98158656D02*
X151815768Y-98246659D01*
X151815768Y-98246659D02*
X151922911Y-98432236D01*
X151922911Y-98432236D02*
X151932480Y-98591669D01*
X151932480Y-98591669D02*
X151906336Y-98689242D01*
X151906336Y-98689242D02*
X151818332Y-98822529D01*
X151818332Y-98822529D02*
X151447178Y-99036815D01*
X151447178Y-99036815D02*
X151287746Y-99046385D01*
X151287746Y-99046385D02*
X151190173Y-99020240D01*
X151190173Y-99020240D02*
X151056885Y-98932236D01*
X151056885Y-98932236D02*
X150949742Y-98746659D01*
X151628314Y-99921980D02*
X151618744Y-99762548D01*
X151618744Y-99762548D02*
X151706748Y-99629260D01*
X151706748Y-99629260D02*
X152820209Y-98986403D01*
X152235457Y-100973582D02*
X152915905Y-100580725D01*
X152915905Y-100580725D02*
X153003909Y-100447437D01*
X153003909Y-100447437D02*
X152994339Y-100288005D01*
X152994339Y-100288005D02*
X152851482Y-100040569D01*
X152851482Y-100040569D02*
X152718194Y-99952565D01*
X152297315Y-100937867D02*
X152164028Y-100849864D01*
X152164028Y-100849864D02*
X151985457Y-100540569D01*
X151985457Y-100540569D02*
X151975887Y-100381137D01*
X151975887Y-100381137D02*
X152063891Y-100247849D01*
X152063891Y-100247849D02*
X152187608Y-100176421D01*
X152187608Y-100176421D02*
X152347041Y-100166851D01*
X152347041Y-100166851D02*
X152480328Y-100254855D01*
X152480328Y-100254855D02*
X152658900Y-100564150D01*
X152658900Y-100564150D02*
X152792187Y-100652153D01*
X153190173Y-102484341D02*
X153199742Y-102643774D01*
X153199742Y-102643774D02*
X153342599Y-102891209D01*
X153342599Y-102891209D02*
X153475887Y-102979213D01*
X153475887Y-102979213D02*
X153635319Y-102969643D01*
X153635319Y-102969643D02*
X153697178Y-102933929D01*
X153697178Y-102933929D02*
X153785182Y-102800642D01*
X153785182Y-102800642D02*
X153775612Y-102641209D01*
X153775612Y-102641209D02*
X153668469Y-102455633D01*
X153668469Y-102455633D02*
X153658900Y-102296200D01*
X153658900Y-102296200D02*
X153746903Y-102162913D01*
X153746903Y-102162913D02*
X153808762Y-102127199D01*
X153808762Y-102127199D02*
X153968194Y-102117629D01*
X153968194Y-102117629D02*
X154101482Y-102205633D01*
X154101482Y-102205633D02*
X154208625Y-102391209D01*
X154208625Y-102391209D02*
X154218194Y-102550642D01*
X154092600Y-104190248D02*
X154773048Y-103797391D01*
X154773048Y-103797391D02*
X154861052Y-103664103D01*
X154861052Y-103664103D02*
X154851482Y-103504671D01*
X154851482Y-103504671D02*
X154708625Y-103257235D01*
X154708625Y-103257235D02*
X154575337Y-103169231D01*
X154154458Y-104154534D02*
X154021171Y-104066530D01*
X154021171Y-104066530D02*
X153842600Y-103757235D01*
X153842600Y-103757235D02*
X153833030Y-103597803D01*
X153833030Y-103597803D02*
X153921034Y-103464515D01*
X153921034Y-103464515D02*
X154044751Y-103393087D01*
X154044751Y-103393087D02*
X154204184Y-103383517D01*
X154204184Y-103383517D02*
X154337471Y-103471521D01*
X154337471Y-103471521D02*
X154516043Y-103780816D01*
X154516043Y-103780816D02*
X154649330Y-103868819D01*
X155315768Y-104308838D02*
X154449742Y-104808838D01*
X155192050Y-104380266D02*
X155289623Y-104406411D01*
X155289623Y-104406411D02*
X155422911Y-104494414D01*
X155422911Y-104494414D02*
X155530054Y-104679991D01*
X155530054Y-104679991D02*
X155539623Y-104839423D01*
X155539623Y-104839423D02*
X155451620Y-104972711D01*
X155451620Y-104972711D02*
X154771171Y-105365568D01*
X155511601Y-106505174D02*
X155378314Y-106417171D01*
X155378314Y-106417171D02*
X155235457Y-106169735D01*
X155235457Y-106169735D02*
X155225887Y-106010302D01*
X155225887Y-106010302D02*
X155252032Y-105912729D01*
X155252032Y-105912729D02*
X155340035Y-105779442D01*
X155340035Y-105779442D02*
X155711189Y-105565156D01*
X155711189Y-105565156D02*
X155870621Y-105555586D01*
X155870621Y-105555586D02*
X155968195Y-105581731D01*
X155968195Y-105581731D02*
X156101482Y-105669735D01*
X156101482Y-105669735D02*
X156244339Y-105917171D01*
X156244339Y-105917171D02*
X156253909Y-106076603D01*
X155771171Y-107097619D02*
X157070209Y-106347619D01*
X156092600Y-107654349D02*
X156773048Y-107261492D01*
X156773048Y-107261492D02*
X156861052Y-107128205D01*
X156861052Y-107128205D02*
X156851482Y-106968773D01*
X156851482Y-106968773D02*
X156744339Y-106783196D01*
X156744339Y-106783196D02*
X156611052Y-106695192D01*
X156611052Y-106695192D02*
X156513478Y-106669047D01*
X156797316Y-108732096D02*
X156664028Y-108644093D01*
X156664028Y-108644093D02*
X156521171Y-108396657D01*
X156521171Y-108396657D02*
X156511601Y-108237225D01*
X156511601Y-108237225D02*
X156599605Y-108103937D01*
X156599605Y-108103937D02*
X157094477Y-107818223D01*
X157094477Y-107818223D02*
X157253909Y-107808653D01*
X157253909Y-107808653D02*
X157387196Y-107896657D01*
X157387196Y-107896657D02*
X157530054Y-108144093D01*
X157530054Y-108144093D02*
X157539623Y-108303525D01*
X157539623Y-108303525D02*
X157451620Y-108436813D01*
X157451620Y-108436813D02*
X157327902Y-108508241D01*
X157327902Y-108508241D02*
X156847041Y-107961080D01*
X157887196Y-108762682D02*
X158280053Y-109443131D01*
X158280053Y-109443131D02*
X157021171Y-109262682D01*
X157021171Y-109262682D02*
X157414028Y-109943131D01*
D11*
X166195544Y-110751181D02*
X166606617Y-110340222D01*
X166096316Y-110188434D02*
X167081124Y-110014785D01*
X167081124Y-110014785D02*
X167147276Y-110389950D01*
X167147276Y-110389950D02*
X167116918Y-110492010D01*
X167116918Y-110492010D02*
X167078291Y-110547175D01*
X167078291Y-110547175D02*
X166992769Y-110610609D01*
X166992769Y-110610609D02*
X166852082Y-110635415D01*
X166852082Y-110635415D02*
X166750022Y-110605058D01*
X166750022Y-110605058D02*
X166694858Y-110566431D01*
X166694858Y-110566431D02*
X166631424Y-110480909D01*
X166631424Y-110480909D02*
X166565272Y-110105744D01*
X167000924Y-111479536D02*
X166344385Y-111595302D01*
X167334744Y-111178907D02*
X166589965Y-111068463D01*
X166589965Y-111068463D02*
X166697461Y-111678106D01*
X115416667Y-73407200D02*
X115559524Y-73454819D01*
X115559524Y-73454819D02*
X115797619Y-73454819D01*
X115797619Y-73454819D02*
X115892857Y-73407200D01*
X115892857Y-73407200D02*
X115940476Y-73359580D01*
X115940476Y-73359580D02*
X115988095Y-73264342D01*
X115988095Y-73264342D02*
X115988095Y-73169104D01*
X115988095Y-73169104D02*
X115940476Y-73073866D01*
X115940476Y-73073866D02*
X115892857Y-73026247D01*
X115892857Y-73026247D02*
X115797619Y-72978628D01*
X115797619Y-72978628D02*
X115607143Y-72931009D01*
X115607143Y-72931009D02*
X115511905Y-72883390D01*
X115511905Y-72883390D02*
X115464286Y-72835771D01*
X115464286Y-72835771D02*
X115416667Y-72740533D01*
X115416667Y-72740533D02*
X115416667Y-72645295D01*
X115416667Y-72645295D02*
X115464286Y-72550057D01*
X115464286Y-72550057D02*
X115511905Y-72502438D01*
X115511905Y-72502438D02*
X115607143Y-72454819D01*
X115607143Y-72454819D02*
X115845238Y-72454819D01*
X115845238Y-72454819D02*
X115988095Y-72502438D01*
X116321429Y-72454819D02*
X116559524Y-73454819D01*
X116559524Y-73454819D02*
X116750000Y-72740533D01*
X116750000Y-72740533D02*
X116940476Y-73454819D01*
X116940476Y-73454819D02*
X117178572Y-72454819D01*
X118083333Y-73454819D02*
X117511905Y-73454819D01*
X117797619Y-73454819D02*
X117797619Y-72454819D01*
X117797619Y-72454819D02*
X117702381Y-72597676D01*
X117702381Y-72597676D02*
X117607143Y-72692914D01*
X117607143Y-72692914D02*
X117511905Y-72740533D01*
X136143333Y-108084819D02*
X135810000Y-107608628D01*
X135571905Y-108084819D02*
X135571905Y-107084819D01*
X135571905Y-107084819D02*
X135952857Y-107084819D01*
X135952857Y-107084819D02*
X136048095Y-107132438D01*
X136048095Y-107132438D02*
X136095714Y-107180057D01*
X136095714Y-107180057D02*
X136143333Y-107275295D01*
X136143333Y-107275295D02*
X136143333Y-107418152D01*
X136143333Y-107418152D02*
X136095714Y-107513390D01*
X136095714Y-107513390D02*
X136048095Y-107561009D01*
X136048095Y-107561009D02*
X135952857Y-107608628D01*
X135952857Y-107608628D02*
X135571905Y-107608628D01*
X137095714Y-108084819D02*
X136524286Y-108084819D01*
X136810000Y-108084819D02*
X136810000Y-107084819D01*
X136810000Y-107084819D02*
X136714762Y-107227676D01*
X136714762Y-107227676D02*
X136619524Y-107322914D01*
X136619524Y-107322914D02*
X136524286Y-107370533D01*
X171857144Y-122003298D02*
X172268217Y-121592339D01*
X171757916Y-121440551D02*
X172742724Y-121266902D01*
X172742724Y-121266902D02*
X172808876Y-121642067D01*
X172808876Y-121642067D02*
X172778518Y-121744127D01*
X172778518Y-121744127D02*
X172739891Y-121799292D01*
X172739891Y-121799292D02*
X172654369Y-121862726D01*
X172654369Y-121862726D02*
X172513682Y-121887532D01*
X172513682Y-121887532D02*
X172411622Y-121857175D01*
X172411622Y-121857175D02*
X172356458Y-121818548D01*
X172356458Y-121818548D02*
X172293024Y-121733026D01*
X172293024Y-121733026D02*
X172226872Y-121357861D01*
X172999062Y-122720666D02*
X172916372Y-122251710D01*
X172916372Y-122251710D02*
X172439147Y-122287504D01*
X172439147Y-122287504D02*
X172494312Y-122326131D01*
X172494312Y-122326131D02*
X172557745Y-122411653D01*
X172557745Y-122411653D02*
X172599090Y-122646131D01*
X172599090Y-122646131D02*
X172568732Y-122748191D01*
X172568732Y-122748191D02*
X172530106Y-122803356D01*
X172530106Y-122803356D02*
X172444584Y-122866789D01*
X172444584Y-122866789D02*
X172210106Y-122908134D01*
X172210106Y-122908134D02*
X172108045Y-122877776D01*
X172108045Y-122877776D02*
X172052881Y-122839150D01*
X172052881Y-122839150D02*
X171989447Y-122753628D01*
X171989447Y-122753628D02*
X171948102Y-122519150D01*
X171948102Y-122519150D02*
X171978460Y-122417089D01*
X171978460Y-122417089D02*
X172017087Y-122361925D01*
X170531905Y-101494819D02*
X170531905Y-100494819D01*
X170531905Y-100494819D02*
X170770000Y-100494819D01*
X170770000Y-100494819D02*
X170912857Y-100542438D01*
X170912857Y-100542438D02*
X171008095Y-100637676D01*
X171008095Y-100637676D02*
X171055714Y-100732914D01*
X171055714Y-100732914D02*
X171103333Y-100923390D01*
X171103333Y-100923390D02*
X171103333Y-101066247D01*
X171103333Y-101066247D02*
X171055714Y-101256723D01*
X171055714Y-101256723D02*
X171008095Y-101351961D01*
X171008095Y-101351961D02*
X170912857Y-101447200D01*
X170912857Y-101447200D02*
X170770000Y-101494819D01*
X170770000Y-101494819D02*
X170531905Y-101494819D01*
X171960476Y-100828152D02*
X171960476Y-101494819D01*
X171722381Y-100447200D02*
X171484286Y-101161485D01*
X171484286Y-101161485D02*
X172103333Y-101161485D01*
X109904761Y-83020057D02*
X109809523Y-82972438D01*
X109809523Y-82972438D02*
X109714285Y-82877200D01*
X109714285Y-82877200D02*
X109571428Y-82734342D01*
X109571428Y-82734342D02*
X109476190Y-82686723D01*
X109476190Y-82686723D02*
X109380952Y-82686723D01*
X109428571Y-82924819D02*
X109333333Y-82877200D01*
X109333333Y-82877200D02*
X109238095Y-82781961D01*
X109238095Y-82781961D02*
X109190476Y-82591485D01*
X109190476Y-82591485D02*
X109190476Y-82258152D01*
X109190476Y-82258152D02*
X109238095Y-82067676D01*
X109238095Y-82067676D02*
X109333333Y-81972438D01*
X109333333Y-81972438D02*
X109428571Y-81924819D01*
X109428571Y-81924819D02*
X109619047Y-81924819D01*
X109619047Y-81924819D02*
X109714285Y-81972438D01*
X109714285Y-81972438D02*
X109809523Y-82067676D01*
X109809523Y-82067676D02*
X109857142Y-82258152D01*
X109857142Y-82258152D02*
X109857142Y-82591485D01*
X109857142Y-82591485D02*
X109809523Y-82781961D01*
X109809523Y-82781961D02*
X109714285Y-82877200D01*
X109714285Y-82877200D02*
X109619047Y-82924819D01*
X109619047Y-82924819D02*
X109428571Y-82924819D01*
X110809523Y-82924819D02*
X110238095Y-82924819D01*
X110523809Y-82924819D02*
X110523809Y-81924819D01*
X110523809Y-81924819D02*
X110428571Y-82067676D01*
X110428571Y-82067676D02*
X110333333Y-82162914D01*
X110333333Y-82162914D02*
X110238095Y-82210533D01*
X180584819Y-142666666D02*
X180108628Y-142999999D01*
X180584819Y-143238094D02*
X179584819Y-143238094D01*
X179584819Y-143238094D02*
X179584819Y-142857142D01*
X179584819Y-142857142D02*
X179632438Y-142761904D01*
X179632438Y-142761904D02*
X179680057Y-142714285D01*
X179680057Y-142714285D02*
X179775295Y-142666666D01*
X179775295Y-142666666D02*
X179918152Y-142666666D01*
X179918152Y-142666666D02*
X180013390Y-142714285D01*
X180013390Y-142714285D02*
X180061009Y-142761904D01*
X180061009Y-142761904D02*
X180108628Y-142857142D01*
X180108628Y-142857142D02*
X180108628Y-143238094D01*
X179584819Y-141809523D02*
X179584819Y-141999999D01*
X179584819Y-141999999D02*
X179632438Y-142095237D01*
X179632438Y-142095237D02*
X179680057Y-142142856D01*
X179680057Y-142142856D02*
X179822914Y-142238094D01*
X179822914Y-142238094D02*
X180013390Y-142285713D01*
X180013390Y-142285713D02*
X180394342Y-142285713D01*
X180394342Y-142285713D02*
X180489580Y-142238094D01*
X180489580Y-142238094D02*
X180537200Y-142190475D01*
X180537200Y-142190475D02*
X180584819Y-142095237D01*
X180584819Y-142095237D02*
X180584819Y-141904761D01*
X180584819Y-141904761D02*
X180537200Y-141809523D01*
X180537200Y-141809523D02*
X180489580Y-141761904D01*
X180489580Y-141761904D02*
X180394342Y-141714285D01*
X180394342Y-141714285D02*
X180156247Y-141714285D01*
X180156247Y-141714285D02*
X180061009Y-141761904D01*
X180061009Y-141761904D02*
X180013390Y-141809523D01*
X180013390Y-141809523D02*
X179965771Y-141904761D01*
X179965771Y-141904761D02*
X179965771Y-142095237D01*
X179965771Y-142095237D02*
X180013390Y-142190475D01*
X180013390Y-142190475D02*
X180061009Y-142238094D01*
X180061009Y-142238094D02*
X180156247Y-142285713D01*
X122991905Y-111494819D02*
X122991905Y-110494819D01*
X122991905Y-110494819D02*
X123230000Y-110494819D01*
X123230000Y-110494819D02*
X123372857Y-110542438D01*
X123372857Y-110542438D02*
X123468095Y-110637676D01*
X123468095Y-110637676D02*
X123515714Y-110732914D01*
X123515714Y-110732914D02*
X123563333Y-110923390D01*
X123563333Y-110923390D02*
X123563333Y-111066247D01*
X123563333Y-111066247D02*
X123515714Y-111256723D01*
X123515714Y-111256723D02*
X123468095Y-111351961D01*
X123468095Y-111351961D02*
X123372857Y-111447200D01*
X123372857Y-111447200D02*
X123230000Y-111494819D01*
X123230000Y-111494819D02*
X122991905Y-111494819D01*
X123944286Y-110590057D02*
X123991905Y-110542438D01*
X123991905Y-110542438D02*
X124087143Y-110494819D01*
X124087143Y-110494819D02*
X124325238Y-110494819D01*
X124325238Y-110494819D02*
X124420476Y-110542438D01*
X124420476Y-110542438D02*
X124468095Y-110590057D01*
X124468095Y-110590057D02*
X124515714Y-110685295D01*
X124515714Y-110685295D02*
X124515714Y-110780533D01*
X124515714Y-110780533D02*
X124468095Y-110923390D01*
X124468095Y-110923390D02*
X123896667Y-111494819D01*
X123896667Y-111494819D02*
X124515714Y-111494819D01*
X145264285Y-70631009D02*
X145407142Y-70678628D01*
X145407142Y-70678628D02*
X145454761Y-70726247D01*
X145454761Y-70726247D02*
X145502380Y-70821485D01*
X145502380Y-70821485D02*
X145502380Y-70964342D01*
X145502380Y-70964342D02*
X145454761Y-71059580D01*
X145454761Y-71059580D02*
X145407142Y-71107200D01*
X145407142Y-71107200D02*
X145311904Y-71154819D01*
X145311904Y-71154819D02*
X144930952Y-71154819D01*
X144930952Y-71154819D02*
X144930952Y-70154819D01*
X144930952Y-70154819D02*
X145264285Y-70154819D01*
X145264285Y-70154819D02*
X145359523Y-70202438D01*
X145359523Y-70202438D02*
X145407142Y-70250057D01*
X145407142Y-70250057D02*
X145454761Y-70345295D01*
X145454761Y-70345295D02*
X145454761Y-70440533D01*
X145454761Y-70440533D02*
X145407142Y-70535771D01*
X145407142Y-70535771D02*
X145359523Y-70583390D01*
X145359523Y-70583390D02*
X145264285Y-70631009D01*
X145264285Y-70631009D02*
X144930952Y-70631009D01*
X145788095Y-70154819D02*
X146359523Y-70154819D01*
X146073809Y-71154819D02*
X146073809Y-70154819D01*
X147216666Y-71154819D02*
X146645238Y-71154819D01*
X146930952Y-71154819D02*
X146930952Y-70154819D01*
X146930952Y-70154819D02*
X146835714Y-70297676D01*
X146835714Y-70297676D02*
X146740476Y-70392914D01*
X146740476Y-70392914D02*
X146645238Y-70440533D01*
X162518743Y-98255415D02*
X162929816Y-97844456D01*
X162419515Y-97692668D02*
X163404323Y-97519019D01*
X163404323Y-97519019D02*
X163470475Y-97894184D01*
X163470475Y-97894184D02*
X163440117Y-97996244D01*
X163440117Y-97996244D02*
X163401490Y-98051409D01*
X163401490Y-98051409D02*
X163315968Y-98114843D01*
X163315968Y-98114843D02*
X163175281Y-98139649D01*
X163175281Y-98139649D02*
X163073221Y-98109292D01*
X163073221Y-98109292D02*
X163018057Y-98070665D01*
X163018057Y-98070665D02*
X162954623Y-97985143D01*
X162954623Y-97985143D02*
X162888471Y-97609978D01*
X163561433Y-98410036D02*
X163668930Y-99019679D01*
X163668930Y-99019679D02*
X163235882Y-98757561D01*
X163235882Y-98757561D02*
X163260689Y-98898248D01*
X163260689Y-98898248D02*
X163230331Y-99000308D01*
X163230331Y-99000308D02*
X163191705Y-99055473D01*
X163191705Y-99055473D02*
X163106183Y-99118906D01*
X163106183Y-99118906D02*
X162871705Y-99160251D01*
X162871705Y-99160251D02*
X162769644Y-99129893D01*
X162769644Y-99129893D02*
X162714480Y-99091267D01*
X162714480Y-99091267D02*
X162651046Y-99005745D01*
X162651046Y-99005745D02*
X162601433Y-98724371D01*
X162601433Y-98724371D02*
X162631790Y-98622311D01*
X162631790Y-98622311D02*
X162670417Y-98567146D01*
X175491905Y-116494819D02*
X175491905Y-115494819D01*
X175491905Y-115494819D02*
X175730000Y-115494819D01*
X175730000Y-115494819D02*
X175872857Y-115542438D01*
X175872857Y-115542438D02*
X175968095Y-115637676D01*
X175968095Y-115637676D02*
X176015714Y-115732914D01*
X176015714Y-115732914D02*
X176063333Y-115923390D01*
X176063333Y-115923390D02*
X176063333Y-116066247D01*
X176063333Y-116066247D02*
X176015714Y-116256723D01*
X176015714Y-116256723D02*
X175968095Y-116351961D01*
X175968095Y-116351961D02*
X175872857Y-116447200D01*
X175872857Y-116447200D02*
X175730000Y-116494819D01*
X175730000Y-116494819D02*
X175491905Y-116494819D01*
X176968095Y-115494819D02*
X176491905Y-115494819D01*
X176491905Y-115494819D02*
X176444286Y-115971009D01*
X176444286Y-115971009D02*
X176491905Y-115923390D01*
X176491905Y-115923390D02*
X176587143Y-115875771D01*
X176587143Y-115875771D02*
X176825238Y-115875771D01*
X176825238Y-115875771D02*
X176920476Y-115923390D01*
X176920476Y-115923390D02*
X176968095Y-115971009D01*
X176968095Y-115971009D02*
X177015714Y-116066247D01*
X177015714Y-116066247D02*
X177015714Y-116304342D01*
X177015714Y-116304342D02*
X176968095Y-116399580D01*
X176968095Y-116399580D02*
X176920476Y-116447200D01*
X176920476Y-116447200D02*
X176825238Y-116494819D01*
X176825238Y-116494819D02*
X176587143Y-116494819D01*
X176587143Y-116494819D02*
X176491905Y-116447200D01*
X176491905Y-116447200D02*
X176444286Y-116399580D01*
X165931905Y-92564819D02*
X165931905Y-91564819D01*
X165931905Y-91564819D02*
X166170000Y-91564819D01*
X166170000Y-91564819D02*
X166312857Y-91612438D01*
X166312857Y-91612438D02*
X166408095Y-91707676D01*
X166408095Y-91707676D02*
X166455714Y-91802914D01*
X166455714Y-91802914D02*
X166503333Y-91993390D01*
X166503333Y-91993390D02*
X166503333Y-92136247D01*
X166503333Y-92136247D02*
X166455714Y-92326723D01*
X166455714Y-92326723D02*
X166408095Y-92421961D01*
X166408095Y-92421961D02*
X166312857Y-92517200D01*
X166312857Y-92517200D02*
X166170000Y-92564819D01*
X166170000Y-92564819D02*
X165931905Y-92564819D01*
X166836667Y-91564819D02*
X167455714Y-91564819D01*
X167455714Y-91564819D02*
X167122381Y-91945771D01*
X167122381Y-91945771D02*
X167265238Y-91945771D01*
X167265238Y-91945771D02*
X167360476Y-91993390D01*
X167360476Y-91993390D02*
X167408095Y-92041009D01*
X167408095Y-92041009D02*
X167455714Y-92136247D01*
X167455714Y-92136247D02*
X167455714Y-92374342D01*
X167455714Y-92374342D02*
X167408095Y-92469580D01*
X167408095Y-92469580D02*
X167360476Y-92517200D01*
X167360476Y-92517200D02*
X167265238Y-92564819D01*
X167265238Y-92564819D02*
X166979524Y-92564819D01*
X166979524Y-92564819D02*
X166884286Y-92517200D01*
X166884286Y-92517200D02*
X166836667Y-92469580D01*
X180491905Y-128994819D02*
X180491905Y-127994819D01*
X180491905Y-127994819D02*
X180730000Y-127994819D01*
X180730000Y-127994819D02*
X180872857Y-128042438D01*
X180872857Y-128042438D02*
X180968095Y-128137676D01*
X180968095Y-128137676D02*
X181015714Y-128232914D01*
X181015714Y-128232914D02*
X181063333Y-128423390D01*
X181063333Y-128423390D02*
X181063333Y-128566247D01*
X181063333Y-128566247D02*
X181015714Y-128756723D01*
X181015714Y-128756723D02*
X180968095Y-128851961D01*
X180968095Y-128851961D02*
X180872857Y-128947200D01*
X180872857Y-128947200D02*
X180730000Y-128994819D01*
X180730000Y-128994819D02*
X180491905Y-128994819D01*
X181920476Y-127994819D02*
X181730000Y-127994819D01*
X181730000Y-127994819D02*
X181634762Y-128042438D01*
X181634762Y-128042438D02*
X181587143Y-128090057D01*
X181587143Y-128090057D02*
X181491905Y-128232914D01*
X181491905Y-128232914D02*
X181444286Y-128423390D01*
X181444286Y-128423390D02*
X181444286Y-128804342D01*
X181444286Y-128804342D02*
X181491905Y-128899580D01*
X181491905Y-128899580D02*
X181539524Y-128947200D01*
X181539524Y-128947200D02*
X181634762Y-128994819D01*
X181634762Y-128994819D02*
X181825238Y-128994819D01*
X181825238Y-128994819D02*
X181920476Y-128947200D01*
X181920476Y-128947200D02*
X181968095Y-128899580D01*
X181968095Y-128899580D02*
X182015714Y-128804342D01*
X182015714Y-128804342D02*
X182015714Y-128566247D01*
X182015714Y-128566247D02*
X181968095Y-128471009D01*
X181968095Y-128471009D02*
X181920476Y-128423390D01*
X181920476Y-128423390D02*
X181825238Y-128375771D01*
X181825238Y-128375771D02*
X181634762Y-128375771D01*
X181634762Y-128375771D02*
X181539524Y-128423390D01*
X181539524Y-128423390D02*
X181491905Y-128471009D01*
X181491905Y-128471009D02*
X181444286Y-128566247D01*
X107193465Y-82264036D02*
X106612200Y-82263955D01*
X106865707Y-82732123D02*
X106046555Y-82158546D01*
X106046555Y-82158546D02*
X106265060Y-81846488D01*
X106265060Y-81846488D02*
X106358694Y-81795787D01*
X106358694Y-81795787D02*
X106425014Y-81784093D01*
X106425014Y-81784093D02*
X106530342Y-81799712D01*
X106530342Y-81799712D02*
X106647363Y-81881652D01*
X106647363Y-81881652D02*
X106698065Y-81975285D01*
X106698065Y-81975285D02*
X106709759Y-82041606D01*
X106709759Y-82041606D02*
X106694140Y-82146933D01*
X106694140Y-82146933D02*
X106475634Y-82458991D01*
X106565505Y-81417409D02*
X106947889Y-80871307D01*
X106947889Y-80871307D02*
X107521223Y-81795949D01*
X120879543Y-127177902D02*
X120307095Y-127278758D01*
X120638047Y-127695792D02*
X119731739Y-127273174D01*
X119731739Y-127273174D02*
X119892737Y-126927914D01*
X119892737Y-126927914D02*
X119976144Y-126861724D01*
X119976144Y-126861724D02*
X120039426Y-126838691D01*
X120039426Y-126838691D02*
X120145866Y-126835783D01*
X120145866Y-126835783D02*
X120275338Y-126896157D01*
X120275338Y-126896157D02*
X120341529Y-126979564D01*
X120341529Y-126979564D02*
X120364561Y-127042846D01*
X120364561Y-127042846D02*
X120367470Y-127149285D01*
X120367470Y-127149285D02*
X120206472Y-127494546D01*
X120220548Y-126450273D02*
X120197515Y-126386991D01*
X120197515Y-126386991D02*
X120194607Y-126280551D01*
X120194607Y-126280551D02*
X120295230Y-126064764D01*
X120295230Y-126064764D02*
X120378637Y-125998573D01*
X120378637Y-125998573D02*
X120441920Y-125975541D01*
X120441920Y-125975541D02*
X120548359Y-125972632D01*
X120548359Y-125972632D02*
X120634674Y-126012882D01*
X120634674Y-126012882D02*
X120744022Y-126116413D01*
X120744022Y-126116413D02*
X121020416Y-126875800D01*
X121020416Y-126875800D02*
X121282037Y-126314752D01*
X132991905Y-96494819D02*
X132991905Y-95494819D01*
X132991905Y-95494819D02*
X133230000Y-95494819D01*
X133230000Y-95494819D02*
X133372857Y-95542438D01*
X133372857Y-95542438D02*
X133468095Y-95637676D01*
X133468095Y-95637676D02*
X133515714Y-95732914D01*
X133515714Y-95732914D02*
X133563333Y-95923390D01*
X133563333Y-95923390D02*
X133563333Y-96066247D01*
X133563333Y-96066247D02*
X133515714Y-96256723D01*
X133515714Y-96256723D02*
X133468095Y-96351961D01*
X133468095Y-96351961D02*
X133372857Y-96447200D01*
X133372857Y-96447200D02*
X133230000Y-96494819D01*
X133230000Y-96494819D02*
X132991905Y-96494819D01*
X134515714Y-96494819D02*
X133944286Y-96494819D01*
X134230000Y-96494819D02*
X134230000Y-95494819D01*
X134230000Y-95494819D02*
X134134762Y-95637676D01*
X134134762Y-95637676D02*
X134039524Y-95732914D01*
X134039524Y-95732914D02*
X133944286Y-95780533D01*
D12*
%TO.C,R4*%
X162421384Y-108265459D02*
X163557043Y-114706102D01*
X162746371Y-108208155D02*
X162421384Y-108265459D01*
X163557043Y-114706102D02*
X163882030Y-114648798D01*
X164794771Y-107846967D02*
X165119758Y-107789663D01*
X165119758Y-107789663D02*
X166255417Y-114230306D01*
X166255417Y-114230306D02*
X165930430Y-114287610D01*
%TO.C,SW1*%
X113250000Y-76500000D02*
X113250000Y-78000000D01*
X114500000Y-80500000D02*
X119000000Y-80500000D01*
X119000000Y-74000000D02*
X114500000Y-74000000D01*
X120250000Y-78000000D02*
X120250000Y-76500000D01*
%TO.C,R1*%
X133040000Y-108630000D02*
X139580000Y-108630000D01*
X133040000Y-108960000D02*
X133040000Y-108630000D01*
X133040000Y-111040000D02*
X133040000Y-111370000D01*
X133040000Y-111370000D02*
X139580000Y-111370000D01*
X139580000Y-108630000D02*
X139580000Y-108960000D01*
X139580000Y-111370000D02*
X139580000Y-111040000D01*
%TO.C,R5*%
X168082984Y-119517577D02*
X169218643Y-125958220D01*
X168407971Y-119460273D02*
X168082984Y-119517577D01*
X169218643Y-125958220D02*
X169543630Y-125900916D01*
X170456371Y-119099085D02*
X170781358Y-119041781D01*
X170781358Y-119041781D02*
X171917017Y-125482424D01*
X171917017Y-125482424D02*
X171592030Y-125539728D01*
%TO.C,D4*%
X168710000Y-103455000D02*
X168710000Y-106545000D01*
X168710000Y-103455170D02*
G75*
G02*
X174260000Y-105000462I2560000J-1544830D01*
G01*
X174260000Y-104999538D02*
G75*
G02*
X168710000Y-106544830I-2990000J-462D01*
G01*
X173770000Y-105000000D02*
G75*
G02*
X168770000Y-105000000I-2500000J0D01*
G01*
X168770000Y-105000000D02*
G75*
G02*
X173770000Y-105000000I2500000J0D01*
G01*
%TO.C,Q1*%
X108200000Y-88120000D02*
X111800000Y-88120000D01*
X108188547Y-88112156D02*
G75*
G02*
X109180000Y-83820000I1811453J1842156D01*
G01*
X110780000Y-83820000D02*
G75*
G02*
X111808445Y-88097684I-780000J-2450000D01*
G01*
%TO.C,R6*%
X181130000Y-139230000D02*
X181460000Y-139230000D01*
X181130000Y-145770000D02*
X181130000Y-139230000D01*
X181460000Y-145770000D02*
X181130000Y-145770000D01*
X183540000Y-145770000D02*
X183870000Y-145770000D01*
X183870000Y-139230000D02*
X183540000Y-139230000D01*
X183870000Y-145770000D02*
X183870000Y-139230000D01*
%TO.C,D2*%
X126230000Y-115000000D02*
G75*
G02*
X121230000Y-115000000I-2500000J0D01*
G01*
X121230000Y-115000000D02*
G75*
G02*
X126230000Y-115000000I2500000J0D01*
G01*
X126720000Y-114999538D02*
G75*
G02*
X121170000Y-116544830I-2990000J-462D01*
G01*
X121170000Y-113455170D02*
G75*
G02*
X126720000Y-115000462I2560000J-1544830D01*
G01*
X121170000Y-113455000D02*
X121170000Y-116545000D01*
%TO.C,BT1*%
X160920243Y-88848169D02*
G75*
G02*
X157595000Y-89810000I-2015243J738169D01*
G01*
X145591646Y-89826530D02*
G75*
G02*
X142255000Y-88840000I-1306646J1716531D01*
G01*
X162375000Y-84890000D02*
X160935000Y-88840000D01*
X162375000Y-84260000D02*
X162375000Y-84890000D01*
X162375000Y-75800000D02*
X162375000Y-78260000D01*
X160295000Y-73720000D02*
X162375000Y-75800000D01*
X160295000Y-73720000D02*
X156795000Y-73720000D01*
X146395000Y-73720000D02*
X142895000Y-73720000D01*
X142895000Y-73720000D02*
X140815000Y-75800000D01*
X140815000Y-84890000D02*
X142255000Y-88840000D01*
X140815000Y-84260000D02*
X140815000Y-84890000D01*
X140815000Y-75800000D02*
X140815000Y-78260000D01*
%TO.C,R3*%
X158744583Y-95769694D02*
X159880242Y-102210337D01*
X159069570Y-95712390D02*
X158744583Y-95769694D01*
X159880242Y-102210337D02*
X160205229Y-102153033D01*
X161117970Y-95351202D02*
X161442957Y-95293898D01*
X161442957Y-95293898D02*
X162578616Y-101734541D01*
X162578616Y-101734541D02*
X162253629Y-101791845D01*
%TO.C,D5*%
X173670000Y-118455000D02*
X173670000Y-121545000D01*
X173670000Y-118455170D02*
G75*
G02*
X179220000Y-120000462I2560000J-1544830D01*
G01*
X179220000Y-119999538D02*
G75*
G02*
X173670000Y-121544830I-2990000J-462D01*
G01*
X178730000Y-120000000D02*
G75*
G02*
X173730000Y-120000000I-2500000J0D01*
G01*
X173730000Y-120000000D02*
G75*
G02*
X178730000Y-120000000I2500000J0D01*
G01*
%TO.C,D3*%
X169170000Y-96070000D02*
G75*
G02*
X164170000Y-96070000I-2500000J0D01*
G01*
X164170000Y-96070000D02*
G75*
G02*
X169170000Y-96070000I2500000J0D01*
G01*
X169660000Y-96069538D02*
G75*
G02*
X164110000Y-97614830I-2990000J-462D01*
G01*
X164110000Y-94525170D02*
G75*
G02*
X169660000Y-96070462I2560000J-1544830D01*
G01*
X164110000Y-94525000D02*
X164110000Y-97615000D01*
%TO.C,D6*%
X178670000Y-130955000D02*
X178670000Y-134045000D01*
X178670000Y-130955170D02*
G75*
G02*
X184220000Y-132500462I2560000J-1544830D01*
G01*
X184220000Y-132499538D02*
G75*
G02*
X178670000Y-134044830I-2990000J-462D01*
G01*
X183730000Y-132500000D02*
G75*
G02*
X178730000Y-132500000I-2500000J0D01*
G01*
X178730000Y-132500000D02*
G75*
G02*
X183730000Y-132500000I2500000J0D01*
G01*
%TO.C,R7*%
X101304735Y-87910971D02*
X93735769Y-82611124D01*
X102233354Y-86584763D02*
X94664389Y-81284917D01*
X103108008Y-69226179D02*
X93735769Y-82611124D01*
X109748352Y-75852232D02*
X102179388Y-70552387D01*
X110676972Y-74526026D02*
X101304735Y-87910971D01*
X110676972Y-74526026D02*
X103108008Y-69226179D01*
%TO.C,R2*%
X115766221Y-128217672D02*
X116065303Y-128357136D01*
X118249505Y-129375647D02*
X117950423Y-129236182D01*
X118530144Y-122290419D02*
X115766221Y-128217672D01*
X118829226Y-122429883D02*
X118530144Y-122290419D01*
X120714346Y-123308929D02*
X121013428Y-123448393D01*
X121013428Y-123448393D02*
X118249505Y-129375647D01*
%TO.C,D1*%
X131170000Y-98455000D02*
X131170000Y-101545000D01*
X131170000Y-98455170D02*
G75*
G02*
X136720000Y-100000462I2560000J-1544830D01*
G01*
X136720000Y-99999538D02*
G75*
G02*
X131170000Y-101544830I-2990000J-462D01*
G01*
X136230000Y-100000000D02*
G75*
G02*
X131230000Y-100000000I-2500000J0D01*
G01*
X131230000Y-100000000D02*
G75*
G02*
X136230000Y-100000000I2500000J0D01*
G01*
%TD*%
M02*
